<?xml version="1.0" standalone="no"?>
<!DOCTYPE svg PUBLIC "-//W3C//DTD SVG 1.1//EN" "http://www.w3.org/Graphics/SVG/1.1/DTD/svg11.dtd" >
<svg xmlns="http://www.w3.org/2000/svg" xmlns:xlink="http://www.w3.org/1999/xlink" version="1.1">
<metadata>
Created by FontForge 20170731 at Wed Aug  3 20:44:38 2016
 By Aleksey,,,
Copyright (c) 2016 by Rede Globo. All rights reserved.
</metadata>
<defs>
<font id="GlobotipoTexto-Light" horiz-adv-x="0" >
  <font-face 
    font-family="Globotipo Texto Light"
    font-weight="300"
    font-stretch="normal"
    units-per-em="1000"
    panose-1="0 0 4 0 0 0 0 0 0 0"
    ascent="800"
    descent="-200"
    x-height="480"
    cap-height="710"
    bbox="-229.333 -209 999 914"
    underline-thickness="50"
    underline-position="-250"
    unicode-range="U+0020-FB02"
  />
<missing-glyph horiz-adv-x="700" 
d="M350 709q146 0 250 -104t104 -250q0 -147 -104 -251t-250 -104q-147 0 -251 104t-104 251q0 146 104 250t251 104zM350 20q138 0 236 98t98 237q0 138 -98 236t-236 98q-139 0 -237 -98t-98 -236q0 -139 98 -237t237 -98zM555 573l14 -14l-205 -205l205 -205l-14 -14
l-205 205l-205 -205l-14 14l205 205l-205 205l14 14l205 -205z" />
    <glyph glyph-name="fi" unicode="fi" horiz-adv-x="553" 
d="M332 744q7 -5 7 -12v-21q0 -10 -6 -10q-4 0 -8 2q-28 13 -62 13q-92 0 -92 -102v-134h150q8 0 8 -8v-23q0 -8 -8 -8h-150v-433q0 -8 -8 -8h-34q-8 0 -8 8v433h-82q-8 0 -8 8v23q0 8 8 8h82v135q0 144 133 144q45 0 78 -15zM443 726q18 0 30 -13t12 -31t-12 -30.5
t-30 -12.5q-19 0 -30.5 12.5t-11.5 30.5q0 19 11 31.5t31 12.5zM459 480q8 0 8 -8v-464q0 -8 -8 -8h-33q-8 0 -8 8v464q0 8 8 8h33z" />
    <glyph glyph-name="fl" unicode="fl" horiz-adv-x="587" 
d="M332 744q7 -5 7 -12v-21q0 -10 -6 -10q-4 0 -8 2q-28 13 -62 13q-92 0 -92 -102v-134h150q8 0 8 -8v-23q0 -8 -8 -8h-150v-433q0 -8 -8 -8h-34q-8 0 -8 8v433h-82q-8 0 -8 8v23q0 8 8 8h82v135q0 144 133 144q45 0 78 -15zM566 46q4 2 5 2q4 0 4 -8v-26q0 -8 -7 -11
q-29 -13 -66 -13q-92 0 -92 99v652q0 8 8 8h34q8 0 8 -8v-646q0 -61 56 -61q28 0 50 12z" />
    <glyph glyph-name=".notdef" horiz-adv-x="700" 
d="M350 709q146 0 250 -104t104 -250q0 -147 -104 -251t-250 -104q-147 0 -251 104t-104 251q0 146 104 250t251 104zM350 20q138 0 236 98t98 237q0 138 -98 236t-236 98q-139 0 -237 -98t-98 -236q0 -139 98 -237t237 -98zM555 573l14 -14l-205 -205l205 -205l-14 -14
l-205 205l-205 -205l-14 14l205 205l-205 205l14 14l205 -205z" />
    <glyph glyph-name=".null" 
 />
    <glyph glyph-name="nonmarkingreturn" horiz-adv-x="333" 
 />
    <glyph glyph-name="space" unicode=" " horiz-adv-x="218" 
 />
    <glyph glyph-name="exclam" unicode="!" horiz-adv-x="216" 
d="M96 171q-8 0 -8 8l-7 523q0 8 8 8h37q8 0 8 -8l-7 -523q0 -8 -8 -8h-23zM109 -7q-22 0 -35.5 15t-13.5 37t13.5 36.5t35.5 14.5q21 0 34.5 -14.5t13.5 -36.5t-13.5 -37t-34.5 -15z" />
    <glyph glyph-name="quotedbl" unicode="&#x22;" horiz-adv-x="332" 
d="M69 495q-8 0 -8 8l-9 199q0 8 8 8h37q8 0 8 -8l-10 -199q0 -8 -8 -8h-18zM201 495q-8 0 -8 8l-9 199q0 8 8 8h37q8 0 8 -8l-10 -199q0 -8 -8 -8h-18z" />
    <glyph glyph-name="numbersign" unicode="#" horiz-adv-x="631" 
d="M591 512q8 0 8 -8v-22q0 -6 -6 -6h-130l-45 -221h146q6 0 6 -6v-24q0 -6 -6 -6h-154l-43 -211q-2 -8 -10 -8h-23q-6 0 -5 5l44 214h-184l-44 -213q-1 -6 -7 -6h-22q-9 0 -6 8l43 211h-104q-8 0 -8 8v20q0 8 8 8h112l45 221h-130q-6 0 -6 6v22q0 8 8 8h136l39 190
q2 8 10 8h23q6 0 5 -5l-40 -193h183l40 192q2 6 7 6h23q9 0 6 -8l-39 -190h120zM381 255l46 221h-184l-46 -221h184z" />
    <glyph glyph-name="dollar" unicode="$" horiz-adv-x="585" 
d="M504 203q0 -87 -60 -139t-158 -56l-10 -132q-2 -8 -9 -8h-19q-8 0 -7 8l10 133q-96 6 -162 48q-7 3 -7 12v35q0 9 7 3q75 -49 166 -55l23 299q-35 12 -52 19t-47.5 23t-45.5 33t-27.5 44.5t-12.5 61.5q0 74 59.5 122t148.5 48h3l9 123q2 8 9 8h20q8 0 7 -8l-10 -125
q70 -7 131 -40q7 -5 7 -12v-34q0 -8 -7 -4q-61 38 -134 46l-21 -266q94 -31 141.5 -73t47.5 -114zM146 535q0 -53 35 -82.5t100 -51.5l19 257q-66 -1 -110 -35.5t-44 -87.5zM290 53q72 4 116.5 42.5t44.5 104.5q0 55 -34.5 84.5t-104.5 54.5z" />
    <glyph glyph-name="percent" unicode="%" horiz-adv-x="688" 
d="M97 -14q-7 4 -3 11l457 723q4 7 11 3l9 -6q7 -4 3 -11l-457 -723q-4 -7 -11 -3zM180 427q-48 0 -81.5 40.5t-33.5 105.5q0 66 33 106.5t82 40.5q48 0 81.5 -40.5t33.5 -106.5q0 -64 -33.5 -105t-81.5 -41zM180 459q34 0 57 31.5t23 82.5q0 53 -22.5 84t-57.5 31t-58 -31
t-23 -84q0 -51 23 -82.5t58 -31.5zM508 -10q-48 0 -81.5 40.5t-33.5 105.5q0 66 33 106.5t82 40.5t82 -40.5t33 -106.5q0 -65 -33.5 -105.5t-81.5 -40.5zM508 22q34 0 57 31.5t23 82.5q0 53 -22.5 84t-57.5 31t-58 -31t-23 -84q0 -51 23.5 -82.5t57.5 -31.5z" />
    <glyph glyph-name="ampersand" unicode="&#x26;" horiz-adv-x="626" 
d="M584 5q4 -6 -3 -6h-45q-8 0 -13 6l-63 68q-80 -83 -198 -83q-96 0 -158.5 50.5t-62.5 132.5q0 64 37.5 114t109.5 80q-82 95 -82 179q0 78 54 126t133 48q64 0 117 -17q8 -3 8 -11v-31q0 -8 -7 -5q-48 21 -110 21q-60 0 -102.5 -37t-42.5 -97q0 -50 29.5 -96t91.5 -112
l181 -195q51 76 51 180q0 38 -7 72q0 8 7 8h29q8 0 9 -8q6 -36 6 -69q0 -125 -64 -216zM265 34q99 0 165 71l-136 151l-21 20l-43 45l-16 17q-123 -53 -123 -161q0 -65 48.5 -104t125.5 -39z" />
    <glyph glyph-name="quotesingle" unicode="'" horiz-adv-x="181" 
d="M81 495q-8 0 -8 8l-9 199q0 8 8 8h37q8 0 8 -8l-10 -199q0 -8 -8 -8h-18z" />
    <glyph glyph-name="parenleft" unicode="(" horiz-adv-x="285" 
d="M258 -103q4 -6 -3 -6h-25q-8 0 -14 6q-74 77 -116.5 184.5t-42.5 219.5t42.5 219t116.5 184q6 6 14 6h25q8 0 3 -6q-72 -81 -114.5 -191t-42.5 -212q0 -103 42 -213t115 -191z" />
    <glyph glyph-name="parenright" unicode=")" horiz-adv-x="285" 
d="M30 -109q-8 0 -3 6q73 81 115 191t42 213q0 102 -42.5 212t-114.5 191q-5 6 3 6h25q8 0 14 -6q74 -77 116.5 -184t42.5 -219t-42.5 -219.5t-116.5 -184.5q-6 -6 -14 -6h-25z" />
    <glyph glyph-name="asterisk" unicode="*" horiz-adv-x="397" 
d="M361 581q1 -2 1 -4q0 -5 -6 -6l-31 -7l-15 -3l-96 -22l66 -74q4 -3 11 -12l19 -24q6 -6 -1 -11l-25 -18q-6 -4 -11 2l-16 27l-8 14l-51 84l-49 -84l-8 -14l-17 -26q-5 -7 -11 -2l-25 18q-6 5 -1 11l20 23l11 12l65 74l-96 21q-2 0 -7 2t-8 2l-31 8q-8 2 -5 9l10 30
q2 8 10 4l28 -12l15 -6l90 -39l-9 97q-1 3 -1.5 8t-0.5 8l-1 31v2q0 6 7 6h31q8 0 7 -8l-2 -31q-1 -3 -1.5 -8t-0.5 -8l-9 -97l89 39q5 2 15 7l29 11q1 1 4 1q4 0 6 -6z" />
    <glyph glyph-name="plus" unicode="+" horiz-adv-x="550" 
d="M503 318q8 0 8 -8v-28q0 -8 -8 -8h-207v-216q0 -8 -8 -8h-26q-8 0 -8 8v216h-207q-8 0 -8 8v28q0 8 8 8h207v215q0 8 8 8h26q8 0 8 -8v-215h207z" />
    <glyph glyph-name="comma" unicode="," horiz-adv-x="213" 
d="M106 96q21 0 35.5 -14t14.5 -37q0 -16 -22 -71l-45 -105q-3 -7 -10 -7h-10q-9 0 -6 9l37 122q-18 2 -30 16t-12 34q0 24 14.5 38.5t33.5 14.5z" />
    <glyph glyph-name="hyphen" unicode="-" horiz-adv-x="393" 
d="M70 238q-8 0 -8 8v27q0 8 8 8h253q8 0 8 -8v-27q0 -8 -8 -8h-253z" />
    <glyph glyph-name="period" unicode="." horiz-adv-x="213" 
d="M107 -7q-22 0 -35.5 15t-13.5 37t13.5 36.5t35.5 14.5q21 0 34.5 -14.5t13.5 -36.5t-13.5 -37t-34.5 -15z" />
    <glyph glyph-name="slash" unicode="/" horiz-adv-x="328" 
d="M11 -102q-8 0 -5 8l281 850q3 8 11 8h23q8 0 5 -8l-281 -850q-3 -8 -11 -8h-23z" />
    <glyph glyph-name="zero" unicode="0" horiz-adv-x="646" 
d="M323 -11q-115 0 -188 95.5t-73 267.5t74 270t187 98t186.5 -98.5t73.5 -269.5t-73 -267t-187 -96zM323 38q94 0 152 82t58 232t-58.5 235t-151.5 85t-151.5 -85t-58.5 -235t58 -232t152 -82z" />
    <glyph glyph-name="one" unicode="1" horiz-adv-x="424" 
d="M263 710q8 0 8 -8v-694q0 -8 -8 -8h-35q-8 0 -8 8v642l-163 -80q-7 -5 -7 4v31q0 8 7 12l180 89q5 4 15 4h11z" />
    <glyph glyph-name="two" unicode="2" horiz-adv-x="534" 
d="M479 45q8 0 8 -8v-29q0 -8 -8 -8h-425q-13 0 -13 9q0 4 7 13l245 299q42 52 60 76.5t35 62.5t17 74q0 61 -50.5 101t-129.5 40q-89 0 -158 -39q-10 -5 -11 -5q-3 0 -3 5v31q0 8 7 12q72 41 176 41q98 0 159 -49.5t61 -129.5q0 -59 -27 -108.5t-87 -121.5l-222 -266h359z
" />
    <glyph glyph-name="three" unicode="3" horiz-adv-x="528" 
d="M278 379q90 -11 144.5 -61.5t54.5 -122.5q0 -87 -69 -146t-177 -59q-102 0 -176 36q-7 4 -7 11v34q0 8 7 4q79 -38 173 -38q87 0 142 46t55 114q0 70 -64 112.5t-178 42.5h-22q-8 0 -8 8v29q0 8 8 8h22q100 0 155.5 44t55.5 103q0 57 -47.5 93.5t-126.5 36.5t-149 -39
q-7 -3 -7 4v35q0 8 7 11q74 35 155 35q99 0 158.5 -47.5t59.5 -119.5q0 -59 -44 -108.5t-122 -65.5z" />
    <glyph glyph-name="four" unicode="4" horiz-adv-x="576" 
d="M536 188q8 0 8 -8v-28q0 -8 -8 -8h-100v-136q0 -8 -8 -8h-34q-8 0 -8 8v136h-356q-8 0 -8 8v22q0 9 5 15l364 514q4 7 13 7h24q8 0 8 -8v-514h100zM388 624q-36 -54 -55 -80l-259 -356h313v342q0 62 1 94z" />
    <glyph glyph-name="five" unicode="5" horiz-adv-x="539" 
d="M241 446q107 0 177 -59.5t70 -159.5q0 -106 -79.5 -171.5t-199.5 -65.5q-85 0 -151 32q-7 5 -7 12v31q0 5 3 5h1q1 -1 2 -1q71 -34 148 -34q100 0 165.5 53t65.5 137q0 81 -59.5 131t-152.5 50q-37 0 -70 -8.5t-53 -17t-23 -8.5q-7 0 -7 8q0 6 3 19l62 303q2 8 10 8h301
q8 0 8 -8v-30q0 -8 -8 -8h-274l-49 -237q48 19 117 19z" />
    <glyph glyph-name="six" unicode="6" horiz-adv-x="557" 
d="M285 429q97 0 160.5 -61t63.5 -157q0 -95 -68.5 -158t-161.5 -63q-98 0 -164 61t-66 154q0 105 76 201l239 298q4 6 13 6h40q9 0 3 -6l-218 -266l-48 -59q58 50 131 50zM279 35q75 0 129 51.5t54 124.5q0 79 -52 128t-133 49q-77 0 -129 -52.5t-52 -129.5
q0 -72 52.5 -121.5t130.5 -49.5z" />
    <glyph glyph-name="seven" unicode="7" horiz-adv-x="506" 
d="M475 710q8 0 4 -7l-355 -696q-5 -7 -12 -7h-38q-8 0 -4 7l339 655h-352q-8 0 -8 8v32q0 8 8 8h418z" />
    <glyph glyph-name="eight" unicode="8" horiz-adv-x="588" 
d="M294 -8q-98 0 -165 56t-67 146q0 68 43.5 118t107.5 67q-55 18 -88 62.5t-33 101.5q0 76 58 126.5t144 50.5t144 -50.5t58 -126.5q0 -57 -33 -101.5t-88 -62.5q64 -16 108 -66.5t44 -118.5q0 -90 -67 -146t-166 -56zM294 397q70 0 113 41t43 102q0 58 -45.5 97.5
t-110.5 39.5t-110 -39.5t-45 -97.5q0 -60 43 -101.5t112 -41.5zM294 36q78 0 130.5 45.5t52.5 114.5q0 70 -53.5 115t-129.5 45q-75 0 -128.5 -45t-53.5 -115q0 -69 52 -114.5t130 -45.5z" />
    <glyph glyph-name="nine" unicode="9" horiz-adv-x="557" 
d="M275 720q98 0 164 -61t66 -154q0 -105 -76 -201l-239 -298q-4 -6 -13 -6h-40q-9 0 -3 6l218 266l48 59q-58 -50 -131 -50q-97 0 -160.5 61t-63.5 157q0 95 68.5 158t161.5 63zM277 322q77 0 129 52.5t52 129.5q0 72 -52.5 121.5t-130.5 49.5q-75 0 -129 -51.5t-54 -124.5
q0 -79 52 -128t133 -49z" />
    <glyph glyph-name="colon" unicode=":" horiz-adv-x="211" 
d="M106 305q-22 0 -35 15t-13 37q0 21 13 35.5t35 14.5q21 0 34.5 -14.5t13.5 -35.5q0 -22 -13.5 -37t-34.5 -15zM106 -9q-22 0 -35 15t-13 37q0 21 13 35.5t35 14.5q21 0 34.5 -14.5t13.5 -35.5q0 -22 -13.5 -37t-34.5 -15z" />
    <glyph glyph-name="semicolon" unicode=";" horiz-adv-x="212" 
d="M107 303q-22 0 -35.5 15t-13.5 37t13.5 36.5t35.5 14.5q21 0 34.5 -14.5t13.5 -36.5t-13.5 -37t-34.5 -15zM106 94q21 0 35 -14t14 -36q0 -19 -21 -71l-45 -104q-3 -7 -10 -7h-10q-9 0 -6 9l36 121q-17 2 -29 16t-12 34q0 23 14.5 37.5t33.5 14.5z" />
    <glyph glyph-name="less" unicode="&#x3c;" horiz-adv-x="550" 
d="M511 7q0 -8 -7 -4l-458 233q-7 5 -7 12v11q0 8 7 12l458 233q7 5 7 -4v-36q0 -8 -7 -12l-395 -198l395 -198q7 -5 7 -12v-37z" />
    <glyph glyph-name="equal" unicode="=" horiz-adv-x="550" 
d="M47 368q-8 0 -8 8v28q0 8 8 8h456q8 0 8 -8v-28q0 -8 -8 -8h-456zM47 173q-8 0 -8 8v28q0 8 8 8h456q8 0 8 -8v-28q0 -8 -8 -8h-456z" />
    <glyph glyph-name="greater" unicode="&#x3e;" horiz-adv-x="550" 
d="M66 3q-7 -5 -7 4v37q0 8 7 12l395 198l-395 198q-7 5 -7 12v36q0 8 7 4l458 -233q7 -5 7 -12v-11q0 -8 -7 -12z" />
    <glyph glyph-name="question" unicode="?" horiz-adv-x="482" 
d="M190 161q-7 0 -7 7l-4 151q0 8 7 11q42 21 68.5 38t55.5 41.5t43.5 55t14.5 67.5q0 64 -48.5 103.5t-123.5 39.5q-80 0 -150 -36q-7 -5 -7 4v30q0 8 7 12q68 35 158 35q96 0 155.5 -50.5t59.5 -131.5q0 -44 -16 -80.5t-47 -65t-61 -47.5t-71 -40l-4 -137q0 -7 -7 -7h-23z
M200 -7q-22 0 -36 14.5t-14 35.5t14 35.5t36 14.5q21 0 35 -14.5t14 -35.5t-14 -35.5t-35 -14.5z" />
    <glyph glyph-name="at" unicode="@" horiz-adv-x="838" 
d="M587 429q8 0 8 -8v-272q0 -36 17 -54.5t46 -18.5q47 0 78.5 54t31.5 131q0 141 -96.5 235.5t-243.5 94.5q-155 0 -256 -102.5t-101 -250.5t102 -253t258 -105q56 0 116.5 14.5t102.5 40.5q5 3 9.5 6t6.5 4t3 1q3 0 3 -6v-21q0 -8 -7 -12q-96 -58 -233 -58
q-168 0 -280.5 113.5t-112.5 275.5t111.5 272.5t277.5 110.5q159 0 265 -104t106 -256q0 -93 -41 -155.5t-105 -62.5q-40 0 -67.5 24t-30.5 67q-22 -45 -61.5 -69t-85.5 -24q-71 0 -126 56t-55 143q0 86 53 141t127 55q102 0 147 -91l1 76q0 8 8 8h24zM417 77q56 0 97 43.5
t41 117.5t-40.5 117.5t-98.5 43.5q-61 0 -103.5 -45t-42.5 -115q0 -72 44 -117t103 -45z" />
    <glyph glyph-name="A" unicode="A" horiz-adv-x="636" 
d="M620 7q4 -7 -5 -7h-41q-8 0 -11 7l-86 221h-321l-87 -221q-3 -7 -11 -7h-38q-8 0 -5 7l282 700q3 7 11 7h21q8 0 11 -7zM174 273h286q-54 140 -142 373q-67 -178 -144 -373z" />
    <glyph glyph-name="B" unicode="B" horiz-adv-x="518" 
d="M315 372q80 -10 126 -57t46 -116q0 -89 -68 -144t-181 -55h-149q-8 0 -8 8v694q0 8 8 8h129q107 0 169 -46.5t62 -127.5q0 -60 -35 -105.5t-99 -57.5v-1zM220 666h-89v-277h106q72 0 117 37.5t45 104.5q0 63 -48 99t-131 36zM237 43q91 0 144 43t53 114q0 66 -50 105.5
t-130 39.5h-123v-302h106z" />
    <glyph glyph-name="C" unicode="C" horiz-adv-x="641" 
d="M412 -11q-158 0 -264 102t-106 268q0 162 107 261.5t265 99.5q80 0 162 -30q7 -4 7 -11v-28q0 -15 -15 -10q-73 32 -150 32q-140 0 -232.5 -86t-92.5 -227q0 -147 92.5 -234.5t232.5 -87.5q84 0 160 31q3 1 8 1q7 0 7 -11v-27q0 -8 -7 -11q-84 -32 -174 -32z" />
    <glyph glyph-name="D" unicode="D" horiz-adv-x="667" 
d="M81 702q0 8 8 8h122q185 0 299.5 -98.5t114.5 -258.5q0 -158 -114 -255.5t-300 -97.5h-122q-8 0 -8 8v694zM213 665h-82v-620h82q163 0 261.5 84t98.5 223q0 142 -98 227.5t-262 85.5z" />
    <glyph glyph-name="E" unicode="E" horiz-adv-x="494" 
d="M432 664h-301v-270h271q8 0 8 -8v-29q0 -8 -8 -8h-271v-303h301q8 0 8 -8v-30q0 -8 -8 -8h-343q-8 0 -8 8v694q0 8 8 8h343q8 0 8 -8v-30q0 -8 -8 -8z" />
    <glyph glyph-name="F" unicode="F" horiz-adv-x="468" 
d="M421 710q8 0 8 -8v-29q0 -8 -8 -8h-290v-295h270q8 0 8 -8v-29q0 -8 -8 -8h-270v-317q0 -8 -8 -8h-34q-8 0 -8 8v694q0 8 8 8h332z" />
    <glyph glyph-name="G" unicode="G" horiz-adv-x="752" 
d="M405 -11q-153 0 -258.5 103t-105.5 263q0 161 109.5 263t269.5 102q135 0 229 -57q7 -3 7 -12v-29q0 -11 -6 -11q-3 0 -9 3q-44 28 -104 43t-115 15q-139 0 -234 -88t-95 -230q0 -140 90.5 -228t220.5 -88q115 0 193 71t78 190h-234q-8 0 -8 8v30q0 8 8 8h272q8 0 9 -8
v-17q0 -156 -89.5 -243.5t-227.5 -87.5z" />
    <glyph glyph-name="H" unicode="H" horiz-adv-x="661" 
d="M573 710q8 0 8 -8v-694q0 -8 -8 -8h-35q-8 0 -8 8v340h-399v-340q0 -8 -8 -8h-34q-8 0 -8 8v694q0 8 8 8h34q8 0 8 -8v-310h399v310q0 8 8 8h35z" />
    <glyph glyph-name="I" unicode="I" horiz-adv-x="239" 
d="M101 0q-8 0 -8 8v694q0 8 8 8h36q8 0 8 -8v-694q0 -8 -8 -8h-36z" />
    <glyph glyph-name="J" unicode="J" horiz-adv-x="373" 
d="M135 -10q-65 0 -113 25q-7 5 -7 12v39q0 5 3 5q2 0 10 -5q43 -26 104 -26q50 0 82 33t32 95v534q0 8 7 8h37q7 0 7 -8v-533q0 -85 -44 -132t-118 -47z" />
    <glyph glyph-name="K" unicode="K" horiz-adv-x="535" 
d="M516 12q5 -5 5 -8q0 -4 -10 -4h-44q-8 0 -13 6l-322 355v-353q0 -8 -8 -8h-36q-8 0 -8 8v694q0 8 8 8h36q8 0 8 -8v-330l314 332q4 6 13 6h43q10 0 10 -4q0 -2 -5 -7l-321 -332z" />
    <glyph glyph-name="L" unicode="L" horiz-adv-x="463" 
d="M428 48q8 0 8 -8v-32q0 -8 -8 -8h-339q-8 0 -8 8v694q0 8 8 8h35q8 0 8 -8v-654h296z" />
    <glyph glyph-name="M" unicode="M" horiz-adv-x="857" 
d="M695 704l126 -696q0 -8 -7 -8h-38q-8 0 -9 8l-106 627l-207 -604q-3 -8 -11 -8h-29q-8 0 -11 8l-208 601l-109 -624q0 -8 -9 -8h-42q-1 0 -1 1l126 703q0 8 9 8h39q8 0 11 -8l211 -606l209 606q3 8 11 8h36q8 0 9 -8z" />
    <glyph glyph-name="N" unicode="N" horiz-adv-x="716" 
d="M627 710q8 0 8 -8v-694q0 -8 -8 -8h-26q-7 0 -13 6l-459 613v-611q0 -8 -8 -8h-32q-8 0 -8 8v694q0 8 8 8h26q7 0 13 -6l459 -615v613q0 8 8 8h32z" />
    <glyph glyph-name="O" unicode="O" horiz-adv-x="819" 
d="M409 -10q-153 0 -260.5 104t-107.5 258q0 157 108 262.5t260 105.5t260 -105.5t108 -262.5q0 -154 -107.5 -258t-260.5 -104zM409 38q133 0 226.5 90.5t93.5 223.5q0 136 -93.5 228t-226.5 92t-226 -92t-93 -228q0 -133 93 -223.5t226 -90.5z" />
    <glyph glyph-name="P" unicode="P" horiz-adv-x="502" 
d="M233 710q109 0 174 -56t65 -149t-65 -149.5t-175 -56.5h-100v-291q0 -8 -8 -8h-35q-8 0 -8 8v694q0 8 8 8h144zM232 343q88 0 138 44t50 118t-50 117.5t-138 43.5h-100v-323h100z" />
    <glyph glyph-name="Q" unicode="Q" horiz-adv-x="825" 
d="M785 -53q5 -6 -1 -11l-22 -21q-6 -5 -11 1l-127 141q-93 -67 -215 -67q-153 0 -260.5 104t-107.5 258q0 157 108 262.5t260 105.5t260 -105.5t108 -262.5q0 -162 -117 -268zM90 352q0 -133 93 -223.5t226 -90.5t226.5 90.5t93.5 223.5q0 136 -93.5 228t-226.5 92
t-226 -92t-93 -228z" />
    <glyph glyph-name="R" unicode="R" horiz-adv-x="538" 
d="M500 12q4 -6 4 -7q0 -5 -10 -5h-42q-7 0 -13 6l-244 329h-64v-327q0 -8 -8 -8h-34q-8 0 -8 8v694q0 8 8 8h140q106 0 169 -50t63 -135q0 -80 -57.5 -131.5t-153.5 -55.5zM131 668v-292h97q85 0 134 40t49 107q0 66 -49 105.5t-134 39.5h-97z" />
    <glyph glyph-name="S" unicode="S" horiz-adv-x="500" 
d="M229 -11q-109 0 -187 46q-5 3 -5 10v37q0 5 2 5t4 -1q80 -50 183 -50q81 0 132 39t51 106q0 57 -43 95t-124 72q-35 16 -57 27.5t-50.5 30.5t-44.5 38t-27.5 46.5t-11.5 59.5q0 74 57.5 122t146.5 48q85 0 154 -31q7 -3 7 -11v-34q0 -6 -3 -6q-2 0 -4 1q-64 35 -151 35
q-66 0 -110.5 -34t-44.5 -88q0 -25 10 -47t22.5 -36t39 -30.5t43 -24.5t50.5 -23q93 -40 142.5 -87.5t49.5 -120.5q0 -86 -64.5 -140t-166.5 -54z" />
    <glyph glyph-name="T" unicode="T" horiz-adv-x="508" 
d="M482 710q8 0 8 -8v-31q0 -8 -8 -8h-203v-655q0 -8 -8 -8h-34q-8 0 -8 8v655h-203q-8 0 -8 8v31q0 8 8 8h456z" />
    <glyph glyph-name="U" unicode="U" horiz-adv-x="649" 
d="M323 -11q-111 0 -177.5 69.5t-66.5 207.5v436q0 8 8 8h35q8 0 8 -8v-439q0 -115 52.5 -170.5t142.5 -55.5q89 0 142 55.5t53 170.5v439q0 8 8 8h34q8 0 8 -8v-436q0 -138 -67.5 -207.5t-179.5 -69.5z" />
    <glyph glyph-name="V" unicode="V" horiz-adv-x="646" 
d="M623 710q8 0 5 -8l-288 -703q-4 -7 -11 -7h-19q-2 0 -3 2l-291 714q-2 2 2 2h45q8 0 11 -7l250 -631l250 631q4 7 11 7h38z" />
    <glyph glyph-name="W" unicode="W" horiz-adv-x="944" 
d="M919 710q7 0 6 -8l-211 -696q-2 -8 -10 -8h-31q-9 0 -10 8l-191 622l-192 -622q-2 -8 -10 -8h-30q-9 0 -10 8l-213 696v3q0 5 6 5h38q9 0 10 -8l186 -632l192 632q2 8 10 8h29q9 0 10 -8l191 -632l186 632q2 8 10 8h34z" />
    <glyph glyph-name="X" unicode="X" horiz-adv-x="613" 
d="M598 6q4 -6 -3 -6h-42q-7 0 -13 6l-235 319l-232 -319q-5 -6 -13 -6h-42q-9 0 -3 6l263 356l-253 342q-4 6 3 6h44q7 0 13 -6l224 -304l218 304q5 6 13 6h44q9 0 3 -6l-251 -342z" />
    <glyph glyph-name="Y" unicode="Y" horiz-adv-x="549" 
d="M256 0q-8 0 -8 8v297l-234 391q-3 4 -3 8q0 6 11 6h34q8 0 12 -7l208 -354l206 354q4 7 12 7h32q11 0 11 -6q0 -2 -3 -8l-234 -391v-297q0 -8 -8 -8h-36z" />
    <glyph glyph-name="Z" unicode="Z" horiz-adv-x="562" 
d="M101 44h407q8 0 8 -8v-28q0 -8 -8 -8h-462q-8 0 -8 8v9q0 8 4 15l402 634h-375q-8 0 -8 8v28q0 8 8 8h430q8 0 8 -8v-9q0 -8 -4 -15z" />
    <glyph glyph-name="bracketleft" unicode="[" horiz-adv-x="276" 
d="M232 -109q0 -8 -8 -8h-135q-8 0 -8 8v811q0 8 8 8h128q8 0 8 -8v-21q0 -8 -8 -8h-95v-753h102q8 0 8 -8v-21z" />
    <glyph glyph-name="backslash" unicode="\" horiz-adv-x="328" 
d="M325 -94q3 -8 -5 -8h-23q-8 0 -11 8l-281 850q-3 8 5 8h23q8 0 11 -8z" />
    <glyph glyph-name="bracketright" unicode="]" horiz-adv-x="276" 
d="M52 -117q-8 0 -8 8v21q0 8 8 8h102v753h-95q-8 0 -8 8v21q0 8 8 8h128q8 0 8 -8v-811q0 -8 -8 -8h-135z" />
    <glyph glyph-name="asciicircum" unicode="^" horiz-adv-x="600" 
d="M463 305q4 -6 -3 -6h-27q-7 0 -13 6l-119 135l-120 -135q-5 -6 -13 -6h-28q-9 0 -3 6l138 173q5 6 13 6h25q7 0 13 -6z" />
    <glyph glyph-name="underscore" unicode="_" horiz-adv-x="525" 
d="M70 -128q-8 0 -8 8v27q0 8 8 8h384q8 0 8 -8v-27q0 -8 -8 -8h-384z" />
    <glyph glyph-name="grave" unicode="`" horiz-adv-x="500" 
d="M330 570q4 -7 -4 -7h-22q-7 0 -13 6l-125 173q-5 6 3 9l38 13q2 1 4 1q5 0 8 -5z" />
    <glyph glyph-name="a" unicode="a" horiz-adv-x="596" 
d="M512 480q8 0 8 -8v-464q0 -8 -8 -8h-34q-8 0 -8 8v104q-25 -58 -77.5 -90t-112.5 -32q-91 0 -161 69t-70 182q0 114 68 181.5t163 67.5q63 0 113.5 -30.5t76.5 -87.5v100q0 8 8 8h34zM287 37q75 0 129.5 55.5t54.5 147.5q0 93 -53.5 148t-130.5 55q-79 0 -133 -55
t-54 -148q0 -92 56 -147.5t131 -55.5z" />
    <glyph glyph-name="b" unicode="b" horiz-adv-x="596" 
d="M317 490q96 0 163 -67.5t67 -181.5t-69 -182.5t-160 -68.5q-60 0 -113.5 32t-78.5 90v-104q0 -8 -8 -8h-33q-8 0 -8 8v733q0 8 8 8h33q8 0 8 -8l1 -366q25 55 77.5 85t112.5 30zM309 37q76 0 131.5 55t55.5 148t-54 148t-133 55q-77 0 -130.5 -55t-53.5 -148t54.5 -148
t129.5 -55z" />
    <glyph glyph-name="c" unicode="c" horiz-adv-x="477" 
d="M306 -10q-108 0 -182.5 69t-74.5 181q0 111 72 180.5t183 69.5q65 0 123 -22q7 -4 7 -11v-26q0 -11 -6 -11q-2 0 -8 2q-47 22 -109 22q-91 0 -151 -56t-60 -148q0 -93 61.5 -148.5t152.5 -55.5q60 0 112 22q6 2 8 2q6 0 6 -11v-25q0 -8 -7 -11q-60 -23 -127 -23z" />
    <glyph glyph-name="d" unicode="d" horiz-adv-x="596" 
d="M511 749q8 0 8 -8v-733q0 -8 -8 -8h-33q-8 0 -8 8v104q-25 -58 -78.5 -90t-113.5 -32q-91 0 -160 68.5t-69 182.5t67 181.5t163 67.5q61 0 113.5 -30.5t77.5 -87.5v369q0 8 8 8h33zM287 37q75 0 129.5 55t54.5 148t-53.5 148t-130.5 55q-79 0 -133 -55t-54 -148
t55.5 -148t131.5 -55z" />
    <glyph glyph-name="e" unicode="e" horiz-adv-x="522" 
d="M464 259h-364v-16q0 -94 56 -151t142 -57q57 0 108 22q16 7 31.5 17t23 15.5t9.5 5.5q4 0 4 -8v-27q0 -8 -6 -13q-74 -57 -175 -57q-107 0 -175.5 69t-68.5 181q0 109 66.5 179.5t164.5 70.5q88 0 144 -55.5t56 -151.5q0 -14 -3.5 -19t-12.5 -5zM280 445
q-64 0 -111.5 -40t-62.5 -108h330q-2 66 -45.5 107t-110.5 41z" />
    <glyph glyph-name="f" unicode="f" horiz-adv-x="332" 
d="M332 744q7 -5 7 -12v-21q0 -10 -6 -10q-4 0 -8 2q-28 13 -62 13q-92 0 -92 -102v-134h150q8 0 8 -8v-23q0 -8 -8 -8h-150v-433q0 -8 -8 -8h-34q-8 0 -8 8v433h-82q-8 0 -8 8v23q0 8 8 8h82v135q0 144 133 144q45 0 78 -15z" />
    <glyph glyph-name="g" unicode="g" horiz-adv-x="589" 
d="M506 480q8 0 8 -8v-401q0 -116 -67 -181t-183 -65q-102 0 -169 36q-7 3 -7 12v27q0 11 6 11q2 0 8 -3q69 -39 158 -39q96 0 149.5 51t53.5 142v72q-27 -59 -77.5 -90t-112.5 -31q-93 0 -158.5 64.5t-65.5 173.5t66.5 174t157.5 65q62 0 113.5 -31.5t77.5 -91.5v105
q0 8 8 8h34zM282 57q77 0 129.5 54t52.5 140q0 82 -53 137.5t-129 55.5q-74 0 -128 -52t-54 -141q0 -90 53 -142t129 -52z" />
    <glyph glyph-name="h" unicode="h" horiz-adv-x="535" 
d="M291 490q78 0 123.5 -45.5t45.5 -134.5v-304q0 -6 -6 -6h-38q-6 0 -6 6v302q0 70 -34.5 104t-96.5 34q-66 0 -106.5 -43t-46.5 -116v-281q0 -6 -6 -6h-38q-6 0 -6 6v737q0 6 6 6h37q6 0 6 -6v-360q47 107 166 107z" />
    <glyph glyph-name="i" unicode="i" horiz-adv-x="221" 
d="M111 639q-19 0 -30.5 12.5t-11.5 30.5q0 19 11 31.5t31 12.5q18 0 30 -13t12 -31t-12 -30.5t-30 -12.5zM94 0q-8 0 -8 8v464q0 8 8 8h33q8 0 8 -8v-464q0 -8 -8 -8h-33z" />
    <glyph glyph-name="j" unicode="j" horiz-adv-x="221" 
d="M112 639q-19 0 -30.5 12.5t-11.5 30.5q0 19 11 31.5t31 12.5q18 0 30 -13t12 -31t-12 -30.5t-30 -12.5zM32 -175q-30 0 -55 10q-7 3 -7 11v30q0 8 7 4q19 -12 47 -12q27 0 44.5 17.5t17.5 49.5v537q0 8 8 8h34q8 0 8 -8v-537q0 -54 -27.5 -82t-76.5 -28z" />
    <glyph glyph-name="k" unicode="k" horiz-adv-x="440" 
d="M437 7q7 -7 -3 -7h-47q-8 0 -14 6l-250 248v-246q0 -8 -8 -8h-33q-8 0 -8 8v733q0 8 8 8h33q8 0 8 -8v-481l227 215q7 5 14 5h49q8 0 2 -5l-234 -218z" />
    <glyph glyph-name="l" unicode="l" horiz-adv-x="256" 
d="M170 -10q-92 0 -92 99v652q0 8 8 8h34q8 0 8 -8v-646q0 -61 56 -61q28 0 50 12q4 2 5 2q4 0 4 -8v-26q0 -8 -7 -11q-29 -13 -66 -13z" />
    <glyph glyph-name="m" unicode="m" horiz-adv-x="781" 
d="M552 490q65 0 109.5 -40.5t44.5 -115.5v-326q0 -8 -8 -8h-34q-8 0 -8 8v323q0 56 -33 85t-80 29q-52 0 -89.5 -36.5t-37.5 -90.5v-310q0 -8 -8 -8h-34q-8 0 -8 8v323q0 56 -33 85t-81 29q-51 0 -89 -36.5t-38 -90.5v-310q0 -8 -8 -8h-33q-8 0 -8 8v464q0 8 8 8h31
q8 0 8 -8v-70q20 42 57.5 65t83.5 23q49 0 88.5 -25t54.5 -72q19 47 58.5 72t86.5 25z" />
    <glyph glyph-name="n" unicode="n" horiz-adv-x="535" 
d="M288 490q79 0 125.5 -46t46.5 -137v-299q0 -8 -8 -8h-34q-8 0 -8 8v297q0 72 -35.5 106.5t-97.5 34.5q-67 0 -109 -44t-42 -111v-283q0 -8 -8 -8h-34q-8 0 -8 8v464q0 8 8 8h32q8 0 8 -8v-81q46 99 164 99z" />
    <glyph glyph-name="o" unicode="o" horiz-adv-x="587" 
d="M294 -10q-100 0 -172.5 73t-72.5 179q0 105 72.5 176.5t172.5 71.5t172 -71.5t72 -176.5q0 -106 -72 -179t-172 -73zM294 36q81 0 138 58.5t57 147.5q0 87 -57 144.5t-138 57.5t-138 -57.5t-57 -144.5q0 -88 57.5 -147t137.5 -59z" />
    <glyph glyph-name="p" unicode="p" horiz-adv-x="597" 
d="M315 490q96 0 164.5 -68t68.5 -183q0 -113 -69.5 -181t-163.5 -68q-58 0 -109 30.5t-79 85.5v-261q0 -11 -10 -11h-30q-10 0 -10 11v624q0 11 10 11h29q11 0 11 -11v-95q25 55 76.5 85.5t111.5 30.5zM310 37q76 0 131.5 55t55.5 148t-54 148t-133 55q-78 0 -131.5 -55.5
t-53.5 -147.5t54.5 -147.5t130.5 -55.5z" />
    <glyph glyph-name="q" unicode="q" horiz-adv-x="590" 
d="M508 480q7 0 7 -8v-630q0 -8 -7 -8h-35q-8 0 -8 8v265q-28 -56 -79 -86.5t-110 -30.5q-92 0 -160 68.5t-68 181.5q0 115 65.5 182.5t162.5 67.5q63 0 114.5 -31.5t77.5 -89.5v103q0 8 7 8h33zM284 33q74 0 129.5 56.5t55.5 150.5q0 95 -54 150.5t-131 55.5
q-79 0 -133 -55t-54 -151q0 -95 56 -151t131 -56z" />
    <glyph glyph-name="r" unicode="r" horiz-adv-x="342" 
d="M306 490q8 0 8 -8v-38q0 -8 -8 -8q-49 -1 -87 -26q-46 -28 -71 -90.5t-25 -147.5v-164q0 -8 -8 -8h-33q-8 0 -8 8v464q0 8 8 8h32q8 0 8 -8v-154q40 167 184 172z" />
    <glyph glyph-name="s" unicode="s" horiz-adv-x="438" 
d="M208 -10q-89 0 -143 35q-5 3 -5 9v36q0 6 2 6l4 -2q62 -39 141 -39q58 0 92.5 26.5t34.5 68.5q0 18 -7.5 32t-16.5 23t-29 18.5t-33.5 14l-40.5 13.5q-69 21 -107 49.5t-38 82.5q0 57 45 92t119 35q70 0 131 -27q5 -3 5 -9v-35q0 -5 -3 -5q-2 0 -4 1q-59 31 -129 31
q-53 0 -84 -22t-31 -58q0 -20 8.5 -35t29 -26t36 -17t46.5 -15q35 -11 57.5 -20t46.5 -25t35.5 -39t11.5 -54q0 -65 -48 -105t-126 -40z" />
    <glyph glyph-name="t" unicode="t" horiz-adv-x="339" 
d="M295 41q3 1 8 1q7 0 7 -11v-19q0 -8 -8 -11q-38 -11 -73 -11q-64 0 -94 33.5t-30 108.5v310h-76q-8 0 -8 8v22q0 8 8 8h76v136q0 8 8 8h34q8 0 8 -8v-136h138q8 0 8 -8v-22q0 -8 -8 -8h-138v-306q0 -55 21 -79t65 -24q27 0 54 8z" />
    <glyph glyph-name="u" unicode="u" horiz-adv-x="527" 
d="M443 480q8 0 8 -8v-464q0 -8 -8 -8h-30q-8 0 -8 8l-1 89l-1 1q-21 -52 -63 -80t-98 -28q-76 0 -121.5 47.5t-45.5 143.5v291q0 8 8 8h34q8 0 8 -8v-290q0 -148 128 -148q68 0 108 49t40 128v261q0 8 8 8h34z" />
    <glyph glyph-name="v" unicode="v" horiz-adv-x="485" 
d="M453 480q8 0 5 -7l-189 -466q-3 -7 -11 -7h-32q-8 0 -11 7l-189 466q-4 7 5 7h39q8 0 11 -7l162 -411l162 411q3 7 11 7h37z" />
    <glyph glyph-name="w" unicode="w" horiz-adv-x="664" 
d="M635 480q7 0 6 -8l-137 -464q-2 -8 -10 -8h-30q-9 0 -10 8l-121 403l-122 -403q-2 -8 -10 -8h-29q-9 0 -10 8l-139 464v3q0 5 6 5h37q9 0 10 -8l114 -399l118 399q2 8 10 8h30q9 0 10 -8l121 -397l110 397q2 8 10 8h36z" />
    <glyph glyph-name="x" unicode="x" horiz-adv-x="447" 
d="M429 13q4 -6 4 -8q0 -5 -10 -5h-40q-7 0 -13 7l-145 204l-151 -205q-4 -6 -13 -6h-37q-10 0 -10 5q0 3 4 8l176 232l-163 222q-3 5 -3 8q0 5 10 5h37q7 0 13 -7l137 -191l140 192q5 6 13 6h36q10 0 10 -5q0 -3 -4 -8l-164 -220z" />
    <glyph glyph-name="y" unicode="y" horiz-adv-x="479" 
d="M456 480q8 0 5 -7l-225 -526q-52 -122 -141 -122q-44 0 -74 16q-7 3 -7 12v30q0 8 7 4q31 -20 72 -20q65 0 101 87l23 55l-201 464q-4 7 5 7h37q8 0 11 -7l172 -407l170 407q3 7 11 7h34z" />
    <glyph glyph-name="z" unicode="z" horiz-adv-x="442" 
d="M40 0q-8 0 -8 8v7q0 9 5 14l299 406h-277q-8 0 -8 8v29q0 8 8 8h335q8 0 8 -8v-7q0 -9 -5 -14l-299 -406h296q8 0 8 -8v-29q0 -8 -8 -8h-354z" />
    <glyph glyph-name="braceleft" unicode="{" horiz-adv-x="235" 
d="M160 682q-30 0 -47 -16.5t-17 -45.5q0 -30 33.5 -116.5t33.5 -121.5q0 -30 -17 -54t-49 -30q32 -7 49 -31t17 -54q0 -35 -33.5 -121.5t-33.5 -116.5q0 -29 17 -45.5t47 -16.5q20 0 33 4h3q5 0 5 -6v-16q0 -9 -8 -10q-22 -6 -45 -6q-47 0 -71 25t-24 66q0 38 34 124.5
t34 116.5q0 61 -64 67q-8 2 -8 9v21q0 8 8 9q64 6 64 67q0 30 -34 116.5t-34 124.5q0 41 24 66t71 25q23 0 45 -6q8 -2 8 -10v-16q0 -7 -8 -6q-13 4 -33 4z" />
    <glyph glyph-name="bar" unicode="|" horiz-adv-x="137" 
d="M58 -200q-8 0 -8 8v1024q0 8 8 8h21q8 0 8 -8v-1024q0 -8 -8 -8h-21z" />
    <glyph glyph-name="braceright" unicode="}" horiz-adv-x="235" 
d="M181 317q8 -2 8 -9v-21q0 -8 -8 -9q-64 -6 -64 -67q0 -30 34 -116.5t34 -124.5q0 -41 -24 -66t-71 -25q-23 0 -45 6q-8 2 -8 10v16q0 7 8 6q13 -4 33 -4q30 0 47 16.5t17 45.5q0 30 -33.5 116.5t-33.5 121.5q0 30 17 54t49 31q-32 6 -49 30t-17 54q0 35 33.5 121.5
t33.5 116.5q0 29 -17 45.5t-47 16.5q-20 0 -33 -4h-3q-5 0 -5 6v16q0 9 8 10q22 6 45 6q47 0 71 -25t24 -66q0 -38 -34 -124.5t-34 -116.5q0 -61 64 -67z" />
    <glyph glyph-name="asciitilde" unicode="~" horiz-adv-x="550" 
d="M357 234q-23 0 -43 9t-31 19t-28 28q-16 17 -25.5 25.5t-27 16.5t-36.5 8q-36 0 -56 -27t-23 -72q0 -8 -8 -8h-21q-8 0 -8 8q3 63 32.5 103t79.5 40q36 0 60 -15t50 -43q16 -16 25 -24t25 -16t33 -8q33 0 51.5 25.5t20.5 66.5q0 8 8 8h21q8 0 8 -8q-2 -60 -31 -98
t-76 -38z" />
    <glyph glyph-name="nbspace" unicode="&#xa0;" horiz-adv-x="218" 
 />
    <glyph glyph-name="exclamdown" unicode="&#xa1;" horiz-adv-x="216" 
d="M109 720q21 0 34.5 -15t13.5 -37t-13.5 -36.5t-34.5 -14.5q-22 0 -35.5 14.5t-13.5 36.5t13.5 37t35.5 15zM88 534q0 8 8 8h23q8 0 8 -8l7 -523q0 -8 -8 -8h-37q-8 0 -8 8z" />
    <glyph glyph-name="cent" unicode="&#xa2;" horiz-adv-x="472" 
d="M422 176q6 2 8 2q6 0 6 -11v-25q0 -8 -7 -11q-60 -23 -128 -23h-3l-10 -123q-2 -8 -8 -8h-19q-7 0 -7 8l10 125q-93 12 -154 79.5t-61 168.5q0 104 62 172t161 77l10 118q0 8 8 8h18q8 0 7 -8l-9 -117q63 -1 116 -22q7 -4 7 -10v-26q0 -11 -6 -11q-2 0 -8 2
q-49 23 -110 23q-89 0 -148 -56.5t-59 -149.5q0 -95 60.5 -150.5t149.5 -55.5q63 0 114 24z" />
    <glyph glyph-name="sterling" unicode="&#xa3;" horiz-adv-x="585" 
d="M506 691q7 -3 7 -12v-31q0 -8 -7 -4q-52 32 -115 32q-64 0 -101 -40t-46 -111l-17 -133h215q8 0 8 -8v-25q0 -8 -8 -8h-220l-39 -307h303q8 0 8 -8v-28q0 -8 -8 -8h-411q-8 0 -8 8v28q0 8 8 8h59l39 307h-78q-8 0 -8 8v25q0 8 8 8h83l17 137q11 91 58.5 141t131.5 50
q71 0 121 -29z" />
    <glyph glyph-name="currency" unicode="&#xa4;" horiz-adv-x="585" 
d="M451 224l110 -116q5 -6 0 -11l-13 -12q-6 -5 -12 1l-107 111q-55 -55 -136 -55q-82 0 -136 56l-107 -113q-6 -6 -12 0l-13 12q-6 6 0 12l110 115q-40 57 -40 137q0 81 40 138l-110 116q-6 6 0 11l13 13q6 5 12 -1l107 -112q53 55 136 55t136 -55l107 113q6 6 12 0l13 -12
q6 -6 0 -12l-110 -115q40 -59 40 -139t-40 -137zM293 182q70 0 114 51t44 128q0 79 -44 129.5t-114 50.5q-71 0 -115 -51t-44 -129q0 -77 44.5 -128t114.5 -51z" />
    <glyph glyph-name="yen" unicode="&#xa5;" horiz-adv-x="549" 
d="M526 710q11 0 11 -6q0 -2 -3 -8l-221 -369h128q8 0 8 -8v-27q0 -8 -8 -8h-141v-276q0 -8 -8 -8h-36q-8 0 -8 8v276h-141q-8 0 -8 8v27q0 8 8 8h128l-221 369q-3 4 -3 8q0 6 11 6h34q8 0 12 -7l208 -354l206 354q4 7 12 7h32z" />
    <glyph glyph-name="brokenbar" unicode="&#xa6;" horiz-adv-x="137" 
d="M58 424q-8 0 -8 8v400q0 8 8 8h21q8 0 8 -8v-400q0 -8 -8 -8h-21zM58 -200q-8 0 -8 8v400q0 8 8 8h21q8 0 8 -8v-400q0 -8 -8 -8h-21z" />
    <glyph glyph-name="section" unicode="&#xa7;" horiz-adv-x="536" 
d="M425 274q72 -89 72 -186q0 -115 -75.5 -188.5t-196.5 -73.5q-85 0 -176 41q-7 3 -7 11v32q0 8 7 4q85 -44 177 -44q143 0 206 99l-330 405q-66 83 -66 163q0 98 67 158.5t174 60.5q82 0 153 -26q7 -4 7 -11v-32q0 -8 -7 -5q-75 30 -159 30q-100 0 -157 -59zM128 389
l318 -393q19 41 19 93q0 89 -63 166l-306 376q-29 -43 -29 -99q0 -68 61 -143z" />
    <glyph glyph-name="dieresis" unicode="&#xa8;" horiz-adv-x="500" 
d="M180 647q-16 0 -26 11t-10 27q0 15 10 26t26 11q15 0 25 -11t10 -26q0 -16 -10 -27t-25 -11zM320 647q-16 0 -26 11t-10 27q0 15 10 26t26 11q15 0 25 -11t10 -26q0 -16 -10 -27t-25 -11z" />
    <glyph glyph-name="copyright" unicode="&#xa9;" horiz-adv-x="811" 
d="M406 -11q-152 0 -258 102t-106 260q0 162 106.5 265.5t257.5 103.5q150 0 256.5 -103.5t106.5 -265.5q0 -158 -105.5 -260t-257.5 -102zM406 12q141 0 240 95t99 244q0 153 -98.5 250t-240.5 97t-241 -97t-99 -250q0 -149 99 -244t241 -95zM408 153q-74 0 -129 57
t-55 147q0 88 55 143t130 55q52 0 98 -24q7 -4 7 -12v-24q0 -8 -7 -4q-45 27 -94 27q-60 0 -104 -44.5t-44 -116.5q0 -75 44.5 -121t103.5 -46q55 0 101 31q6 4 6 -3v-25q0 -8 -7 -12q-52 -28 -105 -28z" />
    <glyph glyph-name="ordfeminine" unicode="&#xaa;" horiz-adv-x="395" 
d="M176 423q-55 0 -94 40.5t-39 107.5q0 68 38 108t95 40q74 0 108 -61v46q0 7 7 7h29q7 0 7 -7v-268q0 -7 -7 -7h-29q-7 0 -7 7v52q-36 -65 -108 -65zM187 683q-43 0 -71.5 -30.5t-28.5 -82.5q0 -51 29.5 -81t70.5 -30q39 0 68.5 30t29.5 81q0 52 -28.5 82.5t-69.5 30.5z
M335 361q7 0 7 -7v-16q0 -7 -7 -7h-275q-7 0 -7 7v16q0 7 7 7h275z" />
    <glyph glyph-name="guillemetleft" unicode="&#xab;" horiz-adv-x="526" 
d="M241 51q-4 -6 -10 0l-169 195q-5 6 0 12l168 183q5 6 11 0l16 -17q6 -6 1 -12l-143 -160l143 -168q5 -7 0 -12zM418 51q-4 -6 -10 0l-169 195q-5 6 0 12l168 183q5 6 11 0l16 -17q6 -6 1 -12l-143 -160l143 -168q5 -7 0 -12z" />
    <glyph glyph-name="logicalnot" unicode="&#xac;" horiz-adv-x="550" 
d="M456 350q8 0 8 -8v-195q0 -8 -8 -8h-27q-8 0 -8 8v160h-362q-8 0 -8 8v27q0 8 8 8h397z" />
    <glyph glyph-name="softhyphen" unicode="&#xad;" horiz-adv-x="393" 
d="M70 238q-8 0 -8 8v27q0 8 8 8h253q8 0 8 -8v-27q0 -8 -8 -8h-253z" />
    <glyph glyph-name="registered" unicode="&#xae;" horiz-adv-x="476" 
d="M238 720q81 0 134.5 -54t53.5 -139q0 -86 -53 -139.5t-135 -53.5t-135 53.5t-53 139.5q0 85 53.5 139t134.5 54zM238 355q73 0 119.5 47.5t46.5 124.5t-46.5 124.5t-119.5 47.5q-72 0 -119 -47.5t-47 -124.5q0 -76 47 -124t119 -48zM250 526l68 -82q4 -6 4 -7
q0 -5 -10 -5h-8q-7 0 -13 6l-69 86h-15v-84q0 -8 -8 -8h-9q-8 0 -8 8v187q0 8 8 8h48q31 0 49 -15t18 -40q0 -23 -15 -37.5t-40 -16.5zM207 614v-70h30q19 0 30.5 9.5t11.5 25.5t-11.5 25.5t-30.5 9.5h-30z" />
    <glyph glyph-name="macron" unicode="&#xaf;" horiz-adv-x="500" 
d="M124 638q-8 0 -8 8v22q0 8 8 8h251q8 0 8 -8v-22q0 -8 -8 -8h-251z" />
    <glyph glyph-name="degree" unicode="&#xb0;" horiz-adv-x="318" 
d="M159 475q-51 0 -85.5 35.5t-34.5 88.5q0 52 34.5 86.5t85.5 34.5t85.5 -34.5t34.5 -86.5q0 -53 -34.5 -88.5t-85.5 -35.5zM159 507q36 0 60.5 26.5t24.5 65.5q0 38 -24.5 63.5t-60.5 25.5t-60.5 -25.5t-24.5 -63.5q0 -39 24.5 -65.5t60.5 -26.5z" />
    <glyph glyph-name="plusminus" unicode="&#xb1;" horiz-adv-x="550" 
d="M59 308q-8 0 -8 8v28q0 8 8 8h178v147q0 8 8 8h25q8 0 8 -8v-147h178q8 0 8 -8v-28q0 -8 -8 -8h-178v-147q0 -8 -8 -8h-25q-8 0 -8 8v147h-178zM503 114q8 0 8 -8v-28q0 -8 -8 -8h-456q-8 0 -8 8v28q0 8 8 8h456z" />
    <glyph glyph-name="twosuperior" unicode="&#xb2;" horiz-adv-x="365" 
d="M306 455q8 0 8 -8v-16q0 -8 -8 -8h-265q-7 0 -2 6l151 182q25 30 36 45t21 36.5t10 41.5q0 36 -29 59.5t-75 23.5q-52 0 -97 -30q-7 -4 -7 3v20q0 8 7 12q44 28 106 28q59 0 95.5 -30t36.5 -78q0 -35 -15.5 -63.5t-51.5 -73.5l-128 -150h207z" />
    <glyph glyph-name="threesuperior" unicode="&#xb3;" horiz-adv-x="360" 
d="M193 648q55 -7 87 -36.5t32 -71.5q0 -53 -42.5 -88t-109.5 -35q-59 0 -104 20q-7 3 -7 11v18q0 8 7 5q47 -21 100 -21q51 0 83 26t32 66q0 39 -37.5 63.5t-102.5 24.5h-12q-8 0 -8 8v14q0 8 8 8h11q59 0 91.5 25t32.5 59q0 32 -28 53t-74 21q-45 0 -87 -20q-7 -5 -7 4v18
q0 8 7 11q45 19 92 19q62 0 98.5 -28t36.5 -71q0 -35 -26 -64t-73 -39z" />
    <glyph glyph-name="acute" unicode="&#xb4;" horiz-adv-x="500" 
d="M172 563q-8 0 -4 7l111 190q3 7 12 4l38 -13q9 -3 3 -9l-125 -173q-5 -6 -13 -6h-22z" />
    <glyph glyph-name="micro" unicode="&#xb5;" horiz-adv-x="525" 
d="M443 480q8 0 8 -8v-464q0 -8 -8 -8h-29q-8 0 -8 8l-1 91l-3 6q-40 -115 -155 -115q-91 0 -127 66l4 -214q0 -8 -8 -8h-35q-8 0 -8 8l3 238l-2 392q0 8 8 8h34q8 0 8 -8v-294q0 -148 126 -148q70 0 110.5 51.5t40.5 137.5v253q0 8 8 8h34z" />
    <glyph glyph-name="paragraph" unicode="&#xb6;" horiz-adv-x="557" 
d="M379 710q8 0 8 -8v-678q0 -106 -51 -182q-4 -7 -13 -7h-22q-9 0 -3 6q56 78 56 183v274h-31q-108 0 -175 56.5t-67 149.5t67 149.5t175 56.5h56zM456 710q8 0 8 -8v-513v-16q-1 -103 -29 -155q-4 -8 -4 1v683q0 8 8 8h17z" />
    <glyph glyph-name="periodcentered" unicode="&#xb7;" horiz-adv-x="213" 
d="M107 207q-22 0 -35.5 15t-13.5 37t13.5 36.5t35.5 14.5q21 0 34.5 -14.5t13.5 -36.5t-13.5 -37t-34.5 -15z" />
    <glyph glyph-name="cedilla" unicode="&#xb8;" horiz-adv-x="508" 
d="M311 -44q32 0 52 -16.5t20 -43.5q0 -32 -26 -51.5t-65 -19.5q-37 0 -65 13q-6 3 -6 10v16q0 6 6 4q30 -14 62 -14q25 0 42 11t17 30q0 17 -14.5 26.5t-35.5 9.5q-27 0 -48 -8l-2 3l57 83h31l-38 -54q4 1 13 1z" />
    <glyph glyph-name="onesuperior" unicode="&#xb9;" horiz-adv-x="356" 
d="M216 844q8 0 8 -8v-405q0 -8 -8 -8h-21q-8 0 -8 8v369l-119 -46q-7 -4 -7 5v19q0 8 7 11l128 52q6 3 13 3h7z" />
    <glyph glyph-name="ordmasculine" unicode="&#xba;" horiz-adv-x="375" 
d="M188 430q-62 0 -104 41.5t-42 104.5t41.5 103.5t104.5 40.5q62 0 103.5 -40.5t41.5 -103.5t-41.5 -104.5t-103.5 -41.5zM188 468q44 0 73 30.5t29 77.5t-28.5 76.5t-73.5 29.5t-74 -29.5t-29 -76.5t29.5 -77.5t73.5 -30.5zM61 336q-7 0 -7 7v16q0 7 7 7h258q7 0 7 -7v-16
q0 -7 -7 -7h-258z" />
    <glyph glyph-name="guillemetright" unicode="&#xbb;" horiz-adv-x="526" 
d="M118 51q-4 -6 -10 0l-17 21q-5 7 0 12l143 168l-143 160q-5 6 1 12l16 17q6 6 11 0l168 -183q5 -7 0 -12zM295 51q-4 -6 -10 0l-17 21q-5 7 0 12l143 168l-143 160q-5 6 1 12l16 17q6 6 11 0l168 -183q5 -7 0 -12z" />
    <glyph glyph-name="onequarter" unicode="&#xbc;" horiz-adv-x="742" 
d="M648 717q7 -4 3 -11l-457 -723q-4 -7 -11 -3l-9 6q-7 4 -3 11l457 723q4 7 11 3zM187 301v369l-119 -46q-7 -4 -7 5v19q0 8 7 11l128 52q6 3 13 3h7q8 0 8 -8v-405q0 -8 -8 -8h-21q-8 0 -8 8zM711 114q8 0 8 -8v-16q0 -8 -8 -8h-53v-74q0 -8 -8 -8h-20q-8 0 -8 8v74h-197
q-7 0 -7 7v16q0 6 4 13l201 297q5 6 11 6h16q8 0 8 -8v-299h53zM454 114h169v247z" />
    <glyph glyph-name="onehalf" unicode="&#xbd;" horiz-adv-x="841" 
d="M648 717q7 -4 3 -11l-457 -723q-4 -7 -11 -3l-9 6q-7 4 -3 11l457 723q4 7 11 3zM187 301v369l-119 -46q-7 -4 -7 5v19q0 8 7 11l128 52q6 3 13 3h7q8 0 8 -8v-405q0 -8 -8 -8h-21q-8 0 -8 8zM782 32q8 0 8 -8v-16q0 -8 -8 -8h-265q-7 0 -2 6l151 182q25 30 36 45
t21 36.5t10 41.5q0 36 -29 59.5t-75 23.5q-52 0 -97 -30q-7 -4 -7 3v20q0 8 7 12q44 28 106 28q59 0 95.5 -30t36.5 -78q0 -35 -15.5 -63.5t-51.5 -73.5l-128 -150h207z" />
    <glyph glyph-name="threequarters" unicode="&#xbe;" horiz-adv-x="741" 
d="M647 717q7 -4 3 -11l-457 -723q-4 -7 -11 -3l-9 6q-7 4 -3 11l457 723q4 7 11 3zM312 410q0 -53 -42.5 -88t-109.5 -35q-59 0 -104 20q-7 3 -7 11v18q0 8 7 5q47 -21 100 -21q51 0 83 26t32 66q0 39 -37.5 63.5t-102.5 24.5h-12q-8 0 -8 8v14q0 8 8 8h11q59 0 91.5 25
t32.5 59q0 32 -28 53t-74 21q-45 0 -87 -20q-7 -5 -7 4v18q0 8 7 11q45 19 92 19q62 0 98.5 -28t36.5 -71q0 -35 -26 -64t-73 -39q55 -7 87 -36.5t32 -71.5zM710 114q8 0 8 -8v-16q0 -8 -8 -8h-53v-74q0 -8 -8 -8h-20q-8 0 -8 8v74h-197q-7 0 -7 7v16q0 6 4 13l201 297
q4 6 11 6h16q8 0 8 -8v-299h53zM453 114h169v247z" />
    <glyph glyph-name="questiondown" unicode="&#xbf;" horiz-adv-x="482" 
d="M282 720q22 0 36 -14.5t14 -35.5t-14 -35.5t-36 -14.5q-21 0 -35 14.5t-14 35.5t14 35.5t35 14.5zM292 552q7 0 7 -7l4 -151q0 -8 -7 -11q-42 -21 -68.5 -38t-55.5 -41.5t-43.5 -55t-14.5 -67.5q0 -64 48.5 -103.5t123.5 -39.5q80 0 150 36q7 5 7 -4v-30q0 -8 -7 -12
q-68 -35 -158 -35q-96 0 -155.5 50.5t-59.5 131.5q0 44 16 80.5t47 65t61 47.5t71 40l4 137q0 7 7 7h23z" />
    <glyph glyph-name="Agrave" unicode="&#xc0;" horiz-adv-x="643" 
d="M290 771l-99 119q-4 7 4 7h56q8 0 12 -7l62 -118q5 -7 -4 -7h-18q-7 0 -13 6zM620 7q4 -7 -5 -7h-41q-8 0 -11 7l-86 221h-321l-87 -221q-3 -7 -11 -7h-38q-8 0 -5 7l282 700q3 7 11 7h21q8 0 11 -7zM174 273h286q-54 140 -142 373q-67 -178 -144 -373z" />
    <glyph glyph-name="Aacute" unicode="&#xc1;" horiz-adv-x="643" 
d="M300 763q-8 0 -4 7l61 119q5 7 12 7h57q10 0 4 -7l-99 -120q-5 -6 -13 -6h-18zM620 7q4 -7 -5 -7h-41q-8 0 -11 7l-86 221h-321l-87 -221q-3 -7 -11 -7h-38q-8 0 -5 7l282 700q3 7 11 7h21q8 0 11 -7zM174 273h286q-54 140 -142 373q-67 -178 -144 -373z" />
    <glyph glyph-name="Acircumflex" unicode="&#xc2;" horiz-adv-x="643" 
d="M187 756q-7 0 -2 6l108 128q7 5 12 5h25q7 0 12 -5l108 -128q6 -6 -2 -6h-28q-7 0 -12 5l-90 95l-91 -95q-5 -5 -12 -5h-28zM620 7q4 -7 -5 -7h-41q-8 0 -11 7l-86 221h-321l-87 -221q-3 -7 -11 -7h-38q-8 0 -5 7l282 700q3 7 11 7h21q8 0 11 -7zM174 273h286
q-54 140 -142 373q-67 -178 -144 -373z" />
    <glyph glyph-name="Atilde" unicode="&#xc3;" horiz-adv-x="643" 
d="M183 772q-6 0 -6 6q2 47 23 77t57 30q16 0 30.5 -7t21 -13.5t18.5 -19.5q31 -31 52 -31q41 0 46 61q0 6 6 6h20q6 0 6 -6q-2 -45 -22.5 -74t-53.5 -29q-36 0 -71 39q-2 2 -5.5 6t-5.5 6l-5.5 5.5t-6 5t-6 4t-7 3.5t-7.5 2t-9 1q-45 0 -50 -66q0 -6 -6 -6h-19zM620 7
q4 -7 -5 -7h-41q-8 0 -11 7l-86 221h-321l-87 -221q-3 -7 -11 -7h-38q-8 0 -5 7l282 700q3 7 11 7h21q8 0 11 -7zM174 273h286q-54 140 -142 373q-67 -178 -144 -373z" />
    <glyph glyph-name="Adieresis" unicode="&#xc4;" horiz-adv-x="643" 
d="M242 779q-21 0 -34 14.5t-13 35.5t13 34.5t34 13.5t33.5 -13.5t12.5 -34.5t-13 -35.5t-33 -14.5zM400 779q-21 0 -34 14.5t-13 35.5t13 34.5t34 13.5t33.5 -13.5t12.5 -34.5t-13 -35.5t-33 -14.5zM620 7q4 -7 -5 -7h-41q-8 0 -11 7l-86 221h-321l-87 -221q-3 -7 -11 -7
h-38q-8 0 -5 7l282 700q3 7 11 7h21q8 0 11 -7zM174 273h286q-54 140 -142 373q-67 -178 -144 -373z" />
    <glyph glyph-name="Aring" unicode="&#xc5;" horiz-adv-x="643" 
d="M318 743q-36 0 -60.5 25t-24.5 62q0 36 24.5 60t60.5 24q35 0 59.5 -24t24.5 -60q0 -37 -24.5 -62t-59.5 -25zM318 889q-25 0 -40.5 -16.5t-15.5 -42.5t15.5 -43t40.5 -17q24 0 40 17t16 43q0 25 -16 42t-40 17zM620 7q4 -7 -5 -7h-41q-8 0 -11 7l-86 221h-321l-87 -221
q-3 -7 -11 -7h-38q-8 0 -5 7l282 700q3 7 11 7h21q8 0 11 -7zM174 273h286q-54 140 -142 373q-67 -178 -144 -373z" />
    <glyph glyph-name="AE" unicode="&#xc6;" horiz-adv-x="795" 
d="M734 667h-258v-274h233q8 0 8 -8v-27q0 -8 -8 -8h-233v-307h258q8 0 8 -8v-27q0 -8 -8 -8h-298q-8 0 -8 8v204h-245l-116 -205q-5 -7 -12 -7h-37q-8 0 -4 7l398 696q5 7 12 7h311q7 0 7 -7v-28q0 -8 -8 -8zM207 254h221v389z" />
    <glyph glyph-name="Ccedilla" unicode="&#xc7;" horiz-adv-x="641" 
d="M578 69q3 1 8 1q7 0 7 -11v-27q0 -8 -7 -11q-84 -32 -174 -32h-6l-24 -34q4 1 13 1q32 0 52 -16.5t20 -43.5q0 -32 -26 -51.5t-65 -19.5q-37 0 -65 13q-6 3 -6 10v16q0 6 6 4q30 -14 62 -14q25 0 42 11t17 30q0 17 -14.5 26.5t-35.5 9.5q-27 0 -48 -8l-2 3l44 64
q-145 12 -239.5 112.5t-94.5 256.5q0 162 107 261.5t265 99.5q80 0 162 -30q7 -4 7 -11v-28q0 -15 -15 -10q-73 32 -150 32q-140 0 -232.5 -86t-92.5 -227q0 -147 92.5 -234.5t232.5 -87.5q84 0 160 31z" />
    <glyph glyph-name="Egrave" unicode="&#xc8;" horiz-adv-x="493" 
d="M230 771l-99 119q-4 7 4 7h56q8 0 12 -7l62 -118q5 -7 -4 -7h-18q-7 0 -13 6zM432 664h-301v-270h271q8 0 8 -8v-29q0 -8 -8 -8h-271v-303h301q8 0 8 -8v-30q0 -8 -8 -8h-343q-8 0 -8 8v694q0 8 8 8h343q8 0 8 -8v-30q0 -8 -8 -8z" />
    <glyph glyph-name="Eacute" unicode="&#xc9;" horiz-adv-x="493" 
d="M240 763q-8 0 -4 7l61 119q5 7 12 7h57q10 0 4 -7l-99 -120q-5 -6 -13 -6h-18zM432 664h-301v-270h271q8 0 8 -8v-29q0 -8 -8 -8h-271v-303h301q8 0 8 -8v-30q0 -8 -8 -8h-343q-8 0 -8 8v694q0 8 8 8h343q8 0 8 -8v-30q0 -8 -8 -8z" />
    <glyph glyph-name="Ecircumflex" unicode="&#xca;" horiz-adv-x="493" 
d="M127 756q-7 0 -2 6l108 128q7 5 12 5h25q7 0 12 -5l108 -128q6 -6 -2 -6h-28q-7 0 -12 5l-90 95l-91 -95q-5 -5 -12 -5h-28zM432 664h-301v-270h271q8 0 8 -8v-29q0 -8 -8 -8h-271v-303h301q8 0 8 -8v-30q0 -8 -8 -8h-343q-8 0 -8 8v694q0 8 8 8h343q8 0 8 -8v-30
q0 -8 -8 -8z" />
    <glyph glyph-name="Edieresis" unicode="&#xcb;" horiz-adv-x="493" 
d="M182 779q-21 0 -34 14.5t-13 35.5t13 34.5t34 13.5t33.5 -13.5t12.5 -34.5t-13 -35.5t-33 -14.5zM340 779q-21 0 -34 14.5t-13 35.5t13 34.5t34 13.5t33.5 -13.5t12.5 -34.5t-13 -35.5t-33 -14.5zM432 664h-301v-270h271q8 0 8 -8v-29q0 -8 -8 -8h-271v-303h301q8 0 8 -8
v-30q0 -8 -8 -8h-343q-8 0 -8 8v694q0 8 8 8h343q8 0 8 -8v-30q0 -8 -8 -8z" />
    <glyph glyph-name="Igrave" unicode="&#xcc;" horiz-adv-x="239" 
d="M126 772q5 -7 -4 -7h-18q-7 0 -13 6l-99 119q-4 7 4 7h56q8 0 12 -7zM101 0q-8 0 -8 8v694q0 8 8 8h36q8 0 8 -8v-694q0 -8 -8 -8h-36z" />
    <glyph glyph-name="Iacute" unicode="&#xcd;" horiz-adv-x="239" 
d="M101 763q-8 0 -4 7l61 119q5 7 12 7h57q10 0 4 -7l-99 -120q-4 -6 -13 -6h-18zM101 0q-8 0 -8 8v694q0 8 8 8h36q8 0 8 -8v-694q0 -8 -8 -8h-36z" />
    <glyph glyph-name="Icircumflex" unicode="&#xce;" horiz-adv-x="239" 
d="M251 762q6 -6 -2 -6h-28q-7 0 -12 5l-90 95l-91 -95q-5 -5 -12 -5h-28q-7 0 -2 6l108 128q7 5 12 5h25q7 0 12 -5zM137 710q8 0 8 -8v-694q0 -8 -8 -8h-36q-8 0 -8 8v694q0 8 8 8h36z" />
    <glyph glyph-name="Idieresis" unicode="&#xcf;" horiz-adv-x="239" 
d="M43 779q-21 0 -34 14.5t-13 35.5t13 34.5t34 13.5t33.5 -13.5t12.5 -34.5t-13 -35.5t-33 -14.5zM201 779q-21 0 -34 14.5t-13 35.5t13 34.5t34 13.5t33.5 -13.5t12.5 -34.5t-13 -35.5t-33 -14.5zM101 0q-8 0 -8 8v694q0 8 8 8h36q8 0 8 -8v-694q0 -8 -8 -8h-36z" />
    <glyph glyph-name="Eth" unicode="&#xd0;" horiz-adv-x="646" 
d="M211 710q185 0 299.5 -98.5t114.5 -258.5q0 -158 -114 -255.5t-300 -97.5h-122q-8 0 -8 8v341h-58q-8 0 -8 8v26q0 8 8 8h58v311q0 8 8 8h122zM213 45q163 0 261.5 84t98.5 223q0 142 -98 227.5t-262 85.5h-82v-276h218q8 0 8 -8v-22q0 -8 -8 -8h-218v-306h82z" />
    <glyph glyph-name="Ntilde" unicode="&#xd1;" horiz-adv-x="716" 
d="M223 772q-6 0 -6 6q2 47 23 77t57 30q16 0 30.5 -7t21 -13.5t18.5 -19.5q31 -31 52 -31q41 0 46 61q0 6 6 6h20q6 0 6 -6q-2 -45 -22.5 -74t-53.5 -29q-36 0 -71 39q-2 2 -5.5 6t-5.5 6l-5.5 5.5t-6 5t-6 4t-7 3.5t-7.5 2t-9 1q-45 0 -50 -66q0 -6 -6 -6h-19zM627 710
q8 0 8 -8v-694q0 -8 -8 -8h-26q-7 0 -13 6l-459 613v-611q0 -8 -8 -8h-32q-8 0 -8 8v694q0 8 8 8h26q7 0 13 -6l459 -615v613q0 8 8 8h32z" />
    <glyph glyph-name="Ograve" unicode="&#xd2;" horiz-adv-x="825" 
d="M416 772q5 -7 -4 -7h-18q-7 0 -13 6l-99 119q-4 7 4 7h56q8 0 12 -7zM409 -10q-153 0 -260.5 104t-107.5 258q0 157 108 262.5t260 105.5t260 -105.5t108 -262.5q0 -154 -107.5 -258t-260.5 -104zM409 38q133 0 226.5 90.5t93.5 223.5q0 136 -93.5 228t-226.5 92
t-226 -92t-93 -228q0 -133 93 -223.5t226 -90.5z" />
    <glyph glyph-name="Oacute" unicode="&#xd3;" horiz-adv-x="825" 
d="M391 763q-8 0 -4 7l61 119q5 7 12 7h57q10 0 4 -7l-99 -120q-4 -6 -13 -6h-18zM409 -10q-153 0 -260.5 104t-107.5 258q0 157 108 262.5t260 105.5t260 -105.5t108 -262.5q0 -154 -107.5 -258t-260.5 -104zM409 38q133 0 226.5 90.5t93.5 223.5q0 136 -93.5 228
t-226.5 92t-226 -92t-93 -228q0 -133 93 -223.5t226 -90.5z" />
    <glyph glyph-name="Ocircumflex" unicode="&#xd4;" horiz-adv-x="825" 
d="M278 756q-7 0 -2 6l108 128q7 5 12 5h25q7 0 12 -5l108 -128q6 -6 -2 -6h-28q-7 0 -12 5l-90 95l-91 -95q-5 -5 -12 -5h-28zM409 720q152 0 260 -105.5t108 -262.5q0 -154 -107.5 -258t-260.5 -104t-260.5 104t-107.5 258q0 157 108 262.5t260 105.5zM409 38
q133 0 226.5 90.5t93.5 223.5q0 136 -93.5 228t-226.5 92t-226 -92t-93 -228q0 -133 93 -223.5t226 -90.5z" />
    <glyph glyph-name="Otilde" unicode="&#xd5;" horiz-adv-x="825" 
d="M349 844q-45 0 -50 -66q0 -6 -6 -6h-19q-6 0 -6 6q2 47 23 77t57 30q16 0 30.5 -7t21 -13.5t18.5 -19.5q31 -31 52 -31q41 0 46 61q0 6 6 6h20q6 0 6 -6q-2 -45 -22.5 -74t-53.5 -29q-36 0 -71 39q-2 2 -5.5 6t-5.5 6l-5.5 5.5t-6 5t-6 4t-7 3.5t-7.5 2t-9 1zM409 -10
q-153 0 -260.5 104t-107.5 258q0 157 108 262.5t260 105.5t260 -105.5t108 -262.5q0 -154 -107.5 -258t-260.5 -104zM409 38q133 0 226.5 90.5t93.5 223.5q0 136 -93.5 228t-226.5 92t-226 -92t-93 -228q0 -133 93 -223.5t226 -90.5z" />
    <glyph glyph-name="Odieresis" unicode="&#xd6;" horiz-adv-x="825" 
d="M333 779q-21 0 -34 14.5t-13 35.5t13 34.5t34 13.5t33.5 -13.5t12.5 -34.5t-13 -35.5t-33 -14.5zM491 779q-21 0 -34 14.5t-13 35.5t13 34.5t34 13.5t33.5 -13.5t12.5 -34.5t-13 -35.5t-33 -14.5zM409 -10q-153 0 -260.5 104t-107.5 258q0 157 108 262.5t260 105.5
t260 -105.5t108 -262.5q0 -154 -107.5 -258t-260.5 -104zM409 38q133 0 226.5 90.5t93.5 223.5q0 136 -93.5 228t-226.5 92t-226 -92t-93 -228q0 -133 93 -223.5t226 -90.5z" />
    <glyph glyph-name="multiply" unicode="&#xd7;" horiz-adv-x="550" 
d="M494 101q6 -7 1 -12l-18 -20q-5 -6 -11 0l-191 192l-191 -191q-6 -6 -11 0l-19 19q-5 6 1 12l190 190l-189 189q-6 6 -1 12l17 20q5 6 11 0l192 -191l190 190q6 6 12 0l17 -18q6 -6 0 -12l-190 -190z" />
    <glyph glyph-name="Oslash" unicode="&#xd8;" horiz-adv-x="825" 
d="M598 668q82 -48 130.5 -131t48.5 -185q0 -154 -107.5 -258t-260.5 -104q-90 0 -166 38l-31 -56q-5 -7 -12 -7h-15q-8 0 -4 7l38 69q-81 47 -129.5 129t-48.5 182q0 157 108 262.5t260 105.5q88 0 166 -39l30 55q5 7 12 7h15q8 0 4 -7zM90 352q0 -86 41.5 -157t111.5 -112
l308 557q-67 32 -142 32q-133 0 -226 -92t-93 -228zM409 38q133 0 226.5 90.5t93.5 223.5q0 88 -41.5 160.5t-112.5 114.5l-309 -557q66 -32 143 -32z" />
    <glyph glyph-name="Ugrave" unicode="&#xd9;" horiz-adv-x="649" 
d="M331 772q5 -7 -4 -7h-18q-7 0 -13 6l-99 119q-4 7 4 7h56q8 0 12 -7zM323 -11q-111 0 -177.5 69.5t-66.5 207.5v436q0 8 8 8h35q8 0 8 -8v-439q0 -115 52.5 -170.5t142.5 -55.5q89 0 142 55.5t53 170.5v439q0 8 8 8h34q8 0 8 -8v-436q0 -138 -67.5 -207.5t-179.5 -69.5z
" />
    <glyph glyph-name="Uacute" unicode="&#xda;" horiz-adv-x="649" 
d="M306 763q-8 0 -4 7l61 119q5 7 12 7h57q10 0 4 -7l-99 -120q-5 -6 -13 -6h-18zM323 -11q-111 0 -177.5 69.5t-66.5 207.5v436q0 8 8 8h35q8 0 8 -8v-439q0 -115 52.5 -170.5t142.5 -55.5q89 0 142 55.5t53 170.5v439q0 8 8 8h34q8 0 8 -8v-436q0 -138 -67.5 -207.5
t-179.5 -69.5z" />
    <glyph glyph-name="Ucircumflex" unicode="&#xdb;" horiz-adv-x="649" 
d="M193 756q-7 0 -2 6l108 128q7 5 12 5h25q7 0 12 -5l108 -128q6 -6 -2 -6h-28q-7 0 -12 5l-90 95l-91 -95q-5 -5 -12 -5h-28zM562 710q8 0 8 -8v-436q0 -138 -67.5 -207.5t-179.5 -69.5q-111 0 -177.5 69.5t-66.5 207.5v436q0 8 8 8h35q8 0 8 -8v-439q0 -115 52.5 -170.5
t142.5 -55.5q89 0 142 55.5t53 170.5v439q0 8 8 8h34z" />
    <glyph glyph-name="Udieresis" unicode="&#xdc;" horiz-adv-x="649" 
d="M248 779q-21 0 -34 14.5t-13 35.5t13 34.5t34 13.5t33.5 -13.5t12.5 -34.5t-13 -35.5t-33 -14.5zM406 779q-21 0 -34 14.5t-13 35.5t13 34.5t34 13.5t33.5 -13.5t12.5 -34.5t-13 -35.5t-33 -14.5zM323 -11q-111 0 -177.5 69.5t-66.5 207.5v436q0 8 8 8h35q8 0 8 -8v-439
q0 -115 52.5 -170.5t142.5 -55.5q89 0 142 55.5t53 170.5v439q0 8 8 8h34q8 0 8 -8v-436q0 -138 -67.5 -207.5t-179.5 -69.5z" />
    <glyph glyph-name="Yacute" unicode="&#xdd;" horiz-adv-x="549" 
d="M257 763q-8 0 -4 7l61 119q5 7 12 7h57q10 0 4 -7l-99 -120q-4 -6 -13 -6h-18zM256 0q-8 0 -8 8v297l-234 391q-3 4 -3 8q0 6 11 6h34q8 0 12 -7l208 -354l206 354q4 7 12 7h32q11 0 11 -6q0 -2 -3 -8l-234 -391v-297q0 -8 -8 -8h-36z" />
    <glyph glyph-name="Thorn" unicode="&#xde;" horiz-adv-x="502" 
d="M233 567q109 0 174 -56.5t65 -149.5t-65.5 -149t-174.5 -56h-100v-148q0 -8 -8 -8h-35q-8 0 -8 8v694q0 8 8 8h35q8 0 8 -8v-135h101zM232 199q88 0 138 44t50 118t-50 118t-138 44h-100v-324h100z" />
    <glyph glyph-name="germandbls" unicode="&#xdf;" horiz-adv-x="515" 
d="M299 -10q-56 0 -103 17q-6 3 -6 10v34q0 6 6 4q43 -20 95 -20q57 0 88.5 28t31.5 75q0 38 -22 64.5t-66 57.5q-4 3 -18 12t-18.5 12t-16 11.5t-16 13l-13 13t-11.5 15t-7.5 16t-6 20t-1.5 21.5q0 25 11 49t20 35t33 38q24 26 33.5 38t18.5 32.5t9 43.5q0 37 -28.5 60.5
t-72.5 23.5q-50 0 -80.5 -33.5t-30.5 -99.5v-573q0 -8 -8 -8h-34q-8 0 -8 8v571q0 88 44 134t116 46q65 0 108 -34.5t43 -91.5q0 -27 -11 -52t-22.5 -39.5t-34.5 -39.5q-3 -4 -13 -15.5t-13 -15t-10.5 -12.5t-10 -14.5t-6.5 -13.5t-5 -15.5t-1 -16.5t1 -16.5t5 -14.5
t6.5 -12t10 -12t11 -10.5t14 -11t14.5 -10.5t17.5 -11.5t18.5 -11.5q33 -23 50 -38.5t32.5 -45.5t15.5 -67q0 -66 -42 -107t-117 -41z" />
    <glyph glyph-name="agrave" unicode="&#xe0;" horiz-adv-x="596" 
d="M287 569l-125 173q-5 6 3 9l38 13q2 1 4 1q5 0 8 -5l111 -190q4 -7 -4 -7h-22q-7 0 -13 6zM512 480q8 0 8 -8v-464q0 -8 -8 -8h-34q-8 0 -8 8v104q-25 -58 -77.5 -90t-112.5 -32q-91 0 -161 69t-70 182q0 114 68 181.5t163 67.5q63 0 113.5 -30.5t76.5 -87.5v100q0 8 8 8
h34zM287 37q75 0 129.5 55.5t54.5 147.5q0 93 -53.5 148t-130.5 55q-79 0 -133 -55t-54 -148q0 -92 56 -147.5t131 -55.5z" />
    <glyph glyph-name="aacute" unicode="&#xe1;" horiz-adv-x="596" 
d="M262 563q-8 0 -4 7l111 190q3 7 12 4l38 -13q9 -3 3 -9l-125 -173q-5 -6 -13 -6h-22zM512 480q8 0 8 -8v-464q0 -8 -8 -8h-34q-8 0 -8 8v104q-25 -58 -77.5 -90t-112.5 -32q-91 0 -161 69t-70 182q0 114 68 181.5t163 67.5q63 0 113.5 -30.5t76.5 -87.5v100q0 8 8 8h34z
M287 37q75 0 129.5 55.5t54.5 147.5q0 93 -53.5 148t-130.5 55q-79 0 -133 -55t-54 -148q0 -92 56 -147.5t131 -55.5z" />
    <glyph glyph-name="acircumflex" unicode="&#xe2;" horiz-adv-x="596" 
d="M177 562q-7 0 -3 6l110 175q4 6 11 6h23q7 0 11 -6l110 -175q4 -6 -3 -6h-28q-7 0 -11 6l-90 134l-91 -134q-4 -6 -11 -6h-28zM512 480q8 0 8 -8v-464q0 -8 -8 -8h-34q-8 0 -8 8v104q-25 -58 -77.5 -90t-112.5 -32q-91 0 -161 69t-70 182q0 114 68 181.5t163 67.5
q63 0 113.5 -30.5t76.5 -87.5v100q0 8 8 8h34zM287 37q75 0 129.5 55.5t54.5 147.5q0 93 -53.5 148t-130.5 55q-79 0 -133 -55t-54 -148q0 -92 56 -147.5t131 -55.5z" />
    <glyph glyph-name="atilde" unicode="&#xe3;" horiz-adv-x="596" 
d="M171 601q-6 0 -6 6q2 49 23.5 81t57.5 32t72 -42q28 -32 50 -32q41 0 46 63q0 6 6 6h21q6 0 6 -6q-2 -46 -22.5 -76t-54.5 -30t-71 41q-28 34 -52 34q-45 0 -50 -71q0 -6 -6 -6h-20zM512 480q8 0 8 -8v-464q0 -8 -8 -8h-34q-8 0 -8 8v104q-25 -58 -77.5 -90t-112.5 -32
q-91 0 -161 69t-70 182q0 114 68 181.5t163 67.5q63 0 113.5 -30.5t76.5 -87.5v100q0 8 8 8h34zM287 37q75 0 129.5 55.5t54.5 147.5q0 93 -53.5 148t-130.5 55q-79 0 -133 -55t-54 -148q0 -92 56 -147.5t131 -55.5z" />
    <glyph glyph-name="adieresis" unicode="&#xe4;" horiz-adv-x="596" 
d="M236 647q-16 0 -26 11t-10 27q0 15 10 26t26 11q15 0 25 -11t10 -26q0 -16 -10 -27t-25 -11zM376 647q-16 0 -26 11t-10 27q0 15 10 26t26 11q15 0 25 -11t10 -26q0 -16 -10 -27t-25 -11zM512 480q8 0 8 -8v-464q0 -8 -8 -8h-34q-8 0 -8 8v104q-25 -58 -77.5 -90
t-112.5 -32q-91 0 -161 69t-70 182q0 114 68 181.5t163 67.5q63 0 113.5 -30.5t76.5 -87.5v100q0 8 8 8h34zM287 37q75 0 129.5 55.5t54.5 147.5q0 93 -53.5 148t-130.5 55q-79 0 -133 -55t-54 -148q0 -92 56 -147.5t131 -55.5z" />
    <glyph glyph-name="aring" unicode="&#xe5;" horiz-adv-x="596" 
d="M306 575q-36 0 -60.5 25t-24.5 62q0 36 24.5 60t60.5 24q35 0 59.5 -24t24.5 -60q0 -37 -24.5 -62t-59.5 -25zM306 721q-25 0 -40.5 -16.5t-15.5 -42.5t15.5 -43t40.5 -17q24 0 40 17t16 43q0 25 -16 42t-40 17zM512 480q8 0 8 -8v-464q0 -8 -8 -8h-34q-8 0 -8 8v104
q-25 -58 -77.5 -90t-112.5 -32q-91 0 -161 69t-70 182q0 114 68 181.5t163 67.5q63 0 113.5 -30.5t76.5 -87.5v100q0 8 8 8h34zM287 37q75 0 129.5 55.5t54.5 147.5q0 93 -53.5 148t-130.5 55q-79 0 -133 -55t-54 -148q0 -92 56 -147.5t131 -55.5z" />
    <glyph glyph-name="ae" unicode="&#xe6;" horiz-adv-x="797" 
d="M574 490q81 0 130.5 -54t49.5 -146q0 -4 -0.5 -12.5t-0.5 -11.5q-2 -8 -9 -8h-326v-13q0 -103 48 -156.5t129 -53.5q85 0 145 52q6 5 6 -3v-33q0 -8 -6 -13q-63 -48 -149 -48q-69 0 -120.5 34t-77.5 95q-26 -62 -78.5 -94.5t-113.5 -32.5q-68 0 -110 36t-42 98
q0 72 57.5 112t156.5 41q51 1 106 -4v34q0 71 -37 104.5t-114 33.5q-73 0 -135 -32q-7 -5 -7 4v31q0 8 7 11q64 29 141 29q146 0 180 -104q56 104 170 104zM574 445q-59 0 -100 -39t-52 -109h287q-1 67 -38.5 107.5t-96.5 40.5zM209 34q59 0 109.5 46.5t50.5 131.5v25
q-53 5 -101 5q-80 0 -125 -29.5t-45 -83.5q0 -46 32 -70.5t79 -24.5z" />
    <glyph glyph-name="ccedilla" unicode="&#xe7;" horiz-adv-x="477" 
d="M426 58q6 2 8 2q6 0 6 -11v-25q0 -8 -7 -11q-60 -23 -127 -23l-24 -35q4 1 13 1q32 0 52 -16.5t20 -43.5q0 -32 -26 -51.5t-65 -19.5q-37 0 -65 13q-6 3 -6 10v16q0 6 6 4q30 -14 62 -14q25 0 42 11t17 30q0 17 -14.5 26.5t-35.5 9.5q-27 0 -48 -8l-2 3l45 65
q-98 10 -163 77.5t-65 171.5q0 111 72 180.5t183 69.5q65 0 123 -22q7 -4 7 -11v-26q0 -11 -6 -11q-2 0 -8 2q-47 22 -109 22q-91 0 -151 -56t-60 -148q0 -93 61.5 -148.5t152.5 -55.5q60 0 112 22z" />
    <glyph glyph-name="egrave" unicode="&#xe8;" horiz-adv-x="528" 
d="M248 571l-125 173q-5 6 3 9l38 13q2 1 4 1q5 0 8 -5l111 -190q3 -7 -4 -7h-22q-7 0 -13 6zM464 259h-364v-16q0 -94 56 -151t142 -57q57 0 108 22q16 7 31.5 17t23 15.5t9.5 5.5q4 0 4 -8v-27q0 -8 -6 -13q-74 -57 -175 -57q-107 0 -175.5 69t-68.5 181q0 109 66.5 179.5
t164.5 70.5q88 0 144 -55.5t56 -151.5q0 -14 -3.5 -19t-12.5 -5zM280 445q-64 0 -111.5 -40t-62.5 -108h330q-2 66 -45.5 107t-110.5 41z" />
    <glyph glyph-name="eacute" unicode="&#xe9;" horiz-adv-x="528" 
d="M223 565q-8 0 -4 7l111 190q3 7 12 4l38 -13q9 -3 3 -9l-125 -173q-4 -6 -13 -6h-22zM464 259h-364v-16q0 -94 56 -151t142 -57q57 0 108 22q16 7 31.5 17t23 15.5t9.5 5.5q4 0 4 -8v-27q0 -8 -6 -13q-74 -57 -175 -57q-107 0 -175.5 69t-68.5 181q0 109 66.5 179.5
t164.5 70.5q88 0 144 -55.5t56 -151.5q0 -14 -3.5 -19t-12.5 -5zM280 445q-64 0 -111.5 -40t-62.5 -108h330q-2 66 -45.5 107t-110.5 41z" />
    <glyph glyph-name="ecircumflex" unicode="&#xea;" horiz-adv-x="528" 
d="M138 564q-7 0 -3 6l110 175q4 6 11 6h23q7 0 11 -6l110 -175q4 -6 -3 -6h-28q-7 0 -11 6l-90 134l-91 -134q-5 -6 -11 -6h-28zM464 259h-364v-16q0 -94 56 -151t142 -57q57 0 108 22q16 7 31.5 17t23 15.5t9.5 5.5q4 0 4 -8v-27q0 -8 -6 -13q-74 -57 -175 -57
q-107 0 -175.5 69t-68.5 181q0 109 66.5 179.5t164.5 70.5q88 0 144 -55.5t56 -151.5q0 -14 -3.5 -19t-12.5 -5zM280 445q-64 0 -111.5 -40t-62.5 -108h330q-2 66 -45.5 107t-110.5 41z" />
    <glyph glyph-name="edieresis" unicode="&#xeb;" horiz-adv-x="528" 
d="M197 649q-16 0 -26 11t-10 27q0 15 10 26t26 11q15 0 25 -11t10 -26q0 -16 -10 -27t-25 -11zM337 649q-16 0 -26 11t-10 27q0 15 10 26t26 11q15 0 25 -11t10 -26q0 -16 -10 -27t-25 -11zM464 259h-364v-16q0 -94 56 -151t142 -57q57 0 108 22q16 7 31.5 17t23 15.5
t9.5 5.5q4 0 4 -8v-27q0 -8 -6 -13q-74 -57 -175 -57q-107 0 -175.5 69t-68.5 181q0 109 66.5 179.5t164.5 70.5q88 0 144 -55.5t56 -151.5q0 -14 -3.5 -19t-12.5 -5zM280 445q-64 0 -111.5 -40t-62.5 -108h330q-2 66 -45.5 107t-110.5 41z" />
    <glyph glyph-name="igrave" unicode="&#xec;" horiz-adv-x="239" 
d="M138 569v-3q0 -5 -6 -5h-23q-8 0 -11 7l-70 171q-1 1 -1 4q0 5 6 6l40 13q2 1 4 1q5 0 6 -6zM103 0q-8 0 -8 8v464q0 8 8 8h33q8 0 8 -8v-464q0 -8 -8 -8h-33z" />
    <glyph glyph-name="iacute" unicode="&#xed;" horiz-adv-x="239" 
d="M106 561q-7 0 -6 8l55 188q2 8 10 5l40 -13q8 -3 5 -10l-70 -171q-4 -7 -11 -7h-23zM103 0q-8 0 -8 8v464q0 8 8 8h33q8 0 8 -8v-464q0 -8 -8 -8h-33z" />
    <glyph glyph-name="icircumflex" unicode="&#xee;" horiz-adv-x="239" 
d="M252 568q4 -6 -3 -6h-28q-7 0 -11 6l-90 134l-91 -134q-5 -6 -11 -6h-28q-7 0 -3 6l110 175q4 6 11 6h23q7 0 11 -6zM136 480q8 0 8 -8v-464q0 -8 -8 -8h-33q-8 0 -8 8v464q0 8 8 8h33z" />
    <glyph glyph-name="idieresis" unicode="&#xef;" horiz-adv-x="239" 
d="M49 647q-16 0 -26 11t-10 27q0 15 10 26t26 11q15 0 25 -11t10 -26q0 -16 -10 -27t-25 -11zM189 647q-16 0 -26 11t-10 27q0 15 10 26t26 11q15 0 25 -11t10 -26q0 -16 -10 -27t-25 -11zM103 0q-8 0 -8 8v464q0 8 8 8h33q8 0 8 -8v-464q0 -8 -8 -8h-33z" />
    <glyph glyph-name="eth" unicode="&#xf0;" horiz-adv-x="592" 
d="M348 623q194 -170 194 -367q0 -123 -71.5 -194.5t-171.5 -71.5q-102 0 -176 69.5t-74 175.5q0 105 69.5 172.5t166.5 67.5q66 0 119 -33.5t84 -88.5l2 1q-42 131 -175 245l-98 -70l-12 17q-5 6 2 10l86 62q-50 41 -108 74q-6 4 0 8l24 16q8 4 14 0q56 -36 103 -75l104 74
q6 5 10 -2l7 -11q5 -6 -2 -10zM299 36q80 0 137 56.5t57 138.5q0 83 -60.5 141t-140.5 58q-79 0 -136.5 -55.5t-57.5 -139.5q0 -83 59.5 -141t141.5 -58z" />
    <glyph glyph-name="ntilde" unicode="&#xf1;" horiz-adv-x="532" 
d="M131 601q-6 0 -6 6q2 49 23.5 81t57.5 32t72 -42q28 -32 50 -32q41 0 46 63q0 6 6 6h21q6 0 6 -6q-2 -46 -22.5 -76t-54.5 -30t-71 41q-28 34 -52 34q-45 0 -50 -71q0 -6 -6 -6h-20zM288 490q79 0 125.5 -46t46.5 -137v-299q0 -8 -8 -8h-34q-8 0 -8 8v297
q0 72 -35.5 106.5t-97.5 34.5q-67 0 -109 -44t-42 -111v-283q0 -8 -8 -8h-34q-8 0 -8 8v464q0 8 8 8h32q8 0 8 -8v-81q46 99 164 99z" />
    <glyph glyph-name="ograve" unicode="&#xf2;" horiz-adv-x="588" 
d="M314 570q4 -7 -4 -7h-22q-7 0 -13 6l-125 173q-5 6 3 9l38 13q2 1 4 1q5 0 8 -5zM294 -10q-100 0 -172.5 73t-72.5 179q0 105 72.5 176.5t172.5 71.5t172 -71.5t72 -176.5q0 -106 -72 -179t-172 -73zM294 36q81 0 138 58.5t57 147.5q0 87 -57 144.5t-138 57.5t-138 -57.5
t-57 -144.5q0 -88 57.5 -147t137.5 -59z" />
    <glyph glyph-name="oacute" unicode="&#xf3;" horiz-adv-x="588" 
d="M250 563q-8 0 -4 7l111 190q3 7 12 4l38 -13q9 -3 3 -9l-125 -173q-5 -6 -13 -6h-22zM294 -10q-100 0 -172.5 73t-72.5 179q0 105 72.5 176.5t172.5 71.5t172 -71.5t72 -176.5q0 -106 -72 -179t-172 -73zM294 36q81 0 138 58.5t57 147.5q0 87 -57 144.5t-138 57.5
t-138 -57.5t-57 -144.5q0 -88 57.5 -147t137.5 -59z" />
    <glyph glyph-name="ocircumflex" unicode="&#xf4;" horiz-adv-x="588" 
d="M165 562q-7 0 -3 6l110 175q4 6 11 6h23q7 0 11 -6l110 -175q4 -6 -3 -6h-28q-7 0 -11 6l-90 134l-91 -134q-4 -6 -11 -6h-28zM294 490q100 0 172 -71.5t72 -176.5q0 -106 -72 -179t-172 -73t-172.5 73t-72.5 179q0 105 72.5 176.5t172.5 71.5zM294 36q81 0 138 58.5
t57 147.5q0 87 -57 144.5t-138 57.5t-138 -57.5t-57 -144.5q0 -88 57.5 -147t137.5 -59z" />
    <glyph glyph-name="otilde" unicode="&#xf5;" horiz-adv-x="588" 
d="M358 603q-34 0 -71 41q-28 34 -52 34q-45 0 -50 -71q0 -6 -6 -6h-20q-6 0 -6 6q2 49 23.5 81t57.5 32t72 -42q28 -32 50 -32q41 0 46 63q0 6 6 6h21q6 0 6 -6q-2 -46 -22.5 -76t-54.5 -30zM294 -10q-100 0 -172.5 73t-72.5 179q0 105 72.5 176.5t172.5 71.5t172 -71.5
t72 -176.5q0 -106 -72 -179t-172 -73zM294 36q81 0 138 58.5t57 147.5q0 87 -57 144.5t-138 57.5t-138 -57.5t-57 -144.5q0 -88 57.5 -147t137.5 -59z" />
    <glyph glyph-name="odieresis" unicode="&#xf6;" horiz-adv-x="588" 
d="M224 647q-16 0 -26 11t-10 27q0 15 10 26t26 11q15 0 25 -11t10 -26q0 -16 -10 -27t-25 -11zM364 647q-16 0 -26 11t-10 27q0 15 10 26t26 11q15 0 25 -11t10 -26q0 -16 -10 -27t-25 -11zM294 -10q-100 0 -172.5 73t-72.5 179q0 105 72.5 176.5t172.5 71.5t172 -71.5
t72 -176.5q0 -106 -72 -179t-172 -73zM294 36q81 0 138 58.5t57 147.5q0 87 -57 144.5t-138 57.5t-138 -57.5t-57 -144.5q0 -88 57.5 -147t137.5 -59z" />
    <glyph glyph-name="divide" unicode="&#xf7;" horiz-adv-x="550" 
d="M275 449q-21 0 -34.5 15t-13.5 36t13.5 35.5t34.5 14.5t34.5 -14.5t13.5 -35.5t-13.5 -36t-34.5 -15zM47 275q-8 0 -8 8v28q0 8 8 8h456q8 0 8 -8v-28q0 -8 -8 -8h-456zM275 43q-21 0 -34.5 15t-13.5 36t13.5 35.5t34.5 14.5t34.5 -14.5t13.5 -35.5t-13.5 -36t-34.5 -15z
" />
    <glyph glyph-name="oslash" unicode="&#xf8;" horiz-adv-x="588" 
d="M424 452q52 -33 83 -88t31 -122q0 -106 -72 -179t-172 -73q-58 0 -108 26l-35 -65q-5 -7 -12 -7h-15q-8 0 -4 7l43 78q-52 34 -83 90t-31 123q0 105 72.5 176.5t172.5 71.5q55 0 107 -25l35 65q5 7 12 7h15q8 0 4 -7zM99 242q0 -111 86 -172l194 355q-41 19 -85 19
q-81 0 -138 -57.5t-57 -144.5zM294 36q81 0 138 58.5t57 147.5q0 110 -87 169l-194 -355q42 -20 86 -20z" />
    <glyph glyph-name="ugrave" unicode="&#xf9;" horiz-adv-x="524" 
d="M243 569l-125 173q-5 6 3 9l38 13q2 1 4 1q5 0 8 -5l111 -190q4 -7 -4 -7h-22q-7 0 -13 6zM443 480q8 0 8 -8v-464q0 -8 -8 -8h-30q-8 0 -8 8l-1 89l-1 1q-21 -52 -63 -80t-98 -28q-76 0 -121.5 47.5t-45.5 143.5v291q0 8 8 8h34q8 0 8 -8v-290q0 -148 128 -148
q68 0 108 49t40 128v261q0 8 8 8h34z" />
    <glyph glyph-name="uacute" unicode="&#xfa;" horiz-adv-x="524" 
d="M218 563q-8 0 -4 7l111 190q3 7 12 4l38 -13q9 -3 3 -9l-125 -173q-5 -6 -13 -6h-22zM443 480q8 0 8 -8v-464q0 -8 -8 -8h-30q-8 0 -8 8l-1 89l-1 1q-21 -52 -63 -80t-98 -28q-76 0 -121.5 47.5t-45.5 143.5v291q0 8 8 8h34q8 0 8 -8v-290q0 -148 128 -148q68 0 108 49
t40 128v261q0 8 8 8h34z" />
    <glyph glyph-name="ucircumflex" unicode="&#xfb;" horiz-adv-x="524" 
d="M133 562q-7 0 -3 6l110 175q4 6 11 6h23q7 0 11 -6l110 -175q4 -6 -3 -6h-28q-7 0 -11 6l-90 134l-91 -134q-4 -6 -11 -6h-28zM443 480q8 0 8 -8v-464q0 -8 -8 -8h-30q-8 0 -8 8l-1 89l-1 1q-21 -52 -63 -80t-98 -28q-76 0 -121.5 47.5t-45.5 143.5v291q0 8 8 8h34
q8 0 8 -8v-290q0 -148 128 -148q68 0 108 49t40 128v261q0 8 8 8h34z" />
    <glyph glyph-name="udieresis" unicode="&#xfc;" horiz-adv-x="524" 
d="M192 647q-16 0 -26 11t-10 27q0 15 10 26t26 11q15 0 25 -11t10 -26q0 -16 -10 -27t-25 -11zM332 647q-16 0 -26 11t-10 27q0 15 10 26t26 11q15 0 25 -11t10 -26q0 -16 -10 -27t-25 -11zM443 480q8 0 8 -8v-464q0 -8 -8 -8h-30q-8 0 -8 8l-1 89l-1 1q-21 -52 -63 -80
t-98 -28q-76 0 -121.5 47.5t-45.5 143.5v291q0 8 8 8h34q8 0 8 -8v-290q0 -148 128 -148q68 0 108 49t40 128v261q0 8 8 8h34z" />
    <glyph glyph-name="yacute" unicode="&#xfd;" horiz-adv-x="479" 
d="M190 563q-8 0 -4 7l111 190q3 7 12 4l38 -13q9 -3 3 -9l-125 -173q-5 -6 -13 -6h-22zM456 480q8 0 5 -7l-225 -526q-52 -122 -141 -122q-44 0 -74 16q-7 3 -7 12v30q0 8 7 4q31 -20 72 -20q65 0 101 87l23 55l-201 464q-4 7 5 7h37q8 0 11 -7l172 -407l170 407q3 7 11 7
h34z" />
    <glyph glyph-name="thorn" unicode="&#xfe;" horiz-adv-x="566" 
d="M303 490q91 0 152.5 -67.5t61.5 -182.5q0 -113 -64 -181.5t-150 -68.5q-58 0 -105 30.5t-73 87.5v-269q0 -8 -8 -8h-34q-8 0 -8 8v902q0 8 8 8h31q8 0 8 -8v-375q26 60 74 92t107 32zM292 33q70 0 122 56t52 151q0 96 -50.5 151t-123.5 55t-123 -57.5t-50 -148.5t50 -149
t123 -58z" />
    <glyph glyph-name="ydieresis" unicode="&#xff;" horiz-adv-x="479" 
d="M164 647q-16 0 -26 11t-10 27q0 15 10 26t26 11q15 0 25 -11t10 -26q0 -16 -10 -27t-25 -11zM304 647q-16 0 -26 11t-10 27q0 15 10 26t26 11q15 0 25 -11t10 -26q0 -16 -10 -27t-25 -11zM456 480q8 0 5 -7l-225 -526q-52 -122 -141 -122q-44 0 -74 16q-7 3 -7 12v30
q0 8 7 4q31 -20 72 -20q65 0 101 87l23 55l-201 464q-4 7 5 7h37q8 0 11 -7l172 -407l170 407q3 7 11 7h34z" />
    <glyph glyph-name="abreve" unicode="&#x103;" horiz-adv-x="596" 
d="M306 599q-50 0 -84.5 33.5t-37.5 84.5q0 7 7 7h17q7 0 7 -7q3 -36 28 -58.5t63 -22.5q37 0 62 22.5t29 58.5q0 7 7 7h16q7 0 7 -7q-3 -51 -37.5 -84.5t-83.5 -33.5zM512 480q8 0 8 -8v-464q0 -8 -8 -8h-34q-8 0 -8 8v104q-25 -58 -77.5 -90t-112.5 -32q-91 0 -161 69
t-70 182q0 114 68 181.5t163 67.5q63 0 113.5 -30.5t76.5 -87.5v100q0 8 8 8h34zM287 37q75 0 129.5 55.5t54.5 147.5q0 93 -53.5 148t-130.5 55q-79 0 -133 -55t-54 -148q0 -92 56 -147.5t131 -55.5z" />
    <glyph glyph-name="eogonek" unicode="&#x119;" horiz-adv-x="528" 
d="M464 259h-364v-16q0 -94 56 -151t142 -57q57 0 108 22q16 7 31.5 17t23 15.5t9.5 5.5q4 0 4 -8v-27q0 -8 -6 -13q-52 -40 -119 -52q-78 -45 -78 -90q0 -21 16 -34t39 -13q16 0 34 7q7 1 7 -5v-17q0 -8 -6 -10q-18 -8 -41 -8q-38 0 -63.5 21t-25.5 55q0 49 57 89
q-105 2 -172 70.5t-67 179.5q0 109 66.5 179.5t164.5 70.5q88 0 144 -55.5t56 -151.5q0 -14 -3.5 -19t-12.5 -5zM280 445q-64 0 -111.5 -40t-62.5 -108h330q-2 66 -45.5 107t-110.5 41z" />
    <glyph glyph-name="idotless" unicode="&#x131;" horiz-adv-x="239" 
d="M103 0q-8 0 -8 8v464q0 8 8 8h33q8 0 8 -8v-464q0 -8 -8 -8h-33z" />
    <glyph glyph-name="Lslash" unicode="&#x141;" horiz-adv-x="463" 
d="M428 48q8 0 8 -8v-32q0 -8 -8 -8h-339q-8 0 -8 8v343l-47 -19q-7 -4 -7 5v18q0 8 7 11l47 19v317q0 8 8 8h35q8 0 8 -8v-297l69 27q7 4 7 -5v-18q0 -8 -7 -11l-69 -27v-323h296z" />
    <glyph glyph-name="lslash" unicode="&#x142;" horiz-adv-x="256" 
d="M234 46q4 2 5 2q4 0 4 -8v-26q0 -8 -7 -11q-29 -13 -66 -13q-92 0 -92 99v312l-53 -21q-7 -4 -7 5v18q0 8 7 11l53 21v306q0 8 8 8h34q8 0 8 -8v-286l64 25q7 4 7 -5v-18q0 -8 -7 -11l-64 -25v-326q0 -61 56 -61q28 0 50 12z" />
    <glyph glyph-name="OE" unicode="&#x152;" horiz-adv-x="837" 
d="M776 666h-285v-272h255q8 0 8 -8v-29q0 -8 -8 -8h-255v-305h285q8 0 8 -8v-28q0 -8 -8 -8h-334q-180 0 -290 100t-110 260q0 157 111 253.5t289 96.5h334q8 0 8 -8v-28q0 -8 -8 -8zM440 46v619q-158 -1 -251.5 -84.5t-93.5 -220.5q0 -140 94 -226.5t251 -87.5z" />
    <glyph glyph-name="oe" unicode="&#x153;" horiz-adv-x="900" 
d="M843 263h-345q-1 -7 -1 -20q0 -101 51.5 -155.5t141.5 -54.5q93 0 155 52q6 5 6 -3v-29q0 -8 -6 -13q-65 -50 -159 -50q-79 0 -135.5 39.5t-80.5 111.5q-23 -69 -77.5 -110t-123.5 -41q-94 0 -157 72t-63 180q0 107 63 177.5t157 70.5q69 0 123 -40.5t78 -109.5
q25 69 76.5 109.5t121.5 40.5q84 0 137 -55t53 -154q0 -18 -15 -18zM666 450q-66 0 -108.5 -42.5t-55.5 -111.5h314q-3 70 -44.5 112t-105.5 42zM272 35q74 0 123 59t49 148q0 88 -49 145.5t-123 57.5q-77 0 -126.5 -57.5t-49.5 -145.5q0 -90 49.5 -148.5t126.5 -58.5z" />
    <glyph glyph-name="Scaron" unicode="&#x160;" horiz-adv-x="500" 
d="M230 762l-111 127q-4 6 3 6h25q8 0 14 -6l90 -93l90 93q6 6 14 6h24q9 0 3 -6l-111 -127q-5 -6 -13 -6h-15q-7 0 -13 6zM268 391q93 -40 142.5 -87.5t49.5 -120.5q0 -86 -64.5 -140t-166.5 -54q-109 0 -187 46q-5 3 -5 10v37q0 5 2 5t4 -1q80 -50 183 -50q81 0 132 39
t51 106q0 57 -43 95t-124 72q-35 16 -57 27.5t-50.5 30.5t-44.5 38t-27.5 46.5t-11.5 59.5q0 74 57.5 122t146.5 48q85 0 154 -31q7 -3 7 -11v-34q0 -6 -3 -6q-2 0 -4 1q-64 35 -151 35q-66 0 -110.5 -34t-44.5 -88q0 -25 10 -47t22.5 -36t39 -30.5t43 -24.5t50.5 -23z" />
    <glyph glyph-name="scaron" unicode="&#x161;" horiz-adv-x="440" 
d="M197 574l-110 163q-3 7 4 7h26q7 0 13 -7l89 -125l88 125q4 7 13 7h26q8 0 4 -7l-110 -163q-3 -7 -12 -7h-19q-8 0 -12 7zM231 273q35 -11 57.5 -20t46.5 -25t35.5 -39t11.5 -54q0 -65 -48 -105t-126 -40q-89 0 -143 35q-5 3 -5 9v36q0 6 2 6l4 -2q62 -39 141 -39
q58 0 92.5 26.5t34.5 68.5q0 18 -7.5 32t-16.5 23t-29 18.5t-33.5 14l-40.5 13.5q-69 21 -107 49.5t-38 82.5q0 57 45 92t119 35q70 0 131 -27q5 -3 5 -9v-35q0 -5 -3 -5q-2 0 -4 1q-59 31 -129 31q-53 0 -84 -22t-31 -58q0 -20 8.5 -35t29 -26t36 -17t46.5 -15z" />
    <glyph glyph-name="Ydieresis" unicode="&#x178;" horiz-adv-x="549" 
d="M199 779q-21 0 -34 14.5t-13 35.5t13 34.5t34 13.5t33.5 -13.5t12.5 -34.5t-13 -35.5t-33 -14.5zM357 779q-21 0 -34 14.5t-13 35.5t13 34.5t34 13.5t33.5 -13.5t12.5 -34.5t-13 -35.5t-33 -14.5zM256 0q-8 0 -8 8v297l-234 391q-3 4 -3 8q0 6 11 6h34q8 0 12 -7
l208 -354l206 354q4 7 12 7h32q11 0 11 -6q0 -2 -3 -8l-234 -391v-297q0 -8 -8 -8h-36z" />
    <glyph glyph-name="Zcaron" unicode="&#x17d;" horiz-adv-x="562" 
d="M262 762l-111 127q-5 6 3 6h25q8 0 14 -6l90 -93l90 93q6 6 14 6h24q9 0 3 -6l-111 -127q-5 -6 -13 -6h-15q-7 0 -13 6zM508 44q8 0 8 -8v-28q0 -8 -8 -8h-462q-8 0 -8 8v9q0 8 4 15l402 634h-375q-8 0 -8 8v28q0 8 8 8h430q8 0 8 -8v-9q0 -8 -4 -15l-402 -634h407z" />
    <glyph glyph-name="zcaron" unicode="&#x17e;" horiz-adv-x="449" 
d="M191 574l-110 163q-3 7 4 7h26q7 0 13 -7l89 -125l88 125q4 7 13 7h26q8 0 4 -7l-110 -163q-3 -7 -12 -7h-19q-8 0 -12 7zM402 465q0 -9 -5 -14l-299 -406h296q8 0 8 -8v-29q0 -8 -8 -8h-354q-8 0 -8 8v7q0 9 5 14l299 406h-277q-8 0 -8 8v29q0 8 8 8h335q8 0 8 -8v-7z
" />
    <glyph glyph-name="florin" unicode="&#x192;" horiz-adv-x="451" 
d="M438 743q7 -3 7 -11v-22q0 -10 -6 -10q-4 0 -8 2q-26 14 -63 14q-75 0 -96 -109l-23 -127h143q8 0 8 -8v-23q0 -8 -8 -8h-150l-85 -466q-13 -77 -46 -113.5t-90 -36.5q-38 0 -74 10q-8 3 -8 11v30q0 8 7 4q29 -12 66 -12q75 0 96 109l84 464h-98q-8 0 -8 8v23q0 8 8 8
h106l23 129q13 77 45.5 113.5t89.5 36.5q44 0 80 -16z" />
    <glyph glyph-name="circumflex" unicode="&#x2c6;" horiz-adv-x="500" 
d="M382 568q4 -6 -3 -6h-28q-7 0 -11 6l-90 134l-91 -134q-5 -6 -11 -6h-28q-7 0 -3 6l110 175q4 6 11 6h23q7 0 11 -6z" />
    <glyph glyph-name="caron" unicode="&#x2c7;" horiz-adv-x="500" 
d="M377 744q8 0 4 -7l-110 -163q-3 -7 -12 -7h-19q-8 0 -12 7l-110 163q-3 7 4 7h26q7 0 13 -7l89 -125l88 125q4 7 13 7h26z" />
    <glyph glyph-name="breve" unicode="&#x2d8;" horiz-adv-x="500" 
d="M250 599q-50 0 -84.5 33.5t-37.5 84.5q0 7 7 7h17q7 0 7 -7q3 -36 28 -58.5t63 -22.5q37 0 62 22.5t29 58.5q0 7 7 7h16q7 0 7 -7q-3 -51 -37.5 -84.5t-83.5 -33.5z" />
    <glyph glyph-name="dotaccent" unicode="&#x2d9;" horiz-adv-x="500" 
d="M251 627q-22 0 -35 15t-13 36t13 35.5t35 14.5q21 0 34 -14.5t13 -35.5t-13.5 -36t-33.5 -15z" />
    <glyph glyph-name="ring" unicode="&#x2da;" horiz-adv-x="500" 
d="M250 575q-36 0 -60.5 25t-24.5 62q0 36 24.5 60t60.5 24q35 0 59.5 -24t24.5 -60q0 -37 -24.5 -62t-59.5 -25zM250 602q24 0 40 17t16 43q0 25 -16 42t-40 17q-25 0 -40.5 -16.5t-15.5 -42.5t15.5 -43t40.5 -17z" />
    <glyph glyph-name="ogonek" unicode="&#x2db;" horiz-adv-x="500" 
d="M271 -175q-38 0 -63.5 21t-25.5 55q0 36 32.5 68t82.5 52l23 -15q-98 -50 -98 -101q0 -21 16 -34t39 -13q17 0 34 7q7 1 7 -5v-17q0 -8 -6 -10q-18 -8 -41 -8z" />
    <glyph glyph-name="tilde" unicode="&#x2dc;" horiz-adv-x="500" 
d="M314 604q-34 0 -71 41q-28 34 -52 34q-45 0 -50 -71q0 -6 -6 -6h-20q-6 0 -6 6q2 49 23.5 81t57.5 32t72 -42q28 -32 50 -32q41 0 46 63q0 6 6 6h21q6 0 6 -6q-2 -46 -22.5 -76t-54.5 -30z" />
    <glyph glyph-name="hungarumlaut" unicode="&#x2dd;" horiz-adv-x="500" 
d="M128 562q-8 0 -5 7l86 188q3 6 11 5l35 -11q8 -2 4 -9l-98 -173q-5 -7 -12 -7h-21zM240 562q-8 0 -5 7l91 188q3 6 11 5l36 -11q8 -2 4 -9l-104 -173q-3 -7 -12 -7h-21z" />
    <glyph glyph-name="gravecomb" unicode="&#x300;" 
d="M19 570q3 -7 -4 -7h-22q-7 0 -13 6l-125 173q-5 6 3 9l38 13q2 1 4 1q5 0 8 -5z" />
    <glyph glyph-name="acutecomb" unicode="&#x301;" 
d="M-44 563q-8 0 -4 7l111 190q3 7 12 4l38 -13q9 -3 3 -9l-125 -173q-5 -6 -13 -6h-22z" />
    <glyph glyph-name="circumflexcomb" unicode="&#x302;" 
d="M132 568q4 -6 -3 -6h-28q-7 0 -11 6l-90 134l-91 -134q-5 -6 -11 -6h-28q-7 0 -3 6l110 175q5 6 11 6h23q7 0 11 -6z" />
    <glyph glyph-name="tildecomb" unicode="&#x303;" 
d="M64 604q-34 0 -71 41q-28 34 -52 34q-45 0 -50 -71q0 -6 -6 -6h-20q-6 0 -6 6q2 49 23.5 81t57.5 32t72 -42q28 -32 50 -32q41 0 46 63q0 6 6 6h21q6 0 6 -6q-2 -46 -22.5 -76t-54.5 -30z" />
    <glyph glyph-name="macroncomb" unicode="&#x304;" 
d="M-126 638q-8 0 -8 8v22q0 8 8 8h251q8 0 8 -8v-22q0 -8 -8 -8h-251z" />
    <glyph glyph-name="brevecomb" unicode="&#x306;" 
d="M0 599q-50 0 -84.5 33.5t-37.5 84.5q0 7 7 7h17q7 0 7 -7q3 -36 28 -58.5t63 -22.5q37 0 62 22.5t29 58.5q0 7 7 7h16q7 0 7 -7q-3 -51 -37.5 -84.5t-83.5 -33.5z" />
    <glyph glyph-name="dotaccentcomb" unicode="&#x307;" 
d="M1 627q-22 0 -35 15t-13 36t13 35.5t35 14.5q21 0 34 -14.5t13 -35.5t-13.5 -36t-33.5 -15z" />
    <glyph glyph-name="dieresiscomb" unicode="&#x308;" 
d="M-70 647q-16 0 -26 11t-10 27q0 15 10 26t26 11q15 0 25 -11t10 -26q0 -16 -10 -27t-25 -11zM70 647q-16 0 -26 11t-10 27q0 15 10 26t26 11q15 0 25 -11t10 -26q0 -16 -10 -27t-25 -11z" />
    <glyph glyph-name="ringcomb" unicode="&#x30a;" 
d="M0 575q-36 0 -60.5 25t-24.5 62q0 36 24.5 60t60.5 24q35 0 59.5 -24t24.5 -60q0 -37 -24.5 -62t-59.5 -25zM0 602q24 0 40 17t16 43q0 25 -16 42t-40 17q-25 0 -40.5 -16.5t-15.5 -42.5t15.5 -43t40.5 -17z" />
    <glyph glyph-name="hungarumlautcomb" unicode="&#x30b;" 
d="M-84 562q-8 0 -5 7l86 188q3 6 11 5l35 -11q8 -2 4 -9l-98 -173q-5 -7 -12 -7h-21zM28 562q-8 0 -5 7l91 188q3 6 11 5l36 -11q8 -2 4 -9l-104 -173q-3 -7 -12 -7h-21z" />
    <glyph glyph-name="caroncomb" unicode="&#x30c;" 
d="M127 744q8 0 4 -7l-110 -163q-3 -7 -12 -7h-19q-8 0 -12 7l-110 163q-3 7 4 7h26q7 0 13 -7l89 -125l88 125q4 7 13 7h26z" />
    <glyph glyph-name="cedillacomb" unicode="&#x327;" horiz-adv-x="100" 
d="M57 -44q32 0 52 -16.5t20 -43.5q0 -32 -26 -51.5t-65 -19.5q-37 0 -65 13q-6 3 -6 10v16q0 6 6 4q30 -14 62 -14q25 0 42 11t17 30q0 17 -14.5 26.5t-35.5 9.5q-27 0 -48 -8l-2 3l57 83h31l-38 -54q4 1 13 1z" />
    <glyph glyph-name="ogonekcomb" unicode="&#x328;" 
d="M20 -175q-38 0 -63.5 21t-25.5 55q0 36 32.5 68t82.5 52l23 -15q-98 -50 -98 -101q0 -21 16 -34t39 -13q16 0 34 7q7 1 7 -5v-17q0 -8 -6 -10q-18 -8 -41 -8z" />
    <glyph glyph-name="slashshortcomb" unicode="&#x337;" 
d="M-170 -45q-8 0 -4 7l316 579q5 7 12 7h15q8 0 4 -7l-316 -579q-5 -7 -12 -7h-15z" />
    <glyph glyph-name="slashlongcomb" unicode="&#x338;" 
d="M-224 -43q-8 0 -4 7l424 764q5 7 12 7h15q8 0 4 -7l-424 -764q-5 -7 -12 -7h-15z" />
    <glyph glyph-name="Delta" unicode="&#x394;" horiz-adv-x="627" 
d="M24 0q-8 0 -8 8v8q0 8 3 15l274 676q3 7 11 7h19q8 0 11 -7l274 -676q3 -6 3 -15v-8q0 -8 -8 -8h-579zM71 42h485l-243 597z" />
    <glyph glyph-name="Omega" unicode="&#x3a9;" horiz-adv-x="686" 
d="M68 0q-8 0 -8 8v29q0 8 8 8h190v93q-98 31 -156.5 108.5t-58.5 179.5q0 126 85 210t211 84q125 0 210.5 -84t85.5 -210q0 -102 -59 -179.5t-156 -108.5v-93h190q8 0 8 -8v-29q0 -8 -8 -8h-228q-8 0 -8 8v132q0 8 8 11q90 32 145.5 102t55.5 166q0 110 -69 182t-175 72
t-175.5 -72t-69.5 -182q0 -96 56 -166t146 -102q8 -3 8 -11v-132q0 -8 -8 -8h-228z" />
    <glyph glyph-name="mu" unicode="&#x3bc;" horiz-adv-x="525" 
d="M443 480q8 0 8 -8v-464q0 -8 -8 -8h-29q-8 0 -8 8l-1 91l-3 6q-40 -115 -155 -115q-91 0 -127 66l4 -214q0 -8 -8 -8h-35q-8 0 -8 8l3 238l-2 392q0 8 8 8h34q8 0 8 -8v-294q0 -148 126 -148q70 0 110.5 51.5t40.5 137.5v253q0 8 8 8h34z" />
    <glyph glyph-name="pi" unicode="&#x3c0;" horiz-adv-x="515" 
d="M476 44q9 6 9 -4v-25q0 -8 -7 -12q-28 -13 -64 -13q-91 0 -91 103v344h-176v-429q0 -8 -8 -8h-32q-8 0 -8 8v429h-86q-8 0 -8 8v27q0 8 8 8h443q8 0 8 -8v-27q0 -8 -8 -8h-85v-337q0 -67 56 -67q27 0 49 11z" />
    <glyph glyph-name="enspace" unicode="&#x2002;" horiz-adv-x="500" 
 />
    <glyph glyph-name="emspace" unicode="&#x2003;" horiz-adv-x="1000" 
 />
    <glyph glyph-name="threeperemspace" unicode="&#x2004;" horiz-adv-x="581" 
 />
    <glyph glyph-name="fourperemspace" unicode="&#x2005;" horiz-adv-x="250" 
 />
    <glyph glyph-name="thinspace" unicode="&#x2009;" horiz-adv-x="109" 
 />
    <glyph glyph-name="hairspace" unicode="&#x200a;" horiz-adv-x="69" 
 />
    <glyph glyph-name="endash" unicode="&#x2013;" horiz-adv-x="525" 
d="M70 238q-8 0 -8 8v27q0 8 8 8h384q8 0 8 -8v-27q0 -8 -8 -8h-384z" />
    <glyph glyph-name="emdash" unicode="&#x2014;" horiz-adv-x="884" 
d="M70 238q-8 0 -8 8v26q0 8 8 8h743q8 0 8 -8v-26q0 -8 -8 -8h-743z" />
    <glyph glyph-name="quoteleft" unicode="&#x2018;" horiz-adv-x="211" 
d="M89 589q18 -2 30 -16t12 -34q0 -24 -14.5 -38.5t-33.5 -14.5q-21 0 -35.5 14t-14.5 37q0 16 22 71l45 105q3 7 10 7h10q9 0 6 -9z" />
    <glyph glyph-name="quoteright" unicode="&#x2019;" horiz-adv-x="211" 
d="M132 720q21 0 35.5 -14t14.5 -37q0 -16 -22 -71l-45 -105q-3 -7 -10 -7h-10q-9 0 -6 9l37 122q-18 2 -30 16t-12 34q0 24 14.5 38.5t33.5 14.5z" />
    <glyph glyph-name="quotesinglbase" unicode="&#x201a;" horiz-adv-x="213" 
d="M106 96q21 0 35.5 -14t14.5 -37q0 -16 -22 -71l-45 -105q-3 -7 -10 -7h-10q-9 0 -6 9l37 122q-18 2 -30 16t-12 34q0 24 14.5 38.5t33.5 14.5z" />
    <glyph glyph-name="quotedblleft" unicode="&#x201c;" horiz-adv-x="368" 
d="M87 579q18 -2 30 -16t12 -34q0 -24 -14.5 -38.5t-33.5 -14.5q-21 0 -35.5 14t-14.5 37q0 16 22 71l45 105q3 7 10 7h10q9 0 6 -9zM244 579q18 -2 30 -16t12 -34q0 -24 -14.5 -38.5t-33.5 -14.5q-21 0 -35.5 14t-14.5 37q0 16 22 71l45 105q3 7 10 7h10q9 0 6 -9z" />
    <glyph glyph-name="quotedblright" unicode="&#x201d;" horiz-adv-x="368" 
d="M133 720q21 0 35.5 -14t14.5 -37q0 -16 -22 -71l-45 -105q-3 -7 -10 -7h-10q-9 0 -6 9l37 122q-18 2 -30 16t-12 34q0 24 14.5 38.5t33.5 14.5zM290 720q21 0 35.5 -14t14.5 -37q0 -16 -22 -71l-45 -105q-3 -7 -10 -7h-10q-9 0 -6 9l37 122q-18 2 -30 16t-12 34
q0 24 14.5 38.5t33.5 14.5z" />
    <glyph glyph-name="quotedblbase" unicode="&#x201e;" horiz-adv-x="370" 
d="M104 96q21 0 35.5 -14t14.5 -37q0 -16 -22 -71l-45 -105q-3 -7 -10 -7h-10q-9 0 -6 9l37 122q-18 2 -30 16t-12 34q0 24 14.5 38.5t33.5 14.5zM261 96q21 0 35.5 -14t14.5 -37q0 -16 -22 -71l-45 -105q-3 -7 -10 -7h-10q-9 0 -6 9l37 122q-18 2 -30 16t-12 34
q0 24 14.5 38.5t33.5 14.5z" />
    <glyph glyph-name="dagger" unicode="&#x2020;" horiz-adv-x="341" 
d="M296 591q8 0 8 -8v-26q0 -8 -8 -8l-106 2v-270q0 -8 -8 -8h-28q-8 0 -8 8v271l-108 -3q-8 0 -8 8v26q0 8 8 8l108 -3v114q0 8 8 8h28q8 0 8 -8v-113z" />
    <glyph glyph-name="daggerdbl" unicode="&#x2021;" horiz-adv-x="341" 
d="M296 555l-107 2v-138l107 3q8 0 8 -8v-27q0 -8 -8 -8l-107 3v-101q0 -8 -8 -8h-27q-8 0 -8 8v101l-108 -3q-8 0 -8 8v27q0 8 8 8l108 -3v139l-108 -3q-8 0 -8 8v26q0 8 8 8l108 -3v108q0 8 8 8h27q8 0 8 -8v-107l107 2q8 0 8 -8v-26q0 -8 -8 -8z" />
    <glyph glyph-name="bullet" unicode="&#x2022;" horiz-adv-x="262" 
d="M132 243q-33 0 -53.5 23t-20.5 55t20.5 54t53.5 22q32 0 52 -22t20 -54t-20 -55t-52 -23z" />
    <glyph glyph-name="ellipsis" unicode="&#x2026;" horiz-adv-x="591" 
d="M107 -7q-22 0 -35.5 15t-13.5 37t13.5 36.5t35.5 14.5q21 0 34.5 -14.5t13.5 -36.5t-13.5 -37t-34.5 -15zM296 -7q-22 0 -35.5 15t-13.5 37t13.5 36.5t35.5 14.5q21 0 34.5 -14.5t13.5 -36.5t-13.5 -37t-34.5 -15zM485 -7q-22 0 -35.5 15t-13.5 37t13.5 36.5t35.5 14.5
q21 0 34.5 -14.5t13.5 -36.5t-13.5 -37t-34.5 -15z" />
    <glyph glyph-name="perthousand" unicode="&#x2030;" horiz-adv-x="954" 
d="M101 -14q-7 4 -3 11l457 723q4 7 11 3l9 -6q7 -4 3 -11l-457 -723q-4 -7 -11 -3zM180 427q-48 0 -81.5 40.5t-33.5 105.5q0 66 33 106.5t82 40.5q48 0 81.5 -40.5t33.5 -106.5q0 -64 -33.5 -105t-81.5 -41zM180 459q34 0 57 31.5t23 82.5q0 53 -22.5 84t-57.5 31t-58 -31
t-23 -84q0 -51 23 -82.5t58 -31.5zM486 -10q-48 0 -81.5 40.5t-33.5 105.5q0 66 33 106.5t82 40.5t82 -40.5t33 -106.5q0 -65 -33.5 -105.5t-81.5 -40.5zM774 -10q-48 0 -81.5 40.5t-33.5 105.5q0 66 33 106.5t82 40.5t82 -40.5t33 -106.5q0 -65 -33.5 -105.5t-81.5 -40.5z
M486 22q34 0 57 31.5t23 82.5q0 53 -22.5 84t-57.5 31t-58 -31t-23 -84q0 -51 23.5 -82.5t57.5 -31.5zM774 22q34 0 57 31.5t23 82.5q0 53 -22.5 84t-57.5 31t-58 -31t-23 -84q0 -51 23.5 -82.5t57.5 -31.5z" />
    <glyph glyph-name="guilsinglleft" unicode="&#x2039;" horiz-adv-x="349" 
d="M241 51q-4 -6 -10 0l-169 195q-5 6 0 12l168 183q5 6 11 0l16 -17q6 -6 1 -12l-143 -160l143 -168q5 -7 0 -12z" />
    <glyph glyph-name="guilsinglright" unicode="&#x203a;" horiz-adv-x="349" 
d="M118 51q-4 -6 -10 0l-17 21q-5 7 0 12l143 168l-143 160q-5 6 1 12l16 17q6 6 11 0l168 -183q5 -7 0 -12z" />
    <glyph glyph-name="fraction" unicode="&#x2044;" horiz-adv-x="115" 
d="M-187 -14q-7 4 -3 11l457 723q4 7 11 3l9 -6q7 -4 3 -11l-457 -723q-4 -7 -11 -3z" />
    <glyph glyph-name="euro" unicode="&#x20ac;" horiz-adv-x="585" 
d="M528 66q7 5 7 -4v-32q0 -8 -7 -11q-67 -30 -140 -30q-109 0 -190 76t-103 205h-60q-8 0 -8 8v20q0 8 8 8h56q-3 26 -3 53q0 25 1 37h-54q-8 0 -8 8v20q0 8 8 8h58q20 132 102 210t195 78q64 0 129 -28q7 -4 7 -11v-32q0 -8 -7 -4q-58 29 -124 29q-96 0 -165 -65.5
t-87 -176.5h347q8 0 8 -8v-20q0 -8 -8 -8h-352q-1 -12 -1 -37q0 -27 3 -53h350q8 0 8 -8v-20q0 -8 -8 -8h-345q21 -110 88.5 -172t161.5 -62q69 0 133 30z" />
    <glyph glyph-name="trademark" unicode="&#x2122;" horiz-adv-x="714" 
d="M676 375q1 -7 -6 -7h-26q-7 0 -8 7l-49 287l-102 -276q-1 -7 -9 -7h-14q-7 0 -9 7l-101 271l-51 -282q-1 -7 -8 -7h-24q-7 0 -6 7l63 328q1 7 8 7h26q7 0 9 -7l101 -275l100 275q1 7 9 7h24q7 0 8 -7zM264 702v-18q0 -7 -7 -7h-97v-302q0 -7 -7 -7h-24q-7 0 -7 7v302h-97
q-7 0 -7 7v18q0 7 7 7h232q7 0 7 -7z" />
    <glyph glyph-name="oneeighth" unicode="&#x215b;" horiz-adv-x="840" 
d="M648 717q7 -4 3 -11l-457 -723q-4 -7 -11 -3l-9 6q-7 4 -3 11l457 723q4 7 11 3zM187 301v369l-119 -46q-7 -4 -7 5v19q0 8 7 11l128 52q6 3 13 3h7q8 0 8 -8v-405q0 -8 -8 -8h-21q-8 0 -8 8zM709 224q39 -10 65 -39t26 -69q0 -54 -40.5 -87.5t-101.5 -33.5
q-60 0 -101 33.5t-41 87.5q0 40 26 69t65 39q-33 11 -52.5 37t-19.5 61q0 46 35 75.5t88 29.5t88 -29.5t35 -75.5q0 -35 -19.5 -61t-52.5 -37zM568 318q0 -35 24.5 -58t65.5 -23t65.5 23t24.5 58t-25.5 57.5t-64.5 22.5q-38 0 -64 -22.5t-26 -57.5zM658 25q46 0 76.5 26.5
t30.5 66.5q0 38 -32 64.5t-75 26.5t-74.5 -26.5t-31.5 -64.5q0 -40 30.5 -66.5t75.5 -26.5z" />
    <glyph glyph-name="threeeighths" unicode="&#x215c;" horiz-adv-x="839" 
d="M647 717q7 -4 3 -11l-457 -723q-4 -7 -11 -3l-9 6q-7 4 -3 11l457 723q4 7 11 3zM312 410q0 -53 -42.5 -88t-109.5 -35q-59 0 -104 20q-7 3 -7 11v18q0 8 7 5q47 -21 100 -21q51 0 83 26t32 66q0 39 -37.5 63.5t-102.5 24.5h-12q-8 0 -8 8v14q0 8 8 8h11q59 0 91.5 25
t32.5 59q0 32 -28 53t-74 21q-45 0 -87 -20q-7 -5 -7 4v18q0 8 7 11q45 19 92 19q62 0 98.5 -28t36.5 -71q0 -35 -26 -64t-73 -39q55 -7 87 -36.5t32 -71.5zM708 224q39 -10 65 -39t26 -69q0 -54 -40.5 -87.5t-101.5 -33.5q-60 0 -101 33.5t-41 87.5q0 40 26 69t65 39
q-33 11 -52.5 37t-19.5 61q0 46 35 75.5t88 29.5t88 -29.5t35 -75.5q0 -35 -19.5 -61t-52.5 -37zM567 318q0 -35 24.5 -58t65.5 -23t65.5 23t24.5 58t-25.5 57.5t-64.5 22.5q-38 0 -64 -22.5t-26 -57.5zM657 25q46 0 76.5 26.5t30.5 66.5q0 38 -32 64.5t-75 26.5
t-74.5 -26.5t-31.5 -64.5q0 -40 30.5 -66.5t75.5 -26.5z" />
    <glyph glyph-name="fiveeighths" unicode="&#x215d;" horiz-adv-x="843" 
d="M651 717q7 -4 3 -11l-457 -723q-4 -7 -11 -3l-9 6q-7 4 -3 11l457 723q4 7 11 3zM310 428q0 -63 -46.5 -102t-115.5 -39q-45 0 -84 17q-7 4 -7 12v18q0 8 7 4q39 -18 79 -18q55 0 90.5 30t35.5 77q0 46 -32.5 74t-83.5 28q-42 0 -80 -19q-3 -2 -5 -1t-1 5l37 192q0 8 9 8
h170q8 0 8 -8v-17q0 -8 -8 -8h-150l-26 -131q27 9 60 9q62 0 102.5 -35.5t40.5 -95.5zM713 224q39 -10 65 -39t26 -69q0 -54 -40.5 -87.5t-101.5 -33.5q-60 0 -101 33.5t-41 87.5q0 40 26 69t65 39q-33 11 -52.5 37t-19.5 61q0 46 35 75.5t88 29.5t88 -29.5t35 -75.5
q0 -35 -19.5 -61t-52.5 -37zM572 318q0 -35 24.5 -58t65.5 -23t65.5 23t24.5 58t-25.5 57.5t-64.5 22.5q-38 0 -64 -22.5t-26 -57.5zM662 25q46 0 76.5 26.5t30.5 66.5q0 38 -32 64.5t-75 26.5t-74.5 -26.5t-31.5 -64.5q0 -40 30.5 -66.5t75.5 -26.5z" />
    <glyph glyph-name="seveneighths" unicode="&#x215e;" horiz-adv-x="777" 
d="M585 717q7 -4 3 -11l-457 -723q-4 -7 -11 -3l-9 6q-7 4 -3 11l457 723q4 7 11 3zM310 714q8 0 4 -7l-209 -407q-5 -7 -12 -7h-24q-8 0 -4 7l197 379h-204q-8 0 -8 8v19q0 8 8 8h252zM646 224q39 -10 65 -39t26 -69q0 -54 -40.5 -87.5t-101.5 -33.5q-60 0 -101 33.5
t-41 87.5q0 40 26 69t65 39q-33 11 -52.5 37t-19.5 61q0 46 35 75.5t88 29.5t88 -29.5t35 -75.5q0 -35 -19.5 -61t-52.5 -37zM505 318q0 -35 24.5 -58t65.5 -23t65.5 23t24.5 58t-25.5 57.5t-64.5 22.5q-38 0 -64 -22.5t-26 -57.5zM595 25q46 0 76.5 26.5t30.5 66.5
q0 38 -32 64.5t-75 26.5t-74.5 -26.5t-31.5 -64.5q0 -40 30.5 -66.5t75.5 -26.5z" />
    <glyph glyph-name="partialdiff" unicode="&#x2202;" horiz-adv-x="584" 
d="M235 719q141 0 215 -104t74 -292q0 -146 -65.5 -239.5t-186.5 -93.5q-91 0 -154.5 60t-63.5 160q0 103 74.5 172t189.5 69q93 0 154 -35q-15 125 -75.5 193.5t-163.5 68.5q-70 0 -119 -16q-8 -3 -8 5v28q0 9 8 10q49 14 121 14zM273 33q100 0 152.5 78.5t52.5 206.5
q0 19 -2 55q-61 36 -151 36q-98 0 -161 -57.5t-63 -142.5q0 -77 50 -126.5t122 -49.5z" />
    <glyph glyph-name="product" unicode="&#x220f;" horiz-adv-x="714" 
d="M607 710q8 0 8 -8v-30q0 -8 -8 -8h-105v-777q0 -8 -8 -8h-36q-8 0 -8 8v777h-234v-777q0 -8 -8 -8h-35q-8 0 -8 8v777h-98q-1 0 -1 1v37q0 8 8 8h533z" />
    <glyph glyph-name="summation" unicode="&#x2211;" horiz-adv-x="544" 
d="M472 -79q8 0 8 -8v-27q0 -8 -8 -8h-400q-8 0 -8 8v17q0 9 5 14l300 386l-301 370q-4 4 -4 12v17q0 8 8 8h398q8 0 8 -8v-27q0 -8 -8 -8h-343l286 -352q5 -7 5 -12q0 -7 -5 -13l-287 -369h346z" />
    <glyph glyph-name="minus" unicode="&#x2212;" horiz-adv-x="550" 
d="M47 274q-8 0 -8 8v28q0 8 8 8h456q8 0 8 -8v-28q0 -8 -8 -8h-456z" />
    <glyph glyph-name="radical" unicode="&#x221a;" horiz-adv-x="542" 
d="M497 710q7 0 6 -8l-270 -824q-2 -8 -10 -8h-14q-8 0 -11 7l-184 442q-2 6 -2 7q0 8 12 8h23q8 0 11 -7l157 -389l242 764q2 8 10 8h30z" />
    <glyph glyph-name="infinity" unicode="&#x221e;" horiz-adv-x="875" 
d="M648 479q70 0 116 -50.5t46 -132.5q0 -83 -45 -132.5t-115 -49.5q-45 0 -88.5 25.5t-68 53t-56.5 69.5q-51 -69 -99.5 -108.5t-108.5 -39.5q-69 0 -116.5 51t-47.5 127q0 78 49 132.5t119 54.5q59 0 105.5 -40.5t96.5 -109.5q31 44 56.5 72t68 53t88.5 25zM230 156
q48 0 91 37.5t90 102.5q-50 68 -91 104.5t-89 36.5q-51 0 -87.5 -41.5t-36.5 -100.5q0 -58 36 -98.5t87 -40.5zM653 156q50 0 82.5 36.5t32.5 99.5q0 65 -34 105t-87 40q-51 0 -95 -38.5t-91 -103.5q51 -66 95 -102.5t97 -36.5z" />
    <glyph glyph-name="integral" unicode="&#x222b;" horiz-adv-x="459" 
d="M21 -209q-40 0 -75 11q-7 4 -7 11v30q0 8 7 4q28 -13 66 -13q75 0 96 109l122 666q14 77 46.5 113.5t89.5 36.5q44 0 80 -16q7 -3 7 -11v-22q0 -10 -6 -10q-4 0 -8 2q-26 14 -64 14q-76 0 -95 -109l-123 -666q-14 -77 -46.5 -113.5t-89.5 -36.5z" />
    <glyph glyph-name="approxequal" unicode="&#x2248;" horiz-adv-x="600" 
d="M357 336q-23 0 -43 9t-31 19t-28 28q-16 17 -25.5 25.5t-27 16.5t-36.5 8q-36 0 -56 -27t-23 -72q0 -8 -8 -8h-21q-8 0 -8 8q3 63 32.5 103t79.5 40q36 0 60 -15t50 -43q16 -16 25 -24t25 -16t33 -8q33 0 51.5 25.5t20.5 66.5q0 8 8 8h21q8 0 8 -8q-2 -60 -31 -98
t-76 -38zM357 145q-23 0 -43 9t-31 19t-28 28q-16 17 -25.5 25.5t-27 16.5t-36.5 8q-36 0 -56 -27t-23 -72q0 -8 -8 -8h-21q-8 0 -8 8q3 63 32.5 103t79.5 40q36 0 60 -15t50 -43q16 -16 25 -24t25 -16t33 -8q33 0 51.5 25.5t20.5 66.5q0 8 8 8h21q8 0 8 -8q-2 -60 -31 -98
t-76 -38z" />
    <glyph glyph-name="notequal" unicode="&#x2260;" horiz-adv-x="550" 
d="M503 368h-192l-69 -151h261q8 0 8 -8v-28q0 -8 -8 -8h-281l-53 -116q-3 -7 -11 -7h-16q-8 0 -5 7l53 116h-143q-8 0 -8 8v28q0 8 8 8h163l69 151h-232q-8 0 -8 8v28q0 8 8 8h252l56 122q3 7 11 7h16q8 0 5 -7l-56 -122h172q8 0 8 -8v-28q0 -8 -8 -8z" />
    <glyph glyph-name="lessequal" unicode="&#x2264;" horiz-adv-x="550" 
d="M511 96q0 -8 -7 -4l-458 233q-7 5 -7 12v19l465 237q7 5 7 -4v-36q0 -8 -7 -12l-388 -194q-6 -4 0 -8l388 -194q7 -5 7 -12v-37zM511 10q0 -8 -8 -8h-456q-8 0 -8 8v28q0 8 8 8h456q8 0 8 -8v-28z" />
    <glyph glyph-name="greaterequal" unicode="&#x2265;" horiz-adv-x="550" 
d="M46 92q-7 -5 -7 4v37q0 8 7 12l388 194q6 4 0 8l-388 194q-7 5 -7 12v36q0 8 7 4l465 -237v-19q0 -8 -7 -12zM47 2q-8 0 -8 8v28q0 8 8 8h456q8 0 8 -8v-28q0 -8 -8 -8h-456z" />
    <glyph glyph-name="lozenge" unicode="&#x25ca;" horiz-adv-x="550" 
d="M275 -55q-8 0 -12 7l-216 386q-5 6 0 14l216 386q5 7 12 7h7q8 0 12 -7l208 -386q5 -6 0 -14l-208 -386q-5 -7 -12 -7h-7zM279 1l186 344l-186 344l-194 -344z" />
    <glyph glyph-name="apple" unicode="&#xf8ff;" horiz-adv-x="999" 
d="M499 -140q-135 0 -250 67t-182 182t-67 251q0 206 146.5 352.5t352.5 146.5q135 0 250.5 -67t182.5 -182t67 -250q0 -136 -67 -251t-182.5 -182t-250.5 -67zM499 109q205 0 341 15q26 2 37.5 11t14.5 33q5 63 5 192q0 128 -5 191q-3 24 -14.5 33t-37.5 11
q-136 15 -341 15t-342 -15q-25 -2 -36.5 -11t-14.5 -33q-6 -63 -6 -191q0 -129 6 -192q3 -24 14.5 -33t36.5 -11q137 -15 342 -15zM499 157q-85 0 -143.5 59.5t-58.5 143.5q0 83 58.5 142.5t143.5 59.5t143.5 -59.5t58.5 -142.5q0 -84 -58.5 -143.5t-143.5 -59.5z" />
    <glyph glyph-name="a.ss01" horiz-adv-x="487" 
d="M217 490q95 0 145 -44.5t50 -130.5v-307q0 -8 -8 -8h-29q-8 0 -8 8q-1 31 -1 89l-2 7q-25 -55 -72.5 -83.5t-102.5 -28.5q-68 0 -111 36t-43 97q0 75 59.5 116t159.5 41q63 0 109 -4v39q0 60 -40 93t-112 33q-75 0 -133 -29q-6 -2 -8 -2q-6 0 -6 11v25q0 8 7 11
q64 31 146 31zM196 37q62 0 114.5 47t52.5 131v22q-55 5 -102 5q-83 0 -129.5 -29t-46.5 -83q0 -44 32 -68.5t79 -24.5z" />
    <glyph glyph-name="aacute.ss01" horiz-adv-x="486" 
d="M189 563q-8 0 -4 7l111 190q3 7 12 4l38 -13q9 -3 3 -9l-125 -173q-5 -6 -13 -6h-22zM217 490q95 0 145 -44.5t50 -130.5v-307q0 -8 -8 -8h-29q-8 0 -8 8q-1 31 -1 89l-2 7q-25 -55 -72.5 -83.5t-102.5 -28.5q-68 0 -111 36t-43 97q0 75 59.5 116t159.5 41q63 0 109 -4
v39q0 60 -40 93t-112 33q-75 0 -133 -29q-6 -2 -8 -2q-6 0 -6 11v25q0 8 7 11q64 31 146 31zM196 37q62 0 114.5 47t52.5 131v22q-55 5 -102 5q-83 0 -129.5 -29t-46.5 -83q0 -44 32 -68.5t79 -24.5z" />
    <glyph glyph-name="acircumflex.ss01" horiz-adv-x="486" 
d="M104 562q-7 0 -3 6l110 175q5 6 11 6h23q7 0 11 -6l110 -175q4 -6 -3 -6h-28q-7 0 -11 6l-90 134l-91 -134q-5 -6 -11 -6h-28zM217 490q95 0 145 -44.5t50 -130.5v-307q0 -8 -8 -8h-29q-8 0 -8 8q-1 31 -1 89l-2 7q-25 -55 -72.5 -83.5t-102.5 -28.5q-68 0 -111 36
t-43 97q0 75 59.5 116t159.5 41q63 0 109 -4v39q0 60 -40 93t-112 33q-75 0 -133 -29q-6 -2 -8 -2q-6 0 -6 11v25q0 8 7 11q64 31 146 31zM196 37q62 0 114.5 47t52.5 131v22q-55 5 -102 5q-83 0 -129.5 -29t-46.5 -83q0 -44 32 -68.5t79 -24.5z" />
    <glyph glyph-name="adieresis.ss01" horiz-adv-x="486" 
d="M163 647q-16 0 -26 11t-10 27q0 15 10 26t26 11q15 0 25 -11t10 -26q0 -16 -10 -27t-25 -11zM303 647q-16 0 -26 11t-10 27q0 15 10 26t26 11q15 0 25 -11t10 -26q0 -16 -10 -27t-25 -11zM217 490q95 0 145 -44.5t50 -130.5v-307q0 -8 -8 -8h-29q-8 0 -8 8q-1 31 -1 89
l-2 7q-25 -55 -72.5 -83.5t-102.5 -28.5q-68 0 -111 36t-43 97q0 75 59.5 116t159.5 41q63 0 109 -4v39q0 60 -40 93t-112 33q-75 0 -133 -29q-6 -2 -8 -2q-6 0 -6 11v25q0 8 7 11q64 31 146 31zM196 37q62 0 114.5 47t52.5 131v22q-55 5 -102 5q-83 0 -129.5 -29t-46.5 -83
q0 -44 32 -68.5t79 -24.5z" />
    <glyph glyph-name="agrave.ss01" horiz-adv-x="486" 
d="M214 569l-125 173q-5 6 3 9l38 13q2 1 4 1q5 0 8 -5l111 -190q3 -7 -4 -7h-22q-7 0 -13 6zM217 490q95 0 145 -44.5t50 -130.5v-307q0 -8 -8 -8h-29q-8 0 -8 8q-1 31 -1 89l-2 7q-25 -55 -72.5 -83.5t-102.5 -28.5q-68 0 -111 36t-43 97q0 75 59.5 116t159.5 41
q63 0 109 -4v39q0 60 -40 93t-112 33q-75 0 -133 -29q-6 -2 -8 -2q-6 0 -6 11v25q0 8 7 11q64 31 146 31zM196 37q62 0 114.5 47t52.5 131v22q-55 5 -102 5q-83 0 -129.5 -29t-46.5 -83q0 -44 32 -68.5t79 -24.5z" />
    <glyph glyph-name="aring.ss01" horiz-adv-x="486" 
d="M233 575q-36 0 -60.5 25t-24.5 62q0 36 24.5 60t60.5 24q35 0 59.5 -24t24.5 -60q0 -37 -24.5 -62t-59.5 -25zM233 721q-25 0 -40.5 -16.5t-15.5 -42.5t15.5 -43t40.5 -17q24 0 40 17t16 43q0 25 -16 42t-40 17zM217 490q95 0 145 -44.5t50 -130.5v-307q0 -8 -8 -8h-29
q-8 0 -8 8q-1 31 -1 89l-2 7q-25 -55 -72.5 -83.5t-102.5 -28.5q-68 0 -111 36t-43 97q0 75 59.5 116t159.5 41q63 0 109 -4v39q0 60 -40 93t-112 33q-75 0 -133 -29q-6 -2 -8 -2q-6 0 -6 11v25q0 8 7 11q64 31 146 31zM196 37q62 0 114.5 47t52.5 131v22q-55 5 -102 5
q-83 0 -129.5 -29t-46.5 -83q0 -44 32 -68.5t79 -24.5z" />
    <glyph glyph-name="atilde.ss01" horiz-adv-x="486" 
d="M98 601q-6 0 -6 6q2 49 23.5 81t57.5 32t72 -42q28 -32 50 -32q41 0 46 63q0 6 6 6h21q6 0 6 -6q-2 -46 -22.5 -76t-54.5 -30t-71 41q-28 34 -52 34q-45 0 -50 -71q0 -6 -6 -6h-20zM217 490q95 0 145 -44.5t50 -130.5v-307q0 -8 -8 -8h-29q-8 0 -8 8q-1 31 -1 89l-2 7
q-25 -55 -72.5 -83.5t-102.5 -28.5q-68 0 -111 36t-43 97q0 75 59.5 116t159.5 41q63 0 109 -4v39q0 60 -40 93t-112 33q-75 0 -133 -29q-6 -2 -8 -2q-6 0 -6 11v25q0 8 7 11q64 31 146 31zM196 37q62 0 114.5 47t52.5 131v22q-55 5 -102 5q-83 0 -129.5 -29t-46.5 -83
q0 -44 32 -68.5t79 -24.5z" />
    <glyph glyph-name="l.ss02" horiz-adv-x="213" 
d="M89 0q-8 0 -8 8v733q0 8 8 8h34q8 0 8 -8v-733q0 -8 -8 -8h-34z" />
    <glyph glyph-name="lslash.ss02" horiz-adv-x="213" 
d="M189 474q7 4 7 -5v-18q0 -8 -7 -11l-58 -23v-409q0 -8 -8 -8h-34q-8 0 -8 8v389l-59 -23q-7 -4 -7 5v18q0 8 7 11l59 23v310q0 8 8 8h34q8 0 8 -8v-290z" />
    <glyph glyph-name="fl.ss02" horiz-adv-x="544" 
d="M332 744q7 -5 7 -12v-21q0 -10 -6 -10q-4 0 -8 2q-28 13 -62 13q-92 0 -92 -102v-134h150q8 0 8 -8v-23q0 -8 -8 -8h-150v-433q0 -8 -8 -8h-34q-8 0 -8 8v433h-82q-8 0 -8 8v23q0 8 8 8h82v135q0 144 133 144q45 0 78 -15zM455 749q8 0 8 -8v-733q0 -8 -8 -8h-34
q-8 0 -8 8v733q0 8 8 8h34z" />
    <glyph glyph-name="ordfeminine.ss01" horiz-adv-x="350" 
d="M164 596q17 1 45 0t29 -1v17q0 75 -90 75q-43 0 -81 -20q-6 -3 -6 4v22q0 8 6 10q44 17 91 17q63 0 92.5 -26.5t29.5 -83.5v-172q0 -7 -7 -7h-24q-7 0 -7 7q-1 15 -1 46v1q-32 -59 -104 -59q-42 0 -67.5 21.5t-25.5 58.5q0 41 33.5 65t86.5 25zM147 458q33 0 62 23.5
t29 66.5v20q-32 2 -62 1q-44 0 -68 -16t-24 -44q0 -25 17.5 -38t45.5 -13zM288 361q2 0 2 -2v-26q0 -2 -2 -2h-243q-2 0 -2 2v26q0 2 2 2h243z" />
    <glyph glyph-name="zero.tf" horiz-adv-x="585" 
d="M293 -11q-106 0 -173 95t-67 268t67.5 270.5t172.5 97.5q104 0 171.5 -98t67.5 -270t-67 -267.5t-172 -95.5zM293 39q85 0 136.5 81t51.5 232q0 152 -52 236t-136 84t-136.5 -84t-52.5 -236t52 -232.5t137 -80.5z" />
    <glyph glyph-name="one.tf" horiz-adv-x="585" 
d="M352 710q8 0 8 -8v-694q0 -8 -8 -8h-34q-8 0 -8 8v645l-198 -78q-6 -2 -7 -2q-8 0 -8 12v22q0 8 7 11l222 89q6 3 15 3h11z" />
    <glyph glyph-name="two.tf" horiz-adv-x="585" 
d="M499 45q8 0 8 -8v-29q0 -8 -8 -8h-434q-10 0 -10 4t4 8l254 309q42 52 60 76.5t35 62.5t17 74q0 61 -50 101t-129 40q-90 0 -166 -48q-7 -3 -7 4v31q0 8 7 12q73 46 176 46q99 0 159.5 -49.5t60.5 -129.5q0 -59 -27 -108.5t-87 -121.5l-223 -266h360z" />
    <glyph glyph-name="three.tf" horiz-adv-x="585" 
d="M309 380q91 -12 145.5 -62.5t54.5 -122.5q0 -87 -69 -146t-178 -59q-103 0 -177 36q-7 5 -7 12v32q0 8 7 5q78 -39 173 -39q87 0 142 46t55 115q0 71 -64 114t-177 43h-22q-8 0 -8 8v26q0 8 8 8h22q100 0 156 45t56 105q0 56 -48 93t-127 37q-77 0 -150 -38q-7 -5 -7 4
v32q0 8 7 11q75 35 156 35q99 0 158.5 -47.5t59.5 -119.5q0 -59 -44 -108.5t-122 -64.5z" />
    <glyph glyph-name="four.tf" horiz-adv-x="585" 
d="M518 188q8 0 8 -8v-28q0 -8 -8 -8h-93v-136q0 -8 -8 -8h-33q-8 0 -8 8v136h-332q-8 0 -8 8v22q0 8 4 15l341 514q3 7 12 7h24q8 0 8 -8v-514h93zM378 625q-20 -34 -52 -81l-238 -356h288v342q0 31 2 95z" />
    <glyph glyph-name="five.tf" horiz-adv-x="585" 
d="M266 446q101 0 167 -59.5t66 -159.5q0 -106 -75 -171.5t-188 -65.5q-80 0 -141 32q-7 4 -7 12v31q0 5 3 5l6 -2q63 -33 133 -33q93 0 154.5 53t61.5 137q0 80 -55.5 130.5t-141.5 50.5q-39 0 -72 -9t-50 -18t-19 -9q-3 0 -3 5v2l62 325q2 8 10 8h283q8 0 8 -8v-30
q0 -8 -8 -8h-254l-47 -235q48 17 107 17z" />
    <glyph glyph-name="six.tf" horiz-adv-x="585" 
d="M290 428q95 0 157.5 -61t62.5 -156t-67.5 -158t-159.5 -63q-96 0 -161 60.5t-65 154.5q0 105 75 201l235 298q5 6 13 6h36q9 0 3 -6l-215 -265q-14 -21 -50 -65q58 54 136 54zM283 34q74 0 127.5 51.5t53.5 124.5q0 79 -51.5 128.5t-131.5 49.5q-75 0 -126.5 -52.5
t-51.5 -130.5q0 -72 52 -121.5t128 -49.5z" />
    <glyph glyph-name="seven.tf" horiz-adv-x="585" 
d="M516 710q8 0 4 -7l-354 -696q-5 -7 -12 -7h-38q-8 0 -4 7l337 654h-351q-8 0 -8 8v33q0 8 8 8h418z" />
    <glyph glyph-name="eight.tf" horiz-adv-x="585" 
d="M293 -8q-98 0 -165 57t-67 147q0 66 43.5 116t107.5 67q-55 18 -87.5 61t-32.5 100q0 77 57.5 128.5t143.5 51.5q85 0 143 -51.5t58 -128.5q0 -57 -32.5 -100t-87.5 -61q63 -17 106.5 -67t43.5 -116q0 -91 -66.5 -147.5t-164.5 -56.5zM293 397q69 0 111.5 40.5t42.5 99.5
t-44.5 99.5t-109.5 40.5t-110 -40.5t-45 -99.5t43 -99.5t112 -40.5zM293 36q77 0 129 46t52 115t-53 114t-128 45t-128.5 -45t-53.5 -114t52.5 -115t129.5 -46z" />
    <glyph glyph-name="nine.tf" horiz-adv-x="585" 
d="M287 720q96 0 161 -60.5t65 -154.5q0 -105 -75 -201l-235 -298q-5 -6 -13 -6h-36q-9 0 -3 6l215 265q14 21 50 65q-58 -54 -136 -54q-95 0 -157.5 61t-62.5 156t67.5 158t159.5 63zM289 322q75 0 126.5 52.5t51.5 130.5q0 72 -52 121.5t-128 49.5q-74 0 -127.5 -51.5
t-53.5 -124.5q0 -79 51.5 -128.5t131.5 -49.5z" />
    <glyph glyph-name="zero.dnom" horiz-adv-x="364" 
d="M183 -6q-64 0 -105.5 56t-41.5 159t41.5 160.5t105.5 57.5q63 0 104.5 -58t41.5 -160t-41 -158.5t-105 -56.5zM183 29q50 0 80.5 46.5t30.5 133.5t-30.5 135t-80.5 48t-80.5 -48t-30.5 -135t30.5 -133.5t80.5 -46.5z" />
    <glyph glyph-name="one.dnom" horiz-adv-x="356" 
d="M216 421q8 0 8 -8v-405q0 -8 -8 -8h-21q-8 0 -8 8v369l-119 -46q-7 -3 -7 5v19q0 8 7 11l128 52q6 3 13 3h7z" />
    <glyph glyph-name="two.dnom" horiz-adv-x="365" 
d="M306 32q8 0 8 -8v-16q0 -8 -8 -8h-265q-7 0 -2 6l151 182q25 30 36 45t21 36.5t10 41.5q0 36 -29 59.5t-75 23.5q-52 0 -97 -30q-7 -4 -7 3v20q0 8 7 12q44 28 106 28q59 0 95.5 -30t36.5 -78q0 -35 -15.5 -63.5t-51.5 -73.5l-128 -150h207z" />
    <glyph glyph-name="three.dnom" horiz-adv-x="360" 
d="M193 225q55 -7 87 -36.5t32 -71.5q0 -53 -42.5 -88t-109.5 -35q-59 0 -104 20q-7 4 -7 11v18q0 8 7 5q47 -21 100 -21q51 0 83 26t32 66q0 39 -37.5 63.5t-102.5 24.5h-12q-8 0 -8 8v14q0 8 8 8h11q59 0 91.5 25t32.5 59q0 32 -28 53t-74 21q-45 0 -87 -20q-7 -5 -7 4v18
q0 8 7 11q45 19 92 19q62 0 98.5 -28t36.5 -71q0 -35 -26 -64t-73 -39z" />
    <glyph glyph-name="four.dnom" horiz-adv-x="342" 
d="M311 114q8 0 8 -8v-16q0 -8 -8 -8h-53v-74q0 -8 -8 -8h-20q-8 0 -8 8v74h-197q-7 0 -7 7v16q0 6 4 13l201 297q5 6 11 6h16q8 0 8 -8v-299h53zM54 114h169v247z" />
    <glyph glyph-name="five.dnom" horiz-adv-x="364" 
d="M167 266q62 0 102.5 -35.5t40.5 -95.5q0 -63 -46.5 -102t-115.5 -39q-45 0 -84 17q-7 3 -7 12v18q0 8 7 4q39 -18 79 -18q55 0 90.5 30t35.5 77q0 46 -32.5 74t-83.5 28q-42 0 -80 -19q-3 -2 -5 -1t-1 5l37 192q0 8 9 8h170q8 0 8 -8v-17q0 -8 -8 -8h-150l-26 -131
q27 9 60 9z" />
    <glyph glyph-name="six.dnom" horiz-adv-x="363" 
d="M193 257q58 0 96.5 -36.5t38.5 -93.5t-43 -95t-100 -38q-58 0 -98.5 35.5t-40.5 91.5q0 65 49 129l129 165q4 6 13 6h26q9 0 3 -6l-127 -161q-4 -6 -18 -20q31 23 72 23zM184 27q44 0 76 29t32 70q0 45 -30.5 72.5t-77.5 27.5q-44 0 -73.5 -29.5t-29.5 -73.5
q0 -41 30 -68.5t73 -27.5z" />
    <glyph glyph-name="seven.dnom" horiz-adv-x="351" 
d="M310 421q8 0 4 -7l-209 -407q-5 -7 -12 -7h-24q-8 0 -4 7l197 379h-204q-8 0 -8 8v19q0 8 8 8h252z" />
    <glyph glyph-name="eight.dnom" horiz-adv-x="364" 
d="M182 -5q-60 0 -101 33.5t-41 87.5q0 40 26 69t65 39q-33 11 -52.5 37t-19.5 61q0 46 35 75.5t88 29.5t88 -29.5t35 -75.5q0 -35 -19.5 -61t-52.5 -37q39 -10 65 -39t26 -69q0 -54 -40.5 -87.5t-101.5 -33.5zM182 237q41 0 65.5 23t24.5 58t-25.5 57.5t-64.5 22.5
q-38 0 -64 -22.5t-26 -57.5t24.5 -58t65.5 -23zM182 25q46 0 76.5 26.5t30.5 66.5q0 38 -32 64.5t-75 26.5t-74.5 -26.5t-31.5 -64.5q0 -40 30.5 -66.5t75.5 -26.5z" />
    <glyph glyph-name="nine.dnom" horiz-adv-x="363" 
d="M178 427q58 0 98.5 -35.5t40.5 -91.5q0 -65 -49 -129l-129 -165q-5 -6 -13 -6h-26q-9 0 -3 6l127 161q4 6 18 20q-31 -23 -72 -23q-58 0 -96.5 36.5t-38.5 93.5t43 95t100 38zM71 295q0 -45 30.5 -72.5t77.5 -27.5q44 0 73.5 29.5t29.5 73.5q0 41 -30 68.5t-73 27.5
q-44 0 -76 -29t-32 -70z" />
    <glyph glyph-name="zero.numr" horiz-adv-x="364" 
d="M183 287q-64 0 -105.5 56t-41.5 159t41.5 160.5t105.5 57.5q63 0 104.5 -58t41.5 -160t-41 -158.5t-105 -56.5zM183 322q50 0 80.5 46.5t30.5 133.5t-30.5 135t-80.5 48t-80.5 -48t-30.5 -135t30.5 -133.5t80.5 -46.5z" />
    <glyph glyph-name="one.numr" horiz-adv-x="356" 
d="M216 714q8 0 8 -8v-405q0 -8 -8 -8h-21q-8 0 -8 8v369l-119 -46q-7 -4 -7 5v19q0 8 7 11l128 52q6 3 13 3h7z" />
    <glyph glyph-name="two.numr" horiz-adv-x="365" 
d="M306 325q8 0 8 -8v-16q0 -8 -8 -8h-265q-7 0 -2 6l151 182q25 30 36 45t21 36.5t10 41.5q0 36 -29 59.5t-75 23.5q-52 0 -97 -30q-7 -4 -7 3v20q0 8 7 12q44 28 106 28q59 0 95.5 -30t36.5 -78q0 -35 -15.5 -63.5t-51.5 -73.5l-128 -150h207z" />
    <glyph glyph-name="three.numr" horiz-adv-x="360" 
d="M193 518q55 -7 87 -36.5t32 -71.5q0 -53 -42.5 -88t-109.5 -35q-59 0 -104 20q-7 3 -7 11v18q0 8 7 5q47 -21 100 -21q51 0 83 26t32 66q0 39 -37.5 63.5t-102.5 24.5h-12q-8 0 -8 8v14q0 8 8 8h11q59 0 91.5 25t32.5 59q0 32 -28 53t-74 21q-45 0 -87 -20q-7 -5 -7 4v18
q0 8 7 11q45 19 92 19q62 0 98.5 -28t36.5 -71q0 -35 -26 -64t-73 -39z" />
    <glyph glyph-name="four.numr" horiz-adv-x="342" 
d="M311 407q8 0 8 -8v-16q0 -8 -8 -8h-53v-74q0 -8 -8 -8h-20q-8 0 -8 8v74h-197q-7 0 -7 7v16q0 6 4 13l201 297q5 6 11 6h16q8 0 8 -8v-299h53zM54 407h169v247z" />
    <glyph glyph-name="five.numr" horiz-adv-x="364" 
d="M167 559q62 0 102.5 -35.5t40.5 -95.5q0 -63 -46.5 -102t-115.5 -39q-45 0 -84 17q-7 4 -7 12v18q0 8 7 4q39 -18 79 -18q55 0 90.5 30t35.5 77q0 46 -32.5 74t-83.5 28q-42 0 -80 -19q-3 -2 -5 -1t-1 5l37 192q0 8 9 8h170q8 0 8 -8v-17q0 -8 -8 -8h-150l-26 -131
q27 9 60 9z" />
    <glyph glyph-name="six.numr" horiz-adv-x="363" 
d="M193 550q58 0 96.5 -36.5t38.5 -93.5t-43 -95t-100 -38q-58 0 -98.5 35.5t-40.5 91.5q0 65 49 129l129 165q4 6 13 6h26q9 0 3 -6l-127 -161q-4 -6 -18 -20q31 23 72 23zM184 320q44 0 76 29t32 70q0 45 -30.5 72.5t-77.5 27.5q-44 0 -73.5 -29.5t-29.5 -73.5
q0 -41 30 -68.5t73 -27.5z" />
    <glyph glyph-name="seven.numr" horiz-adv-x="351" 
d="M310 714q8 0 4 -7l-209 -407q-5 -7 -12 -7h-24q-8 0 -4 7l197 379h-204q-8 0 -8 8v19q0 8 8 8h252z" />
    <glyph glyph-name="eight.numr" horiz-adv-x="364" 
d="M182 288q-60 0 -101 33.5t-41 87.5q0 40 26 69t65 39q-33 11 -52.5 37t-19.5 61q0 46 35 75.5t88 29.5t88 -29.5t35 -75.5q0 -35 -19.5 -61t-52.5 -37q39 -10 65 -39t26 -69q0 -54 -40.5 -87.5t-101.5 -33.5zM182 530q41 0 65.5 23t24.5 58t-25.5 57.5t-64.5 22.5
q-38 0 -64 -22.5t-26 -57.5t24.5 -58t65.5 -23zM182 318q46 0 76.5 26.5t30.5 66.5q0 38 -32 64.5t-75 26.5t-74.5 -26.5t-31.5 -64.5q0 -40 30.5 -66.5t75.5 -26.5z" />
    <glyph glyph-name="nine.numr" horiz-adv-x="363" 
d="M178 720q58 0 98.5 -35.5t40.5 -91.5q0 -65 -49 -129l-129 -165q-5 -6 -13 -6h-26q-9 0 -3 6l127 161q4 6 18 20q-31 -23 -72 -23q-58 0 -96.5 36.5t-38.5 93.5t43 95t100 38zM71 588q0 -45 30.5 -72.5t77.5 -27.5q44 0 73.5 29.5t29.5 73.5q0 41 -30 68.5t-73 27.5
q-44 0 -76 -29t-32 -70z" />
    <glyph glyph-name="colon.calt" horiz-adv-x="211" 
d="M106 414q-22 0 -35 15t-13 37q0 21 13 35.5t35 14.5q21 0 34.5 -14.5t13.5 -35.5q0 -22 -13.5 -37t-34.5 -15zM106 100q-22 0 -35 15t-13 37q0 21 13 35.5t35 14.5q21 0 34.5 -14.5t13.5 -35.5q0 -22 -13.5 -37t-34.5 -15z" />
    <glyph glyph-name="periodcentered.case" horiz-adv-x="213" 
d="M107 306q-22 0 -35.5 15t-13.5 37t13.5 36.5t35.5 14.5q21 0 34.5 -14.5t13.5 -36.5t-13.5 -37t-34.5 -15z" />
    <glyph glyph-name="colon.tf" horiz-adv-x="293" 
d="M146 305q-22 0 -35 15t-13 37q0 21 13 35.5t35 14.5q21 0 34.5 -14.5t13.5 -35.5q0 -22 -13.5 -37t-34.5 -15zM146 -9q-22 0 -35 15t-13 37q0 21 13 35.5t35 14.5q21 0 34.5 -14.5t13.5 -35.5q0 -22 -13.5 -37t-34.5 -15z" />
    <glyph glyph-name="comma.tf" horiz-adv-x="293" 
d="M146 96q20 0 35 -14.5t15 -36.5q0 -16 -22 -71l-45 -106q-3 -6 -10 -6h-12q-7 0 -5 7l37 124q-18 2 -30.5 16t-12.5 34q0 24 15 38.5t35 14.5z" />
    <glyph glyph-name="period.tf" horiz-adv-x="293" 
d="M147 -7q-22 0 -36 15t-14 37q0 21 14 36t36 15q21 0 34.5 -14.5t13.5 -36.5t-13.5 -37t-34.5 -15z" />
    <glyph glyph-name="semicolon.tf" horiz-adv-x="293" 
d="M146 387q-22 0 -35.5 15t-13.5 37t13.5 36.5t35.5 14.5q21 0 34.5 -14.5t13.5 -36.5t-13.5 -37t-34.5 -15zM145 93q21 0 35.5 -14t14.5 -37q0 -16 -22 -71l-45 -105q-3 -7 -10 -7h-10q-9 0 -6 9l37 122q-18 2 -30 16t-12 34q0 24 14.5 38.5t33.5 14.5z" />
    <glyph glyph-name="emdash.case" horiz-adv-x="884" 
d="M70 337q-8 0 -8 8v26q0 8 8 8h743q8 0 8 -8v-26q0 -8 -8 -8h-743z" />
    <glyph glyph-name="endash.case" horiz-adv-x="525" 
d="M70 337q-8 0 -8 8v27q0 8 8 8h384q8 0 8 -8v-27q0 -8 -8 -8h-384z" />
    <glyph glyph-name="hyphen.case" horiz-adv-x="393" 
d="M70 337q-8 0 -8 8v27q0 8 8 8h253q8 0 8 -8v-27q0 -8 -8 -8h-253z" />
    <glyph glyph-name="softhyphen.case" horiz-adv-x="393" 
d="M70 337q-8 0 -8 8v27q0 8 8 8h253q8 0 8 -8v-27q0 -8 -8 -8h-253z" />
    <glyph glyph-name="dieresiscomb.case" 
d="M-76 779q-21 0 -34 14.5t-13 35.5t13 34.5t34 13.5t33.5 -13.5t12.5 -34.5t-13 -35.5t-33 -14.5zM82 779q-21 0 -34 14.5t-13 35.5t13 34.5t34 13.5t33.5 -13.5t12.5 -34.5t-13 -35.5t-33 -14.5z" />
    <glyph glyph-name="dotaccentcomb.case" 
d="M-16 760q-20 0 -33 14.5t-13 35.5t12.5 35t33.5 14t33.5 -14t12.5 -35t-13 -35.5t-33 -14.5z" />
    <glyph glyph-name="gravecomb.case" 
d="M66 772q5 -7 -4 -7h-18q-7 0 -13 6l-99 119q-4 7 4 7h56q8 0 12 -7z" />
    <glyph glyph-name="acutecomb.case" 
d="M-55 763q-8 0 -4 7l61 119q5 7 12 7h57q10 0 4 -7l-99 -120q-4 -6 -13 -6h-18z" />
    <glyph glyph-name="hungarumlautcomb.case" 
d="M-95 763q-8 0 -4 7l59 119q5 7 12 7h57q9 0 3 -7l-97 -120q-4 -6 -13 -6h-17zM21 763q-8 0 -4 7l61 119q5 7 12 7h59q9 0 3 -6l-101 -121q-5 -6 -13 -6h-17z" />
    <glyph glyph-name="circumflexcomb.case" 
d="M132 762q6 -6 -2 -6h-28q-7 0 -12 5l-90 95l-91 -95q-5 -5 -12 -5h-28q-7 0 -2 6l108 128q7 5 12 5h25q7 0 12 -5z" />
    <glyph glyph-name="caroncomb.case" 
d="M128 895q9 0 3 -6l-111 -127q-5 -6 -13 -6h-15q-7 0 -13 6l-111 127q-4 6 3 6h25q8 0 14 -6l90 -93l90 93q6 6 14 6h24z" />
    <glyph glyph-name="brevecomb.case" 
d="M0 757q-48 0 -80 30t-36 75q0 7 7 7h17q7 0 7 -7q4 -31 27 -51t58 -20q34 0 57.5 20t26.5 51q0 7 7 7h18q7 0 7 -7q-4 -45 -36.5 -75t-79.5 -30z" />
    <glyph glyph-name="ringcomb.case" 
d="M0 743q-36 0 -60.5 25t-24.5 62q0 36 24.5 60t60.5 24q35 0 59.5 -24t24.5 -60q0 -37 -24.5 -62t-59.5 -25zM0 770q24 0 40 17t16 43q0 25 -16 42t-40 17q-25 0 -40.5 -16.5t-15.5 -42.5t15.5 -43t40.5 -17z" />
    <glyph glyph-name="tildecomb.case" horiz-adv-x="112" 
d="M-3 851q-45 0 -50 -66q0 -6 -6 -6h-19q-6 0 -6 6q2 47 23 77t57 30q16 0 30.5 -7t21 -13.5t18.5 -19.5q31 -31 52 -31q41 0 46 61q0 6 6 6h20q6 0 6 -6q-2 -45 -22.5 -74t-53.5 -29q-36 0 -71 39q-2 2 -5.5 6t-5.5 6l-5.5 5.5t-6 5t-6 4t-7 3.5t-7.5 2t-9 1z" />
    <glyph glyph-name="macroncomb.case" 
d="M-126 823q-8 0 -8 8v22q0 8 8 8h252q8 0 8 -8v-22q0 -8 -8 -8h-252z" />
    <glyph glyph-name="acutecomb.narrow" 
d="M-12 561q-7 0 -6 8l55 188q2 8 10 5l40 -13q8 -3 5 -10l-70 -171q-4 -7 -11 -7h-23z" />
    </font>
</defs>
</svg>
