<?xml version="1.0" standalone="no"?>
<!DOCTYPE svg PUBLIC "-//W3C//DTD SVG 1.1//EN" "http://www.w3.org/Graphics/SVG/1.1/DTD/svg11.dtd" >
<svg xmlns="http://www.w3.org/2000/svg" xmlns:xlink="http://www.w3.org/1999/xlink" version="1.1">
<metadata>
Created by FontForge 20170731 at Wed Aug  3 20:44:38 2016
 By Aleksey,,,
Copyright (c) 2016 by Rede Globo. All rights reserved.
</metadata>
<defs>
<font id="GlobotipoTexto-Thin" horiz-adv-x="585" >
  <font-face 
    font-family="Globotipo Texto Thin"
    font-weight="250"
    font-stretch="normal"
    units-per-em="1000"
    panose-1="0 0 3 0 0 0 0 0 0 0"
    ascent="800"
    descent="-200"
    x-height="480"
    cap-height="710"
    bbox="-219.455 -209 999 905"
    underline-thickness="50"
    underline-position="-250"
    unicode-range="U+0020-FB02"
  />
<missing-glyph horiz-adv-x="700" 
d="M350 709q146 0 250 -104t104 -250q0 -147 -104 -251t-250 -104q-147 0 -251 104t-104 251q0 146 104 250t251 104zM350 20q138 0 236 98t98 237q0 138 -98 236t-236 98q-139 0 -237 -98t-98 -236q0 -139 98 -237t237 -98zM555 573l14 -14l-205 -205l205 -205l-14 -14
l-205 205l-205 -205l-14 14l205 205l-205 205l14 14l205 -205z" />
    <glyph glyph-name="fi" unicode="fi" horiz-adv-x="525" 
d="M318 744q5 -3 5 -10v-11q0 -12 -11 -6q-25 16 -66 16q-93 0 -93 -105v-148h153q6 0 6 -7v-12q0 -6 -7 -6h-152v-449q0 -6 -7 -6h-17q-6 0 -6 7v448h-84q-6 0 -6 7v12q0 6 7 6h83v149q0 131 120 131q43 0 75 -16zM420 722q15 0 24 -9.5t9 -24.5t-9 -24.5t-24 -9.5
t-23.5 9.5t-8.5 24.5t8.5 24.5t23.5 9.5zM428 480q6 0 6 -7v-467q0 -6 -7 -6h-17q-6 0 -6 7v467q0 6 7 6h17z" />
    <glyph glyph-name="fl" unicode="fl" horiz-adv-x="556" 
d="M318 744q5 -3 5 -10v-11q0 -12 -11 -6q-25 16 -66 16q-93 0 -93 -105v-148h153q6 0 6 -7v-12q0 -6 -7 -6h-152v-449q0 -6 -7 -6h-17q-6 0 -6 7v448h-84q-6 0 -6 7v12q0 6 7 6h83v149q0 131 120 131q43 0 75 -16zM536 31q7 3 7 -5v-15q0 -7 -6 -9q-27 -12 -60 -12
q-81 0 -81 87v667q0 6 7 6h17q6 0 6 -7v-663q0 -63 58 -63q29 0 52 14z" />
    <glyph glyph-name=".notdef" horiz-adv-x="700" 
d="M350 709q146 0 250 -104t104 -250q0 -147 -104 -251t-250 -104q-147 0 -251 104t-104 251q0 146 104 250t251 104zM350 20q138 0 236 98t98 237q0 138 -98 236t-236 98q-139 0 -237 -98t-98 -236q0 -139 98 -237t237 -98zM555 573l14 -14l-205 -205l205 -205l-14 -14
l-205 205l-205 -205l-14 14l205 205l-205 205l14 14l205 -205z" />
    <glyph glyph-name=".null" horiz-adv-x="0" 
 />
    <glyph glyph-name="nonmarkingreturn" horiz-adv-x="333" 
 />
    <glyph glyph-name="space" unicode=" " horiz-adv-x="218" 
 />
    <glyph glyph-name="exclam" unicode="!" horiz-adv-x="204" 
d="M95 159q-6 0 -6 7l-3 538q0 6 7 6h18q6 0 6 -7l-2 -538q0 -6 -7 -6h-13zM103 -7q-19 0 -30.5 12.5t-11.5 31.5t11.5 31.5t30.5 12.5q18 0 29.5 -12.5t11.5 -31.5t-11.5 -31.5t-29.5 -12.5z" />
    <glyph glyph-name="quotedbl" unicode="&#x22;" horiz-adv-x="302" 
d="M66 511q-6 0 -6 7l-6 186q0 6 7 6h21q6 0 6 -7l-7 -186q0 -6 -7 -6h-8zM180 511q-6 0 -6 7l-6 186q0 6 7 6h21q6 0 6 -7l-7 -186q0 -6 -7 -6h-8z" />
    <glyph glyph-name="numbersign" unicode="#" horiz-adv-x="623" 
d="M581 510q6 0 6 -7v-15q0 -4 -5 -4h-130l-49 -233h151q4 0 4 -5v-16q0 -5 -6 -5h-154l-47 -219q-1 -6 -8 -6h-14q-4 0 -3 5l47 220h-190l-46 -220q-2 -5 -7 -5h-13q-6 0 -5 7l46 218h-108q-6 0 -6 7v13q0 6 7 6h112l50 233h-135q-5 0 -5 6v14q0 6 7 6h138l41 194q1 6 8 6
h14q4 0 3 -5l-41 -195h190l41 195q2 5 7 5h13q6 0 5 -7l-41 -193h123zM378 251l49 233h-189l-49 -233h189z" />
    <glyph glyph-name="dollar" unicode="$" 
d="M498 199q0 -86 -60.5 -137t-157.5 -53l-10 -134q0 -6 -7 -6h-11q-6 0 -5 7l10 133q-98 5 -165 50q-5 3 -5 10v20q0 6 6 2q72 -50 166 -55l24 325q-37 13 -52.5 19t-46.5 22.5t-45.5 32.5t-27 43t-12.5 61q0 70 57 116.5t143 46.5h9l10 125q0 6 7 6h12q6 0 5 -7l-10 -126
q69 -7 134 -42q5 -3 5 -10v-21q0 -6 -6 -2q-61 39 -135 47l-21 -288q95 -31 142 -72.5t47 -112.5zM131 540q0 -60 39.5 -92t113.5 -57l22 283h-6q-72 0 -120.5 -38t-48.5 -96zM282 36q83 2 134 44.5t51 116.5q0 63 -39 95t-122 61z" />
    <glyph glyph-name="percent" unicode="%" horiz-adv-x="671" 
d="M93 -17q-5 3 -1 9l448 728q4 5 9 2l7 -4q5 -3 1 -9l-448 -728q-4 -5 -9 -2zM176 432q-46 0 -77.5 40t-31.5 103q0 65 31.5 105t77.5 40t77 -40t31 -105q0 -63 -31.5 -103t-76.5 -40zM176 455q36 0 60.5 33t24.5 87q0 56 -24.5 89t-60.5 33q-37 0 -61.5 -32.5t-24.5 -89.5
q0 -54 25 -87t61 -33zM496 -10q-46 0 -77.5 40t-31.5 103q0 65 31.5 105t77.5 40t77 -40t31 -105q0 -63 -31.5 -103t-76.5 -40zM496 13q36 0 60.5 33t24.5 87q0 57 -24.5 89.5t-60.5 32.5q-37 0 -61.5 -32.5t-24.5 -89.5q0 -54 25 -87t61 -33z" />
    <glyph glyph-name="ampersand" unicode="&#x26;" horiz-adv-x="614" 
d="M569 3q4 -4 -3 -4h-26q-6 0 -11 5l-72 76q-81 -90 -202 -90q-92 0 -152 49.5t-60 128.5q0 64 37.5 114.5t111.5 80.5q-86 100 -86 186q0 76 52.5 123.5t127.5 47.5q69 0 118 -18q6 -2 6 -9v-17q0 -7 -6 -3q-49 19 -115 19q-63 0 -108 -39t-45 -104q0 -53 30.5 -102.5
t94.5 -116.5l195 -207q55 80 55 192q0 40 -7 78q-2 6 6 6h16q6 0 7 -7q6 -52 6 -76q0 -125 -64 -213zM257 18q109 0 181 83l-132 144l-23 22l-49 51q-9 9 -25 27q-136 -60 -136 -176q0 -68 51.5 -109.5t132.5 -41.5z" />
    <glyph glyph-name="quotesingle" unicode="'" horiz-adv-x="165" 
d="M78 511q-6 0 -6 7l-6 186q0 6 7 6h21q6 0 6 -7l-7 -186q0 -6 -7 -6h-8z" />
    <glyph glyph-name="parenleft" unicode="(" horiz-adv-x="269" 
d="M242 -93q4 -4 -3 -4h-14q-6 0 -11 5q-74 75 -115.5 182t-41.5 217q0 109 42 216.5t116 182.5q4 4 11 4h14q6 0 1 -5q-72 -79 -114 -188.5t-42 -209.5q0 -101 42 -211.5t115 -188.5z" />
    <glyph glyph-name="parenright" unicode=")" horiz-adv-x="269" 
d="M29 -97q-6 0 -1 5q72 79 114 188.5t42 210.5q0 100 -42 210.5t-115 188.5q-4 4 3 4h14q6 0 11 -5q74 -75 115.5 -182t41.5 -216q0 -110 -42 -217.5t-116 -182.5q-4 -4 -11 -4h-14z" />
    <glyph glyph-name="asterisk" unicode="*" horiz-adv-x="383" 
d="M347 590q1 -6 -5 -8l-30 -7q-6 -2 -12 -3l-96 -26l65 -79q1 -1 2 -2.5t3 -3.5t3 -4l18 -22q5 -5 -2 -9l-16 -12q-5 -3 -8 3l-16 25q-1 1 -7 11l-55 84l-55 -86q-6 -9 -7 -11l-16 -24q-3 -5 -9 -1l-16 12q-5 3 0 9l19 23q5 5 8 10l62 77l-97 26l-12 3l-28 8q-6 2 -4 8
l6 19q1 6 9 3l27 -11q4 -2 13 -5l93 -36l-6 101v13l-2 29q0 6 7 6h20q6 0 6 -7l-3 -30v-13l-5 -98l92 36q2 1 12 5l28 10q5 4 7 -4z" />
    <glyph glyph-name="plus" unicode="+" horiz-adv-x="542" 
d="M496 308q6 0 6 -7v-15q0 -6 -7 -6h-210v-222q0 -6 -7 -6h-15q-6 0 -6 7v221h-211q-6 0 -6 7v15q0 6 7 6h210v221q0 6 7 6h15q6 0 6 -7v-220h211z" />
    <glyph glyph-name="comma" unicode="," horiz-adv-x="203" 
d="M101 81q17 0 29.5 -12t12.5 -31q0 -18 -19 -64l-41 -98q-3 -6 -9 -6h-6q-8 0 -5 8l35 115q-16 1 -27 12.5t-11 30.5q0 21 12.5 33t28.5 12z" />
    <glyph glyph-name="hyphen" unicode="-" horiz-adv-x="379" 
d="M67 246q-6 0 -6 7v15q0 6 7 6h244q6 0 6 -7v-15q0 -6 -7 -6h-244z" />
    <glyph glyph-name="period" unicode="." horiz-adv-x="203" 
d="M102 -7q-19 0 -30.5 12.5t-11.5 31.5t11.5 31.5t30.5 12.5q18 0 29.5 -12.5t11.5 -31.5t-11.5 -31.5t-29.5 -12.5z" />
    <glyph glyph-name="slash" unicode="/" horiz-adv-x="316" 
d="M13 -99q-6 0 -4 7l275 844q2 6 9 6h13q6 0 4 -7l-275 -844q-1 -6 -9 -6h-13z" />
    <glyph glyph-name="zero" unicode="0" horiz-adv-x="640" 
d="M320 -11q-113 0 -183.5 95t-70.5 267t71.5 270.5t182.5 98.5q110 0 182 -99t72 -270q0 -170 -71 -266t-183 -96zM320 19q99 0 161.5 87t62.5 245q0 159 -62.5 249.5t-161.5 90.5t-161.5 -90.5t-62.5 -249.5t62 -245.5t162 -86.5z" />
    <glyph glyph-name="one" unicode="1" horiz-adv-x="415" 
d="M250 710q6 0 6 -7v-697q0 -6 -7 -6h-17q-6 0 -6 7v668l-170 -87q-5 -3 -5 4v17q0 5 6 9l174 89q5 3 12 3h7z" />
    <glyph glyph-name="two" unicode="2" horiz-adv-x="526" 
d="M474 27q6 0 6 -7v-14q0 -6 -7 -6h-419q-12 0 -12 8q0 4 7 13l253 305q43 52 62.5 78.5t37 65.5t17.5 76q0 63 -52.5 105t-134.5 42q-96 0 -166 -42l-10 -5q-2 0 -2 5v16q0 6 6 10q69 43 175 43q95 0 154.5 -48.5t59.5 -124.5q0 -59 -28 -108t-90 -122l-243 -290h386z" />
    <glyph glyph-name="three" unicode="3" horiz-adv-x="522" 
d="M262 379q92 -9 150 -60.5t58 -125.5q0 -85 -66 -144t-171 -59q-99 0 -180 38q-5 3 -5 10v20q0 5 6 3q81 -42 179 -42q91 0 148.5 50t57.5 124q0 75 -67.5 122t-187.5 47h-20q-6 0 -6 7v15q0 6 7 6h20q104 0 163 49t59 112q0 61 -50 101t-132 40q-78 0 -155 -42
q-5 -3 -5 4v20q0 5 6 9q76 37 155 37q96 0 153.5 -47.5t57.5 -118.5q0 -61 -47.5 -112.5t-127.5 -62.5z" />
    <glyph glyph-name="four" unicode="4" horiz-adv-x="571" 
d="M532 179q6 0 6 -7v-15q0 -6 -7 -6h-106v-145q0 -6 -7 -6h-17q-6 0 -6 7v144h-368q-6 0 -6 7v9q0 5 4 12l377 526q3 5 10 5h7q6 0 6 -7v-524h107zM396 650q-45 -64 -56 -79l-284 -392h339v378q0 61 1 93z" />
    <glyph glyph-name="five" unicode="5" horiz-adv-x="533" 
d="M237 444q105 0 174 -60.5t69 -159.5q0 -104 -77 -169t-195 -65q-86 0 -152 33q-5 3 -5 10v17q0 4 3 4q1 -1 2 -1q72 -35 151 -35q105 0 174 56.5t69 148.5q0 87 -63 141t-159 54q-38 0 -72 -9t-54 -17.5t-23 -8.5q-7 0 -7 7q0 1 2 17l66 297q2 6 8 6h293q6 0 6 -7v-16
q0 -6 -7 -6h-277l-59 -264q57 27 133 27z" />
    <glyph glyph-name="six" unicode="6" horiz-adv-x="548" 
d="M274 424q97 0 160.5 -61t63.5 -157q0 -92 -67 -154t-157 -62q-94 0 -159 59.5t-65 151.5q0 103 75 196l247 308q5 5 11 5h22q6 0 2 -5l-237 -292q-6 -8 -23.5 -28t-24.5 -29q67 68 152 68zM274 18q80 0 137.5 55t57.5 133q0 86 -55.5 139t-141.5 53q-81 0 -137 -57
t-56 -140q0 -77 56 -130t139 -53z" />
    <glyph glyph-name="seven" unicode="7" horiz-adv-x="498" 
d="M466 710q7 0 3 -6l-366 -699q-3 -5 -10 -5h-20q-7 0 -3 6l355 674h-369q-6 0 -6 7v17q0 6 7 6h409z" />
    <glyph glyph-name="eight" unicode="8" horiz-adv-x="586" 
d="M293 -8q-97 0 -162.5 56t-65.5 144q0 69 46 120t112 67q-58 17 -92 62.5t-34 104.5q0 74 56.5 124t139.5 50q84 0 140.5 -50t56.5 -124q0 -59 -34.5 -104.5t-91.5 -62.5q66 -16 111.5 -67t45.5 -120q0 -88 -65.5 -144t-162.5 -56zM293 392q75 0 122 44t47 109
q0 62 -49.5 105t-119.5 43t-119 -43.5t-49 -104.5q0 -65 46.5 -109t121.5 -44zM293 19q85 0 141.5 50t56.5 124q0 75 -58 123.5t-140 48.5q-81 0 -139.5 -48.5t-58.5 -123.5q0 -74 57 -124t141 -50z" />
    <glyph glyph-name="nine" unicode="9" horiz-adv-x="548" 
d="M271 720q94 0 159 -59.5t65 -151.5q0 -103 -75 -196l-247 -308q-5 -5 -11 -5h-22q-6 0 -2 5l237 292q6 8 23.5 28t24.5 29q-67 -68 -152 -68q-97 0 -160.5 61t-63.5 157q0 92 67 154t157 62zM273 312q81 0 137 57t56 140q0 77 -56 130t-139 53q-80 0 -137.5 -55
t-57.5 -133q0 -86 55.5 -139t141.5 -53z" />
    <glyph glyph-name="colon" unicode=":" horiz-adv-x="203" 
d="M102 308q-19 0 -30.5 12.5t-11.5 31.5t11.5 31.5t30.5 12.5q18 0 29.5 -12.5t11.5 -31.5t-11.5 -31.5t-29.5 -12.5zM102 -9q-19 0 -30.5 12.5t-11.5 31.5t11.5 31.5t30.5 12.5q18 0 29.5 -12.5t11.5 -31.5t-11.5 -31.5t-29.5 -12.5z" />
    <glyph glyph-name="semicolon" unicode=";" horiz-adv-x="203" 
d="M102 308q-19 0 -30.5 12.5t-11.5 31.5t11.5 31.5t30.5 12.5q18 0 29.5 -12.5t11.5 -31.5t-11.5 -31.5t-29.5 -12.5zM102 81q17 0 29 -11.5t12 -31.5t-18 -64l-41 -98q-3 -6 -9 -6h-6q-8 0 -5 8l35 115q-16 1 -27 12.5t-11 30.5q0 21 12.5 33t28.5 12z" />
    <glyph glyph-name="less" unicode="&#x3c;" horiz-adv-x="542" 
d="M502 5q0 -7 -6 -3l-452 232q-5 3 -5 10v5q0 5 6 9l452 232q5 3 5 -4v-21q0 -5 -6 -9l-413 -210l414 -210q5 -3 5 -10v-21z" />
    <glyph glyph-name="equal" unicode="=" horiz-adv-x="542" 
d="M46 371q-6 0 -6 7v15q0 6 7 6h449q6 0 6 -7v-15q0 -6 -7 -6h-449zM46 180q-6 0 -6 7v15q0 6 7 6h449q6 0 6 -7v-15q0 -6 -7 -6h-449z" />
    <glyph glyph-name="greater" unicode="&#x3e;" horiz-adv-x="542" 
d="M63 2q-5 -3 -5 4v21q0 5 6 9l413 210l-414 210q-5 3 -5 10v21q0 7 6 3l452 -232q5 -3 5 -10v-5q0 -5 -6 -9z" />
    <glyph glyph-name="question" unicode="?" horiz-adv-x="478" 
d="M195 151q-6 0 -6 7l-3 156q0 5 6 9q43 22 70.5 40t58 44.5t45.5 59.5t15 72q0 69 -50.5 110.5t-128.5 41.5q-81 0 -157 -39q-5 -3 -5 4v18q0 7 6 9q72 37 158 37q94 0 151 -49.5t57 -129.5q0 -35 -12 -66.5t-29.5 -55t-45 -45.5t-52.5 -37t-58 -32l-3 -148q0 -6 -7 -6
h-10zM199 -7q-18 0 -30 13t-12 31t12 30.5t30 12.5t30 -12.5t12 -30.5t-12 -31t-30 -13z" />
    <glyph glyph-name="at" unicode="@" horiz-adv-x="823" 
d="M574 428q6 0 6 -7v-276q0 -38 18 -58t48 -20q49 0 81.5 56.5t32.5 136.5q0 142 -96.5 238.5t-244.5 96.5q-154 0 -255 -104.5t-101 -253.5q0 -150 101 -255.5t257 -105.5q59 0 121.5 16.5t103.5 45.5q3 1 4.5 2t2.5 1.5t2 0.5q2 0 2 -5v-16q0 -6 -6 -10q-94 -58 -230 -58
q-164 0 -273 112t-109 272t109 270t271 110q156 0 260.5 -103.5t104.5 -253.5q0 -91 -39.5 -154t-99.5 -63q-39 0 -64.5 25.5t-26.5 71.5q-22 -48 -63 -74t-87 -26q-71 0 -125 56.5t-54 143.5q0 86 52.5 140.5t126.5 54.5q47 0 87 -25t62 -71l1 83q0 6 7 6h13zM408 65
q59 0 102.5 46.5t43.5 126.5t-43 126.5t-104 46.5q-64 0 -109 -48.5t-45 -123.5q0 -77 46.5 -125.5t108.5 -48.5z" />
    <glyph glyph-name="A" unicode="A" horiz-adv-x="624" 
d="M608 6q2 -6 -5 -6h-21q-6 0 -9 7q-19 47 -53 133.5t-42 107.5h-333q-19 -47 -54 -134.5l-43 -107.5q-2 -6 -9 -6h-19q-7 0 -3 6l283 703q2 6 9 6h9q5 0 9 -6zM157 277h309l-154 393q-62 -161 -155 -393z" />
    <glyph glyph-name="B" unicode="B" horiz-adv-x="504" 
d="M295 370q82 -9 128.5 -56.5t46.5 -116.5q0 -88 -65.5 -142.5t-174.5 -54.5h-140q-6 0 -6 7v697q0 6 7 6h117q103 0 163.5 -47t60.5 -126q0 -61 -35.5 -107.5t-101.5 -58.5v-1zM209 682h-95v-301h115q77 0 125 41t48 113q0 69 -51.5 108t-141.5 39zM229 27q97 0 153.5 47
t56.5 124q0 70 -53 112.5t-137 42.5h-135v-326h115z" />
    <glyph glyph-name="C" unicode="C" horiz-adv-x="636" 
d="M410 -11q-157 0 -261.5 102t-104.5 268q0 162 105 261.5t262 99.5q78 0 160 -30q6 -2 6 -9v-13q0 -13 -12 -8q-75 32 -153 32q-145 0 -241.5 -91.5t-96.5 -240.5q0 -155 96 -248t242 -93q80 0 162 29q3 1 6 1q6 0 6 -9v-12q0 -6 -6 -8q-86 -31 -170 -31z" />
    <glyph glyph-name="D" unicode="D" horiz-adv-x="654" 
d="M84 704q0 6 7 6h110q182 0 295.5 -99t113.5 -259q0 -158 -112.5 -255t-296.5 -97h-111q-6 0 -6 7v697zM202 682l-88 1v-656l88 1q171 0 274.5 89t103.5 235q0 149 -103.5 239.5t-274.5 90.5z" />
    <glyph glyph-name="E" unicode="E" horiz-adv-x="484" 
d="M422 681h-308v-293h280q6 0 6 -7v-16q0 -6 -7 -6h-279v-330h309q6 0 6 -7v-16q0 -6 -7 -6h-333q-6 0 -6 7v697q0 6 7 6h333q6 0 6 -7v-16q0 -6 -7 -6z" />
    <glyph glyph-name="F" unicode="F" horiz-adv-x="457" 
d="M410 710q6 0 6 -7v-16q0 -6 -7 -6h-295v-315h277q6 0 6 -7v-16q0 -6 -7 -6h-276v-331q0 -6 -7 -6h-17q-6 0 -6 7v697q0 6 6 6h320z" />
    <glyph glyph-name="G" unicode="G" horiz-adv-x="745" 
d="M403 -11q-151 0 -255.5 103t-104.5 263q0 162 107.5 263.5t266.5 101.5q135 0 228 -60q5 -3 5 -10v-13q0 -9 -4 -9q-2 0 -7 3q-92 60 -222 60q-145 0 -244 -93.5t-99 -243.5q0 -147 96 -241t232 -94q122 0 203.5 77.5t81.5 208.5h-245q-6 0 -6 7v14q0 6 7 6h266q7 0 7 -7
v-6q0 -157 -88.5 -243.5t-224.5 -86.5z" />
    <glyph glyph-name="H" unicode="H" horiz-adv-x="648" 
d="M558 710q6 0 6 -7v-697q0 -6 -7 -6h-17q-6 0 -6 7v351h-420v-352q0 -6 -7 -6h-17q-6 0 -6 7v697q0 6 7 6h17q6 0 6 -7v-318h420v319q0 6 7 6h17z" />
    <glyph glyph-name="I" unicode="I" horiz-adv-x="223" 
d="M102 0q-6 0 -6 7v697q0 6 7 6h18q6 0 6 -7v-697q0 -6 -7 -6h-18z" />
    <glyph glyph-name="J" unicode="J" horiz-adv-x="357" 
d="M132 -10q-66 0 -112 25q-5 3 -5 10v22q0 4 2 4q1 0 9 -5q43 -26 105 -26q51 0 84 33.5t33 97.5v553q0 6 6 6h18q6 0 6 -6v-552q0 -78 -40 -120t-106 -42z" />
    <glyph glyph-name="K" unicode="K" horiz-adv-x="508" 
d="M487 9q4 -4 4 -6q0 -3 -8 -3h-22q-6 0 -11 5l-336 358v-357q0 -6 -7 -6h-18q-6 0 -6 7v697q0 6 7 6h18q6 0 6 -7v-332l326 335q4 4 11 4h22q13 0 4 -9l-329 -333z" />
    <glyph glyph-name="L" unicode="L" horiz-adv-x="451" 
d="M418 30q6 0 6 -7v-17q0 -6 -7 -6h-327q-6 0 -6 7v697q0 6 7 6h17q6 0 6 -7v-673h304z" />
    <glyph glyph-name="M" unicode="M" horiz-adv-x="841" 
d="M802 6q2 -6 -6 -6h-20q-6 0 -7 7l-111 660l-220 -636q-2 -6 -9 -6h-17q-6 0 -8 7l-220 635l-114 -661q-2 -6 -8 -6h-23q-1 0 -1 1l123 705q1 6 8 6h24q6 0 8 -7l221 -636l220 637q2 6 9 6h22q6 0 7 -7z" />
    <glyph glyph-name="N" unicode="N" horiz-adv-x="705" 
d="M615 710q6 0 6 -7v-697q0 -6 -7 -6h-14q-6 0 -10 6l-477 647v-647q0 -6 -7 -6h-16q-6 0 -6 7v697q0 6 7 6h14q6 0 10 -6l477 -649v649q0 6 7 6h16z" />
    <glyph glyph-name="O" unicode="O" horiz-adv-x="819" 
d="M409 -11q-152 0 -259 104.5t-107 257.5q0 156 108 262.5t258 106.5q151 0 258.5 -106.5t107.5 -262.5q0 -153 -107 -257.5t-259 -104.5zM409 18q140 0 238.5 96t98.5 237q0 145 -98.5 243t-238.5 98t-238 -98t-98 -243q0 -141 98 -237t238 -96z" />
    <glyph glyph-name="P" unicode="P" horiz-adv-x="483" 
d="M222 710q105 0 166.5 -54.5t61.5 -145.5q0 -90 -61.5 -145t-166.5 -55h-108v-304q0 -6 -7 -6h-17q-6 0 -6 7v697q0 6 7 6h131zM222 338q93 0 145.5 47t52.5 125q0 79 -52.5 125.5t-145.5 46.5h-108v-344h108z" />
    <glyph glyph-name="Q" unicode="Q" horiz-adv-x="820" 
d="M778 -61q4 -4 -1 -9l-12 -10q-4 -4 -9 1l-128 139q-96 -71 -219 -71q-152 0 -259 104.5t-107 257.5q0 156 108 262.5t258 106.5q151 0 258.5 -106.5t107.5 -262.5q0 -82 -33 -153t-92 -121zM73 351q0 -141 98 -237t238 -96t238.5 96t98.5 237q0 145 -98.5 243t-238.5 98
t-238 -98t-98 -243z" />
    <glyph glyph-name="R" unicode="R" horiz-adv-x="524" 
d="M479 10q4 -6 4 -7q0 -3 -9 -3h-20q-6 0 -10 6l-257 340h-74v-340q0 -6 -7 -6h-17q-6 0 -6 7v697q0 6 7 6h128q103 0 164 -49.5t61 -132.5q0 -81 -60.5 -131t-161.5 -50zM113 682v-309h106q89 0 141.5 42.5t52.5 112.5t-52.5 112t-141.5 42h-106z" />
    <glyph glyph-name="S" unicode="S" horiz-adv-x="488" 
d="M222 -11q-106 0 -181 46q-4 1 -4 8v20q0 5 1 5l4 -2q78 -48 180 -48q86 0 140 43t54 116q0 62 -45 103t-130 78q-44 20 -70 34.5t-57.5 38.5t-46.5 55.5t-15 70.5q0 70 54.5 116.5t139.5 46.5q86 0 150 -32q6 -2 6 -9v-19q0 -5 -2 -5q-1 0 -3 2q-67 35 -150 35
q-70 0 -117 -37.5t-47 -96.5q0 -23 6 -42t20.5 -36t26 -28t37 -25t39 -21t44.5 -21q93 -42 141.5 -88.5t48.5 -118.5q0 -84 -63 -136.5t-161 -52.5z" />
    <glyph glyph-name="T" unicode="T" horiz-adv-x="493" 
d="M469 710q6 0 6 -7v-17q0 -6 -7 -6h-206v-674q0 -6 -7 -6h-18q-6 0 -6 7v673h-207q-6 0 -6 7v17q0 6 7 6h444z" />
    <glyph glyph-name="U" unicode="U" horiz-adv-x="635" 
d="M317 -11q-108 0 -172 67.5t-64 204.5v443q0 6 7 6h17q6 0 6 -7v-443q0 -124 56 -183t151 -59q94 0 150 59t56 183v444q0 6 7 6h17q6 0 6 -7v-442q0 -137 -64.5 -204.5t-172.5 -67.5z" />
    <glyph glyph-name="V" unicode="V" horiz-adv-x="630" 
d="M607 710q7 0 3 -7l-287 -707q-2 -5 -9 -5h-5q-1 0 -1 1l-291 717q0 1 1 1h26q5 0 9 -6l262 -656l263 656q2 6 9 6h20z" />
    <glyph glyph-name="W" unicode="W" horiz-adv-x="928" 
d="M905 710q6 0 4 -7l-212 -699q-1 -6 -9 -6h-16q-6 0 -8 7l-200 656l-200 -657q-2 -6 -9 -6h-16q-6 0 -8 7l-212 699q-1 6 5 6h19q6 0 8 -7l198 -660l200 661q1 6 9 6h16q6 0 8 -7l198 -661l199 662q1 6 9 6h17z" />
    <glyph glyph-name="X" unicode="X" horiz-adv-x="595" 
d="M580 5q5 -5 -3 -5h-21q-6 0 -10 6l-249 335l-248 -336q-5 -5 -11 -5h-21q-6 0 -2 6l265 358l-253 341q-5 5 3 5h23q6 0 10 -6l236 -318l233 319q5 5 11 5h23q6 0 2 -6l-253 -341z" />
    <glyph glyph-name="Y" unicode="Y" horiz-adv-x="530" 
d="M256 0q-6 0 -6 7v302l-234 390q-3 5 -3 7q0 4 9 4h16q6 0 10 -6l217 -367l218 368q3 5 10 5h14q13 0 6 -11l-233 -390v-303q0 -6 -7 -6h-17z" />
    <glyph glyph-name="Z" unicode="Z" horiz-adv-x="551" 
d="M77 28h422q6 0 6 -7v-15q0 -6 -7 -6h-454q-6 0 -6 7v2q0 5 4 12l414 661h-388q-6 0 -6 7v15q0 6 7 6h420q6 0 6 -7v-2q0 -5 -4 -12z" />
    <glyph glyph-name="bracketleft" unicode="[" horiz-adv-x="266" 
d="M220 -100q0 -6 -7 -6h-123q-6 0 -6 7v803q0 6 7 6h115q6 0 6 -7v-12q0 -6 -7 -6h-94v-766h103q6 0 6 -7v-12z" />
    <glyph glyph-name="backslash" unicode="\" horiz-adv-x="316" 
d="M309 -93q1 -6 -5 -6h-13q-6 0 -8 7l-275 844q-2 6 5 6h13q6 0 8 -7z" />
    <glyph glyph-name="bracketright" unicode="]" horiz-adv-x="266" 
d="M52 -106q-6 0 -6 7v12q0 6 7 6h102v766h-95q-6 0 -6 7v12q0 6 7 6h115q6 0 6 -7v-803q0 -6 -7 -6h-123z" />
    <glyph glyph-name="asciicircum" unicode="^" horiz-adv-x="600" 
d="M456 310q5 -5 -3 -5h-19q-6 0 -11 5l-122 139l-125 -140q-4 -4 -11 -4h-19q-6 0 -2 5l140 170q5 5 11 5h13q6 0 10 -5z" />
    <glyph glyph-name="underscore" unicode="_" horiz-adv-x="509" 
d="M67 -117q-6 0 -6 7v15q0 6 7 6h374q6 0 6 -7v-15q0 -6 -7 -6h-374z" />
    <glyph glyph-name="grave" unicode="`" horiz-adv-x="500" 
d="M326 570q3 -5 -4 -5h-14q-6 0 -10 6l-126 173q-4 4 2 8l26 11q7 2 10 -4z" />
    <glyph glyph-name="a" unicode="a" 
d="M502 480q6 0 6 -7v-467q0 -6 -7 -6h-17q-6 0 -6 7v119q-26 -65 -80.5 -100.5t-117.5 -35.5q-91 0 -160 68t-69 182q0 116 66.5 183t162.5 67q66 0 119 -34.5t79 -98.5v117q0 6 7 6h17zM282 18q80 0 139 60t59 162q0 103 -57.5 162.5t-140.5 59.5q-84 0 -142 -59.5
t-58 -162.5q0 -102 60 -162t140 -60z" />
    <glyph glyph-name="b" unicode="b" 
d="M305 490q96 0 162 -67t66 -183q0 -114 -68.5 -182t-159.5 -68q-62 0 -117 35.5t-81 98.5v-118q0 -6 -7 -6h-17q-6 0 -6 7v737q0 6 7 6h17q6 0 6 -7v-384q26 63 79.5 97t118.5 34zM303 18q80 0 140 60t60 162q0 103 -58 162.5t-142 59.5q-83 0 -140.5 -59.5t-57.5 -162.5
q0 -102 59 -162t139 -60z" />
    <glyph glyph-name="c" unicode="c" horiz-adv-x="474" 
d="M303 -10q-106 0 -179 69.5t-73 180.5t70 180.5t180 69.5q66 0 122 -23q6 -1 6 -9v-13q0 -12 -11 -7q-47 24 -115 24q-95 0 -158 -61t-63 -161q0 -102 64.5 -162t160.5 -60q67 0 117 25q6 2 7 2q5 0 5 -9v-14q0 -5 -6 -9q-58 -23 -127 -23z" />
    <glyph glyph-name="d" unicode="d" 
d="M501 750q6 0 6 -7v-737q0 -6 -7 -6h-16q-6 0 -6 7v117q-26 -63 -81.5 -98.5t-117.5 -35.5q-90 0 -159 68t-69 182q0 116 66.5 183t162.5 67q65 0 118.5 -34t79.5 -97v385q0 6 7 6h16zM282 18q80 0 139 60t59 162q0 103 -58 162.5t-140 59.5q-84 0 -142.5 -59.5
t-58.5 -162.5q0 -102 60.5 -162t140.5 -60z" />
    <glyph glyph-name="e" unicode="e" horiz-adv-x="517" 
d="M463 272h-380q-2 -20 -2 -30q0 -100 60 -162.5t149 -62.5q59 0 111 25q16 8 31.5 18t23 15.5t9.5 5.5q3 0 3 -7v-14q0 -6 -5 -10q-73 -60 -175 -60t-169.5 69t-67.5 182q0 108 65.5 178.5t161.5 70.5q88 0 142 -54.5t54 -148.5q0 -15 -11 -15zM278 463q-69 0 -122.5 -46
t-69.5 -121h361q-1 74 -48.5 120.5t-120.5 46.5z" />
    <glyph glyph-name="f" unicode="f" horiz-adv-x="315" 
d="M318 744q5 -3 5 -10v-11q0 -12 -11 -6q-25 16 -66 16q-93 0 -93 -105v-148h153q6 0 6 -7v-12q0 -6 -7 -6h-152v-449q0 -6 -7 -6h-17q-6 0 -6 7v448h-84q-6 0 -6 7v12q0 6 7 6h83v149q0 131 120 131q43 0 75 -16z" />
    <glyph glyph-name="g" unicode="g" horiz-adv-x="581" 
d="M498 480q6 0 6 -7v-410q0 -109 -64.5 -172t-177.5 -63q-96 0 -167 38q-5 3 -5 10v13q0 12 11 6q66 -40 160 -40q101 0 157 54.5t56 151.5v85q-26 -64 -79.5 -99.5t-118.5 -35.5q-94 0 -159.5 64.5t-65.5 175.5q0 109 67.5 174t157.5 65q65 0 118.5 -36t79.5 -100v120
q0 6 7 6h17zM279 38q83 0 139 59t56 153q0 90 -57 151.5t-138 61.5q-80 0 -139 -57.5t-59 -155.5t58 -155t140 -57z" />
    <glyph glyph-name="h" unicode="h" horiz-adv-x="518" 
d="M277 490q76 0 120 -44t44 -131v-309q0 -6 -6 -6h-18q-6 0 -6 6v308q0 76 -36.5 112.5t-101.5 36.5q-71 0 -115.5 -48.5t-50.5 -128.5v-280q0 -6 -6 -6h-18q-6 0 -6 6v738q0 6 6 6h18q6 0 6 -6v-379q20 61 64 93t106 32z" />
    <glyph glyph-name="i" unicode="i" horiz-adv-x="210" 
d="M105 654q-15 0 -23.5 9.5t-8.5 24.5t8.5 24.5t23.5 9.5t24 -9.5t9 -24.5t-9 -24.5t-24 -9.5zM95 0q-6 0 -6 7v467q0 6 7 6h17q6 0 6 -7v-467q0 -6 -7 -6h-17z" />
    <glyph glyph-name="j" unicode="j" horiz-adv-x="209" 
d="M105 654q-15 0 -23.5 9.5t-8.5 24.5t8.5 24.5t23.5 9.5t24 -9.5t9 -24.5t-9 -24.5t-24 -9.5zM30 -172q-26 0 -52 11q-5 3 -5 10v17q0 6 6 2q21 -13 49 -13q27 0 44 18t17 50v551q0 6 7 6h17q6 0 6 -7v-550q0 -46 -24 -70.5t-65 -24.5z" />
    <glyph glyph-name="k" unicode="k" horiz-adv-x="415" 
d="M414 5q7 -5 -3 -5h-27q-6 0 -11 5l-267 249v-248q0 -6 -7 -6h-17q-6 0 -6 7v737q0 6 7 6h17q6 0 6 -7v-485l242 218q4 4 11 4h30q6 0 1 -5l-246 -218z" />
    <glyph glyph-name="l" unicode="l" horiz-adv-x="241" 
d="M162 -10q-81 0 -81 87v667q0 6 7 6h17q6 0 6 -7v-663q0 -63 58 -63q29 0 52 14q7 3 7 -5v-15q0 -7 -6 -9q-27 -12 -60 -12z" />
    <glyph glyph-name="m" unicode="m" horiz-adv-x="758" 
d="M533 490q62 0 105 -38.5t43 -109.5v-336q0 -6 -7 -6h-17q-6 0 -6 7v333q0 60 -35.5 91.5t-85.5 31.5q-55 0 -95.5 -39.5t-40.5 -97.5v-320q0 -6 -7 -6h-17q-6 0 -6 7v333q0 60 -35.5 91.5t-85.5 31.5q-55 0 -95.5 -39.5t-40.5 -97.5v-320q0 -6 -7 -6h-17q-6 0 -6 7v467
q0 6 7 6h17q6 0 6 -7v-72q19 43 57 66t83 23q49 0 88 -26t53 -75q17 48 56.5 74.5t88.5 26.5z" />
    <glyph glyph-name="n" unicode="n" horiz-adv-x="519" 
d="M273 490q78 0 123.5 -44.5t45.5 -133.5v-306q0 -6 -7 -6h-17q-6 0 -6 7v304q0 78 -38 115t-104 37q-71 0 -117 -47t-46 -117v-293q0 -6 -7 -6h-17q-6 0 -6 7v467q0 6 7 6h17q6 0 6 -7v-90q20 51 63.5 79t102.5 28z" />
    <glyph glyph-name="o" unicode="o" horiz-adv-x="582" 
d="M291 -10q-98 0 -169 73t-71 179q0 105 71.5 176.5t168.5 71.5t168.5 -71.5t71.5 -176.5q0 -106 -71 -179t-169 -73zM291 18q86 0 148 64t62 160q0 94 -62 157t-148 63t-148 -63t-62 -157q0 -96 62 -160t148 -64z" />
    <glyph glyph-name="p" unicode="p" horiz-adv-x="586" 
d="M305 490q96 0 162.5 -67t66.5 -183q0 -114 -69 -182t-160 -68q-61 0 -115.5 34.5t-82.5 97.5v-277q0 -7 -7 -7h-16q-7 0 -7 7v628q0 7 7 7h16q7 0 7 -7v-113q26 62 79.5 96t118.5 34zM303 18q81 0 141 60t60 162q0 103 -58 162.5t-143 59.5q-83 0 -140.5 -60t-57.5 -162
t59 -162t139 -60z" />
    <glyph glyph-name="q" unicode="q" horiz-adv-x="584" 
d="M501 480q6 0 6 -7v-628q0 -7 -6 -7h-17q-7 0 -7 7v276q-28 -62 -82 -96.5t-116 -34.5q-91 0 -159.5 68t-68.5 182q0 116 66 183t162 67q65 0 119 -34t80 -96v113q0 7 7 7h16zM282 17q79 0 138.5 60.5t59.5 162.5t-57.5 162.5t-140.5 60.5q-85 0 -143 -59.5t-58 -163.5
q0 -103 60.5 -163t140.5 -60z" />
    <glyph glyph-name="r" unicode="r" horiz-adv-x="329" 
d="M294 490q6 0 6 -7v-19q0 -6 -7 -6q-53 -2 -92 -31q-94 -64 -94 -255v-166q0 -6 -7 -6h-17q-6 0 -6 7v467q0 6 7 6h16q6 0 6 -7v-162q41 176 188 179z" />
    <glyph glyph-name="s" unicode="s" horiz-adv-x="433" 
d="M205 -10q-83 0 -139 35q-5 5 -5 10v20q0 4 2 4q1 0 3 -2q59 -40 140 -40q62 0 100 31.5t38 78.5q0 25 -10 43t-32 31t-40 20t-52 18t-54 19.5t-44 23.5t-35 36.5t-11 49.5q0 55 42 88.5t114 33.5q68 0 127 -27q5 -3 5 -9v-19q0 -4 -2 -4t-4 1q-57 31 -126 31
q-58 0 -92 -25.5t-34 -67.5q0 -19 7.5 -34t17.5 -24.5t30 -19t33.5 -14.5t39.5 -13q28 -9 44.5 -15t39 -18t35 -24.5t21.5 -32.5t9 -44q0 -62 -46 -101.5t-122 -39.5z" />
    <glyph glyph-name="t" unicode="t" horiz-adv-x="325" 
d="M284 27q3 1 7 1q5 0 5 -9v-10q0 -6 -7 -8q-35 -11 -68 -11q-59 0 -86.5 31t-27.5 102v333h-77q-6 0 -6 7v11q0 6 7 6h76v135q0 6 7 6h17q6 0 6 -7v-134h143q6 0 6 -7v-11q0 -6 -7 -6h-142v-332q0 -57 21.5 -82t67.5 -25q32 0 58 10z" />
    <glyph glyph-name="u" unicode="u" horiz-adv-x="511" 
d="M428 480q6 0 6 -7v-467q0 -6 -7 -6h-16q-6 0 -6 7v98l-1 7v2q-19 -60 -62.5 -92t-103.5 -32q-74 0 -117.5 46t-43.5 141v297q0 6 7 6h17q6 0 6 -7v-296q0 -160 135 -160q74 0 118 55.5t44 146.5v255q0 6 7 6h17z" />
    <glyph glyph-name="v" unicode="v" horiz-adv-x="468" 
d="M436 480q7 0 3 -6l-188 -468q-1 -6 -9 -6h-17q-5 0 -9 6l-188 468q-2 6 5 6h20q5 0 9 -7l173 -435l173 436q2 6 9 6h19z" />
    <glyph glyph-name="w" unicode="w" horiz-adv-x="648" 
d="M617 480q6 0 4 -7l-135 -467q-2 -6 -9 -6h-16q-6 0 -8 7l-128 428l-129 -429q-2 -6 -9 -6h-16q-6 0 -8 7l-136 467q-1 6 5 6h18q6 0 8 -7l123 -430l127 431q2 6 9 6h16q6 0 8 -7l128 -428l120 429q1 6 9 6h19z" />
    <glyph glyph-name="x" unicode="x" horiz-adv-x="424" 
d="M405 11q4 -6 4 -7q0 -4 -9 -4h-19q-6 0 -10 6l-157 219l-162 -220q-5 -5 -11 -5h-19q-13 0 -5 10l178 236l-163 224q-4 6 -4 7q0 3 9 3h19q6 0 10 -6l148 -205l150 206q5 5 11 5h18q13 0 5 -10l-165 -221z" />
    <glyph glyph-name="y" unicode="y" horiz-adv-x="463" 
d="M440 480q7 0 3 -6l-227 -537q-47 -109 -126 -109q-39 0 -71 17q-5 3 -5 10v19q0 6 6 2q27 -21 70 -21q65 0 98 85l29 67l-199 467q-2 6 5 6h19q5 0 9 -6l181 -429l181 429q1 6 9 6h18z" />
    <glyph glyph-name="z" unicode="z" horiz-adv-x="435" 
d="M41 0q-6 0 -6 7v4q0 5 4 12l315 430h-294q-6 0 -6 7v14q0 6 7 6h326q6 0 6 -7v-4q0 -5 -4 -12l-316 -430h313q6 0 6 -7v-14q0 -6 -7 -6h-344z" />
    <glyph glyph-name="braceleft" unicode="{" horiz-adv-x="222" 
d="M146 692q-31 0 -48.5 -17.5t-17.5 -46.5q0 -32 33.5 -121t33.5 -124q0 -28 -15.5 -51t-45.5 -29q30 -6 45.5 -29t15.5 -51q0 -35 -33.5 -124t-33.5 -121q0 -29 17.5 -46.5t48.5 -17.5q20 0 35 4q6 2 6 -5v-10q0 -7 -7 -8q-13 -4 -41 -4q-43 0 -65 23.5t-22 62.5
q0 37 34 125t34 120q0 62 -65 68q-6 0 -6 7v13q0 6 7 7q64 6 64 67q0 32 -34 120t-34 125q0 39 22 62.5t65 23.5q29 0 42 -4q6 -1 6 -9v-10q0 -6 -7 -4q-15 4 -34 4z" />
    <glyph glyph-name="bar" unicode="|" horiz-adv-x="130" 
d="M58 -200q-6 0 -6 7v1027q0 6 7 6h13q6 0 6 -7v-1027q0 -6 -7 -6h-13z" />
    <glyph glyph-name="braceright" unicode="}" horiz-adv-x="222" 
d="M170 316q6 0 6 -7v-13q0 -6 -7 -7q-64 -6 -64 -67q0 -32 34 -120t34 -125q0 -39 -22 -62.5t-65 -23.5q-29 0 -42 4q-6 1 -6 9v10q0 6 7 4q15 -4 34 -4q31 0 48.5 17.5t17.5 46.5q0 32 -33.5 121t-33.5 124q0 28 15.5 51t45.5 29q-30 6 -45.5 29t-15.5 51q0 35 33.5 124
t33.5 121q0 29 -17.5 46.5t-48.5 17.5q-20 0 -35 -4q-6 -2 -6 5v10q0 7 7 8q13 4 41 4q43 0 65 -23.5t22 -62.5q0 -37 -34 -125t-34 -120q0 -62 65 -68z" />
    <glyph glyph-name="asciitilde" unicode="~" horiz-adv-x="542" 
d="M350 240q-22 0 -42 9t-30.5 19t-26.5 28t-25 27t-27 17.5t-39 8.5q-37 0 -58 -28.5t-24 -76.5q0 -6 -7 -6h-13q-6 0 -6 7q2 59 30.5 96t76.5 37q25 0 46.5 -9.5t33 -20t28.5 -29.5q15 -17 24 -25.5t25.5 -16.5t34.5 -8q34 0 54 26.5t22 70.5q0 6 7 6h13q6 0 6 -7
q-2 -55 -29.5 -90t-73.5 -35z" />
    <glyph glyph-name="nbspace" unicode="&#xa0;" horiz-adv-x="218" 
 />
    <glyph glyph-name="exclamdown" unicode="&#xa1;" horiz-adv-x="204" 
d="M103 720q18 0 29.5 -12.5t11.5 -31.5t-11.5 -31.5t-29.5 -12.5q-19 0 -30.5 12.5t-11.5 31.5t11.5 31.5t30.5 12.5zM89 548q0 6 7 6h13q6 0 6 -7l2 -538q0 -6 -7 -6h-18q-6 0 -6 7z" />
    <glyph glyph-name="cent" unicode="&#xa2;" horiz-adv-x="474" 
d="M424 161q6 2 7 2q5 0 5 -9v-14q0 -5 -6 -9q-59 -22 -127 -22h-10l-9 -124q-2 -6 -7 -6h-12q-7 0 -6 6l9 126q-94 12 -155.5 79t-61.5 169q0 104 62 172t161 77l9 116q0 7 7 7h12q6 0 6 -7l-9 -115h1q70 0 124 -24q5 -2 5 -9v-12q0 -12 -12 -7q-49 24 -114 24
q-96 0 -159 -61t-63 -161q0 -102 64.5 -162.5t160.5 -60.5q65 0 118 25z" />
    <glyph glyph-name="sterling" unicode="&#xa3;" 
d="M506 688q5 -3 5 -10v-18q0 -6 -6 -2q-51 35 -120 35q-67 0 -105 -41.5t-48 -115.5l-20 -149h226q6 0 6 -7v-13q0 -6 -7 -6h-228l-44 -334h318q6 0 6 -7v-14q0 -6 -7 -6h-407q-6 0 -6 7v14q0 6 7 6h60l44 334h-82q-6 0 -6 7v13q0 6 7 6h84l20 149q23 184 181 184
q70 0 122 -32z" />
    <glyph glyph-name="currency" unicode="&#xa4;" 
d="M447 225l113 -116q4 -4 -1 -9l-8 -8q-4 -4 -9 1l-110 113q-55 -60 -139 -60t-138 60l-111 -114q-4 -4 -9 1l-8 8q-4 4 1 9l111 115q-40 59 -40 138q0 80 41 138l-113 116q-4 4 1 9l8 7q4 4 9 -1l110 -112q54 59 138 59t138 -60l112 114q4 4 9 -1l8 -7q4 -4 -1 -9
l-113 -115q41 -58 41 -138q0 -79 -40 -138zM293 172q74 0 121 54.5t47 136.5t-47 136t-121 54t-121 -54t-47 -136t47 -136.5t121 -54.5z" />
    <glyph glyph-name="yen" unicode="&#xa5;" horiz-adv-x="530" 
d="M507 710q13 0 6 -11l-223 -374h134q6 0 6 -7v-16q0 -6 -7 -6h-143v-290q0 -6 -7 -6h-17q-6 0 -6 7v289h-144q-6 0 -6 7v16q0 6 7 6h133l-224 374q-3 5 -3 7q0 4 9 4h16q6 0 10 -6l217 -367l218 368q3 5 10 5h14z" />
    <glyph glyph-name="brokenbar" unicode="&#xa6;" horiz-adv-x="130" 
d="M58 425q-6 0 -6 7v402q0 6 7 6h13q6 0 6 -7v-402q0 -6 -7 -6h-13zM58 -200q-6 0 -6 7v402q0 6 7 6h13q6 0 6 -7v-402q0 -6 -7 -6h-13z" />
    <glyph glyph-name="section" unicode="&#xa7;" horiz-adv-x="526" 
d="M415 275q70 -85 70 -184q0 -115 -74 -187t-191 -72q-85 0 -174 41q-5 2 -5 9v18q0 7 6 3q87 -44 172 -44q74 0 130 31.5t85 86.5l-336 410q-62 77 -62 154q0 97 64.5 156t168.5 59q83 0 149 -26q6 -2 6 -9v-18q0 -7 -6 -3q-70 29 -151 29q-109 0 -168 -72zM119 399
l325 -399q16 39 16 89q0 94 -64 171l-310 379q-26 -43 -26 -99q0 -67 59 -141z" />
    <glyph glyph-name="dieresis" unicode="&#xa8;" horiz-adv-x="500" 
d="M183 656q-14 0 -22.5 9.5t-8.5 22.5q0 14 8.5 23.5t22.5 9.5t22.5 -9.5t8.5 -23.5q0 -13 -8.5 -22.5t-22.5 -9.5zM316 656q-14 0 -22.5 9.5t-8.5 22.5q0 14 8.5 23.5t22.5 9.5t22.5 -9.5t8.5 -23.5q0 -13 -8.5 -22.5t-22.5 -9.5z" />
    <glyph glyph-name="copyright" unicode="&#xa9;" horiz-adv-x="811" 
d="M405 -11q-151 0 -256 102t-105 260q0 162 105.5 265.5t255.5 103.5q151 0 256.5 -103.5t105.5 -265.5q0 -158 -105 -260t-257 -102zM405 9q143 0 242 95.5t99 246.5q0 155 -99 252.5t-242 97.5q-142 0 -241 -97.5t-99 -252.5q0 -151 99 -246.5t241 -95.5zM408 156
q-72 0 -126 56.5t-54 144.5q0 87 54 141.5t126 54.5q52 0 99 -26q5 -3 5 -10v-14q0 -5 -6 -3q-50 28 -96 28q-62 0 -108.5 -48t-46.5 -123q0 -79 46.5 -127.5t108.5 -48.5q58 0 102 31q5 5 5 -3v-17q0 -7 -6 -9q-49 -27 -103 -27z" />
    <glyph glyph-name="ordfeminine" unicode="&#xaa;" horiz-adv-x="370" 
d="M169 438q-52 0 -89.5 38t-37.5 102q0 65 36 103t91 38q75 0 108 -64v50q0 6 6 6h15q6 0 6 -6v-255q0 -6 -6 -6h-15q-6 0 -6 6v56q-16 -33 -45 -50.5t-63 -17.5zM175 695q-45 0 -75 -31.5t-30 -85.5t31 -85t74 -31q41 0 71.5 31.5t30.5 84.5q0 54 -29.5 85.5t-72.5 31.5z
M313 376q6 0 6 -6v-9q0 -6 -6 -6h-254q-6 0 -6 6v9q0 6 6 6h254z" />
    <glyph glyph-name="guillemetleft" unicode="&#xab;" horiz-adv-x="500" 
d="M236 56q-4 -4 -9 0l-163 186q-4 4 1 10l162 176q4 4 9 -1l9 -11q4 -4 -1 -9l-145 -160l146 -170q4 -4 0 -10zM398 56q-4 -4 -9 0l-163 186q-4 4 1 10l162 176q4 4 9 -1l9 -11q4 -4 -1 -9l-145 -160l146 -170q4 -4 0 -10z" />
    <glyph glyph-name="logicalnot" unicode="&#xac;" horiz-adv-x="542" 
d="M449 335q6 0 6 -7v-183q0 -6 -7 -6h-15q-6 0 -6 7v161h-371q-6 0 -6 7v15q0 6 7 6h392z" />
    <glyph glyph-name="softhyphen" unicode="&#xad;" horiz-adv-x="379" 
d="M67 246q-6 0 -6 7v15q0 6 7 6h244q6 0 6 -7v-15q0 -6 -7 -6h-244z" />
    <glyph glyph-name="registered" unicode="&#xae;" horiz-adv-x="474" 
d="M237 720q81 0 134.5 -54t53.5 -139q0 -86 -53 -139.5t-135 -53.5t-135 53.5t-53 139.5q0 85 53.5 139t134.5 54zM237 353q73 0 120 48.5t47 125.5q0 78 -47 126t-120 48q-72 0 -119.5 -48t-47.5 -126q0 -77 47.5 -125.5t119.5 -48.5zM245 527l73 -87q3 -5 3 -7
q0 -3 -8 -3h-9q-6 0 -10 5l-73 91h-17v-90q0 -6 -7 -6h-9q-6 0 -6 7v194q0 6 7 6h46q31 0 49.5 -15t18.5 -40q0 -24 -15.5 -38.5t-42.5 -16.5zM204 617v-72h32q21 0 33 10t12 26q0 17 -12 26.5t-33 9.5h-32z" />
    <glyph glyph-name="macron" unicode="&#xaf;" horiz-adv-x="500" 
d="M129 645q-6 0 -6 7v14q0 6 7 6h241q6 0 6 -7v-14q0 -6 -7 -6h-241z" />
    <glyph glyph-name="degree" unicode="&#xb0;" horiz-adv-x="303" 
d="M152 487q-49 0 -81 33.5t-32 84.5q0 49 32.5 82t80.5 33q47 0 79.5 -33t32.5 -82q0 -51 -32 -84.5t-80 -33.5zM152 509q37 0 62.5 27.5t25.5 68.5q0 40 -25 66.5t-63 26.5t-63.5 -26.5t-25.5 -66.5t25.5 -68t63.5 -28z" />
    <glyph glyph-name="plusminus" unicode="&#xb1;" horiz-adv-x="542" 
d="M56 297q-6 0 -6 7v15q0 6 7 6h182v153q0 6 7 6h14q6 0 6 -7v-152h183q6 0 6 -7v-15q0 -6 -7 -6h-182v-152q0 -6 -7 -6h-14q-6 0 -6 7v151h-183zM496 104q6 0 6 -7v-15q0 -6 -7 -6h-449q-6 0 -6 7v15q0 6 7 6h449z" />
    <glyph glyph-name="twosuperior" unicode="&#xb2;" horiz-adv-x="362" 
d="M304 443q6 0 6 -7v-10q0 -6 -7 -6h-262q-6 0 -2 5l156 187q37 43 53 70t16 58q0 37 -30 61.5t-77 24.5q-57 0 -103 -33q-5 -5 -5 3v14q0 6 6 10q47 30 107 30q57 0 92.5 -29.5t35.5 -76.5q0 -35 -16 -64t-52 -74l-139 -163h221z" />
    <glyph glyph-name="threesuperior" unicode="&#xb3;" horiz-adv-x="360" 
d="M187 646q56 -7 89.5 -36.5t33.5 -73.5q0 -52 -41 -87t-106 -35q-58 0 -107 21q-5 3 -5 10v13q0 7 6 3q50 -23 104 -23q53 0 86.5 28.5t33.5 70.5q0 43 -39.5 69.5t-108.5 26.5h-11q-6 0 -6 7v10q0 6 7 6h10q61 0 95 27.5t34 63.5q0 34 -29 57t-76 23q-45 0 -91 -23
q-5 -3 -5 4v13q0 7 6 9q47 20 92 20q60 0 95.5 -28t35.5 -71q0 -36 -27.5 -66t-75.5 -39z" />
    <glyph glyph-name="acute" unicode="&#xb4;" horiz-adv-x="500" 
d="M175 565q-6 0 -2 6l116 189q4 5 9 2l26 -11q6 -1 2 -8l-126 -173q-5 -5 -11 -5h-14z" />
    <glyph glyph-name="micro" unicode="&#xb5;" horiz-adv-x="511" 
d="M428 480q6 0 6 -7v-467q0 -6 -7 -6h-16q-6 0 -6 7v99l-1 7v5q-19 -63 -61.5 -95.5t-102.5 -32.5q-98 0 -135 75l2 -221q0 -6 -7 -6h-17q-6 0 -6 7l1 241l-1 388q0 6 7 6h17q6 0 6 -7v-299q0 -158 135 -158q74 0 118 56t44 149v253q0 6 7 6h17z" />
    <glyph glyph-name="paragraph" unicode="&#xb6;" horiz-adv-x="542" 
d="M374 710q6 0 6 -7v-684q0 -102 -50 -176q-3 -5 -10 -5h-15q-6 0 -2 6q52 73 52 175v291h-33q-106 0 -172 55.5t-66 144.5t66 144.5t172 55.5h52zM439 710q6 0 6 -7v-527v-13q0 -98 -22 -148q-1 -3 -1.5 -2.5t-0.5 4.5v687q0 6 7 6h11z" />
    <glyph glyph-name="periodcentered" unicode="&#xb7;" horiz-adv-x="203" 
d="M102 216q-19 0 -30.5 12.5t-11.5 31.5t11.5 31.5t30.5 12.5q18 0 29.5 -12.5t11.5 -31.5t-11.5 -31.5t-29.5 -12.5z" />
    <glyph glyph-name="cedilla" unicode="&#xb8;" horiz-adv-x="503" 
d="M275 -46q30 0 49 -16t19 -42q0 -30 -25 -49t-61 -19q-35 0 -64 13q-5 3 -5 9v10q0 6 5 3q31 -14 63 -14q26 0 44.5 12.5t18.5 33.5q0 19 -15.5 29.5t-37.5 10.5q-28 0 -49 -8l-2 2l57 77h23l-42 -54q14 2 22 2z" />
    <glyph glyph-name="onesuperior" unicode="&#xb9;" horiz-adv-x="354" 
d="M212 844q6 0 6 -7v-411q0 -6 -7 -6h-13q-6 0 -6 7v387l-125 -51q-6 -1 -6 5v13q0 5 6 9l128 52q8 2 12 2h5z" />
    <glyph glyph-name="ordmasculine" unicode="&#xba;" horiz-adv-x="356" 
d="M179 443q-59 0 -98 39.5t-39 99.5t39 99t98 39q57 0 96 -39t39 -99t-39 -99.5t-96 -39.5zM179 468q46 0 76.5 32t30.5 82q0 49 -30.5 81t-76.5 32q-47 0 -78 -32t-31 -81q0 -50 31 -82t78 -32zM59 358q-6 0 -6 6v9q0 6 6 6h243q6 0 6 -6v-9q0 -6 -6 -6h-243z" />
    <glyph glyph-name="guillemetright" unicode="&#xbb;" horiz-adv-x="500" 
d="M110 56q-5 -5 -8 0l-9 11q-5 5 1 10l145 170l-146 161q-4 4 1 9l9 11q4 4 9 -1l162 -176q4 -4 -1 -9zM272 56q-5 -5 -8 0l-9 11q-5 5 1 10l145 170l-146 161q-4 4 1 9l9 11q4 4 9 -1l162 -176q4 -4 -1 -9z" />
    <glyph glyph-name="onequarter" unicode="&#xbc;" horiz-adv-x="735" 
d="M639 718q5 -3 1 -9l-448 -728q-4 -5 -9 -2l-7 4q-5 3 -1 9l448 728q4 5 9 2zM192 297v387l-125 -51q-6 -1 -6 5v13q0 5 6 9l128 52q8 2 12 2h5q6 0 6 -7v-411q0 -6 -7 -6h-13q-6 0 -6 7zM706 110q6 0 6 -7v-10q0 -6 -7 -6h-55v-81q0 -6 -7 -6h-14q-6 0 -6 7v80h-201
q-6 0 -6 6v8q0 5 3 11l206 307q3 5 9 5h10q6 0 6 -7v-307h56zM444 110h180v268z" />
    <glyph glyph-name="onehalf" unicode="&#xbd;" horiz-adv-x="836" 
d="M639 718q5 -3 1 -9l-448 -728q-4 -5 -9 -2l-7 4q-5 3 -1 9l448 728q4 5 9 2zM192 297v387l-125 -51q-6 -1 -6 5v13q0 5 6 9l128 52q8 2 12 2h5q6 0 6 -7v-411q0 -6 -7 -6h-13q-6 0 -6 7zM778 23q6 0 6 -7v-10q0 -6 -7 -6h-262q-6 0 -2 5l156 187q37 43 53 70t16 58
q0 37 -30 61.5t-77 24.5q-57 0 -103 -33q-5 -5 -5 3v14q0 6 6 10q47 30 107 30q57 0 92.5 -29.5t35.5 -76.5q0 -35 -16 -64t-52 -74l-139 -163h221z" />
    <glyph glyph-name="threequarters" unicode="&#xbe;" horiz-adv-x="738" 
d="M642 718q5 -3 1 -9l-448 -728q-4 -5 -9 -2l-7 4q-5 3 -1 9l448 728q4 5 9 2zM310 406q0 -52 -41 -87t-106 -35q-58 0 -107 21q-5 3 -5 10v13q0 7 6 3q50 -23 104 -23q53 0 86.5 28.5t33.5 70.5q0 43 -39.5 69.5t-108.5 26.5h-11q-6 0 -6 7v10q0 6 7 6h10q61 0 95 27.5
t34 63.5q0 34 -29 57t-76 23q-45 0 -91 -23q-5 -3 -5 4v13q0 7 6 9q47 20 92 20q60 0 95.5 -28t35.5 -71q0 -36 -27.5 -66t-75.5 -39q56 -7 89.5 -36.5t33.5 -73.5zM709 110q6 0 6 -7v-10q0 -6 -7 -6h-55v-81q0 -6 -7 -6h-14q-6 0 -6 7v80h-201q-6 0 -6 6v8q0 5 3 11
l206 307q3 5 9 5h10q6 0 6 -7v-307h56zM447 110h180v268z" />
    <glyph glyph-name="questiondown" unicode="&#xbf;" horiz-adv-x="478" 
d="M279 720q18 0 30 -13t12 -31t-12 -30.5t-30 -12.5t-30 12.5t-12 30.5t12 31t30 13zM283 562q6 0 6 -7l3 -156q0 -5 -6 -9q-43 -22 -70.5 -40t-58 -44.5t-45.5 -59.5t-15 -72q0 -69 50.5 -110.5t128.5 -41.5q81 0 157 39q5 3 5 -4v-18q0 -7 -6 -9q-72 -37 -158 -37
q-94 0 -151 49.5t-57 129.5q0 35 12 66.5t29.5 55t45 45.5t52.5 37t58 32l3 148q0 6 7 6h10z" />
    <glyph glyph-name="Agrave" unicode="&#xc0;" horiz-adv-x="626" 
d="M290 770l-96 118q-5 5 3 5h44q5 0 9 -6l65 -117q3 -5 -4 -5h-11q-6 0 -10 5zM608 6q2 -6 -5 -6h-21q-6 0 -9 7q-19 47 -53 133.5t-42 107.5h-333q-19 -47 -54 -134.5l-43 -107.5q-2 -6 -9 -6h-19q-7 0 -3 6l283 703q2 6 9 6h9q5 0 9 -6zM157 277h309l-154 393
q-62 -161 -155 -393z" />
    <glyph glyph-name="Aacute" unicode="&#xc1;" horiz-adv-x="626" 
d="M298 764q-7 0 -3 6l65 117q3 5 10 5h44q6 0 1 -6l-95 -117q-5 -5 -11 -5h-11zM608 6q2 -6 -5 -6h-21q-6 0 -9 7q-19 47 -53 133.5t-42 107.5h-333q-19 -47 -54 -134.5l-43 -107.5q-2 -6 -9 -6h-19q-7 0 -3 6l283 703q2 6 9 6h9q5 0 9 -6zM157 277h309l-154 393
q-62 -161 -155 -393z" />
    <glyph glyph-name="Acircumflex" unicode="&#xc2;" horiz-adv-x="626" 
d="M188 756q-6 0 -2 5l109 126q5 5 10 5h13q6 0 10 -5l109 -126q5 -5 -2 -5h-20q-6 0 -10 4l-93 100l-94 -100q-4 -4 -10 -4h-20zM608 6q2 -6 -5 -6h-21q-6 0 -9 7q-19 47 -53 133.5t-42 107.5h-333q-19 -47 -54 -134.5l-43 -107.5q-2 -6 -9 -6h-19q-7 0 -3 6l283 703
q2 6 9 6h9q5 0 9 -6zM157 277h309l-154 393q-62 -161 -155 -393z" />
    <glyph glyph-name="Atilde" unicode="&#xc3;" horiz-adv-x="626" 
d="M186 770q-6 0 -6 6q2 43 21.5 71.5t51.5 28.5q17 0 31.5 -8t19 -13t17.5 -21q10 -12 15 -17.5t15.5 -11.5t22.5 -6q43 0 46 67q0 6 6 6h12q6 0 6 -6q-2 -42 -20.5 -68.5t-49.5 -26.5q-36 0 -68 42q-21 28 -35 33q-8 3 -17 3q-23 0 -36 -20t-15 -53q0 -6 -6 -6h-11zM608 6
q2 -6 -5 -6h-21q-6 0 -9 7q-19 47 -53 133.5t-42 107.5h-333q-19 -47 -54 -134.5l-43 -107.5q-2 -6 -9 -6h-19q-7 0 -3 6l283 703q2 6 9 6h9q5 0 9 -6zM157 277h309l-154 393q-62 -161 -155 -393z" />
    <glyph glyph-name="Adieresis" unicode="&#xc4;" horiz-adv-x="626" 
d="M238 780q-18 0 -29.5 12.5t-11.5 30.5q0 19 11.5 31.5t29.5 12.5t29.5 -12.5t11.5 -31.5q0 -18 -11.5 -30.5t-29.5 -12.5zM388 780q-18 0 -29.5 12.5t-11.5 30.5q0 19 11.5 31.5t29.5 12.5t29.5 -12.5t11.5 -31.5q0 -18 -11.5 -30.5t-29.5 -12.5zM608 6q2 -6 -5 -6h-21
q-6 0 -9 7q-19 47 -53 133.5t-42 107.5h-333q-19 -47 -54 -134.5l-43 -107.5q-2 -6 -9 -6h-19q-7 0 -3 6l283 703q2 6 9 6h9q5 0 9 -6zM157 277h309l-154 393q-62 -161 -155 -393z" />
    <glyph glyph-name="Aring" unicode="&#xc5;" horiz-adv-x="626" 
d="M312 743q-34 0 -56.5 23.5t-22.5 58.5t22.5 57.5t56.5 22.5q33 0 56 -22.5t23 -57.5t-22.5 -58.5t-56.5 -23.5zM312 886q-25 0 -41 -17t-16 -44t16 -44.5t41 -17.5t41 18t16 44q0 27 -16 44t-41 17zM608 6q2 -6 -5 -6h-21q-6 0 -9 7q-19 47 -53 133.5t-42 107.5h-333
q-19 -47 -54 -134.5l-43 -107.5q-2 -6 -9 -6h-19q-7 0 -3 6l283 703q2 6 9 6h9q5 0 9 -6zM157 277h309l-154 393q-62 -161 -155 -393z" />
    <glyph glyph-name="AE" unicode="&#xc6;" horiz-adv-x="783" 
d="M721 682h-264v-295h241q6 0 6 -7v-15q0 -6 -7 -6h-240v-331h265q6 0 6 -7v-15q0 -6 -7 -6h-288q-6 0 -6 7v219h-251l-128 -221q-3 -5 -10 -5h-19q-6 0 -2 6l403 699q3 5 10 5h292q6 0 6 -7v-15q0 -6 -7 -6zM192 254h235v406z" />
    <glyph glyph-name="Ccedilla" unicode="&#xc7;" horiz-adv-x="636" 
d="M574 48q3 1 6 1q6 0 6 -9v-12q0 -6 -6 -8q-86 -31 -170 -31h-6l-29 -37q14 2 22 2q30 0 49 -16t19 -42q0 -30 -25 -49t-61 -19q-35 0 -64 13q-5 3 -5 9v10q0 6 5 3q31 -14 63 -14q26 0 44.5 12.5t18.5 33.5q0 19 -15.5 29.5t-37.5 10.5q-28 0 -49 -8l-2 2l45 61
q-147 9 -242.5 110t-95.5 259q0 162 105 261.5t262 99.5q78 0 160 -30q6 -2 6 -9v-13q0 -13 -12 -8q-75 32 -153 32q-145 0 -241.5 -91.5t-96.5 -240.5q0 -155 96 -248t242 -93q80 0 162 29z" />
    <glyph glyph-name="Egrave" unicode="&#xc8;" horiz-adv-x="484" 
d="M233 770l-96 118q-5 5 3 5h44q5 0 9 -6l65 -117q3 -5 -4 -5h-11q-6 0 -10 5zM422 681h-308v-293h280q6 0 6 -7v-16q0 -6 -7 -6h-279v-330h309q6 0 6 -7v-16q0 -6 -7 -6h-333q-6 0 -6 7v697q0 6 7 6h333q6 0 6 -7v-16q0 -6 -7 -6z" />
    <glyph glyph-name="Eacute" unicode="&#xc9;" horiz-adv-x="484" 
d="M241 764q-7 0 -3 6l65 117q3 5 10 5h44q6 0 1 -6l-95 -117q-5 -5 -11 -5h-11zM422 681h-308v-293h280q6 0 6 -7v-16q0 -6 -7 -6h-279v-330h309q6 0 6 -7v-16q0 -6 -7 -6h-333q-6 0 -6 7v697q0 6 7 6h333q6 0 6 -7v-16q0 -6 -7 -6z" />
    <glyph glyph-name="Ecircumflex" unicode="&#xca;" horiz-adv-x="484" 
d="M131 756q-6 0 -2 5l109 126q5 5 10 5h13q6 0 10 -5l109 -126q5 -5 -2 -5h-20q-6 0 -10 4l-93 100l-94 -100q-4 -4 -10 -4h-20zM422 681h-308v-293h280q6 0 6 -7v-16q0 -6 -7 -6h-279v-330h309q6 0 6 -7v-16q0 -6 -7 -6h-333q-6 0 -6 7v697q0 6 7 6h333q6 0 6 -7v-16
q0 -6 -7 -6z" />
    <glyph glyph-name="Edieresis" unicode="&#xcb;" horiz-adv-x="484" 
d="M181 780q-18 0 -29.5 12.5t-11.5 30.5q0 19 11.5 31.5t29.5 12.5t29.5 -12.5t11.5 -31.5q0 -18 -11.5 -30.5t-29.5 -12.5zM331 780q-18 0 -29.5 12.5t-11.5 30.5q0 19 11.5 31.5t29.5 12.5t29.5 -12.5t11.5 -31.5q0 -18 -11.5 -30.5t-29.5 -12.5zM422 681h-308v-293h280
q6 0 6 -7v-16q0 -6 -7 -6h-279v-330h309q6 0 6 -7v-16q0 -6 -7 -6h-333q-6 0 -6 7v697q0 6 7 6h333q6 0 6 -7v-16q0 -6 -7 -6z" />
    <glyph glyph-name="Igrave" unicode="&#xcc;" horiz-adv-x="223" 
d="M115 770q3 -5 -4 -5h-11q-6 0 -10 5l-96 118q-5 5 3 5h44q5 0 9 -6zM102 0q-6 0 -6 7v697q0 6 7 6h18q6 0 6 -7v-697q0 -6 -7 -6h-18z" />
    <glyph glyph-name="Iacute" unicode="&#xcd;" horiz-adv-x="223" 
d="M98 764q-7 0 -3 6l65 117q3 5 10 5h44q6 0 1 -6l-95 -117q-5 -5 -11 -5h-11zM102 0q-6 0 -6 7v697q0 6 7 6h18q6 0 6 -7v-697q0 -6 -7 -6h-18z" />
    <glyph glyph-name="Icircumflex" unicode="&#xce;" horiz-adv-x="223" 
d="M237 761q5 -5 -2 -5h-20q-6 0 -10 4l-93 100l-94 -100q-4 -4 -10 -4h-20q-6 0 -2 5l109 126q5 5 10 5h13q6 0 10 -5zM121 710q6 0 6 -7v-697q0 -6 -7 -6h-18q-6 0 -6 7v697q0 6 7 6h18z" />
    <glyph glyph-name="Idieresis" unicode="&#xcf;" horiz-adv-x="223" 
d="M38 780q-18 0 -29.5 12.5t-11.5 30.5q0 19 11.5 31.5t29.5 12.5t29.5 -12.5t11.5 -31.5q0 -18 -11.5 -30.5t-29.5 -12.5zM188 780q-18 0 -29.5 12.5t-11.5 30.5q0 19 11.5 31.5t29.5 12.5t29.5 -12.5t11.5 -31.5q0 -18 -11.5 -30.5t-29.5 -12.5zM102 0q-6 0 -6 7v697
q0 6 7 6h18q6 0 6 -7v-697q0 -6 -7 -6h-18z" />
    <glyph glyph-name="Eth" unicode="&#xd0;" horiz-adv-x="632" 
d="M201 710q182 0 295.5 -99t113.5 -259q0 -158 -112.5 -255t-296.5 -97h-111q-6 0 -6 7v352h-62q-6 0 -6 7v13q0 6 7 6h61v319q0 6 7 6h110zM202 28q171 0 274.5 89t103.5 235q0 149 -103.5 239.5t-274.5 90.5l-88 1v-298h230q6 0 6 -7v-13q0 -6 -7 -6h-229v-332z" />
    <glyph glyph-name="Ntilde" unicode="&#xd1;" horiz-adv-x="705" 
d="M226 770q-6 0 -6 6q2 43 21.5 71.5t51.5 28.5q17 0 31.5 -8t19 -13t17.5 -21q10 -12 15 -17.5t15.5 -11.5t22.5 -6q43 0 46 67q0 6 6 6h12q6 0 6 -6q-2 -42 -20.5 -68.5t-49.5 -26.5q-36 0 -68 42q-21 28 -35 33q-8 3 -17 3q-23 0 -36 -20t-15 -53q0 -6 -6 -6h-11z
M615 710q6 0 6 -7v-697q0 -6 -7 -6h-14q-6 0 -10 6l-477 647v-647q0 -6 -7 -6h-16q-6 0 -6 7v697q0 6 7 6h14q6 0 10 -6l477 -649v649q0 6 7 6h16z" />
    <glyph glyph-name="Ograve" unicode="&#xd2;" horiz-adv-x="820" 
d="M412 770q3 -5 -4 -5h-11q-6 0 -10 5l-96 118q-5 5 3 5h44q5 0 9 -6zM409 -11q-152 0 -259 104.5t-107 257.5q0 156 108 262.5t258 106.5q151 0 258.5 -106.5t107.5 -262.5q0 -153 -107 -257.5t-259 -104.5zM409 18q140 0 238.5 96t98.5 237q0 145 -98.5 243t-238.5 98
t-238 -98t-98 -243q0 -141 98 -237t238 -96z" />
    <glyph glyph-name="Oacute" unicode="&#xd3;" horiz-adv-x="820" 
d="M395 764q-7 0 -3 6l65 117q3 5 10 5h44q6 0 1 -6l-95 -117q-5 -5 -11 -5h-11zM409 -11q-152 0 -259 104.5t-107 257.5q0 156 108 262.5t258 106.5q151 0 258.5 -106.5t107.5 -262.5q0 -153 -107 -257.5t-259 -104.5zM409 18q140 0 238.5 96t98.5 237q0 145 -98.5 243
t-238.5 98t-238 -98t-98 -243q0 -141 98 -237t238 -96z" />
    <glyph glyph-name="Ocircumflex" unicode="&#xd4;" horiz-adv-x="820" 
d="M285 756q-6 0 -2 5l109 126q5 5 10 5h13q6 0 10 -5l109 -126q5 -5 -2 -5h-20q-6 0 -10 4l-93 100l-94 -100q-4 -4 -10 -4h-20zM409 720q151 0 258.5 -106.5t107.5 -262.5q0 -153 -107 -257.5t-259 -104.5t-259 104.5t-107 257.5q0 156 108 262.5t258 106.5zM409 18
q140 0 238.5 96t98.5 237q0 145 -98.5 243t-238.5 98t-238 -98t-98 -243q0 -141 98 -237t238 -96z" />
    <glyph glyph-name="Otilde" unicode="&#xd5;" horiz-adv-x="820" 
d="M351 849q-23 0 -36 -20t-15 -53q0 -6 -6 -6h-11q-6 0 -6 6q2 43 21.5 71.5t51.5 28.5q17 0 31.5 -8t19 -13t17.5 -21q10 -12 15 -17.5t15.5 -11.5t22.5 -6q43 0 46 67q0 6 6 6h12q6 0 6 -6q-2 -42 -20.5 -68.5t-49.5 -26.5q-37 0 -68 42q-21 28 -35 33q-8 3 -17 3z
M409 -11q-152 0 -259 104.5t-107 257.5q0 156 108 262.5t258 106.5q151 0 258.5 -106.5t107.5 -262.5q0 -153 -107 -257.5t-259 -104.5zM409 18q140 0 238.5 96t98.5 237q0 145 -98.5 243t-238.5 98t-238 -98t-98 -243q0 -141 98 -237t238 -96z" />
    <glyph glyph-name="Odieresis" unicode="&#xd6;" horiz-adv-x="820" 
d="M335 780q-18 0 -29.5 12.5t-11.5 30.5q0 19 11.5 31.5t29.5 12.5t29.5 -12.5t11.5 -31.5q0 -18 -11.5 -30.5t-29.5 -12.5zM485 780q-18 0 -29.5 12.5t-11.5 30.5q0 19 11.5 31.5t29.5 12.5t29.5 -12.5t11.5 -31.5q0 -18 -11.5 -30.5t-29.5 -12.5zM409 -11
q-152 0 -259 104.5t-107 257.5q0 156 108 262.5t258 106.5q151 0 258.5 -106.5t107.5 -262.5q0 -153 -107 -257.5t-259 -104.5zM409 18q140 0 238.5 96t98.5 237q0 145 -98.5 243t-238.5 98t-238 -98t-98 -243q0 -141 98 -237t238 -96z" />
    <glyph glyph-name="multiply" unicode="&#xd7;" horiz-adv-x="542" 
d="M290 289l197 -197q4 -4 -1 -9l-10 -12q-4 -5 -9 0l-196 197l-197 -197q-4 -4 -9 1l-11 11q-4 4 1 9l196 196l-196 197q-4 4 1 9l9 11q5 5 9 0l197 -197l197 197q4 4 9 -1l10 -10q4 -4 -1 -9z" />
    <glyph glyph-name="Oslash" unicode="&#xd8;" horiz-adv-x="820" 
d="M590 673q85 -48 135 -133t50 -189q0 -153 -107 -257.5t-259 -104.5q-90 0 -164 38l-31 -58q-3 -5 -10 -5h-10q-7 0 -3 6l35 66q-84 47 -133.5 130.5t-49.5 184.5q0 156 108 262.5t258 106.5q87 0 163 -38l30 57q3 5 10 5h10q7 0 3 -6zM73 351q0 -93 45 -169t122 -120
l319 596q-71 34 -150 34q-140 0 -238 -98t-98 -243zM409 18q140 0 238.5 96t98.5 237q0 96 -45.5 174t-123.5 123l-318 -596q70 -34 150 -34z" />
    <glyph glyph-name="Ugrave" unicode="&#xd9;" horiz-adv-x="635" 
d="M321 770q3 -5 -4 -5h-11q-6 0 -10 5l-96 118q-5 5 3 5h44q5 0 9 -6zM317 -11q-108 0 -172 67.5t-64 204.5v443q0 6 7 6h17q6 0 6 -7v-443q0 -124 56 -183t151 -59q94 0 150 59t56 183v444q0 6 7 6h17q6 0 6 -7v-442q0 -137 -64.5 -204.5t-172.5 -67.5z" />
    <glyph glyph-name="Uacute" unicode="&#xda;" horiz-adv-x="635" 
d="M304 764q-7 0 -3 6l65 117q3 5 10 5h44q6 0 1 -6l-95 -117q-5 -5 -11 -5h-11zM317 -11q-108 0 -172 67.5t-64 204.5v443q0 6 7 6h17q6 0 6 -7v-443q0 -124 56 -183t151 -59q94 0 150 59t56 183v444q0 6 7 6h17q6 0 6 -7v-442q0 -137 -64.5 -204.5t-172.5 -67.5z" />
    <glyph glyph-name="Ucircumflex" unicode="&#xdb;" horiz-adv-x="635" 
d="M194 756q-6 0 -2 5l109 126q5 5 10 5h13q6 0 10 -5l109 -126q5 -5 -2 -5h-20q-6 0 -10 4l-93 100l-94 -100q-4 -4 -10 -4h-20zM548 710q6 0 6 -7v-442q0 -137 -64.5 -204.5t-172.5 -67.5t-172 67.5t-64 204.5v443q0 6 7 6h17q6 0 6 -7v-443q0 -124 56 -183t151 -59
q94 0 150 59t56 183v444q0 6 7 6h17z" />
    <glyph glyph-name="Udieresis" unicode="&#xdc;" horiz-adv-x="635" 
d="M244 780q-18 0 -29.5 12.5t-11.5 30.5q0 19 11.5 31.5t29.5 12.5t29.5 -12.5t11.5 -31.5q0 -18 -11.5 -30.5t-29.5 -12.5zM394 780q-18 0 -29.5 12.5t-11.5 30.5q0 19 11.5 31.5t29.5 12.5t29.5 -12.5t11.5 -31.5q0 -18 -11.5 -30.5t-29.5 -12.5zM317 -11
q-108 0 -172 67.5t-64 204.5v443q0 6 7 6h17q6 0 6 -7v-443q0 -124 56 -183t151 -59q94 0 150 59t56 183v444q0 6 7 6h17q6 0 6 -7v-442q0 -137 -64.5 -204.5t-172.5 -67.5z" />
    <glyph glyph-name="Yacute" unicode="&#xdd;" horiz-adv-x="530" 
d="M252 764q-7 0 -3 6l65 117q3 5 10 5h44q6 0 1 -6l-95 -117q-5 -5 -11 -5h-11zM256 0q-6 0 -6 7v302l-234 390q-3 5 -3 7q0 4 9 4h16q6 0 10 -6l217 -367l218 368q3 5 10 5h14q13 0 6 -11l-233 -390v-303q0 -6 -7 -6h-17z" />
    <glyph glyph-name="Thorn" unicode="&#xde;" horiz-adv-x="483" 
d="M222 562q104 0 166 -55t62 -145t-62 -145t-166 -55h-108v-156q0 -6 -7 -6h-17q-6 0 -6 7v697q0 6 7 6h17q6 0 6 -7v-141h108zM222 190q92 0 145 47t53 125q0 79 -53 125.5t-145 46.5h-108v-344h108z" />
    <glyph glyph-name="germandbls" unicode="&#xdf;" horiz-adv-x="492" 
d="M278 -10q-54 0 -99 17q-5 2 -5 9v17q0 7 6 3q49 -19 95 -19q61 0 95 31.5t34 84.5q0 41 -23 70t-66 57q-3 2 -18 11.5t-19 12t-16.5 11.5t-16.5 13.5t-13 13t-12 16t-8 17.5t-6.5 20.5t-1.5 22.5q0 26 10.5 49.5t21 37t32.5 36.5q25 27 36 40t20.5 35t9.5 47
q0 40 -30 64.5t-77 24.5q-53 0 -84.5 -36t-31.5 -105v-585q0 -6 -7 -6h-17q-6 0 -6 7v583q0 83 40.5 126.5t105.5 43.5q58 0 97.5 -32t39.5 -84q0 -28 -12 -54.5t-22.5 -38.5t-36.5 -40q-2 -2 -10.5 -11.5t-10.5 -12t-9 -10.5t-9 -11.5t-7 -11.5t-6.5 -13t-4 -12t-3.5 -14
t-1 -15q0 -10 1.5 -18.5t5.5 -16.5l7 -14t10.5 -13.5l11.5 -11.5t15 -12t15.5 -11t18 -11.5t17.5 -11.5q33 -22 50 -36t32.5 -43t15.5 -67q0 -65 -40.5 -104.5t-113.5 -39.5z" />
    <glyph glyph-name="agrave" unicode="&#xe0;" 
d="M293 571l-126 173q-4 4 2 8l26 11q7 2 10 -4l116 -189q3 -5 -4 -5h-14q-6 0 -10 6zM502 480q6 0 6 -7v-467q0 -6 -7 -6h-17q-6 0 -6 7v119q-26 -65 -80.5 -100.5t-117.5 -35.5q-91 0 -160 68t-69 182q0 116 66.5 183t162.5 67q66 0 119 -34.5t79 -98.5v117q0 6 7 6h17z
M282 18q80 0 139 60t59 162q0 103 -57.5 162.5t-140.5 59.5q-84 0 -142 -59.5t-58 -162.5q0 -102 60 -162t140 -60z" />
    <glyph glyph-name="aacute" unicode="&#xe1;" 
d="M260 565q-6 0 -2 6l116 189q4 5 9 2l26 -11q6 -1 2 -8l-126 -173q-5 -5 -11 -5h-14zM502 480q6 0 6 -7v-467q0 -6 -7 -6h-17q-6 0 -6 7v119q-26 -65 -80.5 -100.5t-117.5 -35.5q-91 0 -160 68t-69 182q0 116 66.5 183t162.5 67q66 0 119 -34.5t79 -98.5v117q0 6 7 6h17z
M282 18q80 0 139 60t59 162q0 103 -57.5 162.5t-140.5 59.5q-84 0 -142 -59.5t-58 -162.5q0 -102 60 -162t140 -60z" />
    <glyph glyph-name="acircumflex" unicode="&#xe2;" 
d="M181 565q-5 0 -3 5l110 175q3 5 9 5h13q6 0 9 -5l111 -175q3 -5 -3 -5h-20q-7 0 -9 5l-94 142l-95 -142q-3 -5 -9 -5h-19zM502 480q6 0 6 -7v-467q0 -6 -7 -6h-17q-6 0 -6 7v119q-26 -65 -80.5 -100.5t-117.5 -35.5q-91 0 -160 68t-69 182q0 116 66.5 183t162.5 67
q66 0 119 -34.5t79 -98.5v117q0 6 7 6h17zM282 18q80 0 139 60t59 162q0 103 -57.5 162.5t-140.5 59.5q-84 0 -142 -59.5t-58 -162.5q0 -102 60 -162t140 -60z" />
    <glyph glyph-name="atilde" unicode="&#xe3;" 
d="M176 610q-6 0 -6 6q2 45 22 73.5t53 28.5q35 0 69 -43q1 -1 2 -3q30 -28 48 -31q43 0 48 66q0 6 6 6h12q6 0 6 -6q-2 -42 -21.5 -68.5t-50.5 -26.5q-33 0 -67 42q-28 36 -52 36q-47 0 -51 -74q0 -6 -6 -6h-12zM502 480q6 0 6 -7v-467q0 -6 -7 -6h-17q-6 0 -6 7v119
q-26 -65 -80.5 -100.5t-117.5 -35.5q-91 0 -160 68t-69 182q0 116 66.5 183t162.5 67q66 0 119 -34.5t79 -98.5v117q0 6 7 6h17zM282 18q80 0 139 60t59 162q0 103 -57.5 162.5t-140.5 59.5q-84 0 -142 -59.5t-58 -162.5q0 -102 60 -162t140 -60z" />
    <glyph glyph-name="adieresis" unicode="&#xe4;" 
d="M236 656q-14 0 -22.5 9.5t-8.5 22.5q0 14 8.5 23.5t22.5 9.5t22.5 -9.5t8.5 -23.5q0 -13 -8.5 -22.5t-22.5 -9.5zM369 656q-14 0 -22.5 9.5t-8.5 22.5q0 14 8.5 23.5t22.5 9.5t22.5 -9.5t8.5 -23.5q0 -13 -8.5 -22.5t-22.5 -9.5zM502 480q6 0 6 -7v-467q0 -6 -7 -6h-17
q-6 0 -6 7v119q-26 -65 -80.5 -100.5t-117.5 -35.5q-91 0 -160 68t-69 182q0 116 66.5 183t162.5 67q66 0 119 -34.5t79 -98.5v117q0 6 7 6h17zM282 18q80 0 139 60t59 162q0 103 -57.5 162.5t-140.5 59.5q-84 0 -142 -59.5t-58 -162.5q0 -102 60 -162t140 -60z" />
    <glyph glyph-name="aring" unicode="&#xe5;" 
d="M303 583q-34 0 -56.5 23.5t-22.5 58.5t22.5 57t56.5 22t56.5 -22t22.5 -57t-22.5 -58.5t-56.5 -23.5zM303 726q-25 0 -41 -17.5t-16 -43.5q0 -27 16 -44.5t41 -17.5t41 17.5t16 44.5q0 26 -16 43.5t-41 17.5zM502 480q6 0 6 -7v-467q0 -6 -7 -6h-17q-6 0 -6 7v119
q-26 -65 -80.5 -100.5t-117.5 -35.5q-91 0 -160 68t-69 182q0 116 66.5 183t162.5 67q66 0 119 -34.5t79 -98.5v117q0 6 7 6h17zM282 18q80 0 139 60t59 162q0 103 -57.5 162.5t-140.5 59.5q-84 0 -142 -59.5t-58 -162.5q0 -102 60 -162t140 -60z" />
    <glyph glyph-name="ae" unicode="&#xe6;" horiz-adv-x="794" 
d="M576 490q78 0 126 -54t48 -147v-12q-2 -6 -8 -6h-334q-1 -9 -1 -28q0 -110 50.5 -168t134.5 -58t148 56q4 4 4 -3v-19q0 -6 -5 -11q-62 -50 -148 -50q-72 0 -124 39t-74 110q-21 -72 -74.5 -109.5t-117.5 -37.5q-67 0 -108.5 35.5t-41.5 97.5q0 71 56 111t154 40
q67 0 117 -5v50q0 73 -38 107.5t-118 34.5q-77 0 -140 -34q-5 -3 -5 4v17q0 7 6 9q62 31 141 31q81 0 124.5 -29.5t53.5 -92.5q24 57 69.5 89.5t104.5 32.5zM576 463q-64 0 -108.5 -44t-56.5 -123h312q-1 75 -42 121t-105 46zM205 18q28 0 57 12t55.5 35t43.5 62.5t17 88.5
v30q-52 5 -114 5q-88 0 -135.5 -32.5t-47.5 -92.5q0 -53 35.5 -80.5t88.5 -27.5z" />
    <glyph glyph-name="ccedilla" unicode="&#xe7;" horiz-adv-x="474" 
d="M424 43q6 2 7 2q5 0 5 -9v-14q0 -5 -6 -9q-58 -23 -125 -23l-30 -38q14 2 22 2q30 0 49 -16t19 -42q0 -30 -25 -49t-61 -19q-35 0 -64 13q-5 3 -5 9v10q0 6 5 3q32 -14 63 -14q26 0 44.5 12.5t18.5 33.5q0 19 -15.5 29.5t-37.5 10.5q-28 0 -49 -8l-2 2l46 62
q-99 7 -165.5 75.5t-66.5 173.5q0 111 70 180.5t180 69.5q66 0 122 -23q6 -1 6 -9v-13q0 -12 -11 -7q-47 24 -115 24q-95 0 -158 -61t-63 -161q0 -102 64.5 -162t160.5 -60q67 0 117 25z" />
    <glyph glyph-name="egrave" unicode="&#xe8;" horiz-adv-x="518" 
d="M255 571l-126 173q-4 4 2 8l26 11q7 2 10 -4l116 -189q3 -5 -4 -5h-14q-6 0 -10 6zM463 272h-380q-2 -20 -2 -30q0 -100 60 -162.5t149 -62.5q59 0 111 25q16 8 31.5 18t23 15.5t9.5 5.5q3 0 3 -7v-14q0 -6 -5 -10q-73 -60 -175 -60t-169.5 69t-67.5 182
q0 108 65.5 178.5t161.5 70.5q88 0 142 -54.5t54 -148.5q0 -15 -11 -15zM278 463q-69 0 -122.5 -46t-69.5 -121h361q-1 74 -48.5 120.5t-120.5 46.5z" />
    <glyph glyph-name="eacute" unicode="&#xe9;" horiz-adv-x="518" 
d="M222 565q-6 0 -2 6l116 189q4 5 9 2l26 -11q6 -1 2 -8l-126 -173q-5 -5 -11 -5h-14zM463 272h-380q-2 -20 -2 -30q0 -100 60 -162.5t149 -62.5q59 0 111 25q16 8 31.5 18t23 15.5t9.5 5.5q3 0 3 -7v-14q0 -6 -5 -10q-73 -60 -175 -60t-169.5 69t-67.5 182
q0 108 65.5 178.5t161.5 70.5q88 0 142 -54.5t54 -148.5q0 -15 -11 -15zM278 463q-69 0 -122.5 -46t-69.5 -121h361q-1 74 -48.5 120.5t-120.5 46.5z" />
    <glyph glyph-name="ecircumflex" unicode="&#xea;" horiz-adv-x="518" 
d="M143 565q-5 0 -3 5l110 175q3 5 9 5h13q6 0 9 -5l111 -175q3 -5 -3 -5h-20q-7 0 -9 5l-94 142l-95 -142q-3 -5 -9 -5h-19zM463 272h-380q-2 -20 -2 -30q0 -100 60 -162.5t149 -62.5q59 0 111 25q16 8 31.5 18t23 15.5t9.5 5.5q3 0 3 -7v-14q0 -6 -5 -10q-73 -60 -175 -60
t-169.5 69t-67.5 182q0 108 65.5 178.5t161.5 70.5q88 0 142 -54.5t54 -148.5q0 -15 -11 -15zM278 463q-69 0 -122.5 -46t-69.5 -121h361q-1 74 -48.5 120.5t-120.5 46.5z" />
    <glyph glyph-name="edieresis" unicode="&#xeb;" horiz-adv-x="518" 
d="M198 656q-14 0 -22.5 9.5t-8.5 22.5q0 14 8.5 23.5t22.5 9.5t22.5 -9.5t8.5 -23.5q0 -13 -8.5 -22.5t-22.5 -9.5zM331 656q-14 0 -22.5 9.5t-8.5 22.5q0 14 8.5 23.5t22.5 9.5t22.5 -9.5t8.5 -23.5q0 -13 -8.5 -22.5t-22.5 -9.5zM463 272h-380q-2 -20 -2 -30
q0 -100 60 -162.5t149 -62.5q59 0 111 25q16 8 31.5 18t23 15.5t9.5 5.5q3 0 3 -7v-14q0 -6 -5 -10q-73 -60 -175 -60t-169.5 69t-67.5 182q0 108 65.5 178.5t161.5 70.5q88 0 142 -54.5t54 -148.5q0 -15 -11 -15zM278 463q-69 0 -122.5 -46t-69.5 -121h361
q-1 74 -48.5 120.5t-120.5 46.5z" />
    <glyph glyph-name="igrave" unicode="&#xec;" horiz-adv-x="227" 
d="M125 571q1 -6 -5 -6h-13q-5 0 -9 7l-66 170q-1 6 5 8l27 10q6 1 8 -5zM104 0q-6 0 -6 7v467q0 6 7 6h17q6 0 6 -7v-467q0 -6 -7 -6h-17z" />
    <glyph glyph-name="iacute" unicode="&#xed;" horiz-adv-x="227" 
d="M105 565q-6 0 -4 7l53 184q2 6 9 4l27 -10q7 -2 3 -9l-66 -170q-1 -6 -9 -6h-13zM104 0q-6 0 -6 7v467q0 6 7 6h17q6 0 6 -7v-467q0 -6 -7 -6h-17z" />
    <glyph glyph-name="icircumflex" unicode="&#xee;" horiz-adv-x="227" 
d="M240 570q3 -5 -3 -5h-20q-7 0 -9 5l-94 142l-95 -142q-3 -5 -9 -5h-19q-5 0 -3 5l110 175q3 5 9 5h13q6 0 9 -5zM122 480q6 0 6 -7v-467q0 -6 -7 -6h-17q-6 0 -6 7v467q0 6 7 6h17z" />
    <glyph glyph-name="idieresis" unicode="&#xef;" horiz-adv-x="227" 
d="M46 656q-14 0 -22.5 9.5t-8.5 22.5q0 14 8.5 23.5t22.5 9.5t22.5 -9.5t8.5 -23.5q0 -13 -8.5 -22.5t-22.5 -9.5zM179 656q-14 0 -22.5 9.5t-8.5 22.5q0 14 8.5 23.5t22.5 9.5t22.5 -9.5t8.5 -23.5q0 -13 -8.5 -22.5t-22.5 -9.5zM104 0q-6 0 -6 7v467q0 6 7 6h17q6 0 6 -7
v-467q0 -6 -7 -6h-17z" />
    <glyph glyph-name="eth" unicode="&#xf0;" 
d="M334 621q199 -175 199 -372q0 -119 -70.5 -189t-166.5 -70q-99 0 -172 69.5t-73 173.5q0 103 69 170.5t165 67.5q71 0 127 -38.5t86 -99.5l2 1q-44 148 -185 272l-90 -74q-1 0 -1 1l-9 9q-5 5 1 9l84 69q-51 42 -114 81q-5 3 1 7l11 8q4 4 11 0q59 -39 109 -81l102 83
q5 5 9 -1l5 -5q5 -5 -1 -9zM296 18q85 0 146.5 61.5t61.5 149.5q0 89 -65.5 152t-151.5 63q-83 0 -145 -60t-62 -150t64 -153t152 -63z" />
    <glyph glyph-name="ntilde" unicode="&#xf1;" horiz-adv-x="518" 
d="M130 610q-6 0 -6 6q2 45 22 73.5t53 28.5q35 0 69 -43q1 -1 2 -3q30 -28 48 -31q43 0 48 66q0 6 6 6h12q6 0 6 -6q-2 -42 -21.5 -68.5t-50.5 -26.5q-33 0 -67 42q-28 36 -52 36q-47 0 -51 -74q0 -6 -6 -6h-12zM273 490q78 0 123.5 -44.5t45.5 -133.5v-306q0 -6 -7 -6h-17
q-6 0 -6 7v304q0 78 -38 115t-104 37q-71 0 -117 -47t-46 -117v-293q0 -6 -7 -6h-17q-6 0 -6 7v467q0 6 7 6h17q6 0 6 -7v-90q20 51 63.5 79t102.5 28z" />
    <glyph glyph-name="ograve" unicode="&#xf2;" horiz-adv-x="582" 
d="M309 570q3 -5 -4 -5h-14q-6 0 -10 6l-126 173q-4 4 2 8l26 11q7 2 10 -4zM291 -10q-98 0 -169 73t-71 179q0 105 71.5 176.5t168.5 71.5t168.5 -71.5t71.5 -176.5q0 -106 -71 -179t-169 -73zM291 18q86 0 148 64t62 160q0 94 -62 157t-148 63t-148 -63t-62 -157
q0 -96 62 -160t148 -64z" />
    <glyph glyph-name="oacute" unicode="&#xf3;" horiz-adv-x="582" 
d="M248 565q-6 0 -2 6l116 189q4 5 9 2l26 -11q6 -1 2 -8l-126 -173q-5 -5 -11 -5h-14zM291 -10q-98 0 -169 73t-71 179q0 105 71.5 176.5t168.5 71.5t168.5 -71.5t71.5 -176.5q0 -106 -71 -179t-169 -73zM291 18q86 0 148 64t62 160q0 94 -62 157t-148 63t-148 -63
t-62 -157q0 -96 62 -160t148 -64z" />
    <glyph glyph-name="ocircumflex" unicode="&#xf4;" horiz-adv-x="582" 
d="M169 565q-5 0 -3 5l110 175q3 5 9 5h13q6 0 9 -5l111 -175q3 -5 -3 -5h-20q-7 0 -9 5l-94 142l-95 -142q-3 -5 -9 -5h-19zM291 490q97 0 168.5 -71.5t71.5 -176.5q0 -106 -71 -179t-169 -73t-169 73t-71 179q0 105 71.5 176.5t168.5 71.5zM291 18q86 0 148 64t62 160
q0 94 -62 157t-148 63t-148 -63t-62 -157q0 -96 62 -160t148 -64z" />
    <glyph glyph-name="otilde" unicode="&#xf5;" horiz-adv-x="582" 
d="M352 612q-33 0 -67 42q-28 36 -52 36q-47 0 -51 -74q0 -6 -6 -6h-12q-6 0 -6 6q2 45 22 73.5t53 28.5q35 0 69 -43q1 -1 2 -3q30 -28 48 -31q43 0 48 66q0 6 6 6h12q6 0 6 -6q-2 -42 -21.5 -68.5t-50.5 -26.5zM291 -10q-98 0 -169 73t-71 179q0 105 71.5 176.5
t168.5 71.5t168.5 -71.5t71.5 -176.5q0 -106 -71 -179t-169 -73zM291 18q86 0 148 64t62 160q0 94 -62 157t-148 63t-148 -63t-62 -157q0 -96 62 -160t148 -64z" />
    <glyph glyph-name="odieresis" unicode="&#xf6;" horiz-adv-x="582" 
d="M224 656q-14 0 -22.5 9.5t-8.5 22.5q0 14 8.5 23.5t22.5 9.5t22.5 -9.5t8.5 -23.5q0 -13 -8.5 -22.5t-22.5 -9.5zM357 656q-14 0 -22.5 9.5t-8.5 22.5q0 14 8.5 23.5t22.5 9.5t22.5 -9.5t8.5 -23.5q0 -13 -8.5 -22.5t-22.5 -9.5zM291 -10q-98 0 -169 73t-71 179
q0 105 71.5 176.5t168.5 71.5t168.5 -71.5t71.5 -176.5q0 -106 -71 -179t-169 -73zM291 18q86 0 148 64t62 160q0 94 -62 157t-148 63t-148 -63t-62 -157q0 -96 62 -160t148 -64z" />
    <glyph glyph-name="divide" unicode="&#xf7;" horiz-adv-x="542" 
d="M272 450q-19 0 -30.5 12.5t-11.5 31.5q0 18 11.5 30.5t30.5 12.5q18 0 29 -12.5t11 -30.5t-11 -31t-29 -13zM46 280q-6 0 -6 7v15q0 6 7 6h449q6 0 6 -7v-15q0 -6 -7 -6h-449zM272 49q-19 0 -30.5 12.5t-11.5 31.5q0 18 11.5 30.5t30.5 12.5q18 0 29 -12.5t11 -30.5
t-11 -31t-29 -13z" />
    <glyph glyph-name="oslash" unicode="&#xf8;" horiz-adv-x="582" 
d="M415 454q53 -33 84.5 -89t31.5 -123q0 -106 -71 -179t-169 -73q-56 0 -107 27l-37 -69q-3 -5 -10 -5h-10q-7 0 -3 6l42 78q-53 34 -84 90.5t-31 124.5q0 105 71.5 176.5t168.5 71.5q57 0 106 -26l37 69q3 5 10 5h10q7 0 3 -6zM81 242q0 -61 26.5 -110.5t71.5 -79.5
l205 388q-44 22 -93 22q-86 0 -148 -63t-62 -157zM291 18q86 0 148 64t62 160q0 60 -27 109.5t-72 77.5l-205 -387q42 -24 94 -24z" />
    <glyph glyph-name="ugrave" unicode="&#xf9;" horiz-adv-x="510" 
d="M244 571l-126 173q-4 4 2 8l26 11q7 2 10 -4l116 -189q3 -5 -4 -5h-14q-6 0 -10 6zM428 480q6 0 6 -7v-467q0 -6 -7 -6h-16q-6 0 -6 7v98l-1 7v2q-19 -60 -62.5 -92t-103.5 -32q-74 0 -117.5 46t-43.5 141v297q0 6 7 6h17q6 0 6 -7v-296q0 -160 135 -160q74 0 118 55.5
t44 146.5v255q0 6 7 6h17z" />
    <glyph glyph-name="uacute" unicode="&#xfa;" horiz-adv-x="510" 
d="M211 565q-6 0 -2 6l116 189q4 5 9 2l26 -11q6 -1 2 -8l-126 -173q-5 -5 -11 -5h-14zM428 480q6 0 6 -7v-467q0 -6 -7 -6h-16q-6 0 -6 7v98l-1 7v2q-19 -60 -62.5 -92t-103.5 -32q-74 0 -117.5 46t-43.5 141v297q0 6 7 6h17q6 0 6 -7v-296q0 -160 135 -160q74 0 118 55.5
t44 146.5v255q0 6 7 6h17z" />
    <glyph glyph-name="ucircumflex" unicode="&#xfb;" horiz-adv-x="510" 
d="M132 565q-6 0 -3 5l110 175q3 5 9 5h13q7 0 9 -5l111 -175q3 -5 -3 -5h-20q-6 0 -9 5l-94 142l-95 -142q-3 -5 -9 -5h-19zM428 480q6 0 6 -7v-467q0 -6 -7 -6h-16q-6 0 -6 7v98l-1 7v2q-19 -60 -62.5 -92t-103.5 -32q-74 0 -117.5 46t-43.5 141v297q0 6 7 6h17q6 0 6 -7
v-296q0 -160 135 -160q74 0 118 55.5t44 146.5v255q0 6 7 6h17z" />
    <glyph glyph-name="udieresis" unicode="&#xfc;" horiz-adv-x="510" 
d="M187 656q-14 0 -22.5 9.5t-8.5 22.5q0 14 8.5 23.5t22.5 9.5t22.5 -9.5t8.5 -23.5q0 -13 -8.5 -22.5t-22.5 -9.5zM320 656q-14 0 -22.5 9.5t-8.5 22.5q0 14 8.5 23.5t22.5 9.5t22.5 -9.5t8.5 -23.5q0 -13 -8.5 -22.5t-22.5 -9.5zM428 480q6 0 6 -7v-467q0 -6 -7 -6h-16
q-6 0 -6 7v98l-1 7v2q-19 -60 -62.5 -92t-103.5 -32q-74 0 -117.5 46t-43.5 141v297q0 6 7 6h17q6 0 6 -7v-296q0 -160 135 -160q74 0 118 55.5t44 146.5v255q0 6 7 6h17z" />
    <glyph glyph-name="yacute" unicode="&#xfd;" horiz-adv-x="463" 
d="M183 565q-6 0 -2 6l116 189q4 5 9 2l26 -11q6 -1 2 -8l-126 -173q-5 -5 -11 -5h-14zM440 480q7 0 3 -6l-227 -537q-47 -109 -126 -109q-39 0 -71 17q-5 3 -5 10v19q0 6 6 2q27 -21 70 -21q65 0 98 85l29 67l-199 467q-2 6 5 6h19q5 0 9 -6l181 -429l181 429q1 6 9 6h18z
" />
    <glyph glyph-name="thorn" unicode="&#xfe;" horiz-adv-x="556" 
d="M292 490q89 0 151 -67.5t62 -182.5q0 -113 -64.5 -181.5t-148.5 -68.5q-60 0 -109.5 35t-74.5 98l-1 -280q0 -6 -7 -6h-17q-6 0 -6 7v900q0 6 7 6h16q6 0 6 -7v-390q24 65 74.5 101t111.5 36zM288 17q74 0 130 60t56 163q0 104 -54 163.5t-132 59.5t-131.5 -62
t-53.5 -161q0 -98 53.5 -160.5t131.5 -62.5z" />
    <glyph glyph-name="ydieresis" unicode="&#xff;" horiz-adv-x="463" 
d="M159 656q-14 0 -22.5 9.5t-8.5 22.5q0 14 8.5 23.5t22.5 9.5t22.5 -9.5t8.5 -23.5q0 -13 -8.5 -22.5t-22.5 -9.5zM292 656q-14 0 -22.5 9.5t-8.5 22.5q0 14 8.5 23.5t22.5 9.5t22.5 -9.5t8.5 -23.5q0 -13 -8.5 -22.5t-22.5 -9.5zM440 480q7 0 3 -6l-227 -537
q-47 -109 -126 -109q-39 0 -71 17q-5 3 -5 10v19q0 6 6 2q27 -21 70 -21q65 0 98 85l29 67l-199 467q-2 6 5 6h19q5 0 9 -6l181 -429l181 429q1 6 9 6h18z" />
    <glyph glyph-name="abreve" unicode="&#x103;" 
d="M303 605q-48 0 -80.5 31.5t-35.5 79.5q0 6 6 6h10q6 0 6 -6q3 -38 29 -61.5t65 -23.5t65 23.5t28 61.5q0 6 6 6h11q6 0 6 -6q-3 -48 -35.5 -79.5t-80.5 -31.5zM502 480q6 0 6 -7v-467q0 -6 -7 -6h-17q-6 0 -6 7v119q-26 -65 -80.5 -100.5t-117.5 -35.5q-91 0 -160 68
t-69 182q0 116 66.5 183t162.5 67q66 0 119 -34.5t79 -98.5v117q0 6 7 6h17zM282 18q80 0 139 60t59 162q0 103 -57.5 162.5t-140.5 59.5q-84 0 -142 -59.5t-58 -162.5q0 -102 60 -162t140 -60z" />
    <glyph glyph-name="eogonek" unicode="&#x119;" horiz-adv-x="518" 
d="M463 272h-380q-2 -20 -2 -30q0 -100 60 -162.5t149 -62.5q59 0 111 25q16 8 31.5 18t23 15.5t9.5 5.5q3 0 3 -7v-14q0 -6 -5 -10q-54 -43 -119 -55q-79 -47 -79 -95q0 -22 16.5 -35.5t40.5 -13.5q18 0 34 7q6 2 6 -4v-10q0 -6 -5 -9q-14 -7 -37 -7q-34 0 -57.5 20
t-23.5 51q0 48 60 91h-11q-102 0 -169.5 69t-67.5 182q0 108 65.5 178.5t161.5 70.5q88 0 142 -54.5t54 -148.5q0 -15 -11 -15zM278 463q-69 0 -122.5 -46t-69.5 -121h361q-1 74 -48.5 120.5t-120.5 46.5z" />
    <glyph glyph-name="idotless" unicode="&#x131;" horiz-adv-x="227" 
d="M104 0q-6 0 -6 7v467q0 6 7 6h17q6 0 6 -7v-467q0 -6 -7 -6h-17z" />
    <glyph glyph-name="Lslash" unicode="&#x141;" horiz-adv-x="451" 
d="M418 30q6 0 6 -7v-17q0 -6 -7 -6h-327q-6 0 -6 7v354l-49 -19q-6 -2 -6 5v12q0 5 7 9l48 19v317q0 6 7 6h17q6 0 6 -7v-305l72 28q6 2 6 -5v-12q0 -5 -7 -9l-71 -27v-343h304z" />
    <glyph glyph-name="lslash" unicode="&#x142;" horiz-adv-x="241" 
d="M221 31q7 3 7 -5v-15q0 -7 -6 -9q-27 -12 -60 -12q-81 0 -81 87v340l-55 -21q-6 -2 -6 5v12q0 5 7 9l54 21v301q0 6 7 6h17q6 0 6 -7v-289l66 26q6 2 6 -5v-12q0 -5 -7 -9l-65 -25v-349q0 -63 58 -63q29 0 52 14z" />
    <glyph glyph-name="OE" unicode="&#x152;" horiz-adv-x="820" 
d="M757 681h-292v-294h264q6 0 6 -7v-15q0 -6 -7 -6h-263v-330h293q6 0 6 -7v-16q0 -6 -7 -6h-320q-178 0 -285.5 101t-107.5 260q0 156 108.5 252.5t284.5 96.5h321q6 0 6 -7v-16q0 -6 -7 -6zM434 29v653q-164 -1 -261.5 -89t-97.5 -232q0 -148 97.5 -239.5t261.5 -92.5z
" />
    <glyph glyph-name="oe" unicode="&#x153;" horiz-adv-x="893" 
d="M837 273h-352q-2 -20 -2 -32q0 -108 54 -166t147 -58q89 0 155 56q4 4 4 -3v-18q0 -6 -5 -10q-65 -52 -156 -52q-80 0 -136.5 41t-78.5 117q-22 -72 -75.5 -115t-124.5 -43q-92 0 -154 72t-62 180q0 107 62 177.5t154 70.5q69 0 123.5 -43t76.5 -114q23 72 74.5 114.5
t122.5 42.5q83 0 134 -54t51 -150q0 -13 -12 -13zM664 464q-72 0 -117.5 -46.5t-58.5 -121.5h335q-1 75 -45.5 121.5t-113.5 46.5zM268 17q79 0 131.5 64t52.5 161q0 96 -52.5 158.5t-131.5 62.5q-81 0 -134.5 -62.5t-53.5 -158.5q0 -98 53.5 -161.5t134.5 -63.5z" />
    <glyph glyph-name="Scaron" unicode="&#x160;" horiz-adv-x="488" 
d="M228 761l-109 126q-5 5 3 5h18q6 0 11 -5l94 -99l94 100q4 4 11 4h17q6 0 1 -5l-108 -126q-5 -5 -11 -5h-10q-6 0 -11 5zM256 385q93 -42 141.5 -88.5t48.5 -118.5q0 -84 -63 -136.5t-161 -52.5q-106 0 -181 46q-4 1 -4 8v20q0 5 1 5l4 -2q78 -48 180 -48q86 0 140 43
t54 116q0 62 -45 103t-130 78q-44 20 -70 34.5t-57.5 38.5t-46.5 55.5t-15 70.5q0 70 54.5 116.5t139.5 46.5q86 0 150 -32q6 -2 6 -9v-19q0 -5 -2 -5q-1 0 -3 2q-67 35 -150 35q-70 0 -117 -37.5t-47 -96.5q0 -23 6 -42t20.5 -36t26 -28t37 -25t39 -21t44.5 -21z" />
    <glyph glyph-name="scaron" unicode="&#x161;" horiz-adv-x="433" 
d="M200 578l-110 164q-3 5 4 5h18q6 0 10 -6l94 -135l95 136q3 5 10 5h17q6 0 2 -6l-109 -164q-3 -5 -10 -5h-11q-6 0 -10 6zM224 265q28 -9 44.5 -15t39 -18t35 -24.5t21.5 -32.5t9 -44q0 -62 -46 -101.5t-122 -39.5q-83 0 -139 35q-5 5 -5 10v20q0 4 2 4q1 0 3 -2
q59 -40 140 -40q62 0 100 31.5t38 78.5q0 25 -10 43t-32 31t-40 20t-52 18t-54 19.5t-44 23.5t-35 36.5t-11 49.5q0 55 42 88.5t114 33.5q68 0 127 -27q5 -3 5 -9v-19q0 -4 -2 -4t-4 1q-57 31 -126 31q-58 0 -92 -25.5t-34 -67.5q0 -19 7.5 -34t17.5 -24.5t30 -19
t33.5 -14.5t39.5 -13z" />
    <glyph glyph-name="Ydieresis" unicode="&#x178;" horiz-adv-x="530" 
d="M192 780q-18 0 -29.5 12.5t-11.5 30.5q0 19 11.5 31.5t29.5 12.5t29.5 -12.5t11.5 -31.5q0 -18 -11.5 -30.5t-29.5 -12.5zM342 780q-18 0 -29.5 12.5t-11.5 30.5q0 19 11.5 31.5t29.5 12.5t29.5 -12.5t11.5 -31.5q0 -18 -11.5 -30.5t-29.5 -12.5zM256 0q-6 0 -6 7v302
l-234 390q-3 5 -3 7q0 4 9 4h16q6 0 10 -6l217 -367l218 368q3 5 10 5h14q13 0 6 -11l-233 -390v-303q0 -6 -7 -6h-17z" />
    <glyph glyph-name="Zcaron" unicode="&#x17d;" horiz-adv-x="551" 
d="M260 761l-109 126q-5 5 3 5h18q6 0 11 -5l94 -99l94 100q4 4 11 4h17q6 0 1 -5l-108 -126q-5 -5 -11 -5h-10q-6 0 -11 5zM499 28q6 0 6 -7v-15q0 -6 -7 -6h-454q-6 0 -6 7v2q0 5 4 12l414 661h-388q-6 0 -6 7v15q0 6 7 6h420q6 0 6 -7v-2q0 -5 -4 -12l-414 -661h422z" />
    <glyph glyph-name="zcaron" unicode="&#x17e;" horiz-adv-x="437" 
d="M193 578l-110 164q-3 5 4 5h18q6 0 10 -6l94 -135l95 136q3 5 10 5h17q6 0 2 -6l-109 -164q-3 -5 -10 -5h-11q-6 0 -10 6zM393 469q0 -5 -4 -12l-316 -430h313q6 0 6 -7v-14q0 -6 -7 -6h-344q-6 0 -6 7v4q0 5 4 12l315 430h-294q-6 0 -6 7v14q0 6 7 6h326q6 0 6 -7v-4z
" />
    <glyph glyph-name="florin" unicode="&#x192;" horiz-adv-x="439" 
d="M430 744q5 -3 5 -10v-11q0 -12 -11 -6q-26 16 -68 16q-78 0 -99 -114l-26 -139h150q6 0 6 -7v-12q0 -6 -7 -6h-154l-91 -488q-12 -71 -42.5 -105t-82.5 -34q-43 0 -72 12q-6 2 -6 9v17q0 5 6 3q28 -14 69 -14q78 0 99 113l91 487h-102q-6 0 -6 7v12q0 6 7 6h106l26 141
q12 71 42.5 105t82.5 34q43 0 77 -16z" />
    <glyph glyph-name="circumflex" unicode="&#x2c6;" horiz-adv-x="500" 
d="M376 570q3 -5 -3 -5h-20q-7 0 -9 5l-94 142l-95 -142q-3 -5 -9 -5h-19q-5 0 -3 5l110 175q3 5 9 5h13q6 0 9 -5z" />
    <glyph glyph-name="caron" unicode="&#x2c7;" horiz-adv-x="500" 
d="M372 747q6 0 2 -6l-109 -164q-3 -5 -10 -5h-11q-6 0 -10 6l-110 164q-3 5 4 5h18q6 0 10 -6l94 -135l95 136q3 5 10 5h17z" />
    <glyph glyph-name="breve" unicode="&#x2d8;" horiz-adv-x="500" 
d="M250 605q-48 0 -80.5 31.5t-35.5 79.5q0 6 6 6h10q6 0 6 -6q3 -38 29 -61.5t65 -23.5t65 23.5t28 61.5q0 6 6 6h11q6 0 6 -6q-3 -48 -35.5 -79.5t-80.5 -31.5z" />
    <glyph glyph-name="dotaccent" unicode="&#x2d9;" horiz-adv-x="500" 
d="M250 635q-19 0 -30 12.5t-11 31.5t11 31t30 12q18 0 29.5 -12.5t11.5 -30.5q0 -19 -11.5 -31.5t-29.5 -12.5z" />
    <glyph glyph-name="ring" unicode="&#x2da;" horiz-adv-x="500" 
d="M250 583q-34 0 -56.5 23.5t-22.5 58.5t22.5 57t56.5 22t56.5 -22t22.5 -57t-22.5 -58.5t-56.5 -23.5zM250 603q25 0 41 17.5t16 44.5q0 26 -16 43.5t-41 17.5t-41 -17.5t-16 -43.5q0 -27 16 -44.5t41 -17.5z" />
    <glyph glyph-name="ogonek" unicode="&#x2db;" horiz-adv-x="500" 
d="M269 -171q-34 0 -57.5 20t-23.5 51q0 33 30 65t75 52l17 -11q-96 -52 -96 -105q0 -22 16.5 -35.5t40.5 -13.5q18 0 34 7q6 1 6 -4v-10q0 -7 -5 -9q-14 -7 -37 -7z" />
    <glyph glyph-name="tilde" unicode="&#x2dc;" horiz-adv-x="500" 
d="M311 614q-33 0 -67 42q-28 36 -52 36q-47 0 -51 -74q0 -6 -6 -6h-12q-6 0 -6 6q2 45 22 73.5t53 28.5q35 0 69 -43q1 -1 2 -3q30 -28 48 -31q43 0 48 66q0 6 6 6h12q6 0 6 -6q-2 -42 -21.5 -68.5t-50.5 -26.5z" />
    <glyph glyph-name="hungarumlaut" unicode="&#x2dd;" horiz-adv-x="500" 
d="M138 565q-7 0 -3 6l91 185q3 5 10 3l23 -8q6 -1 2 -8l-100 -173q-3 -5 -10 -5h-13zM239 565q-7 0 -3 6l93 185q3 5 10 3l24 -8q6 -1 2 -8l-102 -173q-3 -5 -10 -5h-14z" />
    <glyph glyph-name="gravecomb" unicode="&#x300;" horiz-adv-x="0" 
d="M17 570q3 -5 -4 -5h-14q-6 0 -10 6l-126 173q-4 4 2 8l26 11q7 2 10 -4z" />
    <glyph glyph-name="acutecomb" unicode="&#x301;" horiz-adv-x="0" 
d="M-43 565q-6 0 -2 6l116 189q4 5 9 2l26 -11q6 -1 2 -8l-126 -173q-5 -5 -11 -5h-14z" />
    <glyph glyph-name="circumflexcomb" unicode="&#x302;" horiz-adv-x="0" 
d="M126 570q3 -5 -3 -5h-20q-7 0 -9 5l-94 142l-95 -142q-3 -5 -9 -5h-19q-5 0 -3 5l110 175q3 5 9 5h13q6 0 9 -5z" />
    <glyph glyph-name="tildecomb" unicode="&#x303;" horiz-adv-x="0" 
d="M61 614q-33 0 -67 42q-28 36 -52 36q-47 0 -51 -74q0 -6 -6 -6h-12q-6 0 -6 6q2 45 22 73.5t53 28.5q35 0 69 -43q1 -1 2 -3q30 -28 48 -31q43 0 48 66q0 6 6 6h12q6 0 6 -6q-2 -42 -21.5 -68.5t-50.5 -26.5z" />
    <glyph glyph-name="macroncomb" unicode="&#x304;" horiz-adv-x="0" 
d="M-121 645q-6 0 -6 7v14q0 6 7 6h241q6 0 6 -7v-14q0 -6 -7 -6h-241z" />
    <glyph glyph-name="brevecomb" unicode="&#x306;" horiz-adv-x="0" 
d="M0 605q-48 0 -80.5 31.5t-35.5 79.5q0 6 6 6h10q6 0 6 -6q3 -38 29 -61.5t65 -23.5t65 23.5t28 61.5q0 6 6 6h11q6 0 6 -6q-3 -48 -35.5 -79.5t-80.5 -31.5z" />
    <glyph glyph-name="dotaccentcomb" unicode="&#x307;" horiz-adv-x="0" 
d="M0 635q-19 0 -30 12.5t-11 31.5t11 31t30 12q18 0 29.5 -12.5t11.5 -30.5q0 -19 -11.5 -31.5t-29.5 -12.5z" />
    <glyph glyph-name="dieresiscomb" unicode="&#x308;" horiz-adv-x="0" 
d="M-67 656q-14 0 -22.5 9.5t-8.5 22.5q0 14 8.5 23.5t22.5 9.5t22.5 -9.5t8.5 -23.5q0 -13 -8.5 -22.5t-22.5 -9.5zM66 656q-14 0 -22.5 9.5t-8.5 22.5q0 14 8.5 23.5t22.5 9.5t22.5 -9.5t8.5 -23.5q0 -13 -8.5 -22.5t-22.5 -9.5z" />
    <glyph glyph-name="ringcomb" unicode="&#x30a;" horiz-adv-x="0" 
d="M0 583q-34 0 -56.5 23.5t-22.5 58.5t22.5 57t56.5 22t56.5 -22t22.5 -57t-22.5 -58.5t-56.5 -23.5zM0 603q25 0 41 17.5t16 44.5q0 26 -16 43.5t-41 17.5t-41 -17.5t-16 -43.5q0 -27 16 -44.5t41 -17.5z" />
    <glyph glyph-name="hungarumlautcomb" unicode="&#x30b;" horiz-adv-x="0" 
d="M-75 565q-7 0 -3 6l91 185q3 5 10 3l23 -8q6 -1 2 -8l-100 -173q-3 -5 -10 -5h-13zM26 565q-7 0 -3 6l93 185q3 5 10 3l24 -8q6 -1 2 -8l-102 -173q-3 -5 -10 -5h-14z" />
    <glyph glyph-name="caroncomb" unicode="&#x30c;" horiz-adv-x="0" 
d="M122 747q6 0 2 -6l-109 -164q-3 -5 -10 -5h-11q-6 0 -10 6l-110 164q-3 5 4 5h18q6 0 10 -6l94 -135l95 136q3 5 10 5h17z" />
    <glyph glyph-name="cedillacomb" unicode="&#x327;" horiz-adv-x="30" 
d="M23 -46q30 0 49 -16t19 -42q0 -30 -25 -49t-61 -19q-35 0 -64 13q-5 3 -5 9v10q0 6 5 3q31 -14 63 -14q26 0 44.5 12.5t18.5 33.5q0 19 -15.5 29.5t-37.5 10.5q-28 0 -49 -8l-2 2l57 77h23l-42 -54q14 2 22 2z" />
    <glyph glyph-name="ogonekcomb" unicode="&#x328;" horiz-adv-x="0" 
d="M19 -171q-34 0 -57.5 20t-23.5 51q0 33 30 65t75 52l17 -11q-96 -52 -96 -105q0 -22 16.5 -35.5t40.5 -13.5q18 0 34 7q6 1 6 -4v-10q0 -7 -5 -9q-14 -7 -37 -7z" />
    <glyph glyph-name="slashshortcomb" unicode="&#x337;" horiz-adv-x="0" 
d="M-164 -46q-7 0 -3 6l310 584q3 5 10 5h10q7 0 3 -6l-310 -584q-3 -5 -10 -5h-10z" />
    <glyph glyph-name="slashlongcomb" unicode="&#x338;" horiz-adv-x="0" 
d="M-215 -45q-7 0 -3 6l411 769q3 5 10 5h10q7 0 3 -6l-411 -769q-3 -5 -10 -5h-10z" />
    <glyph glyph-name="Delta" unicode="&#x394;" horiz-adv-x="622" 
d="M22 0q-6 0 -6 7t3 12l281 690q2 6 9 6h6q5 0 9 -6l281 -690q2 -8 2 -13q0 -6 -7 -6h-578zM52 28h518l-259 637z" />
    <glyph glyph-name="Omega" unicode="&#x3a9;" horiz-adv-x="670" 
d="M70 0q-6 0 -6 7v16q0 6 7 6h196v104q-102 31 -163 110.5t-61 184.5q0 125 82.5 208.5t205.5 83.5q122 0 204.5 -83.5t82.5 -208.5q0 -105 -61 -184.5t-162 -110.5v-104h197q6 0 6 -7v-16q0 -6 -7 -6h-219q-6 0 -6 7v131q0 6 7 8q96 32 155.5 105t59.5 175q0 114 -73 190
t-184 76t-184 -76t-73 -190q0 -103 59.5 -176t156.5 -104q6 -2 6 -9v-131q0 -6 -7 -6h-219z" />
    <glyph glyph-name="mu" unicode="&#x3bc;" horiz-adv-x="511" 
d="M428 480q6 0 6 -7v-467q0 -6 -7 -6h-16q-6 0 -6 7v99l-1 7v5q-19 -63 -61.5 -95.5t-102.5 -32.5q-98 0 -135 75l2 -221q0 -6 -7 -6h-17q-6 0 -6 7l1 241l-1 388q0 6 7 6h17q6 0 6 -7v-299q0 -158 135 -158q74 0 118 56t44 149v253q0 6 7 6h17z" />
    <glyph glyph-name="pi" unicode="&#x3c0;" horiz-adv-x="489" 
d="M454 31q7 3 7 -5v-15q0 -7 -6 -9q-27 -12 -59 -12q-81 0 -81 93v369h-186v-446q0 -6 -7 -6h-16q-6 0 -6 7v445h-89q-6 0 -6 7v15q0 6 7 6h421q6 0 6 -7v-15q0 -6 -7 -6h-88v-367q0 -68 58 -68q29 0 52 14z" />
    <glyph glyph-name="enspace" unicode="&#x2002;" horiz-adv-x="500" 
 />
    <glyph glyph-name="emspace" unicode="&#x2003;" horiz-adv-x="1000" 
 />
    <glyph glyph-name="threeperemspace" unicode="&#x2004;" horiz-adv-x="594" 
 />
    <glyph glyph-name="fourperemspace" unicode="&#x2005;" horiz-adv-x="250" 
 />
    <glyph glyph-name="thinspace" unicode="&#x2009;" horiz-adv-x="109" 
 />
    <glyph glyph-name="hairspace" unicode="&#x200a;" horiz-adv-x="67" 
 />
    <glyph glyph-name="endash" unicode="&#x2013;" horiz-adv-x="509" 
d="M67 246q-6 0 -6 7v15q0 6 7 6h374q6 0 6 -7v-15q0 -6 -7 -6h-374z" />
    <glyph glyph-name="emdash" unicode="&#x2014;" horiz-adv-x="872" 
d="M67 246q-6 0 -6 7v15q0 6 7 6h737q6 0 6 -7v-15q0 -6 -7 -6h-737z" />
    <glyph glyph-name="quoteleft" unicode="&#x2018;" horiz-adv-x="197" 
d="M79 597q16 -1 27 -12.5t11 -30.5q0 -21 -12.5 -33t-28.5 -12q-17 0 -29.5 12t-12.5 31q0 18 19 64l41 98q3 6 9 6h6q8 0 5 -8z" />
    <glyph glyph-name="quoteright" unicode="&#x2019;" horiz-adv-x="197" 
d="M124 720q17 0 29.5 -12t12.5 -31q0 -18 -19 -64l-41 -98q-3 -6 -9 -6h-6q-8 0 -5 8l35 115q-16 1 -27 12.5t-11 30.5q0 21 12.5 33t28.5 12z" />
    <glyph glyph-name="quotesinglbase" unicode="&#x201a;" horiz-adv-x="203" 
d="M101 81q17 0 29.5 -12t12.5 -31q0 -18 -19 -64l-41 -98q-3 -6 -9 -6h-6q-8 0 -5 8l35 115q-16 1 -27 12.5t-11 30.5q0 21 12.5 33t28.5 12z" />
    <glyph glyph-name="quotedblleft" unicode="&#x201c;" horiz-adv-x="338" 
d="M77 587q16 -1 27 -12.5t11 -30.5q0 -21 -12.5 -33t-28.5 -12q-17 0 -29.5 12t-12.5 31q0 18 19 64l41 98q3 6 9 6h6q8 0 5 -8zM218 587q16 -1 27 -12.5t11 -30.5q0 -21 -12.5 -33t-28.5 -12q-17 0 -29.5 12t-12.5 31q0 18 19 64l41 98q3 6 9 6h6q8 0 5 -8z" />
    <glyph glyph-name="quotedblright" unicode="&#x201d;" horiz-adv-x="339" 
d="M127 719q17 0 29.5 -12t12.5 -31q0 -18 -19 -64l-41 -98q-3 -6 -9 -6h-6q-8 0 -5 8l35 115q-16 1 -27 12.5t-11 30.5q0 21 12.5 33t28.5 12zM268 719q17 0 29.5 -12t12.5 -31q0 -18 -19 -64l-41 -98q-3 -6 -9 -6h-6q-8 0 -5 8l35 115q-16 1 -27 12.5t-11 30.5
q0 21 12.5 33t28.5 12z" />
    <glyph glyph-name="quotedblbase" unicode="&#x201e;" horiz-adv-x="345" 
d="M101 80q17 0 29.5 -12t12.5 -31q0 -18 -19 -64l-41 -98q-3 -6 -9 -6h-6q-8 0 -5 8l35 115q-16 1 -27 12.5t-11 30.5q0 21 12.5 33t28.5 12zM242 80q17 0 29.5 -12t12.5 -31q0 -18 -19 -64l-41 -98q-3 -6 -9 -6h-6q-8 0 -5 8l35 115q-16 1 -27 12.5t-11 30.5q0 21 12.5 33
t28.5 12z" />
    <glyph glyph-name="dagger" unicode="&#x2020;" horiz-adv-x="332" 
d="M287 589q6 0 6 -7v-16q0 -6 -7 -6l-109 3v-277q0 -6 -7 -6h-15q-6 0 -6 7v276l-112 -3q-6 0 -6 7v16q0 6 7 6l111 -2v117q0 6 7 6h15q6 0 6 -7v-116z" />
    <glyph glyph-name="daggerdbl" unicode="&#x2021;" horiz-adv-x="332" 
d="M286 563l-110 2v-147l111 2q6 0 6 -7v-16q0 -6 -7 -6l-110 2v-107q0 -6 -7 -6h-14q-6 0 -6 7v106l-112 -2q-6 0 -6 7v16q0 6 7 6l111 -2v147l-112 -2q-6 0 -6 7v16q0 6 7 6l111 -3v115q0 6 7 6h14q6 0 6 -7v-114l111 3q6 0 6 -7v-16q0 -6 -7 -6z" />
    <glyph glyph-name="bullet" unicode="&#x2022;" horiz-adv-x="245" 
d="M123 268q-28 0 -45.5 19t-17.5 47t17.5 47t45.5 19t45 -19t17 -47t-17 -47t-45 -19z" />
    <glyph glyph-name="ellipsis" unicode="&#x2026;" horiz-adv-x="556" 
d="M102 -7q-19 0 -30.5 12.5t-11.5 31.5t11.5 31.5t30.5 12.5q18 0 29.5 -12.5t11.5 -31.5t-11.5 -31.5t-29.5 -12.5zM278 -7q-19 0 -30.5 12.5t-11.5 31.5t11.5 31.5t30.5 12.5q18 0 29.5 -12.5t11.5 -31.5t-11.5 -31.5t-29.5 -12.5zM455 -7q-19 0 -30.5 12.5t-11.5 31.5
t11.5 31.5t30.5 12.5q18 0 29.5 -12.5t11.5 -31.5t-11.5 -31.5t-29.5 -12.5z" />
    <glyph glyph-name="perthousand" unicode="&#x2030;" horiz-adv-x="926" 
d="M98 -17q-5 3 -1 9l448 728q4 5 9 2l7 -4q5 -3 1 -9l-448 -728q-4 -5 -9 -2zM176 432q-46 0 -77.5 40t-31.5 103q0 65 31.5 105t77.5 40t77 -40t31 -105q0 -63 -31.5 -103t-76.5 -40zM176 455q36 0 60.5 33t24.5 87q0 56 -24.5 89t-60.5 33q-37 0 -61.5 -32.5t-24.5 -89.5
q0 -54 25 -87t61 -33zM473 -10q-46 0 -77.5 40t-31.5 103q0 65 31.5 105t77.5 40t77.5 -40t31.5 -105q0 -63 -32 -103t-77 -40zM750 -10q-45 0 -77 40t-32 103q0 65 31.5 105t77.5 40t77.5 -40t31.5 -105q0 -63 -31.5 -103t-77.5 -40zM473 13q36 0 60.5 33t24.5 87
q0 57 -24 89.5t-61 32.5t-61 -32.5t-24 -89.5q0 -54 24.5 -87t60.5 -33zM750 13q36 0 60.5 33t24.5 87q0 57 -24 89.5t-61 32.5t-61 -32.5t-24 -89.5q0 -54 24.5 -87t60.5 -33z" />
    <glyph glyph-name="guilsinglleft" unicode="&#x2039;" horiz-adv-x="338" 
d="M236 56q-4 -4 -9 0l-163 186q-4 4 1 10l162 176q4 4 9 -1l9 -11q4 -4 -1 -9l-145 -160l146 -170q4 -4 0 -10z" />
    <glyph glyph-name="guilsinglright" unicode="&#x203a;" horiz-adv-x="338" 
d="M110 56q-5 -5 -8 0l-9 11q-5 5 1 10l145 170l-146 161q-4 4 1 9l9 11q4 4 9 -1l162 -176q4 -4 -1 -9z" />
    <glyph glyph-name="fraction" unicode="&#x2044;" horiz-adv-x="117" 
d="M-181 -17q-5 3 -1 9l448 728q4 5 9 2l7 -4q5 -3 1 -9l-448 -728q-4 -5 -9 -2z" />
    <glyph glyph-name="euro" unicode="&#x20ac;" 
d="M529 49q5 3 5 -4v-18q0 -5 -6 -9q-69 -29 -139 -29q-110 0 -189.5 78t-100.5 210h-63q-6 0 -6 7v12q0 6 7 6h59q-3 27 -3 57q0 26 1 39h-58q-6 0 -6 7v12q0 6 7 6h60q17 136 98.5 216.5t194.5 80.5q60 0 130 -29q5 -3 5 -10v-18q0 -7 -6 -3q-64 32 -127 32
q-103 0 -176.5 -73t-89.5 -196h362q6 0 6 -7v-12q0 -6 -7 -6h-364q-1 -12 -1 -38q0 -30 3 -58h363q6 0 6 -7v-12q0 -6 -7 -6h-359q20 -121 92 -190t172 -69q68 0 137 31z" />
    <glyph glyph-name="trademark" unicode="&#x2122;" horiz-adv-x="690" 
d="M651 379q1 -6 -5 -6h-16q-6 0 -7 6l-52 298l-108 -286q-1 -6 -8 -6h-8q-6 0 -8 6l-106 282l-55 -294q-2 -6 -7 -6h-14q-6 0 -5 6l62 325q2 6 7 6h16q6 0 8 -6l107 -284l106 284q2 6 8 6h15q6 0 7 -6zM254 692q0 -6 -6 -6h-99v-307q0 -6 -6 -6h-14q-6 0 -6 6v307h-99
q-6 0 -6 6v11q0 6 6 6h224q6 0 6 -6v-11z" />
    <glyph glyph-name="oneeighth" unicode="&#x215b;" horiz-adv-x="836" 
d="M639 718q5 -3 1 -9l-448 -728q-4 -5 -9 -2l-7 4q-5 3 -1 9l448 728q4 5 9 2zM192 297v387l-125 -51q-6 -1 -6 5v13q0 5 6 9l128 52q8 2 12 2h5q6 0 6 -7v-411q0 -6 -7 -6h-13q-6 0 -6 7zM701 226q39 -9 66 -39.5t27 -70.5q0 -54 -40 -87.5t-99 -33.5t-99 33.5t-40 87.5
q0 40 26.5 70.5t65.5 39.5q-34 11 -54 37t-20 62q0 46 34.5 75.5t86.5 29.5t86 -29.5t34 -75.5q0 -36 -20 -62t-54 -37zM559 323q0 -38 26.5 -63t69.5 -25t69.5 25t26.5 63q0 37 -27.5 61.5t-68.5 24.5t-68.5 -24.5t-27.5 -61.5zM655 17q48 0 80.5 28.5t32.5 71.5
q0 41 -33.5 69.5t-79.5 28.5t-79.5 -28.5t-33.5 -69.5q0 -43 32.5 -71.5t80.5 -28.5z" />
    <glyph glyph-name="threeeighths" unicode="&#x215c;" horiz-adv-x="839" 
d="M642 718q5 -3 1 -9l-448 -728q-4 -5 -9 -2l-7 4q-5 3 -1 9l448 728q4 5 9 2zM310 406q0 -52 -41 -87t-106 -35q-58 0 -107 21q-5 3 -5 10v13q0 7 6 3q50 -23 104 -23q53 0 86.5 28.5t33.5 70.5q0 43 -39.5 69.5t-108.5 26.5h-11q-6 0 -6 7v10q0 6 7 6h10q61 0 95 27.5
t34 63.5q0 34 -29 57t-76 23q-45 0 -91 -23q-5 -3 -5 4v13q0 7 6 9q47 20 92 20q60 0 95.5 -28t35.5 -71q0 -36 -27.5 -66t-75.5 -39q56 -7 89.5 -36.5t33.5 -73.5zM704 226q39 -9 66 -39.5t27 -70.5q0 -54 -40 -87.5t-99 -33.5t-99 33.5t-40 87.5q0 40 26.5 70.5t65.5 39.5
q-34 11 -54 37t-20 62q0 46 34.5 75.5t86.5 29.5t86 -29.5t34 -75.5q0 -36 -20 -62t-54 -37zM562 323q0 -38 26.5 -63t69.5 -25t69.5 25t26.5 63q0 37 -27.5 61.5t-68.5 24.5t-68.5 -24.5t-27.5 -61.5zM658 17q48 0 80.5 28.5t32.5 71.5q0 41 -33.5 69.5t-79.5 28.5
t-79.5 -28.5t-33.5 -69.5q0 -43 32.5 -71.5t80.5 -28.5z" />
    <glyph glyph-name="fiveeighths" unicode="&#x215d;" horiz-adv-x="840" 
d="M643 718q5 -3 1 -9l-448 -728q-4 -5 -9 -2l-7 4q-5 3 -1 9l448 728q4 5 9 2zM305 424q0 -62 -45 -101t-112 -39q-48 0 -86 19q-5 3 -5 10v11q0 5 6 3q41 -19 81 -19q58 0 95.5 32.5t37.5 83.5q0 50 -34.5 80t-87.5 30q-45 0 -83 -21q-2 -2 -3.5 -1t-0.5 5l39 191q1 6 8 6
h165q6 0 6 -7v-11q0 -6 -7 -6h-151l-30 -146q28 12 67 12q61 0 100.5 -36t39.5 -96zM705 226q39 -9 66 -39.5t27 -70.5q0 -54 -40 -87.5t-99 -33.5t-99 33.5t-40 87.5q0 40 26.5 70.5t65.5 39.5q-34 11 -54 37t-20 62q0 46 34.5 75.5t86.5 29.5t86 -29.5t34 -75.5
q0 -36 -20 -62t-54 -37zM563 323q0 -38 26.5 -63t69.5 -25t69.5 25t26.5 63q0 37 -27.5 61.5t-68.5 24.5t-68.5 -24.5t-27.5 -61.5zM659 17q48 0 80.5 28.5t32.5 71.5q0 41 -33.5 69.5t-79.5 28.5t-79.5 -28.5t-33.5 -69.5q0 -43 32.5 -71.5t80.5 -28.5z" />
    <glyph glyph-name="seveneighths" unicode="&#x215e;" horiz-adv-x="771" 
d="M575 718q5 -3 1 -9l-448 -728q-4 -5 -9 -2l-7 4q-5 3 -1 9l448 728q4 5 9 2zM306 714q7 0 3 -6l-215 -413q-3 -5 -10 -5h-16q-7 0 -3 6l206 393h-213q-6 0 -6 7v12q0 6 7 6h247zM637 226q39 -9 66 -39.5t27 -70.5q0 -54 -40 -87.5t-99 -33.5t-99 33.5t-40 87.5
q0 40 26.5 70.5t65.5 39.5q-34 11 -54 37t-20 62q0 46 34.5 75.5t86.5 29.5t86 -29.5t34 -75.5q0 -36 -20 -62t-54 -37zM495 323q0 -38 26.5 -63t69.5 -25t69.5 25t26.5 63q0 37 -27.5 61.5t-68.5 24.5t-68.5 -24.5t-27.5 -61.5zM591 17q48 0 80.5 28.5t32.5 71.5
q0 41 -33.5 69.5t-79.5 28.5t-79.5 -28.5t-33.5 -69.5q0 -43 32.5 -71.5t80.5 -28.5z" />
    <glyph glyph-name="partialdiff" unicode="&#x2202;" 
d="M241 719q134 0 206.5 -104t72.5 -295q0 -144 -64.5 -237t-185.5 -93q-89 0 -151 59.5t-62 157.5q0 102 75 171t192 69q99 0 163 -38q-15 135 -77 209.5t-169 74.5q-80 0 -127 -19q-6 -2 -6 5v17q0 6 7 8q49 15 126 15zM271 17q108 0 164.5 84.5t56.5 218.5q0 21 -2 61
q-67 40 -163 40q-106 0 -173.5 -62t-67.5 -153q0 -83 54 -136t131 -53z" />
    <glyph glyph-name="product" unicode="&#x220f;" horiz-adv-x="696" 
d="M586 710q6 0 6 -7v-16q0 -6 -7 -6h-108v-795q0 -6 -7 -6h-18q-6 0 -6 7v794h-248v-795q0 -6 -7 -6h-17q-6 0 -6 7v794h-99q-1 0 -1 1v22q0 6 7 6h511z" />
    <glyph glyph-name="summation" unicode="&#x2211;" horiz-adv-x="533" 
d="M467 689q0 -6 -7 -6h-356l296 -369q4 -5 4 -10t-4 -10l-297 -388h358q6 0 6 -7v-14q0 -6 -7 -6h-388q-6 0 -6 7v9q0 5 4 12l305 397l-305 380q-4 4 -4 11v9q0 6 7 6h388q6 0 6 -7v-14z" />
    <glyph glyph-name="minus" unicode="&#x2212;" horiz-adv-x="542" 
d="M46 280q-6 0 -6 7v15q0 6 7 6h449q6 0 6 -7v-15q0 -6 -7 -6h-449z" />
    <glyph glyph-name="radical" unicode="&#x221a;" horiz-adv-x="517" 
d="M473 710q6 0 4 -7l-259 -827q-2 -6 -9 -6h-8q-5 0 -9 6l-178 446l-2 6q0 6 10 6h10q6 0 9 -7l164 -415l242 792q1 6 9 6h17z" />
    <glyph glyph-name="infinity" unicode="&#x221e;" horiz-adv-x="860" 
d="M641 471q66 0 109 -48t43 -127q0 -80 -42.5 -127t-107.5 -47q-35 0 -67 13.5t-60 38.5t-46.5 46.5t-41.5 53.5q-51 -71 -98.5 -111.5t-108.5 -40.5q-65 0 -109.5 48.5t-44.5 121.5q0 74 46.5 126.5t112.5 52.5q41 0 81 -25.5t64.5 -54t57.5 -74.5q23 32 41 54t45 47.5
t59 39t67 13.5zM224 148q51 0 95 39t94 108q-24 34 -41.5 55t-42.5 45.5t-51 36.5t-53 12q-53 0 -92 -44t-39 -105t38.5 -104t91.5 -43zM645 148q53 0 87 38t34 105q0 69 -35.5 111t-90.5 42q-39 0 -78 -25.5t-63 -53t-55 -69.5q33 -45 57.5 -72t64 -51.5t79.5 -24.5z" />
    <glyph glyph-name="integral" unicode="&#x222b;" horiz-adv-x="448" 
d="M10 -209q-41 0 -72 11q-6 2 -6 9v18q0 5 6 3q28 -14 69 -14q78 0 99 113l130 690q13 71 43 105t82 34q45 0 77 -16q5 -3 5 -10v-11q0 -12 -11 -6q-26 16 -68 16q-76 0 -99 -114l-130 -689q-13 -71 -43 -105t-82 -34z" />
    <glyph glyph-name="approxequal" unicode="&#x2248;" horiz-adv-x="600" 
d="M350 334q-22 0 -42 9t-30.5 19t-26.5 28t-25 27t-27 17.5t-39 8.5q-37 0 -58 -28.5t-24 -76.5q0 -6 -7 -6h-13q-6 0 -6 7q2 59 30.5 96t76.5 37q25 0 46.5 -9.5t33 -20t28.5 -29.5q15 -17 24 -25.5t25.5 -16.5t34.5 -8q34 0 54 26.5t22 70.5q0 6 7 6h13q6 0 6 -7
q-2 -55 -29.5 -90t-73.5 -35zM350 153q-22 0 -42 9t-30.5 19t-26.5 28t-25 27t-27 17.5t-39 8.5q-37 0 -58 -28.5t-24 -76.5q0 -6 -7 -6h-13q-6 0 -6 7q2 59 30.5 96t76.5 37q25 0 46.5 -9.5t33 -20t28.5 -29.5q15 -17 24 -25.5t25.5 -16.5t34.5 -8q34 0 54 26.5t22 70.5
q0 6 7 6h13q6 0 6 -7q-2 -55 -29.5 -90t-73.5 -35z" />
    <glyph glyph-name="notequal" unicode="&#x2260;" horiz-adv-x="542" 
d="M495 371h-190l-73 -163h264q6 0 6 -7v-15q0 -6 -7 -6h-275l-55 -123q-2 -5 -9 -5h-12q-7 0 -3 6l54 122h-149q-6 0 -6 7v15q0 6 7 6h161l72 163h-234q-6 0 -6 7v15q0 6 7 6h246l58 131q2 5 9 5h12q7 0 3 -6l-58 -130h179q6 0 6 -7v-15q0 -6 -7 -6z" />
    <glyph glyph-name="lessequal" unicode="&#x2264;" horiz-adv-x="542" 
d="M502 82q0 -7 -6 -3l-452 232q-5 3 -5 10v11l458 235q5 3 5 -4v-21q0 -5 -6 -9l-408 -207q-4 -3 1 -6l408 -207q5 -3 5 -10v-21zM502 9q0 -6 -7 -6h-449q-6 0 -6 7v15q0 6 7 6h449q6 0 6 -7v-15z" />
    <glyph glyph-name="greaterequal" unicode="&#x2265;" horiz-adv-x="542" 
d="M45 79q-5 -3 -5 4v21q0 5 6 9l408 207q4 3 -1 6l-408 207q-5 3 -5 10v21q0 7 6 3l457 -235v-12q0 -5 -6 -9zM46 3q-6 0 -6 7v15q0 6 7 6h449q6 0 6 -7v-15q0 -6 -7 -6h-449z" />
    <glyph glyph-name="lozenge" unicode="&#x25ca;" horiz-adv-x="542" 
d="M272 -56q-5 0 -9 6l-216 389q-3 5 0 11l216 389q3 5 10 5h5q5 0 9 -6l208 -389q3 -5 0 -11l-208 -389q-3 -5 -10 -5h-5zM275 -21l196 365l-196 364l-204 -364z" />
    <glyph glyph-name="apple" unicode="&#xf8ff;" horiz-adv-x="999" 
d="M499 -140q-135 0 -250 67t-182 182t-67 251q0 206 146.5 352.5t352.5 146.5q135 0 250.5 -67t182.5 -182t67 -250q0 -136 -67 -251t-182.5 -182t-250.5 -67zM499 109q205 0 341 15q26 2 37.5 11t14.5 33q5 63 5 192q0 128 -5 191q-3 24 -14.5 33t-37.5 11
q-136 15 -341 15t-342 -15q-25 -2 -36.5 -11t-14.5 -33q-6 -63 -6 -191q0 -129 6 -192q3 -24 14.5 -33t36.5 -11q137 -15 342 -15zM499 157q-85 0 -143.5 59.5t-58.5 143.5q0 83 58.5 142.5t143.5 59.5t143.5 -59.5t58.5 -142.5q0 -84 -58.5 -143.5t-143.5 -59.5z" />
    <glyph glyph-name="a.ss01" horiz-adv-x="476" 
d="M212 490q91 0 139 -43t48 -125v-316q0 -6 -7 -6h-15q-6 0 -6 7q-1 33 -1 99l-1 12q-24 -62 -73.5 -94t-107.5 -32q-68 0 -110 35.5t-42 96.5q0 72 57 112.5t158 40.5q65 0 118 -5v51q0 65 -41.5 102t-116.5 37q-73 0 -138 -31q-6 -2 -7 -2q-5 0 -5 9v12q0 7 6 9
q69 31 145 31zM192 20q29 0 59 12t57 34.5t44 62t17 88.5v29q-53 5 -116 5q-90 0 -138.5 -33t-48.5 -92q0 -51 36 -78.5t90 -27.5z" />
    <glyph glyph-name="aacute.ss01" horiz-adv-x="475" 
d="M183 565q-6 0 -2 6l116 189q4 5 9 2l26 -11q6 -1 2 -8l-126 -173q-5 -5 -11 -5h-14zM212 490q91 0 139 -43t48 -125v-316q0 -6 -7 -6h-15q-6 0 -6 7q-1 33 -1 99l-1 12q-24 -62 -73.5 -94t-107.5 -32q-68 0 -110 35.5t-42 96.5q0 72 57 112.5t158 40.5q65 0 118 -5v51
q0 65 -41.5 102t-116.5 37q-73 0 -138 -31q-6 -2 -7 -2q-5 0 -5 9v12q0 7 6 9q69 31 145 31zM192 20q29 0 59 12t57 34.5t44 62t17 88.5v29q-53 5 -116 5q-90 0 -138.5 -33t-48.5 -92q0 -51 36 -78.5t90 -27.5z" />
    <glyph glyph-name="acircumflex.ss01" horiz-adv-x="475" 
d="M104 565q-6 0 -3 5l110 175q3 5 9 5h13q7 0 9 -5l111 -175q3 -5 -3 -5h-20q-6 0 -9 5l-94 142l-95 -142q-3 -5 -9 -5h-19zM212 490q91 0 139 -43t48 -125v-316q0 -6 -7 -6h-15q-6 0 -6 7q-1 33 -1 99l-1 12q-24 -62 -73.5 -94t-107.5 -32q-68 0 -110 35.5t-42 96.5
q0 72 57 112.5t158 40.5q65 0 118 -5v51q0 65 -41.5 102t-116.5 37q-73 0 -138 -31q-6 -2 -7 -2q-5 0 -5 9v12q0 7 6 9q69 31 145 31zM192 20q29 0 59 12t57 34.5t44 62t17 88.5v29q-53 5 -116 5q-90 0 -138.5 -33t-48.5 -92q0 -51 36 -78.5t90 -27.5z" />
    <glyph glyph-name="adieresis.ss01" horiz-adv-x="475" 
d="M159 656q-14 0 -22.5 9.5t-8.5 22.5q0 14 8.5 23.5t22.5 9.5t22.5 -9.5t8.5 -23.5q0 -13 -8.5 -22.5t-22.5 -9.5zM292 656q-14 0 -22.5 9.5t-8.5 22.5q0 14 8.5 23.5t22.5 9.5t22.5 -9.5t8.5 -23.5q0 -13 -8.5 -22.5t-22.5 -9.5zM212 490q91 0 139 -43t48 -125v-316
q0 -6 -7 -6h-15q-6 0 -6 7q-1 33 -1 99l-1 12q-24 -62 -73.5 -94t-107.5 -32q-68 0 -110 35.5t-42 96.5q0 72 57 112.5t158 40.5q65 0 118 -5v51q0 65 -41.5 102t-116.5 37q-73 0 -138 -31q-6 -2 -7 -2q-5 0 -5 9v12q0 7 6 9q69 31 145 31zM192 20q29 0 59 12t57 34.5t44 62
t17 88.5v29q-53 5 -116 5q-90 0 -138.5 -33t-48.5 -92q0 -51 36 -78.5t90 -27.5z" />
    <glyph glyph-name="agrave.ss01" horiz-adv-x="475" 
d="M216 571l-126 173q-4 4 2 8l26 11q7 2 10 -4l116 -189q3 -5 -4 -5h-14q-6 0 -10 6zM212 490q91 0 139 -43t48 -125v-316q0 -6 -7 -6h-15q-6 0 -6 7q-1 33 -1 99l-1 12q-24 -62 -73.5 -94t-107.5 -32q-68 0 -110 35.5t-42 96.5q0 72 57 112.5t158 40.5q65 0 118 -5v51
q0 65 -41.5 102t-116.5 37q-73 0 -138 -31q-6 -2 -7 -2q-5 0 -5 9v12q0 7 6 9q69 31 145 31zM192 20q29 0 59 12t57 34.5t44 62t17 88.5v29q-53 5 -116 5q-90 0 -138.5 -33t-48.5 -92q0 -51 36 -78.5t90 -27.5z" />
    <glyph glyph-name="aring.ss01" horiz-adv-x="475" 
d="M226 583q-34 0 -56.5 23.5t-22.5 58.5t22.5 57t56.5 22t56.5 -22t22.5 -57t-22.5 -58.5t-56.5 -23.5zM226 726q-25 0 -41 -17.5t-16 -43.5q0 -27 16 -44.5t41 -17.5t41 17.5t16 44.5q0 26 -16 43.5t-41 17.5zM212 490q91 0 139 -43t48 -125v-316q0 -6 -7 -6h-15
q-6 0 -6 7q-1 33 -1 99l-1 12q-24 -62 -73.5 -94t-107.5 -32q-68 0 -110 35.5t-42 96.5q0 72 57 112.5t158 40.5q65 0 118 -5v51q0 65 -41.5 102t-116.5 37q-73 0 -138 -31q-6 -2 -7 -2q-5 0 -5 9v12q0 7 6 9q69 31 145 31zM192 20q29 0 59 12t57 34.5t44 62t17 88.5v29
q-53 5 -116 5q-90 0 -138.5 -33t-48.5 -92q0 -51 36 -78.5t90 -27.5z" />
    <glyph glyph-name="atilde.ss01" horiz-adv-x="475" 
d="M99 610q-6 0 -6 6q2 45 22 73.5t53 28.5q35 0 69 -43q1 -1 2 -3q30 -28 48 -31q43 0 48 66q0 6 6 6h12q6 0 6 -6q-2 -42 -21.5 -68.5t-50.5 -26.5q-33 0 -67 42q-28 36 -52 36q-47 0 -51 -74q0 -6 -6 -6h-12zM212 490q91 0 139 -43t48 -125v-316q0 -6 -7 -6h-15
q-6 0 -6 7q-1 33 -1 99l-1 12q-24 -62 -73.5 -94t-107.5 -32q-68 0 -110 35.5t-42 96.5q0 72 57 112.5t158 40.5q65 0 118 -5v51q0 65 -41.5 102t-116.5 37q-73 0 -138 -31q-6 -2 -7 -2q-5 0 -5 9v12q0 7 6 9q69 31 145 31zM192 20q29 0 59 12t57 34.5t44 62t17 88.5v29
q-53 5 -116 5q-90 0 -138.5 -33t-48.5 -92q0 -51 36 -78.5t90 -27.5z" />
    <glyph glyph-name="l.ss02" horiz-adv-x="201" 
d="M91 0q-6 0 -6 7v737q0 6 7 6h17q6 0 6 -7v-737q0 -6 -7 -6h-17z" />
    <glyph glyph-name="lslash.ss02" horiz-adv-x="201" 
d="M175 473q6 1 6 -5v-12q0 -6 -7 -9l-59 -23v-418q0 -6 -7 -6h-17q-6 0 -6 7v406l-61 -24q-6 -1 -6 5v12q0 6 7 9l60 23v306q0 6 7 6h17q6 0 6 -7v-293z" />
    <glyph glyph-name="fl.ss02" horiz-adv-x="516" 
d="M318 744q5 -3 5 -10v-11q0 -12 -11 -6q-25 16 -66 16q-93 0 -93 -105v-148h153q6 0 6 -7v-12q0 -6 -7 -6h-152v-449q0 -6 -7 -6h-17q-6 0 -6 7v448h-84q-6 0 -6 7v12q0 6 7 6h83v149q0 131 120 131q43 0 75 -16zM424 750q6 0 6 -7v-737q0 -6 -7 -6h-17q-6 0 -6 7v737
q0 6 7 6h17z" />
    <glyph glyph-name="ordfeminine.ss01" horiz-adv-x="330" 
d="M160 601q49 0 73 -2v24q0 74 -89 74q-41 0 -81 -20q-5 -3 -5 3v15q0 5 5 8q41 17 86 17q57 0 84 -23.5t27 -75.5v-169q0 -6 -6 -6h-13q-6 0 -6 6v49l-1 3q-29 -63 -103 -63q-40 0 -64 20t-24 55q0 38 33 61.5t84 23.5zM137 464q35 0 65.5 24.5t30.5 71.5v18q-22 2 -66 2
q-46 0 -71.5 -16.5t-25.5 -45.5q0 -54 67 -54zM269 376q1 0 1 -1v-19q0 -1 -1 -1h-226q-1 0 -1 1v19q0 1 1 1h226z" />
    <glyph glyph-name="zero.tf" 
d="M293 -11q-105 0 -171 95.5t-66 266.5q0 172 66.5 270.5t170.5 98.5q103 0 169.5 -98.5t66.5 -270.5q0 -171 -66 -266.5t-170 -95.5zM293 19q92 0 149 86.5t57 245.5q0 160 -57.5 250t-148.5 90t-149 -90t-58 -250q0 -159 57.5 -245.5t149.5 -86.5z" />
    <glyph glyph-name="one.tf" 
d="M344 710q6 0 6 -7v-697q0 -6 -7 -6h-17q-6 0 -6 7v670l-210 -84q-1 0 -3 -1t-3 -1q-6 0 -6 10v11q0 5 6 9l217 87q8 2 13 2h10z" />
    <glyph glyph-name="two.tf" 
d="M498 27q6 0 6 -7v-14q0 -6 -7 -6h-431q-12 0 -5 10l264 316q42 51 62.5 78t37.5 66t17 76q0 63 -52 105t-134 42q-94 0 -176 -51q-5 -3 -5 4v16q0 6 6 10q75 48 178 48q95 0 154 -48t59 -124q0 -60 -28 -109t-90 -122l-244 -290h388z" />
    <glyph glyph-name="three.tf" 
d="M296 379q93 -9 151 -60.5t58 -125.5q0 -85 -66 -144t-172 -59q-100 0 -181 38q-5 3 -5 10v19q0 7 6 3q82 -41 179 -41q92 0 150 50t58 124q0 76 -68 123t-188 47h-21q-6 0 -6 7v14q0 6 7 6h20q106 0 165 49t59 113q0 60 -50 100t-133 40q-79 0 -156 -42q-5 -3 -5 4v20
q0 7 6 9q72 37 156 37q96 0 154 -47.5t58 -118.5q0 -61 -47.5 -112.5t-128.5 -62.5z" />
    <glyph glyph-name="four.tf" 
d="M515 179q6 0 6 -7v-15q0 -6 -7 -6h-98v-145q0 -6 -7 -6h-17q-6 0 -6 7v144h-343q-6 0 -6 7v9q0 5 4 12l351 526q3 5 10 5h8q6 0 6 -7v-524h99zM387 651q-34 -54 -52 -80l-263 -392h314v378q0 15 0.5 46.5t0.5 47.5z" />
    <glyph glyph-name="five.tf" 
d="M265 444q99 0 164 -60.5t65 -159.5q0 -104 -73 -169t-183 -65q-82 0 -143 33q-5 3 -5 10v17q0 4 2 4h2q1 -1 2 -1q64 -35 140 -35q98 0 162.5 57t64.5 148q0 87 -59 141t-149 54q-40 0 -73.5 -9.5t-51.5 -19t-19 -9.5q-3 0 -3 4v2l66 318q2 6 8 6h275q6 0 6 -7v-16
q0 -6 -7 -6h-260l-54 -263q52 26 123 26z" />
    <glyph glyph-name="six.tf" 
d="M412 710q6 0 2 -6l-235 -290q-1 -2 -48 -59v-1q67 70 152 70q97 0 159.5 -61t62.5 -157q0 -92 -66.5 -154t-155.5 -62q-93 0 -157 59.5t-64 150.5q0 105 74 197l244 308q5 5 11 5h21zM280 398q-80 0 -135 -57t-55 -141q0 -76 55.5 -129.5t137.5 -53.5q79 0 136 55.5
t57 133.5q0 85 -55 138.5t-141 53.5z" />
    <glyph glyph-name="seven.tf" 
d="M512 710q7 0 3 -6l-366 -699q-3 -5 -10 -5h-19q-7 0 -3 6l354 674h-369q-6 0 -6 7v17q0 6 7 6h409z" />
    <glyph glyph-name="eight.tf" 
d="M293 -8q-97 0 -162.5 56.5t-65.5 144.5q0 68 46 119t111 67q-57 17 -91 61.5t-34 102.5q0 75 56 126t140 51q83 0 139.5 -51t56.5 -126q0 -58 -34.5 -102.5t-91.5 -61.5q65 -16 111 -67t46 -119q0 -88 -65 -144.5t-162 -56.5zM293 391q75 0 121.5 44t46.5 107
q0 64 -49 107.5t-119 43.5q-71 0 -119.5 -43.5t-48.5 -107.5q0 -63 46.5 -107t121.5 -44zM293 19q84 0 140.5 50t56.5 125t-58 123t-139 48q-82 0 -140 -48t-58 -123t57 -125t141 -50z" />
    <glyph glyph-name="nine.tf" 
d="M158 0q-6 0 -2 6l235 290q1 2 48 59v1q-67 -70 -152 -70q-97 0 -159.5 61t-62.5 157q0 92 66.5 154t155.5 62q93 0 157 -59.5t64 -150.5q0 -105 -74 -197l-244 -308q-5 -5 -11 -5h-21zM290 312q80 0 135 57t55 141q0 76 -55.5 129.5t-137.5 53.5q-79 0 -136 -55.5
t-57 -133.5q0 -85 55 -138.5t141 -53.5z" />
    <glyph glyph-name="zero.dnom" horiz-adv-x="361" 
d="M181 -6q-63 0 -103.5 56.5t-40.5 159.5t41 161.5t103 58.5q63 0 103.5 -58.5t40.5 -161.5t-40 -159.5t-104 -56.5zM181 19q54 0 86.5 49.5t32.5 141.5t-33 143.5t-86 51.5q-52 0 -85 -51.5t-33 -143.5t33 -141.5t85 -49.5z" />
    <glyph glyph-name="one.dnom" horiz-adv-x="354" 
d="M212 424q6 0 6 -7v-411q0 -6 -7 -6h-13q-6 0 -6 7v387l-125 -51q-6 -1 -6 5v13q0 5 6 9l128 52q8 2 12 2h5z" />
    <glyph glyph-name="two.dnom" horiz-adv-x="362" 
d="M304 23q6 0 6 -7v-10q0 -6 -7 -6h-262q-6 0 -2 5l156 187q37 43 53 70t16 58q0 37 -30 61.5t-77 24.5q-57 0 -103 -33q-5 -5 -5 3v14q0 6 6 10q47 30 107 30q57 0 92.5 -29.5t35.5 -76.5q0 -35 -16 -64t-52 -74l-139 -163h221z" />
    <glyph glyph-name="three.dnom" horiz-adv-x="360" 
d="M187 226q56 -7 89.5 -36.5t33.5 -73.5q0 -52 -41 -87t-106 -35q-58 0 -107 21q-5 3 -5 10v13q0 7 6 3q50 -23 104 -23q53 0 86.5 28.5t33.5 70.5q0 43 -39.5 69.5t-108.5 26.5h-11q-6 0 -6 7v10q0 6 7 6h10q61 0 95 27.5t34 63.5q0 34 -29 57t-76 23q-45 0 -91 -23
q-5 -3 -5 4v13q0 7 6 9q47 20 92 20q60 0 95.5 -28t35.5 -71q0 -36 -27.5 -66t-75.5 -39z" />
    <glyph glyph-name="four.dnom" horiz-adv-x="337" 
d="M308 110q6 0 6 -7v-10q0 -6 -7 -6h-55v-81q0 -6 -7 -6h-14q-6 0 -6 7v80h-201q-6 0 -6 6v8q0 5 3 11l206 307q3 5 9 5h10q6 0 6 -7v-307h56zM46 110h180v268z" />
    <glyph glyph-name="five.dnom" horiz-adv-x="361" 
d="M165 266q61 0 100.5 -36t39.5 -96q0 -62 -45 -101t-112 -39q-48 0 -86 19q-5 3 -5 10v11q0 5 6 3q41 -19 81 -19q58 0 95.5 32.5t37.5 83.5q0 50 -34.5 80t-87.5 30q-45 0 -83 -21q-2 -2 -3.5 -1t-0.5 5l39 191q1 6 8 6h165q6 0 6 -7v-11q0 -6 -7 -6h-151l-30 -146
q29 12 67 12z" />
    <glyph glyph-name="six.dnom" horiz-adv-x="361" 
d="M189 256q58 0 96.5 -36.5t38.5 -93.5q0 -56 -42 -94t-98 -38q-57 0 -96.5 35.5t-39.5 90.5q0 62 47 125l137 174q5 5 11 5h18q6 0 2 -5l-135 -171q-3 -4 -12.5 -13.5t-13.5 -14.5q39 36 87 36zM183 18q47 0 81 31.5t34 75.5q0 48 -32.5 78t-82.5 30q-46 0 -78 -32
t-32 -79q0 -44 32 -74t78 -30z" />
    <glyph glyph-name="seven.dnom" horiz-adv-x="348" 
d="M306 424q7 0 3 -6l-215 -413q-3 -5 -10 -5h-16q-7 0 -3 6l206 393h-213q-6 0 -6 7v12q0 6 7 6h247z" />
    <glyph glyph-name="eight.dnom" horiz-adv-x="361" 
d="M181 -5q-59 0 -99 33.5t-40 87.5q0 40 26.5 70.5t65.5 39.5q-34 11 -54 37t-20 62q0 46 34.5 75.5t86.5 29.5t86 -29.5t34 -75.5q0 -36 -20 -62t-54 -37q39 -9 66 -39.5t27 -70.5q0 -54 -40 -87.5t-99 -33.5zM181 235q43 0 69.5 25t26.5 63q0 37 -27.5 61.5t-68.5 24.5
t-68.5 -24.5t-27.5 -61.5q0 -38 26.5 -63t69.5 -25zM181 17q48 0 80.5 28.5t32.5 71.5q0 41 -33.5 69.5t-79.5 28.5t-79.5 -28.5t-33.5 -69.5q0 -43 32.5 -71.5t80.5 -28.5z" />
    <glyph glyph-name="nine.dnom" horiz-adv-x="361" 
d="M177 430q57 0 96.5 -35.5t39.5 -90.5q0 -62 -47 -125l-137 -174q-5 -5 -11 -5h-18q-6 0 -2 5l135 171q3 4 12.5 13.5t13.5 14.5q-39 -36 -87 -36q-58 0 -96.5 36.5t-38.5 93.5q0 56 42 94t98 38zM178 191q46 0 78 32t32 79q0 44 -32 74t-78 30q-47 0 -81 -31.5t-34 -75.5
q0 -48 32.5 -78t82.5 -30z" />
    <glyph glyph-name="zero.numr" horiz-adv-x="361" 
d="M181 284q-63 0 -103.5 56.5t-40.5 159.5t41 161.5t103 58.5q63 0 103.5 -58.5t40.5 -161.5t-40 -159.5t-104 -56.5zM181 309q54 0 86.5 49.5t32.5 141.5t-33 143.5t-86 51.5q-52 0 -85 -51.5t-33 -143.5t33 -141.5t85 -49.5z" />
    <glyph glyph-name="one.numr" horiz-adv-x="354" 
d="M212 714q6 0 6 -7v-411q0 -6 -7 -6h-13q-6 0 -6 7v387l-125 -51q-6 -1 -6 5v13q0 5 6 9l128 52q8 2 12 2h5z" />
    <glyph glyph-name="two.numr" horiz-adv-x="362" 
d="M304 313q6 0 6 -7v-10q0 -6 -7 -6h-262q-6 0 -2 5l156 187q37 43 53 70t16 58q0 37 -30 61.5t-77 24.5q-57 0 -103 -33q-5 -5 -5 3v14q0 6 6 10q47 30 107 30q57 0 92.5 -29.5t35.5 -76.5q0 -35 -16 -64t-52 -74l-139 -163h221z" />
    <glyph glyph-name="three.numr" horiz-adv-x="360" 
d="M187 516q56 -7 89.5 -36.5t33.5 -73.5q0 -52 -41 -87t-106 -35q-58 0 -107 21q-5 3 -5 10v13q0 7 6 3q50 -23 104 -23q53 0 86.5 28.5t33.5 70.5q0 43 -39.5 69.5t-108.5 26.5h-11q-6 0 -6 7v10q0 6 7 6h10q61 0 95 27.5t34 63.5q0 34 -29 57t-76 23q-45 0 -91 -23
q-5 -3 -5 4v13q0 7 6 9q47 20 92 20q60 0 95.5 -28t35.5 -71q0 -36 -27.5 -66t-75.5 -39z" />
    <glyph glyph-name="four.numr" horiz-adv-x="337" 
d="M308 400q6 0 6 -7v-10q0 -6 -7 -6h-55v-81q0 -6 -7 -6h-14q-6 0 -6 7v80h-201q-6 0 -6 6v8q0 5 3 11l206 307q3 5 9 5h10q6 0 6 -7v-307h56zM46 400h180v268z" />
    <glyph glyph-name="five.numr" horiz-adv-x="361" 
d="M165 556q61 0 100.5 -36t39.5 -96q0 -62 -45 -101t-112 -39q-48 0 -86 19q-5 3 -5 10v11q0 5 6 3q41 -19 81 -19q58 0 95.5 32.5t37.5 83.5q0 50 -34.5 80t-87.5 30q-45 0 -83 -21q-2 -2 -3.5 -1t-0.5 5l39 191q1 6 8 6h165q6 0 6 -7v-11q0 -6 -7 -6h-151l-30 -146
q28 12 67 12z" />
    <glyph glyph-name="six.numr" horiz-adv-x="361" 
d="M189 546q58 0 96.5 -36.5t38.5 -93.5q0 -56 -42 -94t-98 -38q-57 0 -96.5 35.5t-39.5 90.5q0 62 47 125l137 174q5 5 11 5h18q6 0 2 -5l-135 -171q-3 -4 -12.5 -13.5t-13.5 -14.5q39 36 87 36zM183 308q47 0 81 31.5t34 75.5q0 48 -32.5 78t-82.5 30q-46 0 -78 -32
t-32 -79q0 -44 32 -74t78 -30z" />
    <glyph glyph-name="seven.numr" horiz-adv-x="348" 
d="M306 714q7 0 3 -6l-215 -413q-3 -5 -10 -5h-16q-7 0 -3 6l206 393h-213q-6 0 -6 7v12q0 6 7 6h247z" />
    <glyph glyph-name="eight.numr" horiz-adv-x="361" 
d="M181 285q-59 0 -99 33.5t-40 87.5q0 40 26.5 70.5t65.5 39.5q-34 11 -54 37t-20 62q0 46 34.5 75.5t86.5 29.5t86 -29.5t34 -75.5q0 -36 -20 -62t-54 -37q39 -9 66 -39.5t27 -70.5q0 -54 -40 -87.5t-99 -33.5zM181 525q43 0 69.5 25t26.5 63q0 37 -27.5 61.5t-68.5 24.5
t-68.5 -24.5t-27.5 -61.5q0 -38 26.5 -63t69.5 -25zM181 307q48 0 80.5 28.5t32.5 71.5q0 41 -33.5 69.5t-79.5 28.5t-79.5 -28.5t-33.5 -69.5q0 -43 32.5 -71.5t80.5 -28.5z" />
    <glyph glyph-name="nine.numr" horiz-adv-x="361" 
d="M177 720q57 0 96.5 -35.5t39.5 -90.5q0 -62 -47 -125l-137 -174q-5 -5 -11 -5h-18q-6 0 -2 5l135 171q3 4 12.5 13.5t13.5 14.5q-39 -36 -87 -36q-58 0 -96.5 36.5t-38.5 93.5q0 56 42 94t98 38zM178 481q46 0 78 32t32 79q0 44 -32 74t-78 30q-47 0 -81 -31.5t-34 -75.5
q0 -48 32.5 -78t82.5 -30z" />
    <glyph glyph-name="colon.calt" horiz-adv-x="203" 
d="M102 417q-19 0 -30.5 12.5t-11.5 31.5t11.5 31.5t30.5 12.5q18 0 29.5 -12.5t11.5 -31.5t-11.5 -31.5t-29.5 -12.5zM102 100q-19 0 -30.5 12.5t-11.5 31.5t11.5 31.5t30.5 12.5q18 0 29.5 -12.5t11.5 -31.5t-11.5 -31.5t-29.5 -12.5z" />
    <glyph glyph-name="periodcentered.case" horiz-adv-x="203" 
d="M102 314q-19 0 -30.5 12.5t-11.5 31.5t11.5 31.5t30.5 12.5q18 0 29.5 -12.5t11.5 -31.5t-11.5 -31.5t-29.5 -12.5z" />
    <glyph glyph-name="colon.tf" horiz-adv-x="293" 
d="M146 308q-19 0 -30.5 12.5t-11.5 31.5t11.5 31.5t30.5 12.5q18 0 29.5 -12.5t11.5 -31.5t-11.5 -31.5t-29.5 -12.5zM146 -9q-19 0 -30.5 12.5t-11.5 31.5t11.5 31.5t30.5 12.5q18 0 29.5 -12.5t11.5 -31.5t-11.5 -31.5t-29.5 -12.5z" />
    <glyph glyph-name="comma.tf" horiz-adv-x="293" 
d="M143 81q17 0 29.5 -12t12.5 -31q0 -18 -19 -64l-42 -98q-2 -6 -8 -6h-8q-6 0 -4 6l35 117q-15 1 -26.5 12.5t-11.5 30.5q0 21 12.5 33t29.5 12z" />
    <glyph glyph-name="period.tf" horiz-adv-x="293" 
d="M146 -7q-18 0 -30 13t-12 31t12 31t30 13t30 -13t12 -31t-12 -31t-30 -13z" />
    <glyph glyph-name="semicolon.tf" horiz-adv-x="293" 
d="M146 402q-19 0 -30.5 12.5t-11.5 31.5t11.5 31.5t30.5 12.5q18 0 29.5 -12.5t11.5 -31.5t-11.5 -31.5t-29.5 -12.5zM145 80q17 0 29.5 -12t12.5 -31q0 -18 -19 -64l-41 -98q-3 -6 -9 -6h-6q-8 0 -5 8l35 115q-16 1 -27 12.5t-11 30.5q0 21 12.5 33t28.5 12z" />
    <glyph glyph-name="emdash.case" horiz-adv-x="872" 
d="M67 346q-6 0 -6 7v15q0 6 7 6h737q6 0 6 -7v-15q0 -6 -7 -6h-737z" />
    <glyph glyph-name="endash.case" horiz-adv-x="509" 
d="M67 346q-6 0 -6 7v15q0 6 7 6h374q6 0 6 -7v-15q0 -6 -7 -6h-374z" />
    <glyph glyph-name="hyphen.case" horiz-adv-x="379" 
d="M67 345q-6 0 -6 7v16q0 6 7 6h244q6 0 6 -7v-16q0 -6 -7 -6h-244z" />
    <glyph glyph-name="softhyphen.case" horiz-adv-x="379" 
d="M67 345q-6 0 -6 7v16q0 6 7 6h244q6 0 6 -7v-16q0 -6 -7 -6h-244z" />
    <glyph glyph-name="dieresiscomb.case" horiz-adv-x="0" 
d="M-74 780q-18 0 -29.5 12.5t-11.5 30.5q0 19 11.5 31.5t29.5 12.5t29.5 -12.5t11.5 -31.5q0 -18 -11.5 -30.5t-29.5 -12.5zM76 780q-18 0 -29.5 12.5t-11.5 30.5q0 19 11.5 31.5t29.5 12.5t29.5 -12.5t11.5 -31.5q0 -18 -11.5 -30.5t-29.5 -12.5z" />
    <glyph glyph-name="dotaccentcomb.case" horiz-adv-x="0" 
d="M-16 761q-19 0 -30.5 12.5t-11.5 30.5q0 19 11.5 31.5t30.5 12.5q18 0 29 -13t11 -31t-11 -30.5t-29 -12.5z" />
    <glyph glyph-name="gravecomb.case" horiz-adv-x="0" 
d="M60 770q3 -5 -4 -5h-11q-6 0 -10 5l-96 118q-5 5 3 5h44q5 0 9 -6z" />
    <glyph glyph-name="acutecomb.case" horiz-adv-x="0" 
d="M-56 764q-7 0 -3 6l65 117q3 5 10 5h44q6 0 1 -6l-95 -117q-5 -5 -11 -5h-11z" />
    <glyph glyph-name="hungarumlautcomb.case" horiz-adv-x="0" 
d="M-86 764q-7 0 -3 6l64 117q3 5 10 5h44q6 0 1 -6l-95 -117q-5 -5 -11 -5h-10zM18 764q-7 0 -3 6l65 117q3 5 10 5h44q6 0 1 -6l-96 -117q-5 -5 -11 -5h-10z" />
    <glyph glyph-name="circumflexcomb.case" horiz-adv-x="0" 
d="M125 761q5 -5 -2 -5h-20q-6 0 -10 4l-93 100l-94 -100q-4 -4 -10 -4h-20q-6 0 -2 5l109 126q5 5 10 5h13q6 0 10 -5z" />
    <glyph glyph-name="caroncomb.case" horiz-adv-x="0" 
d="M122 892q6 0 1 -5l-108 -126q-5 -5 -11 -5h-10q-6 0 -11 5l-109 126q-5 5 3 5h18q6 0 11 -5l94 -99l94 100q4 4 11 4h17z" />
    <glyph glyph-name="brevecomb.case" horiz-adv-x="0" 
d="M0 759q-45 0 -75.5 28t-32.5 71q0 6 6 6h10q6 0 6 -6q2 -33 26 -53.5t60 -20.5q35 0 59 21t27 53q0 6 6 6h10q6 0 6 -6q-2 -43 -33 -71t-75 -28z" />
    <glyph glyph-name="ringcomb.case" horiz-adv-x="0" 
d="M0 743q-34 0 -56.5 23.5t-22.5 58.5t22.5 57.5t56.5 22.5q33 0 56 -22.5t23 -57.5t-22.5 -58.5t-56.5 -23.5zM0 763q25 0 41 18t16 44q0 27 -16 44t-41 17t-41 -17t-16 -44t16 -44.5t41 -17.5z" />
    <glyph glyph-name="tildecomb.case" horiz-adv-x="34" 
d="M-41 857q-23 0 -36 -20t-15 -53q0 -6 -6 -6h-11q-6 0 -6 6q2 43 21.5 71.5t51.5 28.5q17 0 31.5 -8t19 -13t17.5 -21q10 -12 15 -17.5t15.5 -11.5t22.5 -6q43 0 46 67q0 6 6 6h12q6 0 6 -6q-2 -42 -20.5 -68.5t-49.5 -26.5q-37 0 -68 42q-21 28 -35 33q-8 3 -17 3z" />
    <glyph glyph-name="macroncomb.case" horiz-adv-x="0" 
d="M-122 826q-6 0 -6 7v14q0 6 7 6h243q6 0 6 -7v-14q0 -6 -7 -6h-243z" />
    <glyph glyph-name="acutecomb.narrow" horiz-adv-x="0" 
d="M-7 565q-6 0 -4 7l53 184q2 6 9 4l27 -10q7 -2 3 -9l-66 -170q-1 -6 -9 -6h-13z" />
    </font>
</defs>
</svg>
