<?xml version="1.0" standalone="no"?>
<!DOCTYPE svg PUBLIC "-//W3C//DTD SVG 1.1//EN" "http://www.w3.org/Graphics/SVG/1.1/DTD/svg11.dtd" >
<svg xmlns="http://www.w3.org/2000/svg" xmlns:xlink="http://www.w3.org/1999/xlink" version="1.1">
<metadata>
Created by FontForge 20170731 at Wed Aug  3 20:44:39 2016
 By Aleksey,,,
Copyright (c) 2016 by Rede Globo. All rights reserved.
</metadata>
<defs>
<font id="GlobotipoTexto-Black" horiz-adv-x="0" >
  <font-face 
    font-family="Globotipo Texto Black"
    font-weight="900"
    font-stretch="normal"
    units-per-em="1000"
    panose-1="0 0 10 0 0 0 0 0 0 0"
    ascent="800"
    descent="-200"
    x-height="480"
    cap-height="710"
    bbox="-320.8 -210 1086 969"
    underline-thickness="50"
    underline-position="-250"
    unicode-range="U+0020-FB02"
  />
<missing-glyph horiz-adv-x="700" 
d="M350 709q146 0 250 -104t104 -250q0 -147 -104 -251t-250 -104q-147 0 -251 104t-104 251q0 146 104 250t251 104zM350 20q138 0 236 98t98 237q0 138 -98 236t-236 98q-139 0 -237 -98t-98 -236q0 -139 98 -237t237 -98zM555 573l14 -14l-205 -205l205 -205l-14 -14
l-205 205l-205 -205l-14 14l205 205l-205 205l14 14l205 -205z" />
    <glyph glyph-name="fi" unicode="fi" horiz-adv-x="743" 
d="M420 743q15 -4 15 -21v-89q0 -29 -25 -29q-8 0 -12 1q-16 2 -25 2q-73 0 -73 -81v-46h117q16 0 16 -16v-98q0 -16 -16 -16h-117v-334q0 -16 -16 -16h-167q-16 0 -16 16v334h-71q-16 0 -16 16v98q0 16 16 16h71v60q0 104 54.5 160t159.5 56q59 0 105 -13zM590 545
q-52 0 -82.5 29t-30.5 72q0 44 30.5 73t82.5 29t82.5 -29t30.5 -73q0 -43 -30.5 -72t-82.5 -29zM674 480q16 0 16 -16v-448q0 -16 -16 -16h-167q-16 0 -16 16v448q0 16 16 16h167z" />
    <glyph glyph-name="fl" unicode="fl" horiz-adv-x="794" 
d="M420 743q15 -4 15 -21v-89q0 -29 -25 -29q-8 0 -12 1q-16 2 -25 2q-73 0 -73 -81v-46h117q16 0 16 -16v-98q0 -16 -16 -16h-117v-334q0 -16 -16 -16h-167q-16 0 -16 16v334h-71q-16 0 -16 16v98q0 16 16 16h71v60q0 104 54.5 160t159.5 56q59 0 105 -13zM765 148q6 2 7 2
q9 0 9 -12v-108q0 -19 -15 -24q-45 -16 -104 -16q-82 0 -126.5 44.5t-44.5 134.5v561q0 16 16 16h166q16 0 16 -16v-535q0 -52 45 -52q14 0 31 5z" />
    <glyph glyph-name=".notdef" horiz-adv-x="700" 
d="M350 709q146 0 250 -104t104 -250q0 -147 -104 -251t-250 -104q-147 0 -251 104t-104 251q0 146 104 250t251 104zM350 20q138 0 236 98t98 237q0 138 -98 236t-236 98q-139 0 -237 -98t-98 -236q0 -139 98 -237t237 -98zM555 573l14 -14l-205 -205l205 -205l-14 -14
l-205 205l-205 -205l-14 14l205 205l-205 205l14 14l205 -205z" />
    <glyph glyph-name=".null" 
 />
    <glyph glyph-name="nonmarkingreturn" horiz-adv-x="333" 
 />
    <glyph glyph-name="space" unicode=" " horiz-adv-x="203" 
 />
    <glyph glyph-name="exclam" unicode="!" horiz-adv-x="320" 
d="M109 251q-16 0 -17 16l-38 427q0 16 15 16h182q16 0 15 -16l-38 -427q0 -16 -17 -16h-102zM160 -9q-43 0 -71 29t-28 71t28 71t71 29q42 0 70.5 -29t28.5 -71t-28.5 -71t-70.5 -29z" />
    <glyph glyph-name="quotedbl" unicode="&#x22;" horiz-adv-x="546" 
d="M90 398q-17 0 -18 16l-29 280v3q0 13 14 13h161q15 0 14 -16l-28 -280q-2 -16 -18 -16h-96zM348 398q-17 0 -18 16l-29 280v3q0 13 14 13h161q15 0 14 -16l-28 -280q-2 -16 -18 -16h-96z" />
    <glyph glyph-name="numbersign" unicode="#" horiz-adv-x="664" 
d="M636 520q16 0 16 -16v-74q0 -11 -11 -11h-117l-25 -139h118q11 0 11 -11v-77q0 -13 -13 -13h-134l-29 -163q-4 -16 -19 -16h-90q-10 0 -9 11l30 168h-128l-30 -166q-2 -13 -15 -13h-87q-16 0 -13 16l29 163h-81q-16 0 -16 16v69q0 16 16 16h99l25 139h-103q-13 0 -13 13
v72q0 16 16 16h118l31 174q4 16 19 16h89q10 0 9 -11l-32 -179h128l32 177q2 13 15 13h88q16 0 13 -16l-31 -174h94zM382 280l25 139h-128l-25 -139h128z" />
    <glyph glyph-name="dollar" unicode="$" horiz-adv-x="585" 
d="M538 230q0 -94 -60.5 -153t-167.5 -68l-15 -127q-2 -16 -18 -16h-77q-15 0 -14 16l15 129q-82 10 -132 34q-14 7 -14 23v124q0 16 13 16q2 0 10 -2q92 -47 174 -47q33 0 53 14t20 42q0 27 -21.5 43t-71.5 34q-41 16 -66 28.5t-55.5 36t-46 56.5t-15.5 76q0 89 61.5 144
t158.5 66l15 117q2 16 18 16h77q15 0 14 -16l-15 -117q60 -6 111 -23q15 -6 15 -21v-119q0 -17 -14 -17q-2 0 -8 2q-75 31 -148 31q-34 0 -53 -14t-19 -38q0 -8 2 -15t8.5 -13t11 -10t16.5 -9.5t18 -8.5t22.5 -9t23.5 -9q43 -17 69.5 -32t53 -37.5t39 -53.5t12.5 -73z" />
    <glyph glyph-name="percent" unicode="%" horiz-adv-x="791" 
d="M110 2q-7 5 -7 12q0 6 3 10l516 701q4 7 13 7q7 0 10 -2l28 -19q8 -5 8 -12q0 -5 -3 -9l-517 -702q-5 -7 -12 -7q-5 0 -10 3zM204 394q-65 0 -110.5 44.5t-45.5 117.5t45.5 118.5t110.5 45.5q64 0 110 -45.5t46 -118.5q0 -72 -46 -117t-110 -45zM204 486q45 0 45 70
q0 71 -45 71q-22 0 -34 -19.5t-12 -51.5q0 -31 12 -50.5t34 -19.5zM587 -10q-64 0 -110 45t-46 117q0 73 46 118.5t110 45.5t110 -45.5t46 -118.5q0 -72 -46 -117t-110 -45zM587 83q22 0 34 19t12 50q0 32 -12 52t-34 20t-34 -20t-12 -52q0 -30 12 -49.5t34 -19.5z" />
    <glyph glyph-name="ampersand" unicode="&#x26;" horiz-adv-x="736" 
d="M709 12q4 -4 4 -8t-9 -4h-180q-16 0 -26 12l-17 22q-76 -44 -173 -44q-122 0 -200.5 55t-78.5 154q0 63 36 112.5t102 78.5q-53 68 -53 138q0 85 65.5 139t164.5 54q65 0 123 -16q15 -4 15 -20v-121q0 -15 -14 -9q-39 17 -79 17q-35 0 -58 -19.5t-23 -48.5
q0 -25 17.5 -51.5t57.5 -72.5q7 -8 11 -12l91 -103q14 43 15 83q1 7 1 21q0 15 -1 22q0 16 15 16h132q16 0 16 -16q0 -32 -2 -47q-7 -116 -66 -204zM214 220q0 -38 29.5 -63t76.5 -25q32 0 65 13l-133 152q-38 -27 -38 -77z" />
    <glyph glyph-name="quotesingle" unicode="'" horiz-adv-x="281" 
d="M93 398q-17 0 -18 16l-29 280v3q0 13 14 13h161q15 0 14 -16l-28 -280q-2 -16 -18 -16h-96z" />
    <glyph glyph-name="parenleft" unicode="(" horiz-adv-x="403" 
d="M368 -152q9 -10 9 -19q0 -12 -24 -12h-94q-17 0 -27 12q-170 183 -170 435q0 251 170 434q10 12 27 12h94q23 0 23 -12q0 -7 -8 -18q-68 -91 -106 -199t-38 -217q0 -110 38 -218t106 -198z" />
    <glyph glyph-name="parenright" unicode=")" horiz-adv-x="403" 
d="M50 -183q-23 0 -23 12q0 8 8 19q68 90 106 198t38 218t-38.5 217.5t-105.5 197.5q-9 11 -9 19q0 12 24 12h94q16 0 27 -12q170 -183 170 -434q0 -252 -170 -435q-10 -12 -27 -12h-94z" />
    <glyph glyph-name="asterisk" unicode="*" horiz-adv-x="488" 
d="M457 515q0 -1 0.5 -3t0.5 -3q0 -9 -12 -12l-53 -8q-15 -3 -31 -2l-69 2l57 -39q14 -9 24 -20l37 -38q5 -5 5 -10q0 -7 -7 -11l-89 -65q-6 -4 -10 -4q-6 0 -11 9l-24 47q-8 16 -12 29l-19 67l-19 -67q-9 -23 -12 -29l-25 -47q-5 -8 -11 -8q-5 0 -9 3l-90 66q-7 5 -7 10
t5 10l37 38q17 15 25 20l56 38l-68 -2q-20 0 -31 2l-52 9q-17 4 -11 18l34 106q6 15 19 8l48 -24q14 -7 27 -17l54 -42l-24 65q-6 15 -7 31l-8 52v3q0 13 14 13h111q15 0 14 -16l-9 -52q-1 -12 -7 -31l-24 -64l54 41q10 8 27 17l48 24q4 2 7 2q9 0 12 -11z" />
    <glyph glyph-name="plus" unicode="+" horiz-adv-x="605" 
d="M553 374q16 0 16 -16v-102q0 -16 -16 -16h-181v-185q0 -16 -16 -16h-106q-16 0 -16 16v185h-182q-16 0 -16 16v102q0 16 16 16h182v186q0 16 16 16h106q16 0 16 -16v-186h181z" />
    <glyph glyph-name="comma" unicode="," horiz-adv-x="303" 
d="M149 192q44 0 74.5 -29.5t30.5 -74.5q0 -35 -38 -109l-75 -149q-8 -16 -24 -16h-26q-17 0 -17 13q0 5 1 8l47 161q-32 9 -52.5 34.5t-20.5 58.5q0 43 29.5 73t70.5 30z" />
    <glyph glyph-name="hyphen" unicode="-" horiz-adv-x="477" 
d="M83 187q-16 0 -16 16v102q0 16 16 16h311q16 0 16 -16v-102q0 -16 -16 -16h-311z" />
    <glyph glyph-name="period" unicode="." horiz-adv-x="295" 
d="M148 -8q-43 0 -71 29t-28 71t28 71t71 29q42 0 70.5 -29t28.5 -71t-28.5 -71t-70.5 -29z" />
    <glyph glyph-name="slash" unicode="/" horiz-adv-x="384" 
d="M-16 -131q-16 0 -11 15l305 892q6 15 21 15h98q15 0 11 -15l-304 -892q-6 -15 -21 -15h-99z" />
    <glyph glyph-name="zero" unicode="0" horiz-adv-x="697" 
d="M348 -9q-130 0 -218 96t-88 269t88.5 268.5t217.5 95.5q130 0 218 -96t88 -268q0 -173 -88 -269t-218 -96zM348 164q52 0 79.5 49.5t27.5 142.5q0 92 -27.5 141.5t-79.5 49.5q-50 0 -77.5 -49.5t-27.5 -141.5t27.5 -142t77.5 -50z" />
    <glyph glyph-name="one" unicode="1" horiz-adv-x="490" 
d="M364 711q16 0 16 -16v-679q0 -16 -16 -16h-167q-16 0 -16 16v474l-122 -50q-2 -1 -7 -1q-8 0 -8 11v129q0 15 15 23l227 102q16 7 31 7h47z" />
    <glyph glyph-name="two" unicode="2" horiz-adv-x="582" 
d="M511 158q16 0 16 -16v-126q0 -16 -16 -16h-468q-19 0 -19 12q0 7 6 16l180 257q30 41 44.5 64t27 54t12.5 57q0 46 -32.5 73t-90.5 27q-44 0 -88 -19q-20 -10 -24 -10q-8 0 -8 13v124q0 16 14 23q73 29 171 29q120 0 192.5 -58t72.5 -160t-99 -239l-76 -105h185z" />
    <glyph glyph-name="three" unicode="3" horiz-adv-x="569" 
d="M355 386q169 -36 169 -175q0 -101 -88.5 -161t-217.5 -60q-100 0 -162 23q-15 5 -15 22v125q0 16 15 11q57 -20 125 -20q58 0 93.5 19t35.5 52q0 70 -141 70h-38q-16 0 -16 16v116q0 16 16 16h28q133 0 133 63q0 29 -30.5 46.5t-78.5 17.5q-63 0 -117 -24q-4 -2 -7 -2
q-7 0 -7 11v125q0 17 15 21q68 22 156 22q123 0 195 -47.5t72 -124.5q0 -117 -135 -162z" />
    <glyph glyph-name="four" unicode="4" horiz-adv-x="609" 
d="M569 243q16 0 16 -16v-114q0 -16 -16 -16h-56v-81q0 -16 -16 -16h-158q-16 0 -16 16v81h-285q-16 0 -16 16v113q0 16 9 29l285 442q9 13 25 13h156q16 0 16 -16v-451h56zM332 488q-23 -61 -52 -109l-81 -135h127v126q0 46 11 118h-5z" />
    <glyph glyph-name="five" unicode="5" horiz-adv-x="582" 
d="M266 461q121 0 198 -56t77 -161q0 -115 -95.5 -184.5t-227.5 -69.5q-91 0 -153 25q-15 7 -15 23v125q0 9 7 9q3 0 5 -1q65 -23 124 -23q66 0 104.5 26t38.5 67q0 38 -36 61.5t-97 23.5q-27 0 -56 -5.5t-48 -11t-21 -5.5q-9 0 -9 9q0 13 3 31l48 350q2 16 18 16h357
q16 0 16 -16v-121q0 -16 -16 -16h-227l-13 -96h18z" />
    <glyph glyph-name="six" unicode="6" horiz-adv-x="623" 
d="M371 460q93 0 154.5 -63t61.5 -159q0 -109 -79 -178.5t-198 -69.5t-193.5 70.5t-74.5 176.5q0 115 84 227l178 233q11 13 26 13h179q10 0 10 -5q0 -2 -4 -8l-84 -106q-8 -10 -52.5 -66t-59.5 -78q23 13 52 13zM315 150q38 0 65 25t27 64q0 42 -26.5 66.5t-66.5 24.5
q-39 0 -65 -25.5t-26 -66.5q0 -39 26 -63.5t66 -24.5z" />
    <glyph glyph-name="seven" unicode="7" horiz-adv-x="569" 
d="M551 710q14 0 14 -10q0 -6 -2 -9l-307 -676q-7 -15 -23 -15h-171q-13 0 -13 10q0 5 2 8l248 530h-247q-16 0 -16 16v130q0 16 16 16h499z" />
    <glyph glyph-name="eight" unicode="8" horiz-adv-x="617" 
d="M309 -9q-112 0 -190.5 56t-78.5 157q0 62 30.5 106.5t82.5 66.5q-87 50 -87 149q0 87 69.5 140.5t173.5 53.5t173.5 -53.5t69.5 -140.5q0 -98 -85 -149q52 -21 82 -66t30 -106q0 -102 -78.5 -158t-191.5 -56zM309 436q29 0 48 20t19 52t-19 51t-48 19q-28 0 -46.5 -19
t-18.5 -51t18 -52t47 -20zM309 138q33 0 54.5 22t21.5 57q0 36 -21.5 59t-54.5 23q-32 0 -53.5 -23t-21.5 -59t21 -57.5t54 -21.5z" />
    <glyph glyph-name="nine" unicode="9" horiz-adv-x="623" 
d="M312 720q119 0 193.5 -70.5t74.5 -176.5q0 -115 -84 -227l-178 -233q-11 -13 -26 -13h-179q-10 0 -10 5q0 2 4 8l84 106q8 10 52.5 66t59.5 78q-23 -13 -52 -13q-93 0 -154.5 63t-61.5 159q0 109 79 178.5t198 69.5zM308 380q39 0 65 25.5t26 66.5q0 39 -26 63.5
t-66 24.5q-38 0 -65 -25t-27 -64q0 -42 26.5 -66.5t66.5 -24.5z" />
    <glyph glyph-name="colon" unicode=":" horiz-adv-x="280" 
d="M141 287q-40 0 -66 27t-26 66t26 66t66 27q39 0 66 -27t27 -66t-27 -66t-66 -27zM141 -8q-40 0 -66 27t-26 66t26 66t66 27q39 0 66 -27t27 -66t-27 -66t-66 -27z" />
    <glyph glyph-name="semicolon" unicode=";" horiz-adv-x="294" 
d="M148 272q-43 0 -71 29t-28 71t28 70.5t71 28.5q42 0 70 -28.5t28 -70.5t-28 -71t-70 -29zM145 176q42 0 71.5 -28.5t29.5 -70.5q0 -32 -37 -104l-71 -142q-8 -16 -23 -16h-25q-16 0 -16 12q0 5 1 8l45 154q-32 8 -51 32.5t-19 56.5q0 41 28.5 69.5t66.5 28.5z" />
    <glyph glyph-name="less" unicode="&#x3c;" horiz-adv-x="605" 
d="M569 38q0 -27 -18 -27q-5 0 -17 5l-486 236q-14 7 -14 23v48q0 15 14 23l486 235q12 5 17 5q18 0 18 -27v-110q0 -15 -14 -23l-266 -126l266 -126q14 -7 14 -23v-113z" />
    <glyph glyph-name="equal" unicode="=" horiz-adv-x="605" 
d="M52 346q-16 0 -16 16v102q0 16 16 16h501q16 0 16 -16v-102q0 -16 -16 -16h-501zM52 130q-16 0 -16 16v102q0 16 16 16h501q16 0 16 -16v-102q0 -16 -16 -16h-501z" />
    <glyph glyph-name="greater" unicode="&#x3e;" horiz-adv-x="605" 
d="M88 16q-12 -5 -17 -5q-18 0 -18 27v113q0 15 14 23l266 126l-266 126q-14 7 -14 23v110q0 27 18 27q5 0 17 -5l486 -235q14 -7 14 -23v-48q0 -16 -14 -23z" />
    <glyph glyph-name="question" unicode="?" horiz-adv-x="495" 
d="M152 223q-30 0 -31 29l-9 107v2q0 11 12 15q72 24 106.5 49t34.5 65t-35 62t-91 22q-40 0 -78 -10q-9 -3 -16 -3q-21 0 -21 28v64q0 42 37 52q55 15 131 15q125 0 197 -56.5t72 -147.5q0 -141 -192 -216l-4 -48q-3 -29 -32 -29h-81zM189 -8q-45 0 -74 26t-29 64
q0 37 29.5 63t73.5 26t73.5 -26t29.5 -63q0 -38 -29.5 -64t-73.5 -26z" />
    <glyph glyph-name="at" unicode="@" horiz-adv-x="909" 
d="M654 432q16 0 16 -16v-255q0 -53 42 -53q39 0 64.5 46t25.5 123q0 133 -96.5 221t-240.5 88q-153 0 -255.5 -99.5t-102.5 -247.5q0 -146 109 -248t270 -102q133 0 227 53q9 3 16 6.5l10 5t5 1.5q7 0 7 -12v-36q0 -17 -14 -24q-110 -57 -251 -57q-188 0 -317 119.5
t-129 293.5q0 176 122 292t302 116q172 0 288.5 -106t116.5 -263q0 -111 -53.5 -178t-143.5 -67q-49 0 -85.5 21.5t-48.5 62.5q-43 -74 -130 -74q-70 0 -123 57.5t-53 141.5t53 141t123 57q82 0 123 -67v43q0 16 16 16h107zM456 158q31 0 52.5 22.5t21.5 59.5t-21.5 59.5
t-52.5 22.5q-34 0 -56 -22.5t-22 -58.5q0 -37 22.5 -60t55.5 -23z" />
    <glyph glyph-name="A" unicode="A" horiz-adv-x="724" 
d="M713 15q1 -2 1 -6q0 -9 -11 -9h-188q-17 0 -21 15q-3 10 -13 41t-15 48h-217q-5 -17 -15 -48t-13 -41q-6 -15 -21 -15h-180q-16 0 -10 15l267 680q6 15 22 15h127q16 0 22 -15zM293 246h130l-64 217q-14 -42 -38 -122.5t-28 -94.5z" />
    <glyph glyph-name="B" unicode="B" horiz-adv-x="612" 
d="M442 383q73 -15 114.5 -59.5t41.5 -111.5q0 -96 -79.5 -154t-217.5 -58h-224q-16 0 -16 16v678q0 16 16 16h214q129 0 199.5 -45.5t70.5 -129.5q0 -56 -33.5 -97t-85.5 -53v-2zM376 505q0 35 -25 54t-68 19h-27v-150h28q44 0 68 20t24 57zM285 132q52 0 81 22t29 62
q0 38 -29 59.5t-80 21.5h-30v-165h29z" />
    <glyph glyph-name="C" unicode="C" horiz-adv-x="650" 
d="M411 -9q-100 0 -186.5 43t-141 128t-54.5 194q0 110 55.5 194.5t144 127t191.5 42.5q99 0 171 -28q15 -5 15 -22v-129q0 -24 -15 -24q-6 0 -18 5q-61 28 -133 28q-87 0 -145.5 -53t-58.5 -139q0 -89 58.5 -142t144.5 -53q76 0 144 35q11 6 18 6q15 0 15 -25v-125
q0 -17 -14 -23q-77 -40 -191 -40z" />
    <glyph glyph-name="D" unicode="D" horiz-adv-x="756" 
d="M61 694q0 16 16 16h213q200 0 318 -97.5t118 -252.5q0 -162 -117.5 -261t-318.5 -99h-213q-16 0 -16 16v678zM295 553h-29v-396h29q102 0 161.5 52.5t59.5 144.5q0 93 -59.5 146t-161.5 53z" />
    <glyph glyph-name="E" unicode="E" horiz-adv-x="555" 
d="M498 562h-237v-126h200q16 0 16 -16v-116q0 -16 -16 -16h-200v-140h237q16 0 16 -16v-116q0 -16 -16 -16h-422q-16 0 -16 16v678q0 16 16 16h422q16 0 16 -16v-116q0 -16 -16 -16z" />
    <glyph glyph-name="F" unicode="F" horiz-adv-x="539" 
d="M497 710q16 0 16 -16v-116q0 -16 -16 -16h-236v-166h209q16 0 16 -16v-116q0 -16 -16 -16h-209v-232q0 -16 -16 -16h-168q-16 0 -16 16v678q0 16 16 16h420z" />
    <glyph glyph-name="G" unicode="G" horiz-adv-x="772" 
d="M404 -9q-160 0 -267.5 102.5t-107.5 259.5q0 159 116.5 263t293.5 104q57 0 120 -12.5t100 -31.5q14 -7 14 -24v-114q0 -28 -17 -28q-8 0 -20 6q-87 42 -193 42q-89 0 -148 -56.5t-59 -146.5q0 -88 51.5 -143t125.5 -55q65 0 109 32t46 83h-141q-16 0 -16 16v117
q0 16 16 16h300q16 0 19 -16q7 -40 7 -78q0 -152 -98 -244t-251 -92z" />
    <glyph glyph-name="H" unicode="H" horiz-adv-x="757" 
d="M680 710q16 0 16 -16v-678q0 -16 -16 -16h-174q-16 0 -16 16v268h-224v-268q0 -16 -16 -16h-173q-16 0 -16 16v678q0 16 16 16h173q16 0 16 -16v-260h224v260q0 16 16 16h174z" />
    <glyph glyph-name="I" unicode="I" horiz-adv-x="355" 
d="M90 0q-16 0 -16 16v678q0 16 16 16h176q16 0 16 -16v-678q0 -16 -16 -16h-176z" />
    <glyph glyph-name="J" unicode="J" horiz-adv-x="477" 
d="M160 -8q-75 0 -127 21q-16 6 -16 23v135q0 12 9 12q1 0 4.5 -1.5t6.5 -1.5q41 -19 84 -19t68 24.5t25 73.5v435q0 17 16 17h174q17 0 17 -17v-431q0 -129 -71.5 -200t-189.5 -71z" />
    <glyph glyph-name="K" unicode="K" horiz-adv-x="731" 
d="M717 31q9 -11 9 -18q0 -13 -24 -13h-204q-16 0 -25 13l-204 307v-304q0 -16 -16 -16h-176q-16 0 -16 16v678q0 16 16 16h176q16 0 16 -16v-294l203 297q9 13 25 13h203q24 0 24 -12q0 -7 -9 -19l-249 -318z" />
    <glyph glyph-name="L" unicode="L" horiz-adv-x="518" 
d="M484 165q16 0 16 -16v-133q0 -16 -16 -16h-407q-16 0 -16 16v678q0 16 16 16h175q16 0 16 -16v-529h216z" />
    <glyph glyph-name="M" unicode="M" horiz-adv-x="955" 
d="M944 16v-4q0 -12 -13 -12h-179q-17 0 -18 16l-55 392l-130 -388q-6 -15 -21 -15h-98q-16 0 -21 15l-136 379l-66 -383q-4 -16 -19 -16h-164q-16 0 -13 16l131 679q4 16 19 16h159q16 0 21 -15l145 -409l136 409q6 15 21 15h144q16 0 19 -16z" />
    <glyph glyph-name="N" unicode="N" horiz-adv-x="776" 
d="M699 710q16 0 16 -16v-678q0 -16 -16 -16h-118q-15 0 -26 12l-303 375v-371q0 -16 -16 -16h-159q-16 0 -16 16v678q0 16 16 16h118q15 0 26 -12l303 -379v375q0 16 16 16h159z" />
    <glyph glyph-name="O" unicode="O" horiz-adv-x="810" 
d="M405 -8q-155 0 -265.5 102.5t-110.5 261.5t110.5 262t265.5 103t265.5 -103t110.5 -262t-110.5 -261.5t-265.5 -102.5zM405 170q78 0 130 54t52 132q0 79 -52 133t-130 54t-130 -54t-52 -133q0 -78 52 -132t130 -54z" />
    <glyph glyph-name="P" unicode="P" horiz-adv-x="641" 
d="M298 710q152 0 240 -64.5t88 -180.5q0 -114 -87.5 -180.5t-241.5 -66.5h-29v-202q0 -16 -16 -16h-175q-16 0 -16 16v678q0 16 16 16h221zM294 367q58 0 89.5 26t31.5 72q0 45 -31.5 70.5t-87.5 25.5h-28v-194h26z" />
    <glyph glyph-name="Q" unicode="Q" horiz-adv-x="814" 
d="M800 -10q4 -6 4 -11t-6 -11l-106 -86q-4 -4 -10 -4t-12 6l-113 138q-70 -30 -152 -30q-155 0 -265.5 102.5t-110.5 261.5t110.5 262t265.5 103t265.5 -103t110.5 -262q0 -140 -90 -240zM223 356q0 -78 52 -132t130 -54t130 54t52 132q0 79 -52 133t-130 54t-130 -54
t-52 -133z" />
    <glyph glyph-name="R" unicode="R" horiz-adv-x="669" 
d="M655 26q7 -10 7 -15q0 -11 -20 -11h-199q-17 0 -24 14l-158 253h-2v-251q0 -16 -16 -16h-167q-16 0 -16 16v678q0 16 16 16h246q131 0 207.5 -55t76.5 -152q0 -72 -39.5 -125t-112.5 -76zM298 570h-39v-181h39q52 0 80.5 24t28.5 68q0 42 -28.5 65.5t-80.5 23.5z" />
    <glyph glyph-name="S" unicode="S" horiz-adv-x="570" 
d="M261 -10q-122 0 -211 42q-14 6 -14 24v138q0 11 6 11q2 0 8 -2q99 -57 194 -57q43 0 68 16t25 45q0 20 -14.5 35.5t-30.5 23.5t-50 21q-104 42 -155.5 92t-51.5 130q0 97 78 154t196 57q90 0 175 -27q15 -7 15 -22v-129q0 -12 -7 -12q-1 0 -7 2q-80 35 -159 35
q-40 0 -62 -14.5t-22 -38.5q0 -7 2.5 -14t5.5 -12t10.5 -10.5t12 -9t15.5 -9t16.5 -8t18.5 -8t18 -7.5q104 -43 153 -91.5t49 -125.5q0 -98 -77 -163.5t-205 -65.5z" />
    <glyph glyph-name="T" unicode="T" horiz-adv-x="606" 
d="M574 710q16 0 16 -16v-129q0 -16 -16 -16h-168v-533q0 -16 -16 -16h-174q-16 0 -16 16v533h-168q-16 0 -16 16v129q0 16 16 16h542z" />
    <glyph glyph-name="U" unicode="U" horiz-adv-x="727" 
d="M356 -9q-134 0 -216.5 77t-82.5 219v408q0 16 16 16h175q16 0 16 -16v-423q0 -57 27 -87t74 -30t73.5 30t26.5 87v423q0 16 16 16h173q16 0 16 -16v-408q0 -143 -86.5 -219.5t-227.5 -76.5z" />
    <glyph glyph-name="V" unicode="V" horiz-adv-x="728" 
d="M711 710q17 0 10 -16l-279 -680q-5 -16 -23 -16h-115q-15 0 -19 13l-279 683q-1 2 -1 7q0 9 12 9h187q16 0 21 -15l144 -423l144 423q6 15 21 15h177z" />
    <glyph glyph-name="W" unicode="W" horiz-adv-x="1036" 
d="M1013 710q17 0 11 -15l-201 -680q-6 -15 -21 -15h-154q-15 0 -21 15l-110 369l-108 -369q-6 -15 -21 -15h-153q-15 0 -21 15l-204 680q-1 2 -1 6q0 9 12 9h193q16 0 20 -15l94 -363l107 363q6 15 21 15h133q15 0 21 -15l112 -379l92 378q4 16 20 16h179z" />
    <glyph glyph-name="X" unicode="X" horiz-adv-x="721" 
d="M705 35q9 -12 9 -21q0 -14 -27 -14h-183q-17 0 -24 14l-120 195l-117 -195q-7 -14 -24 -14h-181q-26 0 -26 15q0 9 8 20l230 319l-232 321q-9 12 -9 21q0 14 27 14h186q17 0 25 -14l120 -189l109 189q9 14 24 14h182q26 0 26 -15q0 -9 -8 -20l-222 -315z" />
    <glyph glyph-name="Y" unicode="Y" horiz-adv-x="676" 
d="M251 0q-16 0 -16 16v256l-232 405q-6 11 -6 18q0 16 26 16h172q16 0 23 -14l129 -264l121 263q7 15 23 15h161q26 0 26 -16q0 -7 -6 -18l-230 -405v-256q0 -16 -16 -16h-175z" />
    <glyph glyph-name="Z" unicode="Z" horiz-adv-x="628" 
d="M273 146h293q16 0 16 -16v-114q0 -16 -16 -16h-511q-16 0 -16 16v57q0 14 8 30l289 461h-267q-16 0 -16 16v114q0 16 16 16h487q16 0 16 -16v-57q0 -15 -9 -30z" />
    <glyph glyph-name="bracketleft" unicode="[" horiz-adv-x="346" 
d="M321 -168q0 -16 -16 -16h-228q-16 0 -16 16v862q0 16 16 16h226q16 0 16 -16v-85q0 -16 -16 -16h-99v-661h101q16 0 16 -16v-84z" />
    <glyph glyph-name="backslash" unicode="\" horiz-adv-x="384" 
d="M408 -116q1 -2 1 -6q0 -9 -12 -9h-99q-16 0 -21 15l-304 892q-1 2 -1 6q0 9 12 9h98q16 0 21 -15z" />
    <glyph glyph-name="bracketright" unicode="]" horiz-adv-x="346" 
d="M41 -184q-16 0 -16 16v84q0 16 16 16h101v661h-99q-16 0 -16 16v85q0 16 16 16h226q16 0 16 -16v-862q0 -16 -16 -16h-228z" />
    <glyph glyph-name="asciicircum" unicode="^" horiz-adv-x="600" 
d="M508 275q3 -5 3 -7q0 -6 -10 -6h-89q-16 0 -26 12l-85 105l-83 -104q-10 -13 -26 -13h-93q-16 0 -7 13l125 193q9 13 25 13h118q16 0 25 -13z" />
    <glyph glyph-name="underscore" unicode="_" horiz-adv-x="613" 
d="M83 -197q-16 0 -16 16v102q0 16 16 16h447q16 0 16 -16v-102q0 -16 -16 -16h-447z" />
    <glyph glyph-name="grave" unicode="`" horiz-adv-x="500" 
d="M372 560q1 -2 1 -7q0 -8 -11 -8h-93q-16 0 -25 13l-119 163q-4 6 -4 9q0 8 11 11l133 39q2 1 6 1q11 0 15 -11z" />
    <glyph glyph-name="a" unicode="a" horiz-adv-x="656" 
d="M586 480q16 0 16 -16v-448q0 -16 -16 -16h-162q-16 0 -16 16v64q-42 -89 -147 -89q-99 0 -166 71.5t-67 178.5q0 108 66.5 178.5t166.5 70.5q108 0 147 -82v56q0 16 16 16h162zM320 147q38 0 64 26.5t26 67.5q0 42 -26 67.5t-65 25.5t-65.5 -25.5t-26.5 -66.5
q0 -42 27 -68.5t66 -26.5z" />
    <glyph glyph-name="b" unicode="b" horiz-adv-x="651" 
d="M394 490q97 0 162.5 -70.5t65.5 -178.5q0 -107 -66 -178.5t-162 -71.5q-47 0 -87 22t-60 67v-64q0 -16 -16 -16h-161q-16 0 -16 16v714q0 16 16 16h161q16 0 16 -16v-322q20 42 60 62t87 20zM335 147q38 0 65 26.5t27 68.5q0 41 -26 66.5t-65 25.5t-65 -25.5t-26 -67.5
q0 -41 26 -67.5t64 -26.5z" />
    <glyph glyph-name="c" unicode="c" horiz-adv-x="470" 
d="M301 -9q-110 0 -191.5 68t-81.5 182t80.5 181t195.5 67q76 0 120 -19q13 -5 13 -20v-102q0 -24 -14 -24q-6 0 -19 5q-27 12 -62 12q-46 0 -77.5 -28t-31.5 -73t31.5 -71.5t77.5 -26.5q35 0 66 13q9 4 18 4q16 0 16 -24v-100q0 -15 -12 -20q-50 -24 -129 -24z" />
    <glyph glyph-name="d" unicode="d" horiz-adv-x="651" 
d="M581 746q16 0 16 -16v-714q0 -16 -16 -16h-162q-16 0 -16 16v63q-21 -45 -59.5 -66.5t-84.5 -21.5q-98 0 -164.5 71.5t-66.5 178.5q0 108 66 178.5t165 70.5q104 0 144 -82v322q0 16 16 16h162zM315 147q38 0 64 26.5t26 67.5q0 42 -26 67.5t-65 25.5q-38 0 -64 -25.5
t-26 -66.5q0 -42 26.5 -68.5t64.5 -26.5z" />
    <glyph glyph-name="e" unicode="e" horiz-adv-x="564" 
d="M535 259q0 -38 -7.5 -48t-33.5 -10h-272q30 -66 125 -66q55 0 102 13q13 4 26.5 9t21 7.5t10.5 2.5q10 0 10 -14v-97q0 -15 -11 -22q-72 -42 -194 -42t-203 69.5t-81 179.5t79.5 179.5t189.5 69.5q100 0 169 -58.5t69 -172.5zM296 365q-59 0 -79 -67h152q-5 29 -24 48
t-49 19z" />
    <glyph glyph-name="f" unicode="f" horiz-adv-x="436" 
d="M373 607q-73 0 -73 -81v-46h117q16 0 16 -16v-98q0 -16 -16 -16h-117v-334q0 -16 -16 -16h-167q-16 0 -16 16v334h-71q-16 0 -16 16v98q0 16 16 16h71v60q0 104 54.5 160t159.5 56q59 0 105 -13q15 -4 15 -21v-89q0 -29 -25 -29q-8 0 -12 1q-16 2 -25 2z" />
    <glyph glyph-name="g" unicode="g" horiz-adv-x="643" 
d="M575 480q16 0 16 -16v-342q0 -159 -91.5 -240.5t-233.5 -81.5q-120 0 -186 36q-14 7 -14 24v101q0 25 16 25q6 0 18 -5q69 -33 142 -33q64 0 103 31t39 92v18q-52 -65 -144 -65t-152 66t-60 166t61 166.5t151 66.5q99 0 152 -75h1v50q0 16 16 16h166zM300 162
q40 0 65.5 25t25.5 66t-26 66.5t-65 25.5q-41 0 -66.5 -25.5t-25.5 -67.5q0 -40 26 -65t66 -25z" />
    <glyph glyph-name="h" unicode="h" horiz-adv-x="638" 
d="M402 490q86 0 135 -47.5t49 -146.5v-285q0 -11 -11 -11h-177q-11 0 -11 11v262q0 69 -65 69q-32 0 -50.5 -20t-18.5 -55v-256q0 -11 -11 -11h-177q-11 0 -11 11v724q0 11 11 11h170q11 0 11 -11v-320q50 75 156 75z" />
    <glyph glyph-name="i" unicode="i" horiz-adv-x="308" 
d="M154 545q-52 0 -82.5 29t-30.5 72q0 44 30.5 73t82.5 29t82.5 -29t30.5 -73q0 -43 -30.5 -72t-82.5 -29zM71 0q-16 0 -16 16v448q0 16 16 16h167q16 0 16 -16v-448q0 -16 -16 -16h-167z" />
    <glyph glyph-name="j" unicode="j" horiz-adv-x="311" 
d="M158 545q-52 0 -82.5 29t-30.5 72q0 44 30.5 73t82.5 29t82.5 -29t30.5 -73q0 -43 -30.5 -72t-82.5 -29zM49 -200q-47 0 -82 9q-15 4 -15 21v114q0 14 15 10q15 -7 36 -7q26 0 40.5 15.5t14.5 41.5v460q0 16 16 16h167q16 0 16 -16v-460q0 -101 -53.5 -152.5
t-154.5 -51.5z" />
    <glyph glyph-name="k" unicode="k" horiz-adv-x="624" 
d="M622 13q3 -5 3 -7q0 -6 -10 -6h-206q-17 0 -24 14l-134 223v-221q0 -16 -16 -16h-167q-16 0 -16 16v714q0 16 16 16h167q16 0 16 -16v-452l127 189q9 13 25 13h207q16 0 6 -12l-174 -209z" />
    <glyph glyph-name="l" unicode="l" horiz-adv-x="358" 
d="M226 -10q-82 0 -126.5 44.5t-44.5 134.5v561q0 16 16 16h166q16 0 16 -16v-535q0 -52 45 -52q14 0 31 5q6 2 7 2q9 0 9 -12v-108q0 -19 -15 -24q-45 -16 -104 -16z" />
    <glyph glyph-name="m" unicode="m" horiz-adv-x="918" 
d="M686 490q83 0 131.5 -45t48.5 -141v-288q0 -16 -16 -16h-167q-16 0 -16 16l1 281q0 29 -14.5 44t-38.5 15q-25 0 -40.5 -16.5t-15.5 -45.5v-278q0 -16 -16 -16h-166q-16 0 -16 16v281q0 29 -14.5 44t-38.5 15q-25 0 -40 -16.5t-15 -45.5v-278q0 -16 -16 -16h-167
q-16 0 -16 16v448q0 16 16 16h150q16 0 16 -16v-58q43 84 147 84q115 0 156 -84q44 84 147 84z" />
    <glyph glyph-name="n" unicode="n" horiz-adv-x="638" 
d="M398 490q88 0 137.5 -50t49.5 -148v-276q0 -16 -16 -16h-166q-16 0 -16 16v255q0 74 -65 74q-32 0 -50.5 -21t-18.5 -60v-248q0 -16 -16 -16h-167q-16 0 -16 16v448q0 16 16 16h154q16 0 16 -16v-57q48 83 158 83z" />
    <glyph glyph-name="o" unicode="o" horiz-adv-x="596" 
d="M298 -10q-112 0 -191 73.5t-79 178.5t79 176.5t191 71.5t191 -71.5t79 -176.5q0 -107 -77 -179.5t-193 -72.5zM299 146q38 0 64.5 26.5t26.5 67.5q0 42 -26.5 68t-65.5 26t-65.5 -26t-26.5 -67q0 -42 27 -68.5t66 -26.5z" />
    <glyph glyph-name="p" unicode="p" horiz-adv-x="646" 
d="M389 489q97 0 162.5 -71t65.5 -178q0 -108 -65.5 -178.5t-164.5 -70.5q-100 0 -141 76v-240q0 -17 -17 -17h-158q-17 0 -17 17v637q0 16 17 16h155q17 0 17 -16v-62q41 87 146 87zM333 146q39 0 65 26t26 67q0 42 -26.5 68t-65.5 26q-38 0 -64 -26t-26 -68q0 -41 26 -67
t65 -26z" />
    <glyph glyph-name="q" unicode="q" horiz-adv-x="640" 
d="M569 480q17 0 17 -16v-637q0 -17 -17 -17h-161q-16 0 -16 17v222q-48 -58 -137 -58q-99 0 -163 70.5t-64 178.5t63 178.5t162 70.5t149 -74v49q0 16 17 16h150zM305 139q41 0 68 28t27 72t-27 71.5t-68 27.5q-40 0 -65.5 -27.5t-25.5 -71.5q0 -45 26 -72.5t65 -27.5z" />
    <glyph glyph-name="r" unicode="r" horiz-adv-x="435" 
d="M399 489h2q14 0 14 -15v-164q0 -14 -15 -13q-5 1 -17 1q-17 0 -33 -3q-44 -6 -72 -39t-28 -89v-151q0 -16 -16 -16h-167q-16 0 -16 16v448q0 16 16 16h159q16 0 16 -16v-107h1q40 124 156 132z" />
    <glyph glyph-name="s" unicode="s" horiz-adv-x="488" 
d="M228 -8q-102 0 -174 30q-12 5 -12 19v115q0 11 6 11q3 0 8 -3q75 -39 162 -39q43 0 43 24q0 13 -20 21q-10 3 -41 11l-9 3q-77 19 -116.5 52t-39.5 95q0 77 66 118t170 41q81 0 146 -20q12 -3 12 -17v-104v-3q0 -8 -7 -8q-5 0 -7 1q-65 24 -125 24q-52 0 -52 -25
q0 -7 5.5 -12t14 -8t31.5 -9q11 -3 18 -5q75 -19 113 -50.5t38 -93.5q0 -75 -62 -121.5t-168 -46.5z" />
    <glyph glyph-name="t" unicode="t" horiz-adv-x="439" 
d="M372 144q4 1 12 1q25 0 25 -29v-88q0 -16 -15 -21q-62 -17 -119 -17q-191 0 -191 193v169h-66q-16 0 -16 16v96q0 16 16 16h66v143q0 16 16 16h166q16 0 16 -16v-143h110q16 0 16 -16v-96q0 -16 -16 -16h-110v-144q0 -66 60 -66q12 0 30 2z" />
    <glyph glyph-name="u" unicode="u" horiz-adv-x="627" 
d="M557 480q16 0 16 -16v-448q0 -16 -16 -16h-147q-16 0 -17 16l-2 61q-48 -86 -156 -86q-85 0 -134 51t-49 146v276q0 16 16 16h167q16 0 16 -16v-264q0 -73 61 -73q30 0 46.5 20t16.5 53v264q0 16 16 16h166z" />
    <glyph glyph-name="v" unicode="v" horiz-adv-x="582" 
d="M569 480q16 0 10 -15l-196 -450q-5 -15 -22 -15h-141q-16 0 -22 15l-195 450q-1 2 -1 7q0 8 11 8h189q16 0 21 -15l73 -225l68 225q6 15 21 15h184z" />
    <glyph glyph-name="w" unicode="w" horiz-adv-x="791" 
d="M779 480q15 0 11 -15l-153 -450q-6 -15 -21 -15h-134q-16 0 -20 15l-67 230l-67 -230q-4 -15 -20 -15h-134q-16 0 -21 15l-154 450q-1 2 -1 6q0 9 12 9h174q16 0 20 -15l52 -204l57 204q4 15 20 15h131q15 0 21 -15l63 -211l47 210q4 16 20 16h164z" />
    <glyph glyph-name="x" unicode="x" horiz-adv-x="604" 
d="M590 30q9 -11 9 -18q0 -12 -23 -12h-195q-17 0 -24 14l-61 101l-64 -101q-9 -14 -25 -14h-178q-23 0 -23 12q0 6 9 18l176 209l-174 211q-9 10 -9 18q0 12 23 12h189q17 0 24 -14l61 -101l63 101q7 14 24 14h168q24 0 24 -12q0 -7 -9 -19l-163 -206z" />
    <glyph glyph-name="y" unicode="y" horiz-adv-x="584" 
d="M572 480q16 0 9 -15l-206 -462q-49 -107 -107.5 -155t-139.5 -48q-60 0 -97 16q-15 7 -15 23v113q0 16 15 10q46 -16 85 -16q63 0 95 66l-215 454q-2 4 -2 7q0 7 11 7h173q16 0 22 -15l92 -246l95 246q6 15 22 15h163z" />
    <glyph glyph-name="z" unicode="z" horiz-adv-x="505" 
d="M41 0q-16 0 -16 16v30q0 16 9 29l180 253h-160q-16 0 -16 16v120q0 16 16 16h401q16 0 16 -16v-30q0 -16 -9 -29l-181 -253h178q16 0 16 -16v-120q0 -16 -16 -16h-418z" />
    <glyph glyph-name="braceleft" unicode="{" horiz-adv-x="313" 
d="M248 620q-25 0 -39.5 -13.5t-14.5 -36.5t33.5 -92.5t33.5 -104.5q0 -40 -30 -72t-85 -38q55 -6 85 -38t30 -72q0 -35 -33.5 -104.5t-33.5 -92.5t14.5 -36.5t39.5 -13.5q16 0 24 2h3q13 0 13 -13v-54q0 -17 -14 -23q-31 -11 -75 -11q-73 0 -110.5 35.5t-37.5 86.5
q0 41 36 117t36 99q0 55 -60 64q-16 2 -16 17v74q0 16 16 17q60 9 60 64q0 23 -36 99t-36 117q0 51 37.5 86.5t110.5 35.5q45 0 74 -11q15 -5 15 -23v-54q0 -14 -16 -13q-8 2 -24 2z" />
    <glyph glyph-name="bar" unicode="|" horiz-adv-x="189" 
d="M54 -200q-16 0 -16 16v1008q0 16 16 16h82q16 0 16 -16v-1008q0 -16 -16 -16h-82z" />
    <glyph glyph-name="braceright" unicode="}" horiz-adv-x="313" 
d="M251 317q16 -2 16 -17v-74q0 -16 -16 -17q-60 -9 -60 -64q0 -23 36 -99t36 -117q0 -51 -37.5 -86.5t-110.5 -35.5q-45 0 -74 11q-15 5 -15 23v54q0 14 16 13q8 -2 24 -2q25 0 39.5 13.5t14.5 36.5t-33.5 92.5t-33.5 104.5q0 40 30 72t85 38q-55 6 -85 38t-30 72
q0 35 33.5 104.5t33.5 92.5t-14.5 36.5t-39.5 13.5q-16 0 -24 -2h-3q-13 0 -13 13v54q0 17 14 23q31 11 75 11q73 0 110.5 -35.5t37.5 -86.5q0 -41 -36 -117t-36 -99q0 -55 60 -64z" />
    <glyph glyph-name="asciitilde" unicode="~" horiz-adv-x="605" 
d="M397 202q-47 0 -115 47q-46 35 -73 35q-46 0 -55 -60q-2 -16 -17 -16h-79q-16 0 -16 16q4 86 42 142t106 56q49 0 119 -49q45 -34 70 -34q38 0 43 60q2 16 17 16h84q16 0 16 -16q-4 -89 -43 -143t-99 -54z" />
    <glyph glyph-name="nbspace" unicode="&#xa0;" horiz-adv-x="203" 
 />
    <glyph glyph-name="exclamdown" unicode="&#xa1;" horiz-adv-x="320" 
d="M160 720q42 0 70.5 -29t28.5 -71t-28.5 -71t-70.5 -29q-43 0 -71 29t-28 71t28 71t71 29zM92 444q0 16 17 16h102q16 0 17 -16l38 -427q0 -16 -15 -16h-182q-16 0 -15 16z" />
    <glyph glyph-name="cent" unicode="&#xa2;" horiz-adv-x="472" 
d="M409 267q9 4 18 4q17 0 17 -25v-99q0 -11 -9 -16q-42 -19 -105 -25l-11 -123q-2 -16 -18 -16h-68q-17 0 -14 16l13 129q-86 20 -143.5 84.5t-57.5 160.5q0 103 65.5 168.5t161.5 77.5l10 124q2 16 18 16h67q16 0 15 -16l-11 -126q39 -4 72 -17q10 -5 10 -16v-99
q0 -26 -20 -26q-10 0 -16 2q-33 10 -68 10q-45 0 -76 -28t-31 -73q0 -46 31.5 -72.5t76.5 -26.5q37 0 73 12z" />
    <glyph glyph-name="sterling" unicode="&#xa3;" horiz-adv-x="585" 
d="M515 703q15 -4 15 -21v-119q0 -16 -15 -10q-38 15 -80 15t-68 -27t-30 -77l-3 -35h144q16 0 16 -16v-103q0 -16 -16 -16h-155l-12 -142h196q16 0 16 -16v-120q0 -16 -16 -16h-442q-16 0 -16 16v120q0 16 16 16h49l13 142h-55q-16 0 -16 16v103q0 16 16 16h67l5 55
q9 115 75.5 175.5t171.5 60.5q71 0 124 -17z" />
    <glyph glyph-name="currency" unicode="&#xa4;" horiz-adv-x="585" 
d="M484 227l87 -96q5 -5 5 -11t-6 -12l-53 -50q-5 -5 -11 -5t-12 6l-88 94q-52 -30 -118 -30t-119 31l-88 -95q-5 -6 -12 -6q-6 0 -11 5l-53 51q-6 5 -6 12q0 6 5 11l89 96q-35 55 -35 125q0 73 38 132l-92 100q-5 7 -5 11q0 6 6 12l54 50q7 5 11 5q6 0 12 -6l93 -100
q52 27 113 27q62 0 113 -27l93 101q4 6 12 6q6 0 11 -5l53 -52q6 -5 6 -12q0 -6 -5 -11l-91 -98q39 -58 39 -133q0 -69 -35 -126zM288 253q39 0 64 28.5t25 71.5q0 44 -24.5 72.5t-64.5 28.5t-64 -28.5t-24 -72.5t24 -72t64 -28z" />
    <glyph glyph-name="yen" unicode="&#xa5;" horiz-adv-x="676" 
d="M652 711q26 0 26 -16q0 -7 -6 -18l-189 -333h85q16 0 16 -16v-102q0 -16 -16 -16h-126v-194q0 -16 -16 -16h-175q-16 0 -16 16v194h-120q-16 0 -16 16v102q0 16 16 16h79l-191 333q-6 11 -6 18q0 16 26 16h172q16 0 23 -14l129 -264l121 263q7 15 23 15h161z" />
    <glyph glyph-name="brokenbar" unicode="&#xa6;" horiz-adv-x="189" 
d="M54 421q-16 0 -16 16v387q0 16 16 16h82q16 0 16 -16v-387q0 -16 -16 -16h-82zM54 -200q-16 0 -16 16v387q0 16 16 16h82q16 0 16 -16v-387q0 -16 -16 -16h-82z" />
    <glyph glyph-name="section" unicode="&#xa7;" horiz-adv-x="597" 
d="M477 278q50 -67 71 -111t21 -96q0 -115 -81.5 -193.5t-223.5 -78.5q-121 0 -214 43q-14 7 -14 23v120q0 15 14 9q93 -45 225 -45q61 0 108 14l-248 325q-37 49 -52.5 71.5t-32.5 65.5t-17 86q0 108 79.5 176t209.5 68q99 0 186 -30q15 -4 15 -21v-126q0 -16 -15 -10
q-48 17 -114 26.5t-107 9.5q-24 0 -51 -5zM440 -7q44 34 44 97q0 62 -60 142l-253 341q-50 -35 -50 -97q0 -26 11.5 -53.5t24 -46.5t40.5 -56z" />
    <glyph glyph-name="dieresis" unicode="&#xa8;" horiz-adv-x="500" 
d="M153 586q-31 0 -51.5 21t-20.5 51t20.5 51t51.5 21q30 0 50.5 -21t20.5 -51t-20.5 -51t-50.5 -21zM347 586q-31 0 -51.5 21t-20.5 51t20.5 51t51.5 21q30 0 50.5 -21t20.5 -51t-20.5 -51t-50.5 -21z" />
    <glyph glyph-name="copyright" unicode="&#xa9;" horiz-adv-x="800" 
d="M400 -10q-155 0 -263 101.5t-108 259.5q0 162 109 265.5t262 103.5t262 -103.5t109 -265.5q0 -158 -108 -259.5t-263 -101.5zM400 32q136 0 232 89t96 230q0 145 -95.5 236.5t-232.5 91.5t-232.5 -91.5t-95.5 -236.5q0 -141 96 -230t232 -89zM407 139q-90 0 -153 59
t-63 158q0 98 64 156.5t155 58.5q62 0 106 -24q9 -5 9 -17v-93q0 -9 -5 -9q-2 0 -7 3q-34 25 -84 25q-41 0 -68.5 -27.5t-27.5 -71.5q0 -46 28 -73.5t68 -27.5q50 0 90 30q5 3 7 3q5 0 5 -9v-90q0 -11 -8 -17q-48 -34 -116 -34z" />
    <glyph glyph-name="ordfeminine" unicode="&#xaa;" horiz-adv-x="573" 
d="M220 339q-71 0 -118.5 54.5t-47.5 136.5q0 81 47.5 134.5t118.5 53.5q72 0 111 -50v29q0 13 13 13h134q13 0 13 -13v-338q0 -13 -13 -13h-134q-13 0 -13 13v35q-41 -55 -111 -55zM275 602q-26 0 -41 -20t-15 -54q0 -33 15.5 -53t40.5 -20t40.5 20t15.5 53q0 34 -15.5 54
t-40.5 20zM491 276q16 0 16 -16v-54q0 -16 -16 -16h-413q-16 0 -16 16v54q0 16 16 16h413z" />
    <glyph glyph-name="guillemetleft" unicode="&#xab;" horiz-adv-x="682" 
d="M270 24q-4 -6 -10 -6t-11 6l-210 249q-4 5 -4 12t5 12l208 229q4 6 12 6q6 0 11 -5l68 -61q7 -7 7 -13q0 -3 -4 -11l-111 -157l111 -159q4 -6 4 -12q0 -7 -6 -13zM539 24q-5 -6 -10 -6q-7 0 -11 6l-210 249q-4 5 -4 12t5 12l208 229q5 6 12 6q6 0 11 -5l68 -61
q7 -7 7 -13q0 -3 -4 -11l-111 -157l111 -159q4 -6 4 -12q0 -7 -6 -13z" />
    <glyph glyph-name="logicalnot" unicode="&#xac;" horiz-adv-x="605" 
d="M511 441q16 0 16 -16v-269q0 -16 -16 -16h-113q-16 0 -16 16v153h-312q-16 0 -16 16v100q0 16 16 16h441z" />
    <glyph glyph-name="softhyphen" unicode="&#xad;" horiz-adv-x="477" 
d="M83 187q-16 0 -16 16v102q0 16 16 16h311q16 0 16 -16v-102q0 -16 -16 -16h-311z" />
    <glyph glyph-name="registered" unicode="&#xae;" horiz-adv-x="479" 
d="M239 720q81 0 134.5 -54t53.5 -139q0 -86 -53 -139.5t-135 -53.5q-81 0 -134 54t-53 139t53.5 139t133.5 54zM239 367q67 0 110.5 44.5t43.5 115.5q0 72 -43 116t-111 44q-66 0 -109.5 -44t-43.5 -116q0 -71 43.5 -115.5t109.5 -44.5zM278 518l53 -67q3 -3 3 -6
q0 -4 -8 -4h-39q-14 0 -20 11l-40 57h-4v-55q0 -13 -13 -13h-27q-13 0 -13 13v159q0 13 13 13h62q33 0 52.5 -15.5t19.5 -41.5q0 -40 -39 -51zM234 589h-11v-51h10q30 0 30 26q0 25 -29 25z" />
    <glyph glyph-name="macron" unicode="&#xaf;" horiz-adv-x="500" 
d="M94 592q-16 0 -16 16v77q0 16 16 16h311q16 0 16 -16v-77q0 -16 -16 -16h-311z" />
    <glyph glyph-name="degree" unicode="&#xb0;" horiz-adv-x="412" 
d="M206 402q-70 0 -120 45.5t-50 113.5q0 69 49.5 114t120.5 45t120.5 -45t49.5 -114q0 -68 -50 -113.5t-120 -45.5zM206 500q24 0 39 17t15 44t-15 44t-39 17t-39 -17t-15 -44t15 -44t39 -17z" />
    <glyph glyph-name="plusminus" unicode="&#xb1;" horiz-adv-x="605" 
d="M70 374q-16 0 -16 16v103q0 16 16 16h154v120q0 16 16 16h102q16 0 16 -16v-120h153q16 0 16 -16v-103q0 -16 -16 -16h-153v-121q0 -16 -16 -16h-102q-16 0 -16 16v121h-154zM553 162q16 0 16 -16v-102q0 -16 -16 -16h-501q-16 0 -16 16v102q0 16 16 16h501z" />
    <glyph glyph-name="twosuperior" unicode="&#xb2;" horiz-adv-x="385" 
d="M325 527q16 0 16 -16v-63q0 -16 -16 -16h-287q-11 0 -11 5q0 2 5 9l117 150q20 25 28.5 37t17 30t8.5 34q0 25 -20.5 40.5t-55.5 15.5q-32 0 -66 -13q-4 -2 -7 -2q-7 0 -7 11v65q0 16 15 22q45 14 101 14q75 0 120 -33t45 -89q0 -64 -65 -143l-49 -58h111z" />
    <glyph glyph-name="threesuperior" unicode="&#xb3;" horiz-adv-x="346" 
d="M220 656q105 -21 105 -101q0 -59 -54.5 -94t-135.5 -35q-55 0 -96 12q-15 3 -15 21v58q0 15 15 12q37 -10 72 -10q37 0 59.5 11.5t22.5 31.5q0 41 -88 41h-17q-16 0 -16 16v51q0 16 16 16h10q85 0 85 39q0 17 -19.5 27.5t-49.5 10.5q-36 0 -68 -10q-1 0 -2.5 -0.5
t-2.5 -0.5q-10 0 -10 12v55q0 17 15 21q42 10 92 10q77 0 121.5 -27t44.5 -72q0 -68 -84 -95z" />
    <glyph glyph-name="acute" unicode="&#xb4;" horiz-adv-x="500" 
d="M136 545q-16 0 -10 15l86 210q5 16 21 10l133 -39q11 -3 11 -11q0 -5 -4 -9l-119 -163q-9 -13 -25 -13h-93z" />
    <glyph glyph-name="micro" unicode="&#xb5;" horiz-adv-x="629" 
d="M561 480q16 0 16 -16v-448q0 -16 -16 -16h-135q-17 0 -18 16l-6 41h-4q-31 -66 -98 -66q-42 0 -68 22l20 -187v-3q0 -13 -14 -13h-173q-16 0 -15 16l20 209l-14 429v2q0 14 15 14h167q16 0 16 -16v-267q0 -73 59 -73q32 0 49 23t17 64v253q0 16 16 16h166z" />
    <glyph glyph-name="paragraph" unicode="&#xb6;" horiz-adv-x="664" 
d="M417 710q16 0 16 -16v-618q0 -135 -72 -253q-9 -13 -25 -13h-66q-16 0 -7 13q77 115 77 253v145h-14q-111 0 -188 67t-77 177q0 112 76.5 178.5t188.5 66.5h91zM575 710q16 0 16 -16v-440v-32q-6 -119 -81 -186q-4 -4 -7 -4q-5 0 -5 10v652q0 16 16 16h61z" />
    <glyph glyph-name="periodcentered" unicode="&#xb7;" horiz-adv-x="295" 
d="M148 152q-43 0 -71 29t-28 71t28 71t71 29q42 0 70.5 -29t28.5 -71t-28.5 -71t-70.5 -29z" />
    <glyph glyph-name="cedilla" unicode="&#xb8;" horiz-adv-x="515" 
d="M355 -34q39 -3 62 -22.5t23 -51.5q0 -42 -37 -67t-93 -25q-50 0 -79 12q-12 4 -12 18v43q0 13 12 8q30 -12 57 -12q39 0 39 23q0 25 -40 25q-19 0 -38 -7l-3 3l65 118h81z" />
    <glyph glyph-name="onesuperior" unicode="&#xb9;" horiz-adv-x="353" 
d="M244 844q16 0 16 -16v-380q0 -16 -16 -16h-90q-16 0 -16 16v265l-73 -27q-4 -2 -6 -2q-9 0 -9 12v65q0 15 14 23l116 54q11 6 25 6h39z" />
    <glyph glyph-name="ordmasculine" unicode="&#xba;" horiz-adv-x="524" 
d="M262 354q-90 0 -149 52t-59 133t58.5 131t149.5 50q90 0 149 -50t59 -131q0 -80 -59.5 -132.5t-148.5 -52.5zM262 475q25 0 41 17.5t16 45.5t-16 45t-41 17t-40.5 -17t-15.5 -45t15.5 -45.5t40.5 -17.5zM81 208q-13 0 -13 13v59q0 13 13 13h363q13 0 13 -13v-59
q0 -13 -13 -13h-363z" />
    <glyph glyph-name="guillemetright" unicode="&#xbb;" horiz-adv-x="682" 
d="M164 24q-4 -6 -10 -6q-5 0 -11 6l-70 77q-6 8 -6 14t4 11l111 159l-111 157q-3 4 -3 10q0 8 6 14l68 61q7 5 11 5q6 0 12 -6l208 -229q5 -7 5 -13t-4 -11zM433 24q-5 -6 -10 -6t-11 6l-70 77q-6 8 -6 14t4 11l111 159l-111 157q-3 4 -3 10q0 8 6 14l68 61q7 5 11 5
q6 0 12 -6l208 -229q5 -7 5 -13t-4 -11z" />
    <glyph glyph-name="onequarter" unicode="&#xbc;" horiz-adv-x="788" 
d="M705 711q8 -5 8 -12q0 -5 -3 -9l-517 -702q-5 -7 -12 -7q-5 0 -10 3l-29 18q-7 5 -7 12q0 6 3 10l516 701q4 7 13 7q7 0 10 -2zM138 318v265l-73 -27q-4 -2 -6 -2q-9 0 -9 12v65q0 15 14 23l116 54q11 6 25 6h39q16 0 16 -16v-380q0 -16 -16 -16h-90q-16 0 -16 16z
M753 139q16 0 16 -16v-53q0 -16 -16 -16h-33v-38q0 -16 -16 -16h-79q-16 0 -16 16v38h-173q-13 0 -13 13v62q0 11 7 24l171 248q6 11 20 11h83q16 0 16 -16v-257h33zM612 266l-91 -126h91l1 126h-1z" />
    <glyph glyph-name="onehalf" unicode="&#xbd;" horiz-adv-x="869" 
d="M705 711q8 -5 8 -12q0 -5 -3 -9l-517 -702q-5 -7 -12 -7q-5 0 -10 3l-29 18q-7 5 -7 12q0 6 3 10l516 701q4 7 13 7q7 0 10 -2zM138 318v265l-73 -27q-4 -2 -6 -2q-9 0 -9 12v65q0 15 14 23l116 54q11 6 25 6h39q16 0 16 -16v-380q0 -16 -16 -16h-90q-16 0 -16 16z
M809 95q16 0 16 -16v-63q0 -16 -16 -16h-287q-11 0 -11 5q0 2 5 9l117 150q20 25 28.5 37t17 30t8.5 34q0 25 -20.5 40.5t-55.5 15.5q-32 0 -66 -13q-4 -2 -7 -2q-7 0 -7 11v65q0 16 15 22q45 14 101 14q75 0 120 -33t45 -89q0 -64 -65 -143l-49 -58h111z" />
    <glyph glyph-name="threequarters" unicode="&#xbe;" horiz-adv-x="761" 
d="M679 711q8 -5 8 -12q0 -5 -3 -9l-517 -702q-5 -7 -12 -7q-5 0 -10 3l-29 18q-7 5 -7 12q0 6 3 10l516 701q4 7 13 7q7 0 10 -2zM325 425q0 -59 -54.5 -94t-135.5 -35q-55 0 -96 12q-15 3 -15 21v58q0 15 15 12q37 -10 72 -10q37 0 59.5 11.5t22.5 31.5q0 41 -88 41h-17
q-16 0 -16 16v51q0 16 16 16h10q85 0 85 39q0 17 -19.5 27.5t-49.5 10.5q-36 0 -68 -10q-1 0 -2.5 -0.5t-2.5 -0.5q-10 0 -10 12v55q0 17 15 21q42 10 92 10q77 0 121.5 -27t44.5 -72q0 -68 -84 -95q105 -21 105 -101zM726 139q16 0 16 -16v-53q0 -16 -16 -16h-33v-38
q0 -16 -16 -16h-79q-16 0 -16 16v38h-173q-13 0 -13 13v62q0 11 7 24l171 248q6 11 20 11h83q16 0 16 -16v-257h33zM585 266l-91 -126h91l1 126h-1z" />
    <glyph glyph-name="questiondown" unicode="&#xbf;" horiz-adv-x="495" 
d="M306 720q45 0 74 -26t29 -64q0 -37 -29.5 -63t-73.5 -26t-73.5 26t-29.5 63q0 38 29.5 64t73.5 26zM343 489q30 0 31 -29l9 -107v-2q0 -11 -12 -15q-72 -24 -106.5 -49t-34.5 -65t35 -62t91 -22q40 0 78 10q9 3 16 3q21 0 21 -28v-64q0 -42 -37 -52q-56 -15 -131 -15
q-125 0 -197 56.5t-72 147.5q0 141 192 216l4 48q3 29 32 29h81z" />
    <glyph glyph-name="Agrave" unicode="&#xc0;" horiz-adv-x="751" 
d="M288 774l-118 135q-4 4 -4 8q0 6 10 6h155q16 0 22 -15l49 -131q2 -4 2 -6q0 -9 -12 -9h-78q-16 0 -26 12zM713 15q1 -2 1 -6q0 -9 -11 -9h-188q-17 0 -21 15q-3 10 -13 41t-15 48h-217q-5 -17 -15 -48t-13 -41q-6 -15 -21 -15h-180q-16 0 -10 15l267 680q6 15 22 15h127
q16 0 22 -15zM293 246h130l-64 217q-14 -42 -38 -122.5t-28 -94.5z" />
    <glyph glyph-name="Aacute" unicode="&#xc1;" horiz-adv-x="751" 
d="M302 757q-16 0 -10 15l49 132q7 15 22 15h157q10 0 10 -5q0 -4 -4 -9l-119 -136q-10 -12 -27 -12h-78zM713 15q1 -2 1 -6q0 -9 -11 -9h-188q-17 0 -21 15q-3 10 -13 41t-15 48h-217q-5 -17 -15 -48t-13 -41q-6 -15 -21 -15h-180q-16 0 -10 15l267 680q6 15 22 15h127
q16 0 22 -15zM293 246h130l-64 217q-14 -42 -38 -122.5t-28 -94.5z" />
    <glyph glyph-name="Acircumflex" unicode="&#xc2;" horiz-adv-x="751" 
d="M187 756q-9 0 -9 4q0 3 4 7l105 139q8 10 21 10h109q13 0 21 -10l104 -139q4 -4 4 -7q0 -4 -9 -4h-89q-13 0 -22 9l-64 67l-61 -66q-10 -10 -22 -10h-92zM713 15q1 -2 1 -6q0 -9 -11 -9h-188q-17 0 -21 15q-3 10 -13 41t-15 48h-217q-5 -17 -15 -48t-13 -41
q-6 -15 -21 -15h-180q-16 0 -10 15l267 680q6 15 22 15h127q16 0 22 -15zM293 246h130l-64 217q-14 -42 -38 -122.5t-28 -94.5z" />
    <glyph glyph-name="Atilde" unicode="&#xc3;" horiz-adv-x="751" 
d="M179 771q-11 0 -11 11q3 67 33 110t86 43q30 0 91 -34q34 -18 44 -18q26 0 31 37q2 11 12 11h76q11 0 11 -11q-3 -65 -35.5 -109.5t-84.5 -44.5q-28 0 -82 30q-36 19 -48 19q-32 0 -39 -34q-2 -10 -12 -10h-72zM713 15q1 -2 1 -6q0 -9 -11 -9h-188q-17 0 -21 15
q-3 10 -13 41t-15 48h-217q-5 -17 -15 -48t-13 -41q-6 -15 -21 -15h-180q-16 0 -10 15l267 680q6 15 22 15h127q16 0 22 -15zM293 246h130l-64 217q-14 -42 -38 -122.5t-28 -94.5z" />
    <glyph glyph-name="Adieresis" unicode="&#xc4;" horiz-adv-x="751" 
d="M263 772q-31 0 -51.5 21.5t-20.5 51.5t20.5 51t51.5 21t51.5 -21t20.5 -51t-20.5 -51.5t-51.5 -21.5zM467 772q-31 0 -51.5 21.5t-20.5 51.5t20.5 51t51.5 21t51.5 -21t20.5 -51t-20.5 -51.5t-51.5 -21.5zM713 15q1 -2 1 -6q0 -9 -11 -9h-188q-17 0 -21 15q-3 10 -13 41
t-15 48h-217q-5 -17 -15 -48t-13 -41q-6 -15 -21 -15h-180q-16 0 -10 15l267 680q6 15 22 15h127q16 0 22 -15zM293 246h130l-64 217q-14 -42 -38 -122.5t-28 -94.5z" />
    <glyph glyph-name="Aring" unicode="&#xc5;" horiz-adv-x="751" 
d="M362 743q-49 0 -86 33t-37 82q0 48 37 79.5t86 31.5t86.5 -31.5t37.5 -79.5q0 -49 -37.5 -82t-86.5 -33zM362 900q-18 0 -30 -12t-12 -31t12 -32t30 -13q19 0 31 12.5t12 32.5q0 19 -12 31t-31 12zM713 15q1 -2 1 -6q0 -9 -11 -9h-188q-17 0 -21 15q-3 10 -13 41t-15 48
h-217q-5 -17 -15 -48t-13 -41q-6 -15 -21 -15h-180q-16 0 -10 15l267 680q6 15 22 15h127q16 0 22 -15zM293 246h130l-64 217q-14 -42 -38 -122.5t-28 -94.5z" />
    <glyph glyph-name="AE" unicode="&#xc6;" horiz-adv-x="910" 
d="M855 573h-219v-142h183q16 0 16 -16v-105q0 -16 -16 -16h-183v-157h219q16 0 16 -16v-105q0 -16 -16 -16h-391q-16 0 -16 16v106h-181l-49 -107q-7 -15 -23 -15h-154q-27 0 -27 17q0 7 6 18l340 661q7 14 23 14h472q16 0 16 -16v-105q0 -16 -16 -16zM331 260h117v253z
" />
    <glyph glyph-name="Ccedilla" unicode="&#xc7;" horiz-adv-x="650" 
d="M583 198q11 6 18 6q15 0 15 -25v-125q0 -17 -14 -23q-72 -39 -187 -40l-14 -25q39 -3 62 -22.5t23 -51.5q0 -42 -37 -67t-93 -25q-50 0 -79 12q-12 4 -12 18v43q0 13 12 8q30 -12 57 -12q39 0 39 23q0 25 -40 25q-19 0 -38 -7l-3 3l46 84q-132 24 -220.5 120t-88.5 239
q0 110 55.5 194.5t144 127t191.5 42.5q99 0 171 -28q15 -5 15 -22v-129q0 -24 -15 -24q-6 0 -18 5q-61 28 -133 28q-87 0 -145.5 -53t-58.5 -139q0 -89 58.5 -142t144.5 -53q76 0 144 35z" />
    <glyph glyph-name="Egrave" unicode="&#xc8;" horiz-adv-x="553" 
d="M209 774l-118 135q-4 4 -4 8q0 6 10 6h155q16 0 22 -15l49 -131q2 -4 2 -6q0 -9 -12 -9h-78q-15 0 -26 12zM498 562h-237v-126h200q16 0 16 -16v-116q0 -16 -16 -16h-200v-140h237q16 0 16 -16v-116q0 -16 -16 -16h-422q-16 0 -16 16v678q0 16 16 16h422q16 0 16 -16
v-116q0 -16 -16 -16z" />
    <glyph glyph-name="Eacute" unicode="&#xc9;" horiz-adv-x="553" 
d="M223 757q-16 0 -10 15l49 132q8 15 22 15h157q10 0 10 -5q0 -4 -4 -9l-119 -136q-10 -12 -27 -12h-78zM498 562h-237v-126h200q16 0 16 -16v-116q0 -16 -16 -16h-200v-140h237q16 0 16 -16v-116q0 -16 -16 -16h-422q-16 0 -16 16v678q0 16 16 16h422q16 0 16 -16v-116
q0 -16 -16 -16z" />
    <glyph glyph-name="Ecircumflex" unicode="&#xca;" horiz-adv-x="553" 
d="M108 756q-9 0 -9 4q0 3 4 7l105 139q8 10 21 10h109q14 0 21 -10l104 -139q4 -4 4 -7q0 -4 -9 -4h-89q-13 0 -22 9l-64 67l-61 -66q-10 -10 -22 -10h-92zM498 562h-237v-126h200q16 0 16 -16v-116q0 -16 -16 -16h-200v-140h237q16 0 16 -16v-116q0 -16 -16 -16h-422
q-16 0 -16 16v678q0 16 16 16h422q16 0 16 -16v-116q0 -16 -16 -16z" />
    <glyph glyph-name="Edieresis" unicode="&#xcb;" horiz-adv-x="553" 
d="M184 772q-31 0 -51.5 21.5t-20.5 51.5t20.5 51t51.5 21t51.5 -21t20.5 -51t-20.5 -51.5t-51.5 -21.5zM388 772q-31 0 -51.5 21.5t-20.5 51.5t20.5 51t51.5 21t51.5 -21t20.5 -51t-20.5 -51.5t-51.5 -21.5zM498 562h-237v-126h200q16 0 16 -16v-116q0 -16 -16 -16h-200
v-140h237q16 0 16 -16v-116q0 -16 -16 -16h-422q-16 0 -16 16v678q0 16 16 16h422q16 0 16 -16v-116q0 -16 -16 -16z" />
    <glyph glyph-name="Igrave" unicode="&#xcc;" horiz-adv-x="355" 
d="M218 777q2 -4 2 -6q0 -9 -12 -9h-78q-16 0 -26 12l-118 135q-4 4 -4 8q0 6 10 6h155q16 0 22 -15zM90 0q-16 0 -16 16v678q0 16 16 16h176q16 0 16 -16v-678q0 -16 -16 -16h-176z" />
    <glyph glyph-name="Iacute" unicode="&#xcd;" horiz-adv-x="355" 
d="M118 757q-16 0 -10 15l49 132q7 15 22 15h157q10 0 10 -5q0 -4 -4 -9l-119 -136q-10 -12 -27 -12h-78zM90 0q-16 0 -16 16v678q0 16 16 16h176q16 0 16 -16v-678q0 -16 -16 -16h-176z" />
    <glyph glyph-name="Icircumflex" unicode="&#xce;" horiz-adv-x="355" 
d="M358 767q4 -4 4 -7q0 -4 -9 -4h-89q-13 0 -22 9l-64 67l-61 -66q-10 -10 -22 -10h-92q-9 0 -9 4q0 3 4 7l105 139q8 10 21 10h109q13 0 21 -10zM266 710q16 0 16 -16v-678q0 -16 -16 -16h-176q-16 0 -16 16v678q0 16 16 16h176z" />
    <glyph glyph-name="Idieresis" unicode="&#xcf;" horiz-adv-x="355" 
d="M79 772q-31 0 -51.5 21.5t-20.5 51.5t20.5 51t51.5 21t51.5 -21t20.5 -51t-20.5 -51.5t-51.5 -21.5zM283 772q-31 0 -51.5 21.5t-20.5 51.5t20.5 51t51.5 21t51.5 -21t20.5 -51t-20.5 -51.5t-51.5 -21.5zM90 0q-16 0 -16 16v678q0 16 16 16h176q16 0 16 -16v-678
q0 -16 -16 -16h-176z" />
    <glyph glyph-name="Eth" unicode="&#xd0;" horiz-adv-x="734" 
d="M290 710q200 0 318 -97.5t118 -252.5q0 -162 -117.5 -261t-318.5 -99h-213q-16 0 -16 16v277h-39q-16 0 -16 16v102q0 16 16 16h39v267q0 16 16 16h213zM295 157q102 0 161.5 52.5t59.5 144.5q0 93 -59.5 146t-161.5 53h-29v-132h102q16 0 16 -16v-90q0 -16 -16 -16h-102
v-142h29z" />
    <glyph glyph-name="Ntilde" unicode="&#xd1;" horiz-adv-x="776" 
d="M206 771q-11 0 -11 11q3 67 33 110t86 43q30 0 91 -34q34 -18 44 -18q26 0 31 37q2 11 12 11h76q11 0 11 -11q-3 -65 -35.5 -109.5t-84.5 -44.5q-28 0 -82 30q-36 19 -48 19q-32 0 -39 -34q-2 -10 -12 -10h-72zM699 710q16 0 16 -16v-678q0 -16 -16 -16h-118
q-15 0 -26 12l-303 375v-371q0 -16 -16 -16h-159q-16 0 -16 16v678q0 16 16 16h118q15 0 26 -12l303 -379v375q0 16 16 16h159z" />
    <glyph glyph-name="Ograve" unicode="&#xd2;" horiz-adv-x="814" 
d="M445 778q2 -4 2 -6q0 -9 -12 -9h-78q-15 0 -26 12l-118 135q-4 4 -4 8q0 6 10 6h155q16 0 22 -15zM405 -8q-155 0 -265.5 102.5t-110.5 261.5t110.5 262t265.5 103t265.5 -103t110.5 -262t-110.5 -261.5t-265.5 -102.5zM405 170q78 0 130 54t52 132q0 79 -52 133t-130 54
t-130 -54t-52 -133q0 -78 52 -132t130 -54z" />
    <glyph glyph-name="Oacute" unicode="&#xd3;" horiz-adv-x="814" 
d="M345 758q-16 0 -10 15l49 132q8 15 22 15h157q10 0 10 -5q0 -4 -4 -9l-119 -136q-10 -12 -27 -12h-78zM405 -8q-155 0 -265.5 102.5t-110.5 261.5t110.5 262t265.5 103t265.5 -103t110.5 -262t-110.5 -261.5t-265.5 -102.5zM405 170q78 0 130 54t52 132q0 79 -52 133
t-130 54t-130 -54t-52 -133q0 -78 52 -132t130 -54z" />
    <glyph glyph-name="Ocircumflex" unicode="&#xd4;" horiz-adv-x="814" 
d="M230 757q-9 0 -9 4q0 3 4 7l105 139q8 10 21 10h109q13 0 21 -10l104 -139q4 -4 4 -7q0 -4 -9 -4h-89q-13 0 -22 9l-64 67l-61 -66q-10 -10 -22 -10h-92zM405 721q155 0 265.5 -103t110.5 -262t-110.5 -261.5t-265.5 -102.5t-265.5 102.5t-110.5 261.5t110.5 262
t265.5 103zM405 170q78 0 130 54t52 132q0 79 -52 133t-130 54t-130 -54t-52 -133q0 -78 52 -132t130 -54z" />
    <glyph glyph-name="Otilde" unicode="&#xd5;" horiz-adv-x="814" 
d="M345 816q-32 0 -39 -34q-2 -10 -12 -10h-72q-11 0 -11 11q3 67 33 110t86 43q30 0 91 -34q34 -18 44 -18q26 0 31 37q2 11 12 11h76q11 0 11 -11q-3 -65 -35.5 -109.5t-84.5 -44.5q-28 0 -82 30q-36 19 -48 19zM405 -8q-155 0 -265.5 102.5t-110.5 261.5t110.5 262
t265.5 103t265.5 -103t110.5 -262t-110.5 -261.5t-265.5 -102.5zM405 170q78 0 130 54t52 132q0 79 -52 133t-130 54t-130 -54t-52 -133q0 -78 52 -132t130 -54z" />
    <glyph glyph-name="Odieresis" unicode="&#xd6;" horiz-adv-x="814" 
d="M306 773q-31 0 -51.5 21.5t-20.5 51.5t20.5 51t51.5 21t51.5 -21t20.5 -51t-20.5 -51.5t-51.5 -21.5zM510 773q-31 0 -51.5 21.5t-20.5 51.5t20.5 51t51.5 21t51.5 -21t20.5 -51t-20.5 -51.5t-51.5 -21.5zM405 -8q-155 0 -265.5 102.5t-110.5 261.5t110.5 262t265.5 103
t265.5 -103t110.5 -262t-110.5 -261.5t-265.5 -102.5zM405 170q78 0 130 54t52 132q0 79 -52 133t-130 54t-130 -54t-52 -133q0 -78 52 -132t130 -54z" />
    <glyph glyph-name="multiply" unicode="&#xd7;" horiz-adv-x="605" 
d="M397 307l159 -159q5 -5 5 -11t-5 -11l-74 -73q-5 -5 -11 -5t-11 5l-158 158l-159 -158q-5 -5 -11 -5t-11 5l-73 74q-5 5 -5 11t5 11l158 158l-158 158q-5 5 -5 11t5 11l73 74q5 5 11 5t11 -5l159 -159l158 158q5 5 11 5t11 -5l74 -73q5 -5 5 -11t-5 -11z" />
    <glyph glyph-name="Oslash" unicode="&#xd8;" horiz-adv-x="814" 
d="M648 638q133 -108 133 -282q0 -159 -110.5 -261.5t-265.5 -102.5q-100 0 -185 45l-43 -60q-9 -13 -25 -13h-66q-3 0 -1 2l78 109q-134 106 -134 281q0 159 110.5 262t265.5 103q100 0 186 -46l42 59q9 13 25 13h51q16 0 7 -13zM223 356q0 -76 49 -128l212 297
q-35 18 -79 18q-78 0 -130 -54t-52 -133zM405 170q78 0 130 54t52 132q0 76 -48 129l-212 -298q36 -17 78 -17z" />
    <glyph glyph-name="Ugrave" unicode="&#xd9;" horiz-adv-x="727" 
d="M400 777q2 -4 2 -6q0 -9 -12 -9h-78q-16 0 -26 12l-118 135q-4 4 -4 8q0 6 10 6h155q16 0 22 -15zM356 -9q-134 0 -216.5 77t-82.5 219v408q0 16 16 16h175q16 0 16 -16v-423q0 -57 27 -87t74 -30t73.5 30t26.5 87v423q0 16 16 16h173q16 0 16 -16v-408
q0 -143 -86.5 -219.5t-227.5 -76.5z" />
    <glyph glyph-name="Uacute" unicode="&#xda;" horiz-adv-x="727" 
d="M300 757q-16 0 -10 15l49 132q7 15 22 15h157q10 0 10 -5q0 -4 -4 -9l-119 -136q-10 -12 -27 -12h-78zM356 -9q-134 0 -216.5 77t-82.5 219v408q0 16 16 16h175q16 0 16 -16v-423q0 -57 27 -87t74 -30t73.5 30t26.5 87v423q0 16 16 16h173q16 0 16 -16v-408
q0 -143 -86.5 -219.5t-227.5 -76.5z" />
    <glyph glyph-name="Ucircumflex" unicode="&#xdb;" horiz-adv-x="727" 
d="M185 756q-9 0 -9 4q0 3 4 7l105 139q8 10 21 10h109q13 0 21 -10l104 -139q4 -4 4 -7q0 -4 -9 -4h-89q-13 0 -22 9l-64 67l-61 -66q-10 -10 -22 -10h-92zM654 711q16 0 16 -16v-408q0 -143 -86.5 -219.5t-227.5 -76.5q-134 0 -216.5 77t-82.5 219v408q0 16 16 16h175
q16 0 16 -16v-423q0 -57 27 -87t74 -30t73.5 30t26.5 87v423q0 16 16 16h173z" />
    <glyph glyph-name="Udieresis" unicode="&#xdc;" horiz-adv-x="727" 
d="M261 772q-31 0 -51.5 21.5t-20.5 51.5t20.5 51t51.5 21t51.5 -21t20.5 -51t-20.5 -51.5t-51.5 -21.5zM465 772q-31 0 -51.5 21.5t-20.5 51.5t20.5 51t51.5 21t51.5 -21t20.5 -51t-20.5 -51.5t-51.5 -21.5zM356 -9q-134 0 -216.5 77t-82.5 219v408q0 16 16 16h175
q16 0 16 -16v-423q0 -57 27 -87t74 -30t73.5 30t26.5 87v423q0 16 16 16h173q16 0 16 -16v-408q0 -143 -86.5 -219.5t-227.5 -76.5z" />
    <glyph glyph-name="Yacute" unicode="&#xdd;" horiz-adv-x="676" 
d="M278 757q-16 0 -10 15l49 132q7 15 22 15h157q10 0 10 -5q0 -4 -4 -9l-119 -136q-10 -12 -27 -12h-78zM251 0q-16 0 -16 16v256l-232 405q-6 11 -6 18q0 16 26 16h172q16 0 23 -14l129 -264l121 263q7 15 23 15h161q26 0 26 -16q0 -7 -6 -18l-230 -405v-256
q0 -16 -16 -16h-175z" />
    <glyph glyph-name="Thorn" unicode="&#xde;" horiz-adv-x="641" 
d="M298 601q152 0 240 -64.5t88 -180.5q0 -114 -87.5 -180.5t-241.5 -66.5h-29v-93q0 -16 -16 -16h-175q-16 0 -16 16v678q0 16 16 16h175q16 0 16 -16v-93h30zM294 258q58 0 89.5 26t31.5 72q0 45 -31.5 70.5t-87.5 25.5h-28v-194h26z" />
    <glyph glyph-name="germandbls" unicode="&#xdf;" horiz-adv-x="682" 
d="M454 -8q-73 0 -136 22q-12 5 -12 18v97q0 21 13 21q7 0 15 -4q42 -18 78 -18q54 0 54 43q0 8 -1.5 14.5t-6.5 13t-8.5 11t-12 11.5t-13 10t-15.5 11t-16 11q-45 30 -64 55t-19 63q0 39 41 100q33 50 33 79q0 24 -17 39t-44 15q-69 0 -69 -86v-502q0 -16 -16 -16h-167
q-16 0 -16 16v511q0 109 69.5 169t188.5 60q111 0 182 -49.5t71 -129.5q0 -54 -42 -116q-32 -48 -32 -68q0 -7 2.5 -14t5.5 -11.5t11 -11t12.5 -10t17.5 -12t20 -13.5q44 -31 67.5 -67t23.5 -87q0 -80 -53.5 -127.5t-144.5 -47.5z" />
    <glyph glyph-name="agrave" unicode="&#xe0;" horiz-adv-x="666" 
d="M252 558l-119 163q-4 6 -4 9q0 8 11 11l133 39q2 1 6 1q11 0 15 -11l86 -210q1 -2 1 -7q0 -8 -11 -8h-93q-16 0 -25 13zM586 480q16 0 16 -16v-448q0 -16 -16 -16h-162q-16 0 -16 16v64q-42 -89 -147 -89q-99 0 -166 71.5t-67 178.5q0 108 66.5 178.5t166.5 70.5
q108 0 147 -82v56q0 16 16 16h162zM320 147q38 0 64 26.5t26 67.5q0 42 -26 67.5t-65 25.5t-65.5 -25.5t-26.5 -66.5q0 -42 27 -68.5t66 -26.5z" />
    <glyph glyph-name="aacute" unicode="&#xe1;" horiz-adv-x="666" 
d="M262 545q-16 0 -10 15l86 210q5 16 21 10l133 -39q11 -3 11 -11q0 -5 -4 -9l-119 -163q-9 -13 -25 -13h-93zM586 480q16 0 16 -16v-448q0 -16 -16 -16h-162q-16 0 -16 16v64q-42 -89 -147 -89q-99 0 -166 71.5t-67 178.5q0 108 66.5 178.5t166.5 70.5q108 0 147 -82v56
q0 16 16 16h162zM320 147q38 0 64 26.5t26 67.5q0 42 -26 67.5t-65 25.5t-65.5 -25.5t-26.5 -66.5q0 -42 27 -68.5t66 -26.5z" />
    <glyph glyph-name="acircumflex" unicode="&#xe2;" horiz-adv-x="666" 
d="M160 549q-9 0 -9 5q0 2 3 7l110 174q6 11 20 11h96q13 0 20 -11l109 -174q3 -5 3 -7q0 -5 -9 -5h-92q-14 0 -21 11l-58 79l-56 -79q-6 -11 -20 -11h-96zM586 480q16 0 16 -16v-448q0 -16 -16 -16h-162q-16 0 -16 16v64q-42 -89 -147 -89q-99 0 -166 71.5t-67 178.5
q0 108 66.5 178.5t166.5 70.5q108 0 147 -82v56q0 16 16 16h162zM320 147q38 0 64 26.5t26 67.5q0 42 -26 67.5t-65 25.5t-65.5 -25.5t-26.5 -66.5q0 -42 27 -68.5t66 -26.5z" />
    <glyph glyph-name="atilde" unicode="&#xe3;" horiz-adv-x="666" 
d="M151 553q-11 0 -11 11q3 72 33 119t86 47q34 0 91 -38q33 -22 45 -22q27 0 30 43q2 11 12 11h76q11 0 11 -11q-3 -70 -35.5 -117t-84.5 -47q-34 0 -81 32q-38 26 -52 26q-30 0 -36 -43q-2 -11 -12 -11h-72zM586 480q16 0 16 -16v-448q0 -16 -16 -16h-162q-16 0 -16 16v64
q-42 -89 -147 -89q-99 0 -166 71.5t-67 178.5q0 108 66.5 178.5t166.5 70.5q108 0 147 -82v56q0 16 16 16h162zM320 147q38 0 64 26.5t26 67.5q0 42 -26 67.5t-65 25.5t-65.5 -25.5t-26.5 -66.5q0 -42 27 -68.5t66 -26.5z" />
    <glyph glyph-name="adieresis" unicode="&#xe4;" horiz-adv-x="666" 
d="M235 586q-31 0 -51.5 21t-20.5 51t20.5 51t51.5 21q30 0 50.5 -21t20.5 -51t-20.5 -51t-50.5 -21zM429 586q-31 0 -51.5 21t-20.5 51t20.5 51t51.5 21q30 0 50.5 -21t20.5 -51t-20.5 -51t-50.5 -21zM586 480q16 0 16 -16v-448q0 -16 -16 -16h-162q-16 0 -16 16v64
q-42 -89 -147 -89q-99 0 -166 71.5t-67 178.5q0 108 66.5 178.5t166.5 70.5q108 0 147 -82v56q0 16 16 16h162zM320 147q38 0 64 26.5t26 67.5q0 42 -26 67.5t-65 25.5t-65.5 -25.5t-26.5 -66.5q0 -42 27 -68.5t66 -26.5z" />
    <glyph glyph-name="aring" unicode="&#xe5;" horiz-adv-x="666" 
d="M332 527q-49 0 -86 33t-37 82q0 48 37 79.5t86 31.5t86.5 -31.5t37.5 -79.5q0 -49 -37.5 -82t-86.5 -33zM332 684q-18 0 -30 -12t-12 -31t12 -32t30 -13q19 0 31 12.5t12 32.5q0 19 -12 31t-31 12zM586 480q16 0 16 -16v-448q0 -16 -16 -16h-162q-16 0 -16 16v64
q-42 -89 -147 -89q-99 0 -166 71.5t-67 178.5q0 108 66.5 178.5t166.5 70.5q108 0 147 -82v56q0 16 16 16h162zM320 147q38 0 64 26.5t26 67.5q0 42 -26 67.5t-65 25.5t-65.5 -25.5t-26.5 -66.5q0 -42 27 -68.5t66 -26.5z" />
    <glyph glyph-name="ae" unicode="&#xe6;" horiz-adv-x="805" 
d="M562 490q94 0 154 -55.5t60 -154.5q0 -16 -5 -56q-4 -16 -19 -16h-261q20 -89 118 -89q83 0 142 39q5 3 8 3q5 0 5 -10v-96q0 -17 -13 -24q-73 -41 -177 -41q-119 0 -187 79q-65 -78 -181 -78q-79 0 -128.5 38.5t-49.5 105.5q0 65 48.5 103.5t142.5 45.5q42 3 91 3
q-15 76 -116 76q-62 0 -114 -25q-2 -1 -7 -1q-7 0 -7 10v97q0 16 15 22q70 24 148 24q114 0 170 -60q65 60 163 60zM554 379q-54 0 -65 -78h122q-5 78 -57 78zM246 101q28 0 47.5 22.5t19.5 74.5v12q-23 -1 -53 -5q-63 -11 -63 -57q0 -22 14 -34.5t35 -12.5z" />
    <glyph glyph-name="ccedilla" unicode="&#xe7;" horiz-adv-x="472" 
d="M408 155q9 4 18 4q16 0 16 -24v-100q0 -15 -12 -20q-40 -19 -109 -24l-15 -25q39 -3 62 -22.5t23 -51.5q0 -42 -37 -67t-93 -25q-50 0 -79 12q-12 4 -12 18v43q0 13 12 8q30 -12 57 -12q39 0 39 23q0 25 -40 25q-19 0 -38 -7l-3 3l46 83q-92 18 -153.5 82.5t-61.5 162.5
q0 114 80.5 181t195.5 67q76 0 120 -19q13 -5 13 -20v-102q0 -24 -14 -24q-6 0 -19 5q-27 12 -62 12q-46 0 -77.5 -28t-31.5 -73t31.5 -71.5t77.5 -26.5q35 0 66 13z" />
    <glyph glyph-name="egrave" unicode="&#xe8;" horiz-adv-x="572" 
d="M210 565l-119 163q-4 6 -4 9q0 8 11 11l133 39q2 1 6 1q11 0 15 -11l86 -210q1 -2 1 -7q0 -8 -11 -8h-93q-16 0 -25 13zM535 259q0 -38 -7.5 -48t-33.5 -10h-272q30 -66 125 -66q55 0 102 13q13 4 26.5 9t21 7.5t10.5 2.5q10 0 10 -14v-97q0 -15 -11 -22
q-72 -42 -194 -42t-203 69.5t-81 179.5t79.5 179.5t189.5 69.5q100 0 169 -58.5t69 -172.5zM296 365q-59 0 -79 -67h152q-5 29 -24 48t-49 19z" />
    <glyph glyph-name="eacute" unicode="&#xe9;" horiz-adv-x="572" 
d="M220 552q-16 0 -10 15l86 210q5 16 21 10l133 -39q11 -3 11 -11q0 -5 -4 -9l-119 -163q-9 -13 -25 -13h-93zM535 259q0 -38 -7.5 -48t-33.5 -10h-272q30 -66 125 -66q55 0 102 13q13 4 26.5 9t21 7.5t10.5 2.5q10 0 10 -14v-97q0 -15 -11 -22q-72 -42 -194 -42t-203 69.5
t-81 179.5t79.5 179.5t189.5 69.5q100 0 169 -58.5t69 -172.5zM296 365q-59 0 -79 -67h152q-5 29 -24 48t-49 19z" />
    <glyph glyph-name="ecircumflex" unicode="&#xea;" horiz-adv-x="572" 
d="M118 556q-9 0 -9 5q0 3 3 7l110 174q6 11 20 11h96q13 0 20 -11l109 -174q3 -4 3 -7q0 -5 -9 -5h-92q-14 0 -21 11l-58 79l-56 -79q-6 -11 -20 -11h-96zM535 259q0 -38 -7.5 -48t-33.5 -10h-272q30 -66 125 -66q55 0 102 13q13 4 26.5 9t21 7.5t10.5 2.5q10 0 10 -14v-97
q0 -15 -11 -22q-72 -42 -194 -42t-203 69.5t-81 179.5t79.5 179.5t189.5 69.5q100 0 169 -58.5t69 -172.5zM296 365q-59 0 -79 -67h152q-5 29 -24 48t-49 19z" />
    <glyph glyph-name="edieresis" unicode="&#xeb;" horiz-adv-x="572" 
d="M193 593q-31 0 -51.5 21t-20.5 51t20.5 51t51.5 21q30 0 50.5 -21t20.5 -51t-20.5 -51t-50.5 -21zM387 593q-31 0 -51.5 21t-20.5 51t20.5 51t51.5 21q30 0 50.5 -21t20.5 -51t-20.5 -51t-50.5 -21zM535 259q0 -38 -7.5 -48t-33.5 -10h-272q30 -66 125 -66q55 0 102 13
q13 4 26.5 9t21 7.5t10.5 2.5q10 0 10 -14v-97q0 -15 -11 -22q-72 -42 -194 -42t-203 69.5t-81 179.5t79.5 179.5t189.5 69.5q100 0 169 -58.5t69 -172.5zM296 365q-59 0 -79 -67h152q-5 29 -24 48t-49 19z" />
    <glyph glyph-name="igrave" unicode="&#xec;" horiz-adv-x="329" 
d="M231 560q1 -2 1 -6q0 -9 -12 -9h-98q-17 0 -24 14l-90 144q-7 12 -7 19q0 18 24 25l116 33q1 0 2.5 0.5t2.5 0.5q12 0 15 -12zM81 0q-16 0 -16 16v448q0 16 16 16h167q16 0 16 -16v-448q0 -16 -16 -16h-167z" />
    <glyph glyph-name="iacute" unicode="&#xed;" horiz-adv-x="329" 
d="M110 545q-16 0 -11 15l70 209q6 15 20 11l116 -33q24 -8 24 -24q0 -9 -7 -20l-90 -144q-7 -14 -24 -14h-98zM81 0q-16 0 -16 16v448q0 16 16 16h167q16 0 16 -16v-448q0 -16 -16 -16h-167z" />
    <glyph glyph-name="icircumflex" unicode="&#xee;" horiz-adv-x="329" 
d="M342 561q3 -5 3 -7q0 -5 -9 -5h-92q-14 0 -21 11l-58 79l-56 -79q-6 -11 -20 -11h-96q-9 0 -9 5q0 2 3 7l110 174q6 11 20 11h96q13 0 20 -11zM248 480q16 0 16 -16v-448q0 -16 -16 -16h-167q-16 0 -16 16v448q0 16 16 16h167z" />
    <glyph glyph-name="idieresis" unicode="&#xef;" horiz-adv-x="329" 
d="M68 586q-31 0 -51.5 21t-20.5 51t20.5 51t51.5 21q30 0 50.5 -21t20.5 -51t-20.5 -51t-50.5 -21zM262 586q-31 0 -51.5 21t-20.5 51t20.5 51t51.5 21q30 0 50.5 -21t20.5 -51t-20.5 -51t-50.5 -21zM81 0q-16 0 -16 16v448q0 16 16 16h167q16 0 16 -16v-448q0 -16 -16 -16
h-167z" />
    <glyph glyph-name="eth" unicode="&#xf0;" horiz-adv-x="598" 
d="M402 632q81 -70 124 -161.5t43 -181.5q0 -136 -78 -217.5t-201 -81.5q-107 0 -184.5 70t-77.5 180q0 103 69 169t165 66q79 0 122 -41l4 2q-50 79 -119 138l-114 -51q-4 -2 -6 -2q-7 0 -11 9l-9 18q-2 4 -2 6q0 6 9 11l92 41q-47 34 -102 59q-7 3 -7 6q0 4 7 5l119 39
q6 2 12 2q10 0 18 -4q47 -21 85 -49l105 47q4 2 6 2q7 0 12 -9l9 -17q2 -6 2 -8q0 -5 -8 -9zM300 140q43 0 70 28.5t27 70.5t-27.5 70.5t-70.5 28.5t-71 -28.5t-28 -70.5t28.5 -70.5t71.5 -28.5z" />
    <glyph glyph-name="ntilde" unicode="&#xf1;" horiz-adv-x="633" 
d="M139 553q-11 0 -11 11q3 72 33 119t86 47q34 0 91 -38q33 -22 45 -22q27 0 30 43q2 11 12 11h76q11 0 11 -11q-3 -70 -35.5 -117t-84.5 -47q-34 0 -81 32q-38 26 -52 26q-30 0 -36 -43q-2 -11 -12 -11h-72zM398 490q88 0 137.5 -50t49.5 -148v-276q0 -16 -16 -16h-166
q-16 0 -16 16v255q0 74 -65 74q-32 0 -50.5 -21t-18.5 -60v-248q0 -16 -16 -16h-167q-16 0 -16 16v448q0 16 16 16h154q16 0 16 -16v-57q48 83 158 83z" />
    <glyph glyph-name="ograve" unicode="&#xf2;" horiz-adv-x="599" 
d="M346 560q1 -2 1 -7q0 -8 -11 -8h-93q-16 0 -25 13l-119 163q-4 6 -4 9q0 8 11 11l133 39q2 1 6 1q11 0 15 -11zM298 -10q-112 0 -191 73.5t-79 178.5t79 176.5t191 71.5t191 -71.5t79 -176.5q0 -107 -77 -179.5t-193 -72.5zM299 146q38 0 64.5 26.5t26.5 67.5
q0 42 -26.5 68t-65.5 26t-65.5 -26t-26.5 -67q0 -42 27 -68.5t66 -26.5z" />
    <glyph glyph-name="oacute" unicode="&#xf3;" horiz-adv-x="599" 
d="M228 545q-16 0 -10 15l86 210q5 16 21 10l133 -39q11 -3 11 -11q0 -5 -4 -9l-119 -163q-9 -13 -25 -13h-93zM298 -10q-112 0 -191 73.5t-79 178.5t79 176.5t191 71.5t191 -71.5t79 -176.5q0 -107 -77 -179.5t-193 -72.5zM299 146q38 0 64.5 26.5t26.5 67.5q0 42 -26.5 68
t-65.5 26t-65.5 -26t-26.5 -67q0 -42 27 -68.5t66 -26.5z" />
    <glyph glyph-name="ocircumflex" unicode="&#xf4;" horiz-adv-x="599" 
d="M126 549q-9 0 -9 5q0 2 3 7l110 174q6 11 20 11h96q13 0 20 -11l109 -174q3 -5 3 -7q0 -5 -9 -5h-92q-14 0 -21 11l-58 79l-56 -79q-6 -11 -20 -11h-96zM298 490q112 0 191 -71.5t79 -176.5q0 -107 -77 -179.5t-193 -72.5q-112 0 -191 73.5t-79 178.5t79 176.5t191 71.5z
M299 146q38 0 64.5 26.5t26.5 67.5q0 42 -26.5 68t-65.5 26t-65.5 -26t-26.5 -67q0 -42 27 -68.5t66 -26.5z" />
    <glyph glyph-name="otilde" unicode="&#xf5;" horiz-adv-x="599" 
d="M370 549q-34 0 -81 32q-38 26 -52 26q-30 0 -36 -43q-2 -11 -12 -11h-72q-11 0 -11 11q3 72 33 119t86 47q34 0 91 -38q33 -22 45 -22q27 0 30 43q2 11 12 11h76q11 0 11 -11q-3 -70 -35.5 -117t-84.5 -47zM298 -10q-112 0 -191 73.5t-79 178.5t79 176.5t191 71.5
t191 -71.5t79 -176.5q0 -107 -77 -179.5t-193 -72.5zM299 146q38 0 64.5 26.5t26.5 67.5q0 42 -26.5 68t-65.5 26t-65.5 -26t-26.5 -67q0 -42 27 -68.5t66 -26.5z" />
    <glyph glyph-name="odieresis" unicode="&#xf6;" horiz-adv-x="599" 
d="M201 586q-31 0 -51.5 21t-20.5 51t20.5 51t51.5 21q30 0 50.5 -21t20.5 -51t-20.5 -51t-50.5 -21zM395 586q-31 0 -51.5 21t-20.5 51t20.5 51t51.5 21q30 0 50.5 -21t20.5 -51t-20.5 -51t-50.5 -21zM298 -10q-112 0 -191 73.5t-79 178.5t79 176.5t191 71.5t191 -71.5
t79 -176.5q0 -107 -77 -179.5t-193 -72.5zM299 146q38 0 64.5 26.5t26.5 67.5q0 42 -26.5 68t-65.5 26t-65.5 -26t-26.5 -67q0 -42 27 -68.5t66 -26.5z" />
    <glyph glyph-name="divide" unicode="&#xf7;" horiz-adv-x="605" 
d="M294 450q-37 0 -61 25t-24 60q0 36 24 61t61 25t61.5 -25t24.5 -61q0 -35 -24.5 -60t-61.5 -25zM52 243q-16 0 -16 16v102q0 16 16 16h501q16 0 16 -16v-102q0 -16 -16 -16h-501zM294 4q-37 0 -61 25t-24 60q0 36 24 61t61 25t61.5 -25t24.5 -61q0 -35 -24.5 -60
t-61.5 -25z" />
    <glyph glyph-name="oslash" unicode="&#xf8;" horiz-adv-x="605" 
d="M466 437q102 -74 102 -195q0 -107 -77 -179.5t-193 -72.5q-51 0 -99 17l-28 -44q-9 -13 -25 -13h-52q-16 0 -7 13l49 77q-50 35 -79 88t-29 114q0 105 79 176.5t191 71.5q57 0 106 -20l31 49q9 13 25 13h51q16 0 7 -13zM299 146q38 0 64.5 26.5t26.5 67.5q0 42 -26.5 68
t-65.5 26t-65.5 -26t-26.5 -67q0 -42 27 -68.5t66 -26.5z" />
    <glyph glyph-name="ugrave" unicode="&#xf9;" horiz-adv-x="624" 
d="M232 558l-119 163q-4 6 -4 9q0 8 11 11l133 39q2 1 6 1q11 0 15 -11l86 -210q1 -2 1 -7q0 -8 -11 -8h-93q-16 0 -25 13zM557 480q16 0 16 -16v-448q0 -16 -16 -16h-147q-16 0 -17 16l-2 61q-48 -86 -156 -86q-85 0 -134 51t-49 146v276q0 16 16 16h167q16 0 16 -16v-264
q0 -73 61 -73q30 0 46.5 20t16.5 53v264q0 16 16 16h166z" />
    <glyph glyph-name="uacute" unicode="&#xfa;" horiz-adv-x="624" 
d="M242 545q-16 0 -10 15l86 210q5 16 21 10l133 -39q11 -3 11 -11q0 -5 -4 -9l-119 -163q-9 -13 -25 -13h-93zM557 480q16 0 16 -16v-448q0 -16 -16 -16h-147q-16 0 -17 16l-2 61q-48 -86 -156 -86q-85 0 -134 51t-49 146v276q0 16 16 16h167q16 0 16 -16v-264
q0 -73 61 -73q30 0 46.5 20t16.5 53v264q0 16 16 16h166z" />
    <glyph glyph-name="ucircumflex" unicode="&#xfb;" horiz-adv-x="624" 
d="M140 549q-9 0 -9 5q0 2 3 7l110 174q6 11 20 11h96q13 0 20 -11l109 -174q3 -5 3 -7q0 -5 -9 -5h-92q-14 0 -21 11l-58 79l-56 -79q-6 -11 -20 -11h-96zM557 480q16 0 16 -16v-448q0 -16 -16 -16h-147q-16 0 -17 16l-2 61q-48 -86 -156 -86q-85 0 -134 51t-49 146v276
q0 16 16 16h167q16 0 16 -16v-264q0 -73 61 -73q30 0 46.5 20t16.5 53v264q0 16 16 16h166z" />
    <glyph glyph-name="udieresis" unicode="&#xfc;" horiz-adv-x="624" 
d="M215 586q-31 0 -51.5 21t-20.5 51t20.5 51t51.5 21q30 0 50.5 -21t20.5 -51t-20.5 -51t-50.5 -21zM409 586q-31 0 -51.5 21t-20.5 51t20.5 51t51.5 21q30 0 50.5 -21t20.5 -51t-20.5 -51t-50.5 -21zM557 480q16 0 16 -16v-448q0 -16 -16 -16h-147q-16 0 -17 16l-2 61
q-48 -86 -156 -86q-85 0 -134 51t-49 146v276q0 16 16 16h167q16 0 16 -16v-264q0 -73 61 -73q30 0 46.5 20t16.5 53v264q0 16 16 16h166z" />
    <glyph glyph-name="yacute" unicode="&#xfd;" horiz-adv-x="584" 
d="M216 545q-16 0 -10 15l86 210q5 16 21 10l133 -39q11 -3 11 -11q0 -5 -4 -9l-119 -163q-9 -13 -25 -13h-93zM572 480q16 0 9 -15l-206 -462q-49 -107 -107.5 -155t-139.5 -48q-60 0 -97 16q-15 7 -15 23v113q0 16 15 10q46 -16 85 -16q63 0 95 66l-215 454q-2 4 -2 7
q0 7 11 7h173q16 0 22 -15l92 -246l95 246q6 15 22 15h163z" />
    <glyph glyph-name="thorn" unicode="&#xfe;" horiz-adv-x="640" 
d="M385 489q100 0 163 -70.5t63 -178.5t-64 -178.5t-164 -70.5q-87 0 -135 54v-227q0 -16 -16 -16h-162q-16 0 -16 16v911q0 16 16 16h151q16 0 16 -16v-310q51 70 148 70zM325 140q38 0 61 27.5t23 71.5q0 45 -23.5 72.5t-61.5 27.5t-61 -27.5t-23 -72.5t23 -72t62 -27z
" />
    <glyph glyph-name="ydieresis" unicode="&#xff;" horiz-adv-x="584" 
d="M189 586q-31 0 -51.5 21t-20.5 51t20.5 51t51.5 21q30 0 50.5 -21t20.5 -51t-20.5 -51t-50.5 -21zM383 586q-31 0 -51.5 21t-20.5 51t20.5 51t51.5 21q30 0 50.5 -21t20.5 -51t-20.5 -51t-50.5 -21zM572 480q16 0 9 -15l-206 -462q-49 -107 -107.5 -155t-139.5 -48
q-60 0 -97 16q-15 7 -15 23v113q0 16 15 10q46 -16 85 -16q63 0 95 66l-215 454q-2 4 -2 7q0 7 11 7h173q16 0 22 -15l92 -246l95 246q6 15 22 15h163z" />
    <glyph glyph-name="abreve" unicode="&#x103;" horiz-adv-x="666" 
d="M332 560q-65 0 -110.5 44.5t-54.5 120.5v3q0 10 12 10l64 -1q12 0 16 -13q14 -53 72 -53t73 53q3 13 16 13l64 1q13 0 12 -13q-9 -76 -54 -120.5t-110 -44.5zM586 480q16 0 16 -16v-448q0 -16 -16 -16h-162q-16 0 -16 16v64q-42 -89 -147 -89q-99 0 -166 71.5t-67 178.5
q0 108 66.5 178.5t166.5 70.5q108 0 147 -82v56q0 16 16 16h162zM320 147q38 0 64 26.5t26 67.5q0 42 -26 67.5t-65 25.5t-65.5 -25.5t-26.5 -66.5q0 -42 27 -68.5t66 -26.5z" />
    <glyph glyph-name="eogonek" unicode="&#x119;" horiz-adv-x="572" 
d="M535 259q0 -38 -7.5 -48t-33.5 -10h-272q30 -66 125 -66q55 0 102 13q13 4 26.5 9t21 7.5t10.5 2.5q10 0 10 -14v-97q0 -15 -11 -22q-39 -23 -107 -34q-86 -44 -86 -88q0 -31 38 -31q3 0 36 6q1 0 3 1h1q9 0 9 -12v-47q0 -14 -12 -18q-25 -11 -62 -11q-60 0 -98 26.5
t-38 73.5q0 58 64 97q-100 16 -163 82t-63 162q0 110 79.5 179.5t189.5 69.5q100 0 169 -58.5t69 -172.5zM296 365q-59 0 -79 -67h152q-5 29 -24 48t-49 19z" />
    <glyph glyph-name="idotless" unicode="&#x131;" horiz-adv-x="329" 
d="M81 0q-16 0 -16 16v448q0 16 16 16h167q16 0 16 -16v-448q0 -16 -16 -16h-167z" />
    <glyph glyph-name="Lslash" unicode="&#x141;" horiz-adv-x="518" 
d="M484 165q16 0 16 -16v-133q0 -16 -16 -16h-407q-16 0 -16 16v271l-39 -15q-2 -1 -6 -1q-9 0 -9 11v61q0 16 15 22l39 15v314q0 16 16 16h175q16 0 16 -16v-236l49 19q4 2 6 2q9 0 9 -12v-60q0 -16 -15 -22l-49 -19v-201h216z" />
    <glyph glyph-name="lslash" unicode="&#x142;" horiz-adv-x="358" 
d="M329 148q6 2 7 2q9 0 9 -12v-108q0 -19 -15 -24q-45 -16 -104 -16q-82 0 -126.5 44.5t-44.5 134.5v133l-43 -16q-2 -1 -6 -1q-9 0 -9 11v61q0 16 15 22l43 16v335q0 16 16 16h166q16 0 16 -16v-260l54 21q4 2 6 2q9 0 9 -12v-60q0 -16 -15 -22l-54 -21v-183q0 -52 45 -52
q14 0 31 5z" />
    <glyph glyph-name="OE" unicode="&#x152;" horiz-adv-x="950" 
d="M895 569h-230v-137h193q16 0 16 -16v-109q0 -16 -16 -16h-193v-150h230q16 0 16 -16v-109q0 -16 -16 -16h-437q-187 0 -308 97.5t-121 259.5q0 160 121 256.5t308 96.5h437q16 0 16 -16v-109q0 -16 -16 -16zM464 158v394q-107 0 -167.5 -52.5t-60.5 -142.5
q0 -91 60.5 -145t167.5 -54z" />
    <glyph glyph-name="oe" unicode="&#x153;" horiz-adv-x="924" 
d="M895 256q0 -34 -8.5 -45t-34.5 -11h-252q24 -71 119 -71q81 0 151 31q6 2 7 2q7 0 7 -10v-98q0 -16 -13 -25q-66 -39 -172 -39q-72 0 -132.5 31t-90.5 88q-25 -56 -80.5 -87.5t-124.5 -31.5q-101 0 -172 71.5t-71 180.5q0 108 71.5 178t173.5 70q66 0 119.5 -31.5
t81.5 -86.5q28 54 81.5 86t117.5 32q92 0 157 -60.5t65 -173.5zM670 361q-53 0 -71 -63h139q-13 63 -68 63zM288 146q38 0 61.5 27.5t23.5 67.5q0 39 -23 66t-62 27q-40 0 -63 -27t-23 -66q0 -40 23 -67.5t63 -27.5z" />
    <glyph glyph-name="Scaron" unicode="&#x160;" horiz-adv-x="570" 
d="M227 768l-118 136q-3 4 -3 7q0 5 9 5h89q17 0 28 -11l57 -55l53 55q11 11 27 11h85q16 0 6 -12l-117 -136q-9 -12 -26 -12h-64q-16 0 -26 12zM341 436q104 -43 153 -91.5t49 -125.5q0 -98 -77 -163.5t-205 -65.5q-122 0 -211 42q-14 6 -14 24v138q0 11 6 11q2 0 8 -2
q99 -57 194 -57q43 0 68 16t25 45q0 20 -14.5 35.5t-30.5 23.5t-50 21q-104 42 -155.5 92t-51.5 130q0 97 78 154t196 57q90 0 175 -27q15 -7 15 -22v-129q0 -12 -7 -12q-1 0 -7 2q-80 35 -159 35q-40 0 -62 -14.5t-22 -38.5q0 -7 2.5 -14t5.5 -12t10.5 -10.5t12 -9t15.5 -9
t16.5 -8t18.5 -8t18 -7.5z" />
    <glyph glyph-name="scaron" unicode="&#x161;" horiz-adv-x="478" 
d="M173 551l-104 162q-3 4 -3 7q0 6 10 6h97q15 0 26 -12l48 -57l44 56q11 13 26 13h93q16 0 7 -13l-104 -164q-6 -11 -20 -11h-95q-16 0 -25 13zM307 304q75 -19 113 -50.5t38 -93.5q0 -75 -62 -121.5t-168 -46.5q-102 0 -174 30q-12 5 -12 19v115q0 11 6 11q3 0 8 -3
q75 -39 162 -39q43 0 43 24q0 13 -20 21q-10 3 -41 11l-9 3q-77 19 -116.5 52t-39.5 95q0 77 66 118t170 41q81 0 146 -20q12 -3 12 -17v-104v-3q0 -8 -7 -8q-5 0 -7 1q-65 24 -125 24q-52 0 -52 -25q0 -7 5.5 -12t14 -8t31.5 -9q11 -3 18 -5z" />
    <glyph glyph-name="Ydieresis" unicode="&#x178;" horiz-adv-x="676" 
d="M239 772q-31 0 -51.5 21.5t-20.5 51.5t20.5 51t51.5 21t51.5 -21t20.5 -51t-20.5 -51.5t-51.5 -21.5zM443 772q-31 0 -51.5 21.5t-20.5 51.5t20.5 51t51.5 21t51.5 -21t20.5 -51t-20.5 -51.5t-51.5 -21.5zM251 0q-16 0 -16 16v256l-232 405q-6 11 -6 18q0 16 26 16h172
q16 0 23 -14l129 -264l121 263q7 15 23 15h161q26 0 26 -16q0 -7 -6 -18l-230 -405v-256q0 -16 -16 -16h-175z" />
    <glyph glyph-name="Zcaron" unicode="&#x17d;" horiz-adv-x="628" 
d="M258 768l-118 136q-3 4 -3 7q0 5 9 5h89q17 0 28 -11l57 -55l53 55q11 11 27 11h85q17 0 6 -12l-117 -136q-9 -12 -26 -12h-64q-16 0 -26 12zM566 146q16 0 16 -16v-114q0 -16 -16 -16h-511q-16 0 -16 16v57q0 14 8 30l289 461h-267q-16 0 -16 16v114q0 16 16 16h487
q16 0 16 -16v-57q0 -15 -9 -30l-290 -461h293z" />
    <glyph glyph-name="zcaron" unicode="&#x17e;" horiz-adv-x="523" 
d="M172 551l-104 162q-3 4 -3 7q0 6 10 6h97q16 0 26 -12l48 -57l44 56q11 13 26 13h93q16 0 7 -13l-104 -164q-6 -11 -20 -11h-95q-16 0 -25 13zM459 152q16 0 16 -16v-120q0 -16 -16 -16h-418q-16 0 -16 16v30q0 16 9 29l180 253h-160q-16 0 -16 16v120q0 16 16 16h401
q16 0 16 -16v-30q0 -16 -9 -29l-181 -253h178z" />
    <glyph glyph-name="florin" unicode="&#x192;" horiz-adv-x="554" 
d="M514 742q15 -6 15 -21v-88q0 -29 -26 -29q-7 0 -11 1q-16 2 -25 2q-32 0 -49.5 -20t-23.5 -62l-7 -45h110q16 0 16 -16v-98q0 -16 -16 -16h-128l-49 -333q-16 -113 -67.5 -165t-146.5 -52q-62 0 -103 12q-15 3 -15 21v112q0 15 15 11q21 -7 46 -7q32 0 49.5 20t23.5 62
l46 319h-89q-16 0 -16 16v98q0 16 16 16h108l9 59q16 113 67.5 165t146.5 52q50 0 104 -14z" />
    <glyph glyph-name="circumflex" unicode="&#x2c6;" horiz-adv-x="500" 
d="M427 561q3 -5 3 -7q0 -5 -9 -5h-92q-14 0 -21 11l-58 79l-56 -79q-6 -11 -20 -11h-96q-9 0 -9 5q0 2 3 7l110 174q6 11 20 11h96q13 0 20 -11z" />
    <glyph glyph-name="caron" unicode="&#x2c7;" horiz-adv-x="500" 
d="M416 726q16 0 7 -13l-104 -164q-6 -11 -20 -11h-95q-16 0 -25 13l-104 162q-3 4 -3 7q0 6 10 6h97q15 0 26 -12l48 -57l44 56q11 13 26 13h93z" />
    <glyph glyph-name="breve" unicode="&#x2d8;" horiz-adv-x="500" 
d="M250 560q-65 0 -110.5 44.5t-54.5 120.5v3q0 10 12 10l64 -1q12 0 16 -13q14 -53 72 -53t73 53q3 13 16 13l64 1q13 0 12 -13q-9 -76 -54 -120.5t-110 -44.5z" />
    <glyph glyph-name="dotaccent" unicode="&#x2d9;" horiz-adv-x="500" 
d="M252 580q-36 0 -60 25t-24 60q0 36 24 61t60 25t60.5 -25t24.5 -61q0 -35 -24.5 -60t-60.5 -25z" />
    <glyph glyph-name="ring" unicode="&#x2da;" horiz-adv-x="500" 
d="M249 527q-49 0 -86 33t-37 82q0 48 37 79.5t86 31.5t86.5 -31.5t37.5 -79.5q0 -49 -37.5 -82t-86.5 -33zM249 596q19 0 31 12.5t12 32.5q0 19 -12 31t-31 12q-18 0 -30 -12t-12 -31t12 -32t30 -13z" />
    <glyph glyph-name="ogonek" unicode="&#x2db;" horiz-adv-x="500" 
d="M274 -200q-60 0 -98 26.5t-38 73.5q0 97 174 140l55 -31q-106 -48 -106 -97q0 -31 38 -31q3 0 36 6q1 0 3 1h1q9 0 9 -12v-47q0 -14 -12 -18q-25 -11 -62 -11z" />
    <glyph glyph-name="tilde" unicode="&#x2dc;" horiz-adv-x="500" 
d="M322 549q-34 0 -81 32q-38 26 -52 26q-30 0 -36 -43q-2 -11 -12 -11h-72q-11 0 -11 11q3 72 33 119t86 47q34 0 91 -38q33 -22 45 -22q27 0 30 43q2 11 12 11h76q11 0 11 -11q-3 -70 -35.5 -117t-84.5 -47z" />
    <glyph glyph-name="hungarumlaut" unicode="&#x2dd;" horiz-adv-x="500" 
d="M245 546q-15 0 -11 15l68 208q6 15 21 12l137 -31q11 -2 11 -10q0 -4 -3 -9l-113 -172q-9 -13 -25 -13h-85zM49 546q-16 0 -12 15l55 208q4 15 20 11l124 -30q12 -2 12 -12q0 -2 -2 -8l-84 -170q-7 -14 -23 -14h-90z" />
    <glyph glyph-name="gravecomb" unicode="&#x300;" 
d="M47 560q1 -2 1 -7q0 -8 -11 -8h-93q-16 0 -25 13l-119 163q-4 6 -4 9q0 8 11 11l133 39q2 1 6 1q11 0 15 -11z" />
    <glyph glyph-name="acutecomb" unicode="&#x301;" 
d="M-69 545q-16 0 -10 15l86 210q5 16 21 10l133 -39q11 -3 11 -11q0 -5 -4 -9l-119 -163q-9 -13 -25 -13h-93z" />
    <glyph glyph-name="circumflexcomb" unicode="&#x302;" 
d="M177 561q3 -5 3 -7q0 -5 -9 -5h-92q-14 0 -21 11l-58 79l-56 -79q-6 -11 -20 -11h-96q-9 0 -9 5q0 2 3 7l110 174q6 11 20 11h96q13 0 20 -11z" />
    <glyph glyph-name="tildecomb" unicode="&#x303;" 
d="M72 549q-34 0 -81 32q-38 26 -52 26q-30 0 -36 -43q-2 -11 -12 -11h-72q-11 0 -11 11q3 72 33 119t86 47q34 0 91 -38q33 -22 45 -22q27 0 30 43q2 11 12 11h76q11 0 11 -11q-3 -70 -35.5 -117t-84.5 -47z" />
    <glyph glyph-name="macroncomb" unicode="&#x304;" 
d="M-156 592q-16 0 -16 16v77q0 16 16 16h311q16 0 16 -16v-77q0 -16 -16 -16h-311z" />
    <glyph glyph-name="brevecomb" unicode="&#x306;" 
d="M0 560q-65 0 -110.5 44.5t-54.5 120.5v3q0 10 12 10l64 -1q12 0 16 -13q14 -53 72 -53t73 53q3 13 16 13l64 1q13 0 12 -13q-9 -76 -54 -120.5t-110 -44.5z" />
    <glyph glyph-name="dotaccentcomb" unicode="&#x307;" 
d="M2 580q-36 0 -60 25t-24 60q0 36 24 61t60 25t60.5 -25t24.5 -61q0 -35 -24.5 -60t-60.5 -25z" />
    <glyph glyph-name="dieresiscomb" unicode="&#x308;" 
d="M-97 586q-31 0 -51.5 21t-20.5 51t20.5 51t51.5 21q30 0 50.5 -21t20.5 -51t-20.5 -51t-50.5 -21zM97 586q-31 0 -51.5 21t-20.5 51t20.5 51t51.5 21q30 0 50.5 -21t20.5 -51t-20.5 -51t-50.5 -21z" />
    <glyph glyph-name="ringcomb" unicode="&#x30a;" 
d="M-1 527q-49 0 -86 33t-37 82q0 48 37 79.5t86 31.5t86.5 -31.5t37.5 -79.5q0 -49 -37.5 -82t-86.5 -33zM-1 596q19 0 31 12.5t12 32.5q0 19 -12 31t-31 12q-18 0 -30 -12t-12 -31t12 -32t30 -13z" />
    <glyph glyph-name="hungarumlautcomb" unicode="&#x30b;" 
d="M35 546q-15 0 -11 15l68 208q6 15 21 12l137 -31q11 -2 11 -10q0 -4 -3 -9l-113 -172q-9 -13 -25 -13h-85zM-161 546q-17 0 -12 15l55 208q4 15 20 11l124 -30q12 -2 12 -12q0 -2 -2 -8l-84 -170q-7 -14 -23 -14h-90z" />
    <glyph glyph-name="caroncomb" unicode="&#x30c;" 
d="M166 726q16 0 7 -13l-104 -164q-6 -11 -20 -11h-95q-16 0 -25 13l-104 162q-3 5 -3 7q0 6 10 6h97q15 0 26 -12l48 -57l44 56q11 13 26 13h93z" />
    <glyph glyph-name="cedillacomb" unicode="&#x327;" horiz-adv-x="147" 
d="M97 -34q39 -3 62 -22.5t23 -51.5q0 -42 -37 -67t-93 -25q-50 0 -79 12q-12 5 -12 18v43q0 13 12 8q30 -12 57 -12q39 0 39 23q0 25 -40 25q-19 0 -38 -7l-3 3l65 118h81z" />
    <glyph glyph-name="ogonekcomb" unicode="&#x328;" 
d="M17 -200q-60 0 -98 26.5t-38 73.5q0 97 174 140l55 -31q-106 -48 -106 -97q0 -31 38 -31q3 0 36 6q1 0 2 1h2q9 0 9 -12v-47q0 -14 -12 -18q-25 -11 -62 -11z" />
    <glyph glyph-name="slashshortcomb" unicode="&#x337;" 
d="M-209 -42q-10 0 -10 6q0 4 3 8l348 555q9 14 25 14h51q15 0 8 -14l-349 -555q-7 -14 -24 -14h-52z" />
    <glyph glyph-name="slashlongcomb" unicode="&#x338;" 
d="M-319 -39q-3 0 -1 2l548 768q9 13 25 13h51q16 0 7 -13l-539 -757q-9 -13 -25 -13h-66z" />
    <glyph glyph-name="Delta" unicode="&#x394;" horiz-adv-x="634" 
d="M34 0q-16 0 -16 16v54q0 14 5 31l217 595q6 15 21 15h112q17 0 21 -15l218 -595q5 -13 5 -31v-54q0 -16 -16 -16h-567zM210 136h214l-107 340z" />
    <glyph glyph-name="Omega" unicode="&#x3a9;" horiz-adv-x="778" 
d="M40 0q-16 0 -16 16v119q0 16 16 16h144v26q-64 30 -107 91.5t-43 144.5q0 135 103 221.5t251 86.5q147 0 250 -86.5t103 -221.5q0 -83 -43 -144.5t-107 -91.5v-26h144q16 0 16 -16v-119q0 -16 -16 -16h-297q-16 0 -16 16v150q0 15 14 25q102 69 102 188q0 75 -41.5 123
t-108.5 48q-68 0 -109.5 -48t-41.5 -123q0 -118 103 -189q14 -7 14 -24v-150q0 -16 -16 -16h-298z" />
    <glyph glyph-name="mu" unicode="&#x3bc;" horiz-adv-x="629" 
d="M561 480q16 0 16 -16v-448q0 -16 -16 -16h-135q-17 0 -18 16l-6 41h-4q-31 -66 -98 -66q-42 0 -68 22l20 -187v-3q0 -13 -14 -13h-173q-16 0 -15 16l20 209l-14 429v2q0 14 15 14h167q16 0 16 -16v-267q0 -73 59 -73q32 0 49 23t17 64v253q0 16 16 16h166z" />
    <glyph glyph-name="pi" unicode="&#x3c0;" horiz-adv-x="680" 
d="M628 147q2 1 7 1q9 0 9 -12v-94q0 -18 -13 -26q-42 -26 -105 -26q-72 0 -117 44.5t-45 123.5v188h-94v-330q0 -16 -16 -16h-159q-16 0 -16 16v330h-61q-16 0 -16 16v102q0 16 16 16h596q16 0 16 -16v-102q0 -16 -16 -16h-59v-151q0 -52 44 -52q17 0 29 4z" />
    <glyph glyph-name="enspace" unicode="&#x2002;" horiz-adv-x="500" 
 />
    <glyph glyph-name="emspace" unicode="&#x2003;" horiz-adv-x="1000" 
 />
    <glyph glyph-name="threeperemspace" unicode="&#x2004;" horiz-adv-x="423" 
 />
    <glyph glyph-name="fourperemspace" unicode="&#x2005;" horiz-adv-x="250" 
 />
    <glyph glyph-name="thinspace" unicode="&#x2009;" horiz-adv-x="101" 
 />
    <glyph glyph-name="hairspace" unicode="&#x200a;" horiz-adv-x="68" 
 />
    <glyph glyph-name="endash" unicode="&#x2013;" horiz-adv-x="613" 
d="M83 187q-16 0 -16 16v102q0 16 16 16h447q16 0 16 -16v-102q0 -16 -16 -16h-447z" />
    <glyph glyph-name="emdash" unicode="&#x2014;" horiz-adv-x="963" 
d="M83 187q-16 0 -16 16v100q0 16 16 16h797q16 0 16 -16v-100q0 -16 -16 -16h-797z" />
    <glyph glyph-name="quoteleft" unicode="&#x2018;" horiz-adv-x="316" 
d="M172 538q32 -9 52.5 -34.5t20.5 -58.5q0 -43 -29.5 -73t-70.5 -30q-44 0 -74.5 29.5t-30.5 74.5q0 35 38 109l75 149q8 16 24 16h26q17 0 17 -13q0 -5 -1 -8z" />
    <glyph glyph-name="quoteright" unicode="&#x2019;" horiz-adv-x="316" 
d="M172 720q44 0 74.5 -29.5t30.5 -74.5q0 -35 -38 -109l-75 -149q-8 -16 -24 -16h-26q-17 0 -17 13q0 5 1 8l47 161q-32 9 -52.5 34.5t-20.5 58.5q0 43 30 73t70 30z" />
    <glyph glyph-name="quotesinglbase" unicode="&#x201a;" horiz-adv-x="303" 
d="M149 192q44 0 74.5 -29.5t30.5 -74.5q0 -35 -38 -109l-75 -149q-8 -16 -24 -16h-26q-17 0 -17 13q0 5 1 8l47 161q-32 9 -52.5 34.5t-20.5 58.5q0 43 29.5 73t70.5 30z" />
    <glyph glyph-name="quotedblleft" unicode="&#x201c;" horiz-adv-x="569" 
d="M173 528q32 -9 52.5 -34.5t20.5 -58.5q0 -43 -30 -73t-70 -30q-44 0 -74.5 29.5t-30.5 74.5q0 35 38 109l75 149q8 16 24 16h26q17 0 17 -13q0 -5 -1 -8zM427 528q32 -9 52.5 -34.5t20.5 -58.5q0 -43 -30 -73t-70 -30q-44 0 -74.5 29.5t-30.5 74.5q0 35 38 109l75 149
q8 16 24 16h26q17 0 17 -13q0 -5 -1 -8z" />
    <glyph glyph-name="quotedblright" unicode="&#x201d;" horiz-adv-x="569" 
d="M172 720q44 0 74.5 -29.5t30.5 -74.5q0 -35 -38 -109l-75 -149q-8 -16 -24 -16h-26q-17 0 -17 13q0 5 1 8l47 161q-32 9 -52.5 34.5t-20.5 58.5q0 43 30 73t70 30zM426 720q44 0 74.5 -29.5t30.5 -74.5q0 -35 -38 -109l-75 -149q-8 -16 -24 -16h-26q-17 0 -17 13q0 5 1 8
l47 161q-32 9 -52.5 34.5t-20.5 58.5q0 43 30 73t70 30z" />
    <glyph glyph-name="quotedblbase" unicode="&#x201e;" horiz-adv-x="556" 
d="M146 192q44 0 74.5 -29.5t30.5 -74.5q0 -35 -38 -109l-75 -149q-8 -16 -24 -16h-26q-17 0 -17 13q0 5 1 8l47 161q-32 9 -52.5 34.5t-20.5 58.5q0 43 30 73t70 30zM400 192q44 0 74.5 -29.5t30.5 -74.5q0 -35 -38 -109l-75 -149q-8 -16 -24 -16h-26q-17 0 -17 13q0 5 1 8
l47 161q-32 9 -52.5 34.5t-20.5 58.5q0 43 30 73t70 30z" />
    <glyph glyph-name="dagger" unicode="&#x2020;" horiz-adv-x="409" 
d="M369 604h2q14 0 14 -15v-96q0 -16 -16 -15l-89 5v-240q0 -16 -16 -16h-120q-16 0 -16 16l-1 240l-88 -5h-2q-14 0 -14 15v96q0 16 16 15l88 -4v94q0 16 16 16h121q16 0 16 -16v-94z" />
    <glyph glyph-name="daggerdbl" unicode="&#x2021;" horiz-adv-x="409" 
d="M369 504l-89 5v-82l89 4h2q14 0 14 -15v-96q0 -16 -16 -15l-89 4v-66q0 -16 -16 -16h-120q-16 0 -16 16v66l-89 -4h-2q-14 0 -14 15v96q0 16 16 15l89 -4v82l-89 -5h-2q-14 0 -14 15v96q0 16 16 15l89 -4v68q0 16 16 16h120q16 0 16 -16v-68l89 4h2q14 0 14 -15v-96
q0 -16 -16 -15z" />
    <glyph glyph-name="bullet" unicode="&#x2022;" horiz-adv-x="394" 
d="M198 87q-64 0 -106 43.5t-42 106.5t42 106.5t106 43.5t106.5 -43.5t42.5 -106.5q0 -62 -42.5 -106t-106.5 -44z" />
    <glyph glyph-name="ellipsis" unicode="&#x2026;" horiz-adv-x="846" 
d="M148 -8q-43 0 -71 29t-28 71t28 71t71 29q42 0 70.5 -29t28.5 -71t-28.5 -71t-70.5 -29zM424 -8q-43 0 -71 29t-28 71t28 71t71 29q42 0 70.5 -29t28.5 -71t-28.5 -71t-70.5 -29zM699 -8q-43 0 -71 29t-28 71t28 71t71 29q42 0 70.5 -29t28.5 -71t-28.5 -71t-70.5 -29z
" />
    <glyph glyph-name="perthousand" unicode="&#x2030;" horiz-adv-x="1134" 
d="M111 2q-7 5 -7 12q0 6 3 10l516 701q4 7 13 7q7 0 10 -2l28 -19q8 -5 8 -12q0 -5 -3 -9l-517 -702q-5 -7 -12 -7q-6 0 -10 3zM204 394q-65 0 -110.5 44.5t-45.5 117.5t45.5 118.5t110.5 45.5q64 0 110 -45.5t46 -118.5q0 -72 -46 -117t-110 -45zM204 486q45 0 45 70
q0 71 -45 71q-22 0 -34 -19.5t-12 -51.5q0 -31 12 -50.5t34 -19.5zM581 -10q-64 0 -109.5 45t-45.5 117q0 73 45.5 118.5t109.5 45.5q65 0 111 -45.5t46 -118.5q0 -72 -46 -117t-111 -45zM930 -10q-64 0 -110 45t-46 117q0 73 46 118.5t110 45.5t110 -45.5t46 -118.5
q0 -72 -46 -117t-110 -45zM581 83q22 0 34 19t12 50q0 32 -12 52t-34 20q-21 0 -33.5 -20t-12.5 -52q0 -30 12.5 -49.5t33.5 -19.5zM930 83q22 0 34 19t12 50q0 32 -12 52t-34 20t-34 -20t-12 -52q0 -30 12 -49.5t34 -19.5z" />
    <glyph glyph-name="guilsinglleft" unicode="&#x2039;" horiz-adv-x="413" 
d="M270 24q-4 -6 -10 -6t-11 6l-210 249q-4 5 -4 12t5 12l208 229q4 6 12 6q6 0 11 -5l68 -61q7 -7 7 -13q0 -3 -4 -11l-111 -157l111 -159q4 -6 4 -12q0 -7 -6 -13z" />
    <glyph glyph-name="guilsinglright" unicode="&#x203a;" horiz-adv-x="413" 
d="M164 24q-4 -6 -10 -6q-5 0 -11 6l-70 77q-6 8 -6 14t4 11l111 159l-111 157q-3 4 -3 10q0 8 6 14l68 61q7 5 11 5q6 0 12 -6l208 -229q5 -7 5 -13t-4 -11z" />
    <glyph glyph-name="fraction" unicode="&#x2044;" horiz-adv-x="112" 
d="M-230 2q-7 5 -7 12q0 6 3 10l516 701q4 7 13 7q7 0 10 -2l28 -19q8 -5 8 -12q0 -5 -3 -9l-517 -702q-5 -7 -12 -7q-5 0 -10 3z" />
    <glyph glyph-name="euro" unicode="&#x20ac;" horiz-adv-x="585" 
d="M512 163q9 3 16 3q20 0 20 -27v-100q0 -16 -14 -23q-64 -25 -149 -25q-110 0 -195 65.5t-117 179.5h-53q-15 0 -15 15v63q0 15 15 15h39q-1 9 -1 27q0 20 1 29h-39q-15 0 -15 15v66q0 15 15 15h55q33 112 119.5 175.5t198.5 63.5q69 0 129 -18q15 -4 15 -21v-100
q0 -27 -22 -27q-2 0 -14 2q-35 8 -76 8q-100 0 -149 -83h238q15 0 15 -15v-66q0 -15 -15 -15h-267q-1 -9 -1 -28t1 -28h267q15 0 15 -15v-63q0 -15 -15 -15h-242q45 -87 151 -87q43 0 89 14z" />
    <glyph glyph-name="trademark" unicode="&#x2122;" horiz-adv-x="869" 
d="M319 710q13 0 13 -13v-71q0 -13 -13 -13h-81v-262q0 -13 -13 -13h-102q-13 0 -13 13v262h-81q-13 0 -13 13v71q0 13 13 13h290zM845 351q0 -1 0.5 -2.5t0.5 -2.5q0 -8 -11 -8h-102q-12 0 -15 13l-23 186l-59 -179q-3 -12 -17 -12h-54q-13 0 -17 12l-63 173l-30 -180
q-2 -13 -15 -13h-92q-12 0 -11 13l67 346q2 13 15 13h98q13 0 17 -12l61 -189l57 189q5 12 17 12h90q13 0 16 -13z" />
    <glyph glyph-name="oneeighth" unicode="&#x215b;" horiz-adv-x="867" 
d="M705 711q8 -5 8 -12q0 -5 -3 -9l-517 -702q-5 -7 -12 -7q-5 0 -10 3l-29 18q-7 5 -7 12q0 6 3 10l516 701q4 7 13 7q7 0 10 -2zM138 318v265l-73 -27q-4 -2 -6 -2q-9 0 -9 12v65q0 15 14 23l116 54q11 6 25 6h39q16 0 16 -16v-380q0 -16 -16 -16h-90q-16 0 -16 16z
M765 219q76 -27 76 -99q0 -60 -47 -92.5t-117 -32.5t-117 32.5t-47 92.5q0 72 76 99q-59 30 -59 89q0 49 42 79.5t105 30.5t105 -30.5t42 -79.5q0 -59 -59 -89zM677 338q-20 0 -33.5 -11.5t-13.5 -30.5q0 -21 13 -33.5t34 -12.5q20 0 33 12.5t13 33.5q0 19 -13 30.5
t-33 11.5zM677 76q24 0 39.5 13.5t15.5 36.5t-16 36.5t-39 13.5q-24 0 -39.5 -13.5t-15.5 -36.5t15.5 -36.5t39.5 -13.5z" />
    <glyph glyph-name="threeeighths" unicode="&#x215c;" horiz-adv-x="840" 
d="M679 711q8 -5 8 -12q0 -5 -3 -9l-517 -702q-5 -7 -12 -7q-5 0 -10 3l-29 18q-7 5 -7 12q0 6 3 10l516 701q4 7 13 7q7 0 10 -2zM325 425q0 -59 -54.5 -94t-135.5 -35q-55 0 -96 12q-15 3 -15 21v58q0 15 15 12q37 -10 72 -10q37 0 59.5 11.5t22.5 31.5q0 41 -88 41h-17
q-16 0 -16 16v51q0 16 16 16h10q85 0 85 39q0 17 -19.5 27.5t-49.5 10.5q-36 0 -68 -10q-1 0 -2.5 -0.5t-2.5 -0.5q-10 0 -10 12v55q0 17 15 21q42 10 92 10q77 0 121.5 -27t44.5 -72q0 -68 -84 -95q105 -21 105 -101zM739 219q76 -27 76 -99q0 -60 -47 -92.5t-117 -32.5
t-117 32.5t-47 92.5q0 72 76 99q-59 30 -59 89q0 49 42 79.5t105 30.5t105 -30.5t42 -79.5q0 -59 -59 -89zM651 338q-20 0 -33.5 -11.5t-13.5 -30.5q0 -21 13 -33.5t34 -12.5q20 0 33 12.5t13 33.5q0 19 -13 30.5t-33 11.5zM651 76q24 0 39.5 13.5t15.5 36.5t-16 36.5
t-39 13.5q-24 0 -39.5 -13.5t-15.5 -36.5t15.5 -36.5t39.5 -13.5z" />
    <glyph glyph-name="fiveeighths" unicode="&#x215d;" horiz-adv-x="879" 
d="M717 711q8 -5 8 -12q0 -5 -3 -9l-517 -702q-5 -7 -12 -7q-5 0 -10 3l-29 18q-7 5 -7 12q0 6 3 10l516 701q4 7 13 7q7 0 10 -2zM345 443q0 -65 -56.5 -106t-131.5 -41q-56 0 -92 13q-15 5 -15 22v60q0 15 15 11q35 -10 65 -10q39 0 62 14.5t23 35.5t-21.5 33.5
t-57.5 12.5q-35 0 -65 -10q-2 -1 -6 -1q-8 0 -7 11l25 210q2 16 18 16h205q16 0 16 -16v-61q0 -16 -16 -16h-129l-6 -51h10q72 0 118 -32.5t46 -94.5zM777 219q76 -27 76 -99q0 -60 -47 -92.5t-117 -32.5t-117 32.5t-47 92.5q0 72 76 99q-59 30 -59 89q0 49 42 79.5
t105 30.5t105 -30.5t42 -79.5q0 -59 -59 -89zM689 338q-20 0 -33.5 -11.5t-13.5 -30.5q0 -21 13 -33.5t34 -12.5q20 0 33 12.5t13 33.5q0 19 -13 30.5t-33 11.5zM689 76q24 0 39.5 13.5t15.5 36.5t-16 36.5t-39 13.5q-24 0 -39.5 -13.5t-15.5 -36.5t15.5 -36.5t39.5 -13.5z
" />
    <glyph glyph-name="seveneighths" unicode="&#x215e;" horiz-adv-x="830" 
d="M668 711q8 -5 8 -12q0 -5 -3 -9l-517 -702q-5 -7 -12 -7q-6 0 -10 3l-29 18q-7 5 -7 12q0 6 3 10l516 701q4 7 13 7q7 0 10 -2zM175 316q-7 -14 -23 -14h-91q-16 0 -9 14l149 299h-147q-16 0 -16 16v67q0 16 16 16h293q17 0 9 -14zM728 219q76 -27 76 -99
q0 -60 -47 -92.5t-117 -32.5t-117 32.5t-47 92.5q0 72 76 99q-59 30 -59 89q0 49 42 79.5t105 30.5t105 -30.5t42 -79.5q0 -59 -59 -89zM640 338q-20 0 -33.5 -11.5t-13.5 -30.5q0 -21 13 -33.5t34 -12.5q20 0 33 12.5t13 33.5q0 19 -13 30.5t-33 11.5zM640 76
q24 0 39.5 13.5t15.5 36.5t-16 36.5t-39 13.5q-24 0 -39.5 -13.5t-15.5 -36.5t15.5 -36.5t39.5 -13.5z" />
    <glyph glyph-name="partialdiff" unicode="&#x2202;" horiz-adv-x="597" 
d="M195 720q96 0 167.5 -28t114 -79.5t63 -117.5t20.5 -148q0 -163 -74.5 -259.5t-199.5 -96.5q-104 0 -177 66t-73 178q0 105 68 168t166 63q63 0 111 -24q-36 143 -194 143q-39 0 -76 -8q-1 0 -3 -1h-1q-11 0 -11 13v104q0 16 16 20q36 7 83 7zM292 137q45 0 73 46t29 132
q-39 22 -81 22q-47 0 -75.5 -30t-28.5 -76q0 -42 23 -68t60 -26z" />
    <glyph glyph-name="product" unicode="&#x220f;" horiz-adv-x="829" 
d="M759 710q16 0 16 -16v-116q0 -16 -16 -16h-82v-673q0 -16 -16 -16h-179q-16 0 -16 16v673h-125v-673q0 -16 -16 -16h-168q-16 0 -16 16v673h-80q-16 0 -16 16v116q0 16 16 16h698z" />
    <glyph glyph-name="summation" unicode="&#x2211;" horiz-adv-x="587" 
d="M533 16q16 0 16 -16v-112q0 -16 -16 -16h-478q-16 0 -16 16v68q0 17 10 28l265 309l-265 305q-10 14 -10 28v68q0 16 16 16h470q16 0 16 -16v-112q0 -16 -16 -16h-240l213 -244q12 -14 12 -29q0 -16 -12 -29l-215 -248h250z" />
    <glyph glyph-name="minus" unicode="&#x2212;" horiz-adv-x="605" 
d="M52 240q-16 0 -16 16v102q0 16 16 16h501q16 0 16 -16v-102q0 -16 -16 -16h-501z" />
    <glyph glyph-name="radical" unicode="&#x221a;" horiz-adv-x="729" 
d="M664 710q28 0 28 -20q0 -8 -4 -16l-338 -789q-5 -15 -22 -15h-70q-16 0 -23 14l-218 415q-5 9 -5 18q0 17 26 17h120q15 0 23 -14l110 -233l231 589q14 36 53 36z" />
    <glyph glyph-name="infinity" unicode="&#x221e;" horiz-adv-x="970" 
d="M697 531q94 0 159.5 -66.5t65.5 -167.5q0 -102 -65 -168t-158 -66q-113 0 -209 122q-106 -122 -213 -122q-96 0 -162.5 66t-66.5 164q0 99 68.5 168.5t162.5 69.5q101 0 196 -126q49 60 101 93t121 33zM272 201q50 0 122 95q-40 52 -67.5 74.5t-53.5 22.5
q-30 0 -53.5 -28t-23.5 -69t23 -68t53 -27zM698 201q31 0 53.5 25.5t22.5 67.5q0 43 -24 71t-55 28q-30 0 -60.5 -27t-67.5 -78q42 -46 71.5 -66.5t59.5 -20.5z" />
    <glyph glyph-name="integral" unicode="&#x222b;" horiz-adv-x="556" 
d="M106 -210q-62 0 -103 12q-15 3 -15 21v112q0 15 15 11q24 -6 46 -6q32 0 49.5 19.5t23.5 61.5l76 518q16 113 67.5 165t146.5 52q50 0 104 -14q15 -6 15 -21v-88q0 -29 -26 -29q-7 0 -11 1q-16 2 -25 2q-32 0 -49.5 -20t-23.5 -62l-76 -517q-16 -113 -67.5 -165.5
t-146.5 -52.5z" />
    <glyph glyph-name="approxequal" unicode="&#x2248;" horiz-adv-x="600" 
d="M397 350q-47 0 -115 47q-46 35 -73 35q-46 0 -55 -60q-2 -16 -17 -16h-79q-16 0 -16 16q4 86 42 142t106 56q49 0 119 -49q45 -34 70 -34q38 0 43 60q2 16 17 16h84q16 0 16 -16q-4 -89 -43 -143t-99 -54zM397 106q-47 0 -115 47q-46 35 -73 35q-46 0 -55 -60
q-2 -16 -17 -16h-79q-16 0 -16 16q4 86 42 142t106 56q49 0 119 -49q45 -34 70 -34q38 0 43 60q2 16 17 16h84q16 0 16 -16q-4 -89 -43 -143t-99 -54z" />
    <glyph glyph-name="notequal" unicode="&#x2260;" horiz-adv-x="605" 
d="M553 346h-199l-44 -82h243q16 0 16 -16v-102q0 -16 -16 -16h-315l-41 -77q-9 -14 -24 -14h-52q-16 0 -8 14l41 77h-102q-16 0 -16 16v102q0 16 16 16h175l44 82h-219q-16 0 -16 16v102q0 16 16 16h291l44 82q9 14 24 14h51q16 0 8 -14l-44 -82h127q16 0 16 -16v-102
q0 -16 -16 -16z" />
    <glyph glyph-name="lessequal" unicode="&#x2264;" horiz-adv-x="605" 
d="M569 204q0 -27 -18 -27q-5 0 -17 5l-486 236q-14 7 -14 23v64l521 252q4 2 7 2q7 0 7 -11v-110q0 -38 -35 -56l-231 -109q-6 -3 -6 -7t6 -7l252 -119q14 -7 14 -23v-113zM569 17q0 -16 -16 -16h-501q-16 0 -16 16v102q0 16 16 16h501q16 0 16 -16v-102z" />
    <glyph glyph-name="greaterequal" unicode="&#x2265;" horiz-adv-x="605" 
d="M71 182q-12 -5 -17 -5q-18 0 -18 27v113q0 15 14 23l252 119q6 3 6 7t-6 7l-231 109q-35 17 -35 56v110q0 17 14 9l521 -252v-64q0 -16 -14 -23zM52 1q-16 0 -16 16v102q0 16 16 16h501q16 0 16 -16v-102q0 -16 -16 -16h-501z" />
    <glyph glyph-name="lozenge" unicode="&#x25ca;" horiz-adv-x="605" 
d="M286 -46q-16 0 -24 14l-214 372q-4 5 -4 14q0 7 4 14l214 372q9 14 24 14h34q16 0 24 -14l212 -372q4 -5 4 -14q0 -7 -4 -14l-212 -372q-9 -14 -24 -14h-34zM303 131l125 223l-125 223l-128 -223z" />
    <glyph glyph-name="apple" unicode="&#xf8ff;" horiz-adv-x="999" 
d="M499 -140q-135 0 -250 67t-182 182t-67 251q0 206 146.5 352.5t352.5 146.5q135 0 250.5 -67t182.5 -182t67 -250q0 -136 -67 -251t-182.5 -182t-250.5 -67zM499 109q205 0 341 15q26 2 37.5 11t14.5 33q5 63 5 192q0 128 -5 191q-3 24 -14.5 33t-37.5 11
q-136 15 -341 15t-342 -15q-25 -2 -36.5 -11t-14.5 -33q-6 -63 -6 -191q0 -129 6 -192q3 -24 14.5 -33t36.5 -11q137 -15 342 -15zM499 157q-85 0 -143.5 59.5t-58.5 143.5q0 83 58.5 142.5t143.5 59.5t143.5 -59.5t58.5 -142.5q0 -84 -58.5 -143.5t-143.5 -59.5z" />
    <glyph glyph-name="a.ss01" horiz-adv-x="562" 
d="M241 490q269 0 269 -230v-244q0 -16 -16 -16h-134q-16 0 -19 16q-3 27 -2 49h-1q-25 -36 -65 -55t-85 -19q-69 0 -115 39.5t-46 103.5q0 65 47.5 103t133.5 47q28 3 109 6q-13 57 -112 57q-68 0 -125 -27q-4 -2 -7 -2q-7 0 -7 11v114q0 17 15 21q75 26 160 26zM250 106
q28 0 48.5 20.5t20.5 57.5v22q-50 -3 -54 -4q-61 -12 -61 -56q0 -19 13 -29.5t33 -10.5z" />
    <glyph glyph-name="aacute.ss01" horiz-adv-x="563" 
d="M213 544q-16 0 -10 15l86 210q5 16 21 10l133 -39q11 -3 11 -11q0 -5 -4 -9l-119 -163q-9 -13 -25 -13h-93zM241 490q269 0 269 -230v-244q0 -16 -16 -16h-134q-16 0 -19 16q-3 27 -2 49h-1q-25 -36 -65 -55t-85 -19q-69 0 -115 39.5t-46 103.5q0 65 47.5 103t133.5 47
q28 3 109 6q-13 57 -112 57q-68 0 -125 -27q-4 -2 -7 -2q-7 0 -7 11v114q0 17 15 21q75 26 160 26zM250 106q28 0 48.5 20.5t20.5 57.5v22q-50 -3 -54 -4q-61 -12 -61 -56q0 -19 13 -29.5t33 -10.5z" />
    <glyph glyph-name="acircumflex.ss01" horiz-adv-x="563" 
d="M111 548q-9 0 -9 5q0 3 3 7l110 174q6 11 20 11h96q13 0 20 -11l109 -174q3 -5 3 -7q0 -5 -9 -5h-92q-14 0 -21 11l-58 79l-56 -79q-6 -11 -20 -11h-96zM241 490q269 0 269 -230v-244q0 -16 -16 -16h-134q-16 0 -19 16q-3 27 -2 49h-1q-25 -36 -65 -55t-85 -19
q-69 0 -115 39.5t-46 103.5q0 65 47.5 103t133.5 47q28 3 109 6q-13 57 -112 57q-68 0 -125 -27q-4 -2 -7 -2q-7 0 -7 11v114q0 17 15 21q75 26 160 26zM250 106q28 0 48.5 20.5t20.5 57.5v22q-50 -3 -54 -4q-61 -12 -61 -56q0 -19 13 -29.5t33 -10.5z" />
    <glyph glyph-name="adieresis.ss01" horiz-adv-x="563" 
d="M186 585q-31 0 -51.5 21t-20.5 51t20.5 51t51.5 21q30 0 50.5 -21t20.5 -51t-20.5 -51t-50.5 -21zM380 585q-31 0 -51.5 21t-20.5 51t20.5 51t51.5 21q30 0 50.5 -21t20.5 -51t-20.5 -51t-50.5 -21zM241 490q269 0 269 -230v-244q0 -16 -16 -16h-134q-16 0 -19 16
q-3 27 -2 49h-1q-25 -36 -65 -55t-85 -19q-69 0 -115 39.5t-46 103.5q0 65 47.5 103t133.5 47q28 3 109 6q-13 57 -112 57q-68 0 -125 -27q-4 -2 -7 -2q-7 0 -7 11v114q0 17 15 21q75 26 160 26zM250 106q28 0 48.5 20.5t20.5 57.5v22q-50 -3 -54 -4q-61 -12 -61 -56
q0 -19 13 -29.5t33 -10.5z" />
    <glyph glyph-name="agrave.ss01" horiz-adv-x="563" 
d="M203 557l-119 163q-4 6 -4 9q0 8 11 11l133 39q2 1 6 1q11 0 15 -11l86 -210q1 -2 1 -7q0 -8 -11 -8h-93q-16 0 -25 13zM241 490q269 0 269 -230v-244q0 -16 -16 -16h-134q-16 0 -19 16q-3 27 -2 49h-1q-25 -36 -65 -55t-85 -19q-69 0 -115 39.5t-46 103.5q0 65 47.5 103
t133.5 47q28 3 109 6q-13 57 -112 57q-68 0 -125 -27q-4 -2 -7 -2q-7 0 -7 11v114q0 17 15 21q75 26 160 26zM250 106q28 0 48.5 20.5t20.5 57.5v22q-50 -3 -54 -4q-61 -12 -61 -56q0 -19 13 -29.5t33 -10.5z" />
    <glyph glyph-name="aring.ss01" horiz-adv-x="563" 
d="M283 526q-49 0 -86 33t-37 82q0 48 37 79.5t86 31.5t86.5 -31.5t37.5 -79.5q0 -49 -37.5 -82t-86.5 -33zM283 683q-18 0 -30 -12t-12 -31t12 -32t30 -13q19 0 31 12.5t12 32.5q0 19 -12 31t-31 12zM241 490q269 0 269 -230v-244q0 -16 -16 -16h-134q-16 0 -19 16
q-3 27 -2 49h-1q-25 -36 -65 -55t-85 -19q-69 0 -115 39.5t-46 103.5q0 65 47.5 103t133.5 47q28 3 109 6q-13 57 -112 57q-68 0 -125 -27q-4 -2 -7 -2q-7 0 -7 11v114q0 17 15 21q75 26 160 26zM250 106q28 0 48.5 20.5t20.5 57.5v22q-50 -3 -54 -4q-61 -12 -61 -56
q0 -19 13 -29.5t33 -10.5z" />
    <glyph glyph-name="atilde.ss01" horiz-adv-x="563" 
d="M102 552q-11 0 -11 11q3 72 33 119t86 47q34 0 91 -38q33 -22 45 -22q27 0 30 43q2 11 12 11h76q11 0 11 -11q-3 -70 -35.5 -117t-84.5 -47q-34 0 -81 32q-38 26 -52 26q-30 0 -36 -43q-2 -11 -12 -11h-72zM241 490q269 0 269 -230v-244q0 -16 -16 -16h-134q-16 0 -19 16
q-3 27 -2 49h-1q-25 -36 -65 -55t-85 -19q-69 0 -115 39.5t-46 103.5q0 65 47.5 103t133.5 47q28 3 109 6q-13 57 -112 57q-68 0 -125 -27q-4 -2 -7 -2q-7 0 -7 11v114q0 17 15 21q75 26 160 26zM250 106q28 0 48.5 20.5t20.5 57.5v22q-50 -3 -54 -4q-61 -12 -61 -56
q0 -19 13 -29.5t33 -10.5z" />
    <glyph glyph-name="l.ss02" horiz-adv-x="307" 
d="M70 0q-16 0 -16 16v714q0 16 16 16h167q16 0 16 -16v-714q0 -16 -16 -16h-167z" />
    <glyph glyph-name="lslash.ss02" horiz-adv-x="307" 
d="M302 489q4 2 6 2q9 0 9 -12v-60q0 -16 -15 -22l-49 -19v-362q0 -16 -16 -16h-167q-16 0 -16 16v286l-47 -18q-2 -1 -6 -1q-9 0 -9 11v61q0 16 15 22l47 18v335q0 16 16 16h167q16 0 16 -16v-260z" />
    <glyph glyph-name="oslash.bold" horiz-adv-x="599" 
d="M465 438q103 -75 103 -196q0 -107 -77 -179.5t-193 -72.5q-52 0 -103 19l-29 -46q-7 -14 -24 -14h-52q-10 0 -10 6q0 3 3 8l50 79q-49 35 -77 87.5t-28 112.5q0 105 79 176.5t191 71.5q53 0 104 -19l29 47q9 14 25 14h51q15 0 8 -14zM206 241q0 -31 17 -56l92 148
q-6 1 -17 1q-39 0 -65.5 -26t-26.5 -67zM299 146q38 0 64.5 26.5t26.5 67.5q0 31 -16 55l-92 -148q3 0 8.5 -0.5t8.5 -0.5z" />
    <glyph glyph-name="fl.ss02" horiz-adv-x="743" 
d="M420 743q15 -4 15 -21v-89q0 -29 -25 -29q-8 0 -12 1q-16 2 -25 2q-73 0 -73 -81v-46h117q16 0 16 -16v-98q0 -16 -16 -16h-117v-334q0 -16 -16 -16h-167q-16 0 -16 16v334h-71q-16 0 -16 16v98q0 16 16 16h71v60q0 104 54.5 160t159.5 56q59 0 105 -13zM673 746
q16 0 16 -16v-714q0 -16 -16 -16h-167q-16 0 -16 16v714q0 16 16 16h167z" />
    <glyph glyph-name="ordfeminine.ss01" horiz-adv-x="488" 
d="M175 339q-51 0 -86 29.5t-35 78.5q0 52 36 81.5t101 35.5q35 4 76 4q-10 53 -85 53q-41 0 -83 -19q-6 -2 -7 -2q-5 0 -5 9v74q0 13 12 17q60 19 126 19q97 0 145.5 -43.5t48.5 -136.5v-179q0 -13 -13 -13h-104q-13 0 -16 13q-3 16 -2 33h-1q-36 -54 -108 -54zM242 507
q-52 -7 -52 -48q0 -14 9 -22t23 -8q20 0 33.5 12.5t13.5 38.5v29q-11 0 -27 -2zM411 276q16 0 16 -16v-54q0 -16 -16 -16h-338q-16 0 -16 16v54q0 16 16 16h338z" />
    <glyph glyph-name="zero.tf" horiz-adv-x="585" 
d="M293 -9q-112 0 -186 92t-74 273q0 180 74 272t186 92q111 0 185 -92.5t74 -271.5q0 -181 -74 -273t-185 -92zM293 161q38 0 56 46t18 149q0 102 -18 148t-56 46q-75 0 -75 -194q0 -195 75 -195z" />
    <glyph glyph-name="one.tf" horiz-adv-x="585" 
d="M421 711q16 0 16 -16v-679q0 -16 -16 -16h-167q-16 0 -16 16v485l-135 -52q-2 -1 -6 -1q-9 0 -9 11v120q0 16 15 22l252 104q18 6 31 6h35z" />
    <glyph glyph-name="two.tf" horiz-adv-x="585" 
d="M513 158q16 0 16 -16v-126q0 -16 -16 -16h-461q-24 0 -24 14q0 8 7 18l178 253q31 44 44.5 65t26.5 52.5t13 57.5q0 46 -32 73t-87 27t-111 -28q-4 -2 -7 -2q-7 0 -7 11v127q0 16 14 23q73 29 171 29q120 0 192.5 -58t72.5 -160t-99 -239l-76 -105h185z" />
    <glyph glyph-name="three.tf" horiz-adv-x="585" 
d="M372 386q170 -35 170 -175q0 -100 -88.5 -160.5t-217.5 -60.5q-100 0 -162 23q-15 5 -15 22v118q0 16 15 10q60 -20 123 -20q57 0 92 21.5t35 58.5q0 74 -137 74h-38q-16 0 -16 16v106q0 16 16 16h27q133 0 133 72q0 32 -30.5 50.5t-78.5 18.5q-64 0 -116 -22
q-2 -1 -7 -1q-8 0 -8 11v113q0 17 15 21q69 22 157 22q123 0 194.5 -47.5t71.5 -124.5q0 -116 -135 -162z" />
    <glyph glyph-name="four.tf" horiz-adv-x="585" 
d="M553 242q16 0 16 -16v-113q0 -16 -16 -16h-54v-81q0 -16 -16 -16h-157q-16 0 -16 16v81h-276q-16 0 -16 16v112q0 14 8 30l278 441q7 14 24 14h155q16 0 16 -16v-452h54zM319 489q-24 -64 -50 -109l-77 -137h121v128q0 45 11 118h-5z" />
    <glyph glyph-name="five.tf" horiz-adv-x="585" 
d="M274 461q116 0 190 -56t74 -161q0 -115 -92.5 -184.5t-219.5 -69.5q-87 0 -147 25q-14 7 -14 23v125q0 9 7 9q2 0 7 -1.5t13.5 -3.5t16.5 -4q45 -15 83 -15q61 0 96.5 26.5t35.5 66.5q0 38 -32.5 61.5t-89.5 23.5q-30 0 -57.5 -5.5t-43.5 -11t-18 -5.5q-7 0 -7 9v3
l43 378q2 16 18 16h350q16 0 16 -16v-121q0 -16 -16 -16h-214l-11 -96h12z" />
    <glyph glyph-name="six.tf" horiz-adv-x="585" 
d="M352 452q84 0 140.5 -61t56.5 -154q0 -108 -74.5 -177.5t-187.5 -69.5q-112 0 -182.5 70t-70.5 175q0 111 79 226l167 236q9 13 25 13h156q11 0 11 -6q0 -2 -4 -8l-77 -105q-49 -77 -114 -160q35 21 75 21zM292 140q34 0 59 27t25 67q0 43 -24.5 69t-60.5 26
q-35 0 -59 -27t-24 -69q0 -41 24 -67t60 -26z" />
    <glyph glyph-name="seven.tf" horiz-adv-x="585" 
d="M556 710q13 0 13 -9q0 -5 -2 -8l-297 -678q-5 -15 -22 -15h-169q-17 0 -9 15l241 532h-244q-16 0 -16 16v131q0 16 16 16h489z" />
    <glyph glyph-name="eight.tf" horiz-adv-x="585" 
d="M294 -9q-109 0 -185 57.5t-76 162.5q0 56 29.5 101t78.5 65q-83 50 -83 148q0 86 67.5 140.5t168.5 54.5t169 -54t68 -141q0 -98 -83 -148q50 -21 79.5 -65.5t29.5 -100.5q0 -105 -76 -162.5t-187 -57.5zM294 436q26 0 43 20t17 51t-17 49t-43 18t-42.5 -18.5
t-16.5 -48.5q0 -31 16.5 -51t42.5 -20zM294 140q30 0 50 21t20 56q0 36 -20 58t-50 22t-49.5 -22t-19.5 -58q0 -35 19 -56t50 -21z" />
    <glyph glyph-name="nine.tf" horiz-adv-x="585" 
d="M293 720q112 0 182.5 -70t70.5 -175q0 -111 -79 -226l-167 -236q-9 -13 -25 -13h-156q-11 0 -11 6q0 2 4 8l77 105q49 77 114 160q-35 -21 -75 -21q-84 0 -140.5 61t-56.5 154q0 108 74.5 177.5t187.5 69.5zM289 381q35 0 59 27t24 69q0 41 -24 67t-60 26q-34 0 -59 -27
t-25 -67q0 -43 24.5 -69t60.5 -26z" />
    <glyph glyph-name="zero.dnom" horiz-adv-x="386" 
d="M193 -5q-70 0 -116.5 53.5t-46.5 158.5t47 158t116 53q71 0 117 -53t46 -158t-46.5 -158.5t-116.5 -53.5zM193 94q56 0 56 113q0 112 -56 112t-56 -112q0 -113 56 -113z" />
    <glyph glyph-name="one.dnom" horiz-adv-x="353" 
d="M244 412q16 0 16 -16v-380q0 -16 -16 -16h-90q-16 0 -16 16v265l-73 -27q-4 -2 -6 -2q-9 0 -9 12v65q0 15 14 23l116 54q10 6 25 6h39z" />
    <glyph glyph-name="two.dnom" horiz-adv-x="385" 
d="M325 95q16 0 16 -16v-63q0 -16 -16 -16h-287q-11 0 -11 5q0 2 5 9l117 150q20 25 28.5 37t17 30t8.5 34q0 25 -20.5 40.5t-55.5 15.5q-32 0 -66 -13q-4 -2 -7 -2q-7 0 -7 11v65q0 16 15 22q45 14 101 14q75 0 120 -33t45 -89q0 -64 -65 -143l-49 -58h111z" />
    <glyph glyph-name="three.dnom" horiz-adv-x="346" 
d="M220 224q105 -21 105 -101q0 -59 -54.5 -94t-135.5 -35q-55 0 -96 12q-15 3 -15 21v58q0 15 15 12q37 -10 72 -10q37 0 59.5 11.5t22.5 31.5q0 41 -88 41h-17q-16 0 -16 16v51q0 16 16 16h10q85 0 85 39q0 17 -19.5 27.5t-49.5 10.5q-36 0 -68 -10q-1 0 -2.5 -0.5
t-2.5 -0.5q-10 0 -10 12v55q0 17 15 21q42 10 92 10q77 0 121.5 -27t44.5 -72q0 -68 -84 -95z" />
    <glyph glyph-name="four.dnom" horiz-adv-x="383" 
d="M348 139q16 0 16 -16v-53q0 -16 -16 -16h-33v-38q0 -16 -16 -16h-79q-16 0 -16 16v38h-173q-13 0 -13 13v62q0 11 7 24l171 248q6 11 20 11h83q16 0 16 -16v-257h33zM207 266l-91 -126h91l1 126h-1z" />
    <glyph glyph-name="five.dnom" horiz-adv-x="384" 
d="M181 268q72 0 118 -32.5t46 -94.5q0 -65 -56.5 -106t-131.5 -41q-56 0 -92 13q-15 5 -15 22v60q0 15 15 11q35 -10 65 -10q39 0 62 14.5t23 35.5t-21.5 33.5t-57.5 12.5q-35 0 -65 -10q-2 -1 -6 -1q-8 0 -7 11l25 210q2 16 18 16h205q16 0 16 -16v-61q0 -16 -16 -16h-129
l-6 -51h10z" />
    <glyph glyph-name="six.dnom" horiz-adv-x="380" 
d="M226 272q54 0 93.5 -37.5t39.5 -93.5q0 -64 -48.5 -105.5t-115.5 -41.5q-70 0 -118 37t-48 100q0 34 14 68.5t53 93.5l74 106q9 13 25 13h96q16 0 7 -13l-76 -103q-10 -14 -27 -28q15 4 31 4zM194 86q23 0 39 14.5t16 36.5q0 24 -15.5 38t-39.5 14t-39.5 -14t-15.5 -38
q0 -23 15.5 -37t39.5 -14z" />
    <glyph glyph-name="seven.dnom" horiz-adv-x="369" 
d="M347 412q17 0 9 -14l-181 -384q-7 -14 -23 -14h-91q-16 0 -9 14l149 299h-147q-16 0 -16 16v67q0 16 16 16h293z" />
    <glyph glyph-name="eight.dnom" horiz-adv-x="383" 
d="M193 -5q-70 0 -117 32.5t-47 92.5q0 72 76 99q-59 30 -59 89q0 49 42 79.5t105 30.5t105 -30.5t42 -79.5q0 -59 -59 -89q76 -27 76 -99q0 -60 -47 -92.5t-117 -32.5zM193 250q20 0 33 12.5t13 33.5q0 19 -13 30.5t-33 11.5t-33.5 -11.5t-13.5 -30.5q0 -21 13 -33.5
t34 -12.5zM193 76q24 0 39.5 13.5t15.5 36.5t-16 36.5t-39 13.5q-24 0 -39.5 -13.5t-15.5 -36.5t15.5 -36.5t39.5 -13.5z" />
    <glyph glyph-name="nine.dnom" horiz-adv-x="380" 
d="M187 418q70 0 118 -37t48 -100q0 -34 -14 -68.5t-53 -93.5l-74 -106q-9 -13 -25 -13h-96q-16 0 -7 13l76 103q10 14 27 28q-15 -4 -31 -4q-54 0 -93.5 37.5t-39.5 93.5q0 64 48.5 105.5t115.5 41.5zM133 275q0 -24 15.5 -38t39.5 -14t39.5 14t15.5 38q0 23 -15.5 37
t-39.5 14q-23 0 -39 -14.5t-16 -36.5z" />
    <glyph glyph-name="zero.numr" horiz-adv-x="386" 
d="M193 297q-70 0 -116.5 53.5t-46.5 158.5t47 158t116 53q71 0 117 -53t46 -158t-46.5 -158.5t-116.5 -53.5zM193 396q56 0 56 113q0 112 -56 112t-56 -112q0 -113 56 -113z" />
    <glyph glyph-name="one.numr" horiz-adv-x="353" 
d="M244 714q16 0 16 -16v-380q0 -16 -16 -16h-90q-16 0 -16 16v265l-73 -27q-4 -2 -6 -2q-9 0 -9 12v65q0 15 14 23l116 54q11 6 25 6h39z" />
    <glyph glyph-name="two.numr" horiz-adv-x="385" 
d="M325 397q16 0 16 -16v-63q0 -16 -16 -16h-287q-11 0 -11 5q0 2 5 9l117 150q20 25 28.5 37t17 30t8.5 34q0 25 -20.5 40.5t-55.5 15.5q-32 0 -66 -13q-4 -2 -7 -2q-7 0 -7 11v65q0 16 15 22q45 14 101 14q75 0 120 -33t45 -89q0 -64 -65 -143l-49 -58h111z" />
    <glyph glyph-name="three.numr" horiz-adv-x="346" 
d="M220 526q105 -21 105 -101q0 -59 -54.5 -94t-135.5 -35q-55 0 -96 12q-15 3 -15 21v58q0 15 15 12q37 -10 72 -10q37 0 59.5 11.5t22.5 31.5q0 41 -88 41h-17q-16 0 -16 16v51q0 16 16 16h10q85 0 85 39q0 17 -19.5 27.5t-49.5 10.5q-36 0 -68 -10q-1 0 -2.5 -0.5
t-2.5 -0.5q-10 0 -10 12v55q0 17 15 21q42 10 92 10q77 0 121.5 -27t44.5 -72q0 -68 -84 -95z" />
    <glyph glyph-name="four.numr" horiz-adv-x="383" 
d="M348 441q16 0 16 -16v-53q0 -16 -16 -16h-33v-38q0 -16 -16 -16h-79q-16 0 -16 16v38h-173q-13 0 -13 13v62q0 11 7 24l171 248q6 11 20 11h83q16 0 16 -16v-257h33zM207 568l-91 -126h91l1 126h-1z" />
    <glyph glyph-name="five.numr" horiz-adv-x="384" 
d="M181 570q72 0 118 -32.5t46 -94.5q0 -65 -56.5 -106t-131.5 -41q-56 0 -92 13q-15 5 -15 22v60q0 15 15 11q35 -10 65 -10q39 0 62 14.5t23 35.5t-21.5 33.5t-57.5 12.5q-35 0 -65 -10q-2 -1 -6 -1q-8 0 -7 11l25 210q2 16 18 16h205q16 0 16 -16v-61q0 -16 -16 -16h-129
l-6 -51h10z" />
    <glyph glyph-name="six.numr" horiz-adv-x="380" 
d="M226 574q54 0 93.5 -37.5t39.5 -93.5q0 -64 -48.5 -105.5t-115.5 -41.5q-70 0 -118 37t-48 100q0 34 14 68.5t53 93.5l74 106q9 13 25 13h96q16 0 7 -13l-76 -103q-10 -14 -27 -28q15 4 31 4zM194 388q23 0 39 14.5t16 36.5q0 24 -15.5 38t-39.5 14t-39.5 -14t-15.5 -38
q0 -23 15.5 -37t39.5 -14z" />
    <glyph glyph-name="seven.numr" horiz-adv-x="369" 
d="M347 714q17 0 9 -14l-181 -384q-7 -14 -23 -14h-91q-16 0 -9 14l149 299h-147q-16 0 -16 16v67q0 16 16 16h293z" />
    <glyph glyph-name="eight.numr" horiz-adv-x="383" 
d="M193 297q-70 0 -117 32.5t-47 92.5q0 72 76 99q-59 30 -59 89q0 49 42 79.5t105 30.5t105 -30.5t42 -79.5q0 -59 -59 -89q76 -27 76 -99q0 -60 -47 -92.5t-117 -32.5zM193 552q20 0 33 12.5t13 33.5q0 19 -13 30.5t-33 11.5t-33.5 -11.5t-13.5 -30.5q0 -21 13 -33.5
t34 -12.5zM193 378q24 0 39.5 13.5t15.5 36.5t-16 36.5t-39 13.5q-24 0 -39.5 -13.5t-15.5 -36.5t15.5 -36.5t39.5 -13.5z" />
    <glyph glyph-name="nine.numr" horiz-adv-x="380" 
d="M187 720q70 0 118 -37t48 -100q0 -34 -14 -68.5t-53 -93.5l-74 -106q-9 -13 -25 -13h-96q-16 0 -7 13l76 103q10 14 27 28q-15 -4 -31 -4q-54 0 -93.5 37.5t-39.5 93.5q0 64 48.5 105.5t115.5 41.5zM133 577q0 -24 15.5 -38t39.5 -14t39.5 14t15.5 38q0 23 -15.5 37
t-39.5 14q-23 0 -39 -14.5t-16 -36.5z" />
    <glyph glyph-name="colon.calt" horiz-adv-x="280" 
d="M141 394q-40 0 -66 27t-26 66t26 66t66 27q39 0 66 -27t27 -66t-27 -66t-66 -27zM141 99q-40 0 -66 27t-26 66t26 66t66 27q39 0 66 -27t27 -66t-27 -66t-66 -27z" />
    <glyph glyph-name="periodcentered.case" horiz-adv-x="295" 
d="M148 257q-43 0 -71 29t-28 71t28 71t71 29q42 0 70.5 -29t28.5 -71t-28.5 -71t-70.5 -29z" />
    <glyph glyph-name="colon.tf" horiz-adv-x="293" 
d="M147 287q-40 0 -66 27t-26 66t26 66t66 27q39 0 66 -27t27 -66t-27 -66t-66 -27zM147 -8q-40 0 -66 27t-26 66t26 66t66 27q39 0 66 -27t27 -66t-27 -66t-66 -27z" />
    <glyph glyph-name="comma.tf" horiz-adv-x="293" 
d="M159 192q45 0 75.5 -29.5t30.5 -74.5q0 -6 -0.5 -12t-2 -12.5t-2.5 -11t-4 -12t-4.5 -11t-5.5 -12.5t-5.5 -12l-6.5 -13t-6 -13l-77 -153q-6 -12 -19 -12h-38q-13 0 -9 13l48 170q-33 8 -54 33.5t-21 58.5q0 43 30 73t71 30z" />
    <glyph glyph-name="period.tf" horiz-adv-x="293" 
d="M146 -8q-42 0 -70 29t-28 71t28 71t70 29t70.5 -29t28.5 -71t-28.5 -71t-70.5 -29z" />
    <glyph glyph-name="semicolon.tf" horiz-adv-x="293" 
d="M143 290q-43 0 -71 29t-28 71t28 71t71 29q42 0 70.5 -29t28.5 -71t-28.5 -71t-70.5 -29zM143 176q44 0 74.5 -29.5t30.5 -74.5q0 -35 -38 -109l-75 -149q-8 -16 -24 -16h-26q-17 0 -17 13q0 5 1 8l47 161q-32 9 -52.5 34.5t-20.5 58.5q0 43 29.5 73t70.5 30z" />
    <glyph glyph-name="emdash.case" horiz-adv-x="964" 
d="M83 286q-16 0 -16 16v100q0 16 16 16h797q16 0 16 -16v-100q0 -16 -16 -16h-797z" />
    <glyph glyph-name="endash.case" horiz-adv-x="614" 
d="M83 286q-16 0 -16 16v102q0 16 16 16h447q16 0 16 -16v-102q0 -16 -16 -16h-447z" />
    <glyph glyph-name="hyphen.case" horiz-adv-x="477" 
d="M83 285q-16 0 -16 16v103q0 16 16 16h311q16 0 16 -16v-103q0 -16 -16 -16h-311z" />
    <glyph glyph-name="softhyphen.case" horiz-adv-x="477" 
d="M83 285q-16 0 -16 16v103q0 16 16 16h311q16 0 16 -16v-103q0 -16 -16 -16h-311z" />
    <glyph glyph-name="dollar.bold" horiz-adv-x="585" 
d="M538 230q0 -93 -58.5 -151.5t-161.5 -69.5l-12 -127q-2 -16 -18 -16h-77q-17 0 -14 16l13 128q-87 10 -141 35q-14 7 -14 23v133q0 16 14 9q79 -41 155 -50l13 125q-1 0 -3 1h-1q-35 15 -52.5 23.5t-47.5 27.5t-45 37.5t-27 48.5t-12 66q0 90 62.5 145t161.5 66l11 116
q2 16 18 16h77q17 0 14 -16l-11 -118q55 -6 107 -22q15 -6 15 -21v-127q0 -16 -14 -9q-60 25 -123 31l-12 -121l9 -3q43 -17 69.5 -32t53 -37.5t39 -53.5t12.5 -73z" />
    <glyph glyph-name="dieresiscomb.case" 
d="M-99 772q-31 0 -51.5 21.5t-20.5 51.5t20.5 51t51.5 21t51.5 -21t20.5 -51t-20.5 -51.5t-51.5 -21.5zM105 772q-31 0 -51.5 21.5t-20.5 51.5t20.5 51t51.5 21t51.5 -21t20.5 -51t-20.5 -51.5t-51.5 -21.5z" />
    <glyph glyph-name="dotaccentcomb.case" 
d="M-4 759q-33 0 -54.5 22t-21.5 54t21.5 54t54.5 22q32 0 53.5 -22t21.5 -54t-21.5 -54t-53.5 -22z" />
    <glyph glyph-name="gravecomb.case" 
d="M112 777q2 -4 2 -6q0 -9 -12 -9h-78q-15 0 -26 12l-118 135q-4 4 -4 8q0 6 10 6h155q16 0 22 -15z" />
    <glyph glyph-name="acutecomb.case" 
d="M-68 757q-16 0 -10 15l49 132q7 15 22 15h157q10 0 10 -5q0 -4 -4 -9l-119 -136q-10 -12 -27 -12h-78z" />
    <glyph glyph-name="hungarumlautcomb.case" 
d="M-149 757q-16 0 -13 16l28 130q4 16 19 16h154q15 0 6 -12l-98 -137q-9 -13 -25 -13h-71zM38 757q-16 0 -10 15l49 132q7 15 22 15h160q16 0 5 -11l-128 -139q-10 -12 -27 -12h-71z" />
    <glyph glyph-name="circumflexcomb.case" 
d="M180 767q4 -4 4 -7q0 -4 -9 -4h-89q-13 0 -22 9l-64 67l-61 -66q-10 -10 -22 -10h-92q-9 0 -9 4q0 3 4 7l105 139q8 10 21 10h109q13 0 21 -10z" />
    <glyph glyph-name="caroncomb.case" 
d="M169 916q17 0 6 -12l-117 -136q-9 -12 -26 -12h-64q-15 0 -26 12l-118 136q-3 4 -3 7q0 5 9 5h89q17 0 28 -11l57 -55l53 55q11 11 27 11h85z" />
    <glyph glyph-name="brevecomb.case" 
d="M0 745q-65 0 -111.5 40t-56.5 103v3q0 10 12 10h71q12 0 15 -13q5 -24 23.5 -38.5t45.5 -14.5t45.5 14.5t23.5 38.5q3 13 15 13h72q14 0 11 -13q-10 -63 -56 -103t-110 -40z" />
    <glyph glyph-name="ringcomb.case" 
d="M-1 743q-49 0 -86 33t-37 82q0 48 37 79.5t86 31.5t86.5 -31.5t37.5 -79.5q0 -49 -37.5 -82t-86.5 -33zM-1 812q19 0 31 12.5t12 32.5q0 19 -12 31t-31 12q-18 0 -30 -12t-12 -31t12 -32t30 -13z" />
    <glyph glyph-name="tildecomb.case" horiz-adv-x="165" 
d="M24 816q-32 0 -39 -34q-2 -10 -12 -10h-72q-11 0 -11 11q3 67 33 110t86 43q30 0 91 -34q34 -18 44 -18q26 0 31 37q2 11 12 11h76q11 0 11 -11q-3 -65 -35.5 -109.5t-84.5 -44.5q-28 0 -82 30q-36 19 -48 19z" />
    <glyph glyph-name="macroncomb.case" 
d="M-156 798q-16 0 -16 16v77q0 16 16 16h311q16 0 16 -16v-77q0 -16 -16 -16h-311z" />
    <glyph glyph-name="acutecomb.narrow" 
d="M-55 545q-15 0 -11 15l70 209q6 15 20 11l116 -33q24 -8 24 -24q0 -9 -7 -20l-90 -144q-7 -14 -24 -14h-98z" />
    </font>
</defs>
</svg>
