<?xml version="1.0" standalone="no"?>
<!DOCTYPE svg PUBLIC "-//W3C//DTD SVG 1.1//EN" "http://www.w3.org/Graphics/SVG/1.1/DTD/svg11.dtd" >
<svg xmlns="http://www.w3.org/2000/svg" xmlns:xlink="http://www.w3.org/1999/xlink" version="1.1">
<metadata>
Created by FontForge 20170731 at Mon Mar 16 21:31:21 2015
 By Aleksey,,,
Copyright (c) 2015 by Jan Charvat. All rights reserved.
</metadata>
<defs>
<font id="VelodromaBasic-Wide" horiz-adv-x="1060" >
  <font-face 
    font-family="Velodroma Basic Wide"
    font-weight="400"
    font-stretch="expanded"
    units-per-em="1000"
    panose-1="0 0 5 5 0 0 0 0 0 0"
    ascent="800"
    descent="-200"
    x-height="700"
    cap-height="700"
    bbox="0 -159 1626 858"
    underline-thickness="50"
    underline-position="-200"
    unicode-range="U+0020-2212"
  />
<missing-glyph horiz-adv-x="500" 
d="M0 0v700h500v-700h-500zM250 395l170 255h-340zM280 350l170 -255v510zM80 50h340l-170 255zM50 605v-510l170 255z" />
    <glyph glyph-name=".notdef" horiz-adv-x="500" 
d="M0 0v700h500v-700h-500zM250 395l170 255h-340zM280 350l170 -255v510zM80 50h340l-170 255zM50 605v-510l170 255z" />
    <glyph glyph-name=".null" horiz-adv-x="0" 
 />
    <glyph glyph-name="nonmarkingreturn" horiz-adv-x="333" 
 />
    <glyph glyph-name="space" unicode=" " horiz-adv-x="400" 
 />
    <glyph glyph-name="exclam" unicode="!" horiz-adv-x="360" 
d="M240 252h-120l-20 142v306h160v-306zM100 180h160v-180h-160v180z" />
    <glyph glyph-name="dollar" unicode="$" horiz-adv-x="920" 
d="M855 193q0 -99 -73.5 -153t-242.5 -58v-139h-160v140q-177 5 -245.5 65t-68.5 193h179q0 -45 15 -69t63 -38t140 -14h20q121 0 159.5 14.5t38.5 58.5q0 20 -11.5 34t-32 22.5t-54 15t-71 11t-90.5 9.5h-2q-61 6 -107.5 14.5t-92 24.5t-74 39t-46.5 59.5t-18 83.5
q0 102 65 153t223 58v139h160v-138q313 -4 313 -257h-179q0 64 -42 91.5t-147 27.5h-20q-85 0 -127.5 -6.5t-57 -20.5t-14.5 -42q0 -42 60 -61.5t178 -30.5q52 -5 85 -8.5t72 -10t63 -14.5t50 -19.5t41 -27.5t27.5 -37t18 -48t5.5 -61z" />
    <glyph glyph-name="ampersand" unicode="&#x26;" horiz-adv-x="1018" 
d="M996 308h-107v-58q0 -138 -64 -203t-202 -65h-275q-138 0 -202 56t-64 175q0 98 35 149t117 71l-122 171v96h686v-142h-480l100 -155v-95h-43q-127 0 -127 -95q0 -86 117 -86h241q118 0 118 123v58h-137v123h409v-123z" />
    <glyph glyph-name="plus" unicode="+" horiz-adv-x="690" 
d="M590 285h-175v-175h-140v175h-175v140h175v175h140v-175h175v-140z" />
    <glyph glyph-name="comma" unicode="," horiz-adv-x="362" 
d="M262 180v-230q0 -109 -116 -109h-45l-1 69h26q54 0 54 63v27h-78v180h160z" />
    <glyph glyph-name="period" unicode="." horiz-adv-x="360" 
d="M260 180v-180h-160v180h160z" />
    <glyph glyph-name="slash" unicode="/" horiz-adv-x="540" 
d="M190 0h-160l320 700h160z" />
    <glyph glyph-name="zero" unicode="0" horiz-adv-x="1090" 
d="M615 -18h-140q-204 0 -304.5 91.5t-100.5 276.5t100.5 276.5t304.5 91.5h140q204 0 304.5 -91.5t100.5 -276.5t-100.5 -276.5t-304.5 -91.5zM505 123h80q139 0 198.5 52.5t59.5 174.5t-59.5 174.5t-197.5 52.5h-81q-139 0 -198.5 -52.5t-59.5 -174.5t59.5 -174.5
t198.5 -52.5zM431 281v140h229v-140h-229z" />
    <glyph glyph-name="one" unicode="1" horiz-adv-x="820" 
d="M785 138v-138h-750v138h369v254h-299v136h182q57 3 87 28.5t30 70.5v71h170v-560h211z" />
    <glyph glyph-name="two" unicode="2" horiz-adv-x="936" 
d="M80 0v59q0 153 95 232.5t316 97.5q46 5 75.5 10.5t55.5 16t38 27.5t12 41q-1 51 -42.5 72.5t-137.5 21.5h-60q-90 0 -128.5 -34.5t-37.5 -116.5h-179q-1 158 71 224.5t244 66.5h120q175 0 249.5 -53t76.5 -177q1 -60 -14.5 -100.5t-33 -63.5t-73 -38.5t-91.5 -21
t-131 -15.5q-11 -1 -17 -2q-99 -11 -147 -36.5t-48 -70.5h563v-140h-776z" />
    <glyph glyph-name="three" unicode="3" horiz-adv-x="909" 
d="M70 251h180q-1 -71 41.5 -100t144.5 -29h70q84 0 119 21t35 73q0 43 -15.5 61t-50.5 18h-221v132h118q42 0 75 36.5t50 96.5h-358v-82h-169v222h723q0 -110 -23.5 -172.5t-83.5 -111.5q71 -17 101.5 -63t32.5 -137q0 -126 -69.5 -180t-233.5 -54h-130q-183 0 -260.5 62
t-75.5 207z" />
    <glyph glyph-name="four" unicode="4" horiz-adv-x="833" 
d="M793 116h-94v-115h-160v115h-499v89q0 70 26.5 127t63.5 93.5t104 86.5q140 108 140 183v5h170v-7q0 -28 -5.5 -53.5t-12 -44.5t-22 -41t-26 -35t-34 -34t-35 -30t-40.5 -31.5t-40 -31.5q-29 -23 -46.5 -39t-35.5 -41.5t-20 -49.5h312v131h160v-131h94v-146z" />
    <glyph glyph-name="five" unicode="5" horiz-adv-x="918" 
d="M416 450h127q167 0 236 -50t69 -179t-69.5 -184t-233.5 -55h-130q-183 0 -260 55t-75 184h179q-1 -54 41 -76.5t145 -22.5h70q84 0 119 23t35 79q0 52 -36 74.5t-122 22.5h-66q-80 0 -121.5 -9t-62.5 -33l-188 24l56 395h668v-203h-179v69h-341l-19 -150q60 37 158 36z
" />
    <glyph glyph-name="six" unicode="6" horiz-adv-x="987" 
d="M457 454h126q178 0 251 -52.5t73 -180.5q0 -129 -74.5 -184t-251.5 -55h-129q-211 0 -291.5 77t-80.5 286q0 113 17.5 184t60.5 114t108 59t169 16h120q181 0 258 -53.5t78 -178.5h-176q1 50 -42.5 71t-147.5 21h-60q-111 0 -160 -37t-51 -125q49 38 203 38zM483 122h68
q96 0 136.5 22.5t40.5 76.5q0 52 -40 74t-136 22h-67q-112 0 -161.5 -21t-49.5 -70q0 -57 48 -80.5t161 -23.5z" />
    <glyph glyph-name="seven" unicode="7" horiz-adv-x="842" 
d="M802 698v-89q0 -61 -18 -112t-54 -92t-77.5 -72t-101.5 -65q-87 -49 -144.5 -118.5t-58.5 -144.5v-5h-170v6q0 247 282 393q85 45 119.5 77t36.5 78h-397v-104h-179v248h762z" />
    <glyph glyph-name="eight" unicode="8" horiz-adv-x="978" 
d="M804 383q54 -28 74 -65.5t20 -109.5q0 -122 -78.5 -174t-264.5 -52h-129q-187 0 -266.5 52t-79.5 174q0 70 21 108.5t74 66.5q-34 26 -46 55.5t-12 85.5q0 106 71.5 150t239.5 44h124q167 0 238 -44.5t71 -149.5q0 -60 -11 -87.5t-46 -53.5zM525 586h-69q-90 0 -128 -18
t-38 -62q0 -42 38.5 -59.5t129.5 -17.5h67q88 0 125.5 17.5t37.5 59.5q0 44 -37.5 62t-125.5 18zM457 122h68q105 1 149.5 21t44.5 68q0 49 -44.5 70t-149.5 21h-67q-108 0 -153.5 -21t-45.5 -70q0 -48 45 -68t153 -21z" />
    <glyph glyph-name="nine" unicode="9" horiz-adv-x="987" 
d="M530 246h-126q-177 0 -250.5 53t-73.5 179q0 130 74.5 185t251.5 55h129q217 0 294.5 -76t77.5 -288q0 -216 -74 -294t-281 -78h-120q-181 0 -258 54.5t-78 182.5h176q-1 -54 42.5 -75.5t147.5 -21.5h60q109 0 157.5 37.5t51.5 126.5q-34 -24 -76 -32t-125 -8zM504 578
h-68q-96 0 -136.5 -22.5t-40.5 -77.5q0 -51 39.5 -73t136.5 -22h67q112 0 161.5 21t49.5 69q0 57 -48 81t-161 24z" />
    <glyph glyph-name="colon" unicode=":" horiz-adv-x="360" 
d="M260 593v-180h-160v180h160zM260 272v-180h-160v180h160z" />
    <glyph glyph-name="semicolon" unicode=";" horiz-adv-x="600" 
d="M260 320h-160v180h160v-180zM262 180v-230q0 -109 -116 -109h-45l-1 69h26q54 0 54 63v27h-78v180h160z" />
    <glyph glyph-name="equal" unicode="=" horiz-adv-x="640" 
d="M540 513v-130h-440v130h440zM540 323v-130h-440v130h440z" />
    <glyph glyph-name="question" unicode="?" horiz-adv-x="843" 
d="M240 486h-170q0 113 66.5 172.5t197.5 59.5h184q126 0 190.5 -49t64.5 -141q0 -43 -14.5 -75t-42.5 -51.5t-49.5 -29.5t-54.5 -20q-148 -46 -148 -121h-160q0 131 165 193q7 3 28 10.5t29 10.5t24.5 10t23.5 13t16 14t12.5 17.5t3.5 20.5q0 37 -30.5 53.5t-109.5 16.5
h-70q-89 0 -122.5 -25t-33.5 -79zM307 180h160v-180h-160v180z" />
    <glyph glyph-name="at" unicode="@" horiz-adv-x="999" 
d="M445 718h100q187 0 276 -87.5t89 -280.5l-2 -350h-175v51q-39 -65 -143 -65q-124 0 -169.5 54.5t-45.5 185.5t45.5 185.5t169.5 54.5q101 0 141 -61q-9 98 -58 133t-158 35h-40q-121 0 -169.5 -45.5t-48.5 -177.5v-350h-177v350q0 193 89 280.5t276 87.5zM625 99
q47 0 74 26.5t34 67.5v66q-7 41 -34 67.5t-74 26.5q-62 0 -87 -29.5t-25 -97.5q0 -69 24.5 -98.5t87.5 -28.5z" />
    <glyph glyph-name="A" unicode="A" horiz-adv-x="945" 
d="M690 117h-439l-60 -117h-179l361 700h188l372 -700h-181zM617 256l-148 276l-146 -276h294z" />
    <glyph glyph-name="B" unicode="B" horiz-adv-x="995" 
d="M100 0v700h565q108 0 169 -50.5t61 -138.5q0 -96 -62 -135q48 -20 75 -65t27 -103q0 -99 -61 -153.5t-179 -54.5h-595zM270 420h391q27 0 43 19.5t16 53.5q0 33 -16 52t-43 19h-391v-144zM270 136h408q36 0 58 21.5t22 58.5t-22 59t-58 22h-408v-161z" />
    <glyph glyph-name="C" unicode="C" 
d="M60 350q0 182 102 275t303 93h130q192 0 289 -72.5t96 -215.5h-179q1 71 -58.5 107t-177.5 36h-70q-127 0 -192.5 -56.5t-65.5 -166.5t65.5 -166.5t192.5 -56.5h70q118 0 177.5 36t58.5 107h179q1 -143 -96 -215.5t-289 -72.5h-130q-201 0 -303 93t-102 275z" />
    <glyph glyph-name="D" unicode="D" horiz-adv-x="978" 
d="M100 700h414q404 0 404 -350q0 -166 -99 -258t-305 -92h-414v700zM270 144h214q146 0 201.5 48.5t55.5 157.5t-55.5 157.5t-201.5 48.5h-214v-412z" />
    <glyph glyph-name="E" unicode="E" horiz-adv-x="867" 
d="M270 555v-125h428v-144h-428v-141h507v-145h-677v700h677v-145h-507z" />
    <glyph glyph-name="F" unicode="F" horiz-adv-x="817" 
d="M270 555v-146h437v-144h-437v-265h-170v700h677v-145h-507z" />
    <glyph glyph-name="G" unicode="G" 
d="M60 350q0 182 102 275t303 93h130q194 0 290 -64t95 -193h-179q2 112 -236 112h-70q-127 0 -192.5 -56.5t-65.5 -166.5t65.5 -166.5t192.5 -56.5h70q234 0 236 133l-351 2v125h530v-123q0 -282 -385 -282h-130q-201 0 -303 93t-102 275z" />
    <glyph glyph-name="H" unicode="H" horiz-adv-x="990" 
d="M890 700v-700h-170v288h-450v-288h-170v700h170v-268h450v268h170z" />
    <glyph glyph-name="I" unicode="I" horiz-adv-x="370" 
d="M100 0v700h170v-700h-170z" />
    <glyph glyph-name="J" unicode="J" horiz-adv-x="900" 
d="M70 274h173q-1 -87 41.5 -116.5t130.5 -29.5h70q52 1 84.5 15t47 44.5t19 60.5t4.5 81v226h-563v145h733v-390q0 -169 -64.5 -247.5t-230.5 -81.5h-130q-160 0 -237.5 72.5t-77.5 220.5z" />
    <glyph glyph-name="K" unicode="K" horiz-adv-x="969" 
d="M100 0v700h170v-267h286l193 267h199l-243 -334l244 -366h-202l-194 288l-283 1v-289h-170z" />
    <glyph glyph-name="L" unicode="L" horiz-adv-x="737" 
d="M100 0v700h170v-555h437v-145h-607z" />
    <glyph glyph-name="M" unicode="M" horiz-adv-x="1190" 
d="M100 0v700h170l325 -459l325 459h170v-700h-170v437l-262 -373l-126 -1l-262 374v-437h-170z" />
    <glyph glyph-name="N" unicode="N" horiz-adv-x="1000" 
d="M100 0v700h170l460 -472v472h170v-700h-170l-460 472v-472h-170z" />
    <glyph glyph-name="O" unicode="O" 
d="M465 718h130q201 0 303 -93t102 -275t-102 -275t-303 -93h-130q-201 0 -303 93t-102 275t102 275t303 93zM495 127h70q258 2 258 223q0 223 -258 223h-70q-258 0 -258 -223q0 -221 258 -223z" />
    <glyph glyph-name="P" unicode="P" horiz-adv-x="845" 
d="M100 0v700h420q127 0 201 -69.5t74 -187.5q0 -122 -74 -193.5t-201 -71.5h-250l2 -178h-172zM270 323h250q45 0 70.5 30t25.5 88q0 56 -25 85t-71 29h-250v-232z" />
    <glyph glyph-name="Q" unicode="Q" 
d="M595 -18h-130q-201 0 -303 93t-102 274q0 183 102 276t303 93h130q201 0 303 -93t102 -276q0 -240 -184 -326l86 -142h-189l-65 103q-34 -2 -53 -2zM495 127h62l-90 142h203l57 -94l5 -9q91 51 91 183q0 224 -258 224h-70q-258 0 -258 -224q0 -220 258 -222z" />
    <glyph glyph-name="R" unicode="R" horiz-adv-x="928" 
d="M100 0v700h470q126 0 200.5 -68t74.5 -178q0 -147 -116 -216l127 -238h-194l-106 198h-286v-198h-170zM270 343h300q45 0 70.5 29t25.5 80q0 48 -25.5 75.5t-70.5 27.5h-300v-212z" />
    <glyph glyph-name="S" unicode="S" horiz-adv-x="920" 
d="M65 241h179q0 -45 15 -69t63 -38t140 -14h20q121 0 159.5 14.5t38.5 58.5q0 20 -11.5 34t-32 22.5t-54 15t-71 11t-90.5 9.5h-2q-61 6 -107.5 14.5t-92 24.5t-74 39t-46.5 59.5t-18 83.5q0 109 76 160.5t262 51.5h100q323 0 323 -257h-179q0 64 -42 91.5t-147 27.5h-20
q-85 0 -127.5 -6.5t-57 -20.5t-14.5 -42q0 -42 60 -61.5t178 -30.5q52 -5 85 -8.5t72 -10t63 -14.5t50 -19.5t41 -27.5t27.5 -37t18 -48t5.5 -61q0 -103 -78.5 -157t-259.5 -54h-100q-136 0 -213.5 28t-108 83t-30.5 148z" />
    <glyph glyph-name="T" unicode="T" horiz-adv-x="750" 
d="M290 0v555h-270v145h710v-145h-270v-555h-170z" />
    <glyph glyph-name="U" unicode="U" horiz-adv-x="978" 
d="M888 700v-390q0 -328 -344 -328h-110q-344 0 -344 328v390h170v-390q0 -180 214 -182h30q214 0 214 182v390h170z" />
    <glyph glyph-name="V" unicode="V" horiz-adv-x="945" 
d="M373 0l-361 700h189l269 -527l274 527h189l-372 -700h-188z" />
    <glyph glyph-name="W" unicode="W" horiz-adv-x="1348" 
d="M188 0l-177 700h179l124 -510l265 510h190l264 -508l125 508h179l-177 -700h-189l-297 541l-297 -541h-189z" />
    <glyph glyph-name="X" unicode="X" horiz-adv-x="913" 
d="M27 0l319 349l-323 351h227l209 -243l208 243h223l-319 -350l319 -350h-223l-209 239l-6 -7l-202 -232h-223z" />
    <glyph glyph-name="Y" unicode="Y" horiz-adv-x="891" 
d="M532 0h-170v243l-350 457l208 1l227 -312l231 311h201l-347 -457v-243z" />
    <glyph glyph-name="Z" unicode="Z" horiz-adv-x="841" 
d="M790 145v-145h-750v117l489 438h-468v145h730v-123l-491 -432h490z" />
    <glyph glyph-name="backslash" unicode="\" horiz-adv-x="540" 
d="M350 0l-320 700h160l320 -700h-160z" />
    <glyph glyph-name="a" unicode="a" horiz-adv-x="945" 
d="M690 117h-439l-60 -117h-179l361 700h188l372 -700h-181zM617 256l-148 276l-146 -276h294z" />
    <glyph glyph-name="b" unicode="b" horiz-adv-x="995" 
d="M100 0v700h565q108 0 169 -50.5t61 -138.5q0 -96 -62 -135q48 -20 75 -65t27 -103q0 -99 -61 -153.5t-179 -54.5h-595zM270 420h391q27 0 43 19.5t16 53.5q0 33 -16 52t-43 19h-391v-144zM270 136h408q36 0 58 21.5t22 58.5t-22 59t-58 22h-408v-161z" />
    <glyph glyph-name="c" unicode="c" 
d="M60 350q0 182 102 275t303 93h130q192 0 289 -72.5t96 -215.5h-179q1 71 -58.5 107t-177.5 36h-70q-127 0 -192.5 -56.5t-65.5 -166.5t65.5 -166.5t192.5 -56.5h70q118 0 177.5 36t58.5 107h179q1 -143 -96 -215.5t-289 -72.5h-130q-201 0 -303 93t-102 275z" />
    <glyph glyph-name="d" unicode="d" horiz-adv-x="978" 
d="M100 700h414q404 0 404 -350q0 -166 -99 -258t-305 -92h-414v700zM270 144h214q146 0 201.5 48.5t55.5 157.5t-55.5 157.5t-201.5 48.5h-214v-412z" />
    <glyph glyph-name="e" unicode="e" horiz-adv-x="867" 
d="M270 555v-125h428v-144h-428v-141h507v-145h-677v700h677v-145h-507z" />
    <glyph glyph-name="f" unicode="f" horiz-adv-x="817" 
d="M270 555v-146h437v-144h-437v-265h-170v700h677v-145h-507z" />
    <glyph glyph-name="g" unicode="g" 
d="M60 350q0 182 102 275t303 93h130q194 0 290 -64t95 -193h-179q2 112 -236 112h-70q-127 0 -192.5 -56.5t-65.5 -166.5t65.5 -166.5t192.5 -56.5h70q234 0 236 133l-351 2v125h530v-123q0 -282 -385 -282h-130q-201 0 -303 93t-102 275z" />
    <glyph glyph-name="h" unicode="h" horiz-adv-x="990" 
d="M890 700v-700h-170v288h-450v-288h-170v700h170v-268h450v268h170z" />
    <glyph glyph-name="i" unicode="i" horiz-adv-x="370" 
d="M100 0v700h170v-700h-170z" />
    <glyph glyph-name="j" unicode="j" horiz-adv-x="900" 
d="M70 274h173q-1 -87 41.5 -116.5t130.5 -29.5h70q52 1 84.5 15t47 44.5t19 60.5t4.5 81v226h-563v145h733v-390q0 -169 -64.5 -247.5t-230.5 -81.5h-130q-160 0 -237.5 72.5t-77.5 220.5z" />
    <glyph glyph-name="k" unicode="k" horiz-adv-x="969" 
d="M100 0v700h170v-267h286l193 267h199l-243 -334l244 -366h-202l-194 288l-283 1v-289h-170z" />
    <glyph glyph-name="l" unicode="l" horiz-adv-x="737" 
d="M100 0v700h170v-555h437v-145h-607z" />
    <glyph glyph-name="m" unicode="m" horiz-adv-x="1190" 
d="M100 0v700h170l325 -459l325 459h170v-700h-170v437l-262 -373l-126 -1l-262 374v-437h-170z" />
    <glyph glyph-name="n" unicode="n" horiz-adv-x="1000" 
d="M100 0v700h170l460 -472v472h170v-700h-170l-460 472v-472h-170z" />
    <glyph glyph-name="o" unicode="o" 
d="M465 718h130q201 0 303 -93t102 -275t-102 -275t-303 -93h-130q-201 0 -303 93t-102 275t102 275t303 93zM495 127h70q258 2 258 223q0 223 -258 223h-70q-258 0 -258 -223q0 -221 258 -223z" />
    <glyph glyph-name="p" unicode="p" horiz-adv-x="845" 
d="M100 0v700h420q127 0 201 -69.5t74 -187.5q0 -122 -74 -193.5t-201 -71.5h-250l2 -178h-172zM270 323h250q45 0 70.5 30t25.5 88q0 56 -25 85t-71 29h-250v-232z" />
    <glyph glyph-name="q" unicode="q" 
d="M595 -18h-130q-201 0 -303 93t-102 274q0 183 102 276t303 93h130q201 0 303 -93t102 -276q0 -240 -184 -326l86 -142h-189l-65 103q-34 -2 -53 -2zM495 127h62l-90 142h203l57 -94l5 -9q91 51 91 183q0 224 -258 224h-70q-258 0 -258 -224q0 -220 258 -222z" />
    <glyph glyph-name="r" unicode="r" horiz-adv-x="928" 
d="M100 0v700h470q126 0 200.5 -68t74.5 -178q0 -147 -116 -216l127 -238h-194l-106 198h-286v-198h-170zM270 343h300q45 0 70.5 29t25.5 80q0 48 -25.5 75.5t-70.5 27.5h-300v-212z" />
    <glyph glyph-name="s" unicode="s" horiz-adv-x="920" 
d="M65 241h179q0 -45 15 -69t63 -38t140 -14h20q121 0 159.5 14.5t38.5 58.5q0 20 -11.5 34t-32 22.5t-54 15t-71 11t-90.5 9.5h-2q-61 6 -107.5 14.5t-92 24.5t-74 39t-46.5 59.5t-18 83.5q0 109 76 160.5t262 51.5h100q323 0 323 -257h-179q0 64 -42 91.5t-147 27.5h-20
q-85 0 -127.5 -6.5t-57 -20.5t-14.5 -42q0 -42 60 -61.5t178 -30.5q52 -5 85 -8.5t72 -10t63 -14.5t50 -19.5t41 -27.5t27.5 -37t18 -48t5.5 -61q0 -103 -78.5 -157t-259.5 -54h-100q-136 0 -213.5 28t-108 83t-30.5 148z" />
    <glyph glyph-name="t" unicode="t" horiz-adv-x="750" 
d="M290 0v555h-270v145h710v-145h-270v-555h-170z" />
    <glyph glyph-name="u" unicode="u" horiz-adv-x="978" 
d="M888 700v-390q0 -328 -344 -328h-110q-344 0 -344 328v390h170v-390q0 -180 214 -182h30q214 0 214 182v390h170z" />
    <glyph glyph-name="v" unicode="v" horiz-adv-x="945" 
d="M373 0l-361 700h189l269 -527l274 527h189l-372 -700h-188z" />
    <glyph glyph-name="w" unicode="w" horiz-adv-x="1348" 
d="M188 0l-177 700h179l124 -510l265 510h190l264 -508l125 508h179l-177 -700h-189l-297 541l-297 -541h-189z" />
    <glyph glyph-name="x" unicode="x" horiz-adv-x="913" 
d="M27 0l319 349l-323 351h227l209 -243l208 243h223l-319 -350l319 -350h-223l-209 239l-6 -7l-202 -232h-223z" />
    <glyph glyph-name="y" unicode="y" horiz-adv-x="891" 
d="M532 0h-170v243l-350 457l208 1l227 -312l231 311h201l-347 -457v-243z" />
    <glyph glyph-name="z" unicode="z" horiz-adv-x="841" 
d="M790 145v-145h-750v117l489 438h-468v145h730v-123l-491 -432h490z" />
    <glyph glyph-name="cent" unicode="&#xa2;" horiz-adv-x="771" 
d="M364 141h50q65 0 96.5 31t31.5 84h169q0 -102 -66 -170.5t-175 -76.5v-107h-160v107q-113 8 -181.5 89t-68.5 203t68.5 203t181.5 89v105h160v-105q109 -7 175 -73t66 -164h-169q0 48 -31.5 76.5t-96.5 28.5h-50q-69 0 -103 -43.5t-34 -116.5t34 -116.5t103 -43.5z" />
    <glyph glyph-name="minus" unicode="&#x2212;" horiz-adv-x="600" 
d="M540 425v-140h-490v140h490z" />
    <glyph glyph-name="A.ss01" horiz-adv-x="945" 
d="M690 117h-439l-60 -117h-179l361 700h188l372 -700h-181zM617 256l-148 276l-146 -276h294z" />
    <glyph glyph-name="B.ss01" horiz-adv-x="995" 
d="M935 208q0 -99 -61 -153.5t-179 -54.5h-595v700h565q108 0 169 -50.5t61 -138.5q0 -99 -62 -135q102 -46 102 -168zM270 420h391q27 0 43 19.5t16 53.5q0 33 -16 52t-43 19h-391v-144zM270 136h408q36 0 58 21.5t22 58.5t-22 59t-58 22h-408v-161z" />
    <glyph glyph-name="C.ss01" 
d="M495 127h70q118 0 177.5 36t58.5 107h179q1 -143 -96 -215.5t-289 -72.5h-130q-201 0 -303 93t-102 275t102 275t303 93h130q192 0 289 -72.5t96 -215.5h-179q1 71 -58.5 107t-177.5 36h-70q-127 0 -192.5 -56.5t-65.5 -166.5t65.5 -166.5t192.5 -56.5z" />
    <glyph glyph-name="D.ss01" horiz-adv-x="978" 
d="M100 700h414q404 0 404 -350q0 -166 -99 -258t-305 -92h-414v700zM270 144h214q146 0 201.5 48.5t55.5 157.5t-55.5 157.5t-201.5 48.5h-214v-412z" />
    <glyph glyph-name="E.ss01" horiz-adv-x="867" 
d="M270 555v-125h428v-144h-428v-141h507v-145h-677v700h677v-145h-507z" />
    <glyph glyph-name="F.ss01" horiz-adv-x="817" 
d="M270 555v-146h437v-144h-437v-265h-170v700h677v-145h-507z" />
    <glyph glyph-name="G.ss01" 
d="M980 387v-123q0 -282 -385 -282h-130q-201 0 -303 93t-102 275t102 275t303 93h130q192 0 289 -65t96 -193h-179q2 113 -236 113h-70q-127 0 -192.5 -56.5t-65.5 -166.5t65.5 -166.5t192.5 -56.5h70q234 0 236 133v2h-351v125h530z" />
    <glyph glyph-name="H.ss01" horiz-adv-x="990" 
d="M890 700v-700h-170v288h-450v-288h-170v700h170v-268h450v268h170z" />
    <glyph glyph-name="I.ss01" horiz-adv-x="360" 
d="M260 0h-160v700h160v-700z" />
    <glyph glyph-name="J.ss01" horiz-adv-x="900" 
d="M810 700v-390q0 -169 -64.5 -247t-230.5 -81h-130q-160 0 -237.5 72.5t-77.5 219.5h173q-1 -86 41.5 -115.5t130.5 -29.5h70q42 1 71.5 11.5t45.5 26.5t25 43.5t11 53t2 65.5v226h-563v145h733z" />
    <glyph glyph-name="K.ss01" horiz-adv-x="967" 
d="M100 0v700h170v-267h286l193 267h199l-243 -334l244 -366h-202l-194 288l-283 1v-289h-170z" />
    <glyph glyph-name="L.ss01" horiz-adv-x="737" 
d="M707 145v-145h-607v700h170v-555h437z" />
    <glyph glyph-name="M.ss01" horiz-adv-x="1190" 
d="M1090 700v-700h-170v437l-262 -374v1h-126v-1l-262 374v-437h-170v700h170l325 -459l325 459h170z" />
    <glyph glyph-name="N.ss01" horiz-adv-x="1000" 
d="M100 0v700h170l460 -472v472h170v-700h-170l-460 472v-472h-170z" />
    <glyph glyph-name="O.ss01" 
d="M465 718h130q201 0 303 -93t102 -275t-102 -275t-303 -93h-130q-201 0 -303 93t-102 275t102 275t303 93zM495 127h70q258 2 258 223q0 223 -258 223h-70q-258 0 -258 -223q0 -221 258 -223z" />
    <glyph glyph-name="P.ss01" horiz-adv-x="845" 
d="M270 178l2 -178h-172v700h420q127 0 201 -69.5t74 -187.5q0 -122 -74 -193.5t-201 -71.5h-250zM270 323h250q45 0 70.5 30t25.5 88q0 56 -25 85t-71 29h-250v-232z" />
    <glyph glyph-name="Q.ss01" 
d="M1000 349q0 -242 -181 -326v-2l83 -140h-189v-1l-65 103v1q-34 -2 -53 -2h-130q-201 0 -303 93t-102 274q0 183 102 276t303 93h130q201 0 303 -93t102 -276zM732 166v-1q91 52 91 184q0 224 -258 224h-70q-258 0 -258 -224q0 -220 258 -222h62l-90 141h203v1z" />
    <glyph glyph-name="R.ss01" horiz-adv-x="928" 
d="M556 198h-286v-198h-170v700h470q126 0 200.5 -68t74.5 -178q0 -148 -114 -216v-3l125 -235h-194zM270 343h300q45 0 70.5 29t25.5 80q0 48 -25.5 75.5t-70.5 27.5h-300v-212z" />
    <glyph glyph-name="S.ss01" horiz-adv-x="920" 
d="M493 419q52 -5 85 -8.5t72 -10t63 -14.5t50 -19.5t41 -27.5t27.5 -37t18 -48t5.5 -61q0 -103 -78.5 -157t-259.5 -54h-100q-135 0 -212.5 28t-108 82t-31.5 146h179q-2 -43 13 -66.5t64 -37.5t141 -14h20q121 0 159.5 14.5t38.5 58.5q0 20 -11.5 34t-32 22.5t-54 15
t-71 11t-90.5 9.5h-2q-61 6 -107.5 14.5t-92 24.5t-74 39t-46.5 59.5t-18 83.5q0 109 76 160.5t262 51.5h100q162 0 242 -66t81 -189h-179v-2q0 64 -42 91.5t-147 27.5h-20q-85 0 -127.5 -6.5t-57 -20.5t-14.5 -42q0 -42 60 -61.5t178 -30.5zM842 463v-2v2zM244 241v-3v3z
M65 238v2v-2z" />
    <glyph glyph-name="T.ss01" horiz-adv-x="750" 
d="M730 700v-145h-270v-555h-170v555h-270v145h710z" />
    <glyph glyph-name="U.ss01" horiz-adv-x="978" 
d="M888 700v-390q0 -328 -344 -328h-110q-344 0 -344 328v390h170v-390q0 -180 214 -182h30q214 0 214 182v390h170z" />
    <glyph glyph-name="V.ss01" horiz-adv-x="945" 
d="M933 700l-372 -700h-188l-361 700h189l269 -527l274 527h189z" />
    <glyph glyph-name="W.ss01" horiz-adv-x="1348" 
d="M1160 0h-189l-297 541l-297 -541h-189l-177 700h179l124 -510l265 510h190l264 -508l125 508h179z" />
    <glyph glyph-name="X.ss01" horiz-adv-x="913" 
d="M890 0h-223l-209 239l-208 -239h-223l319 349l-323 351h227l209 -243l208 243h223l-319 -350z" />
    <glyph glyph-name="Y.ss01" horiz-adv-x="891" 
d="M532 0h-170v243l-350 457h208l227 -311l231 311h201l-347 -457v-243z" />
    <glyph glyph-name="Z.ss01" horiz-adv-x="841" 
d="M300 145h490v-145h-750v117l489 438h-468v145h730v-123z" />
    <glyph glyph-name="A.ss08" horiz-adv-x="1533" 
d="M1199 118h-867l-113 -118h-209l662 700h182l669 -700h-208zM1061 259l-298 306l-294 -306h592z" />
    <glyph glyph-name="B.ss08" horiz-adv-x="1660" 
d="M1497 376q103 -48 103 -169q0 -207 -240 -207h-1260v700h1230q230 0 230 -188q0 -98 -63 -136zM270 425h1056q59 0 59 69t-59 69h-1056v-138zM270 137h1073q80 0 80 77q0 78 -80 78h-1073v-155z" />
    <glyph glyph-name="C.ss08" horiz-adv-x="1628" 
d="M1379 280h179q1 -148 -96 -223t-289 -75h-708q-200 0 -302.5 94t-102.5 274t102.5 274t302.5 94h708q192 0 289 -75t96 -223h-179q3 149 -236 149h-648q-127 0 -192.5 -56.5t-65.5 -162.5t65.5 -162.5t192.5 -56.5h648q239 0 236 149z" />
    <glyph glyph-name="D.ss08" horiz-adv-x="1660" 
d="M100 700h1096q200 0 302 -88.5t102 -261.5t-102 -261.5t-302 -88.5h-1096v700zM270 146h896q257 0 257 204t-257 204h-896v-408z" />
    <glyph glyph-name="E.ss08" horiz-adv-x="1700" 
d="M270 557v-129h1330v-140h-1330v-145h1330v-143h-1500v700h1500v-143h-1330z" />
    <glyph glyph-name="F.ss08" horiz-adv-x="1700" 
d="M270 554v-123h1330v-146h-1330v-285h-170v700h1500v-146h-1330z" />
    <glyph glyph-name="G.ss08" horiz-adv-x="1639" 
d="M1559 446h-179q3 123 -236 123h-649q-127 0 -192.5 -56.5t-65.5 -162.5t65.5 -162.5t192.5 -56.5h649q233 0 236 116h-816v137h995v-130q0 -272 -385 -272h-709q-200 0 -302.5 94t-102.5 274t102.5 274t302.5 94h709q194 0 290.5 -67.5t94.5 -204.5z" />
    <glyph glyph-name="H.ss08" horiz-adv-x="1700" 
d="M1600 700v-700h-170v287h-1160v-287h-170v700h170v-267h1160v267h170z" />
    <glyph glyph-name="I.ss08" horiz-adv-x="1700" 
d="M935 554v-408h665v-146h-1500v146h665l-1 408h-664v146h1500v-146h-665z" />
    <glyph glyph-name="J.ss08" horiz-adv-x="1680" 
d="M1590 700v-390q0 -167 -65 -246t-230 -82h-889q-158 0 -237 75t-79 217h174q-1 -82 41.5 -112.5t130.5 -30.5h829q42 1 71 11t45.5 25t25.5 42.5t11 53.5t2 67v224h-1322v146h1492z" />
    <glyph glyph-name="K.ss08" horiz-adv-x="1626" 
d="M100 0v700h170v-266h868l261 266h213l-318 -338l332 -362h-220l-273 288h-863v-288h-170z" />
    <glyph glyph-name="L.ss08" horiz-adv-x="1660" 
d="M1600 306v-306h-1500v700h170v-554h1160v160h170z" />
    <glyph glyph-name="M.ss08" horiz-adv-x="1700" 
d="M1600 700v-700h-170v478l-496 -478h-168l-496 478v-478h-170v700h167l583 -560l583 560h167z" />
    <glyph glyph-name="N.ss08" horiz-adv-x="1700" 
d="M1600 700v-700h-168l-1162 531v-531h-170v700h167l1163 -533v533h170z" />
    <glyph glyph-name="O.ss08" horiz-adv-x="1620" 
d="M465 718h690q200 0 302.5 -94t102.5 -274t-102.5 -274t-302.5 -94h-690q-200 0 -302.5 94t-102.5 274t102.5 274t302.5 94zM495 131h630q127 0 192.5 56.5t65.5 162.5t-65.5 162.5t-192.5 56.5h-630q-127 0 -192.5 -56.5t-65.5 -162.5t65.5 -162.5t192.5 -56.5z" />
    <glyph glyph-name="P.ss08" horiz-adv-x="1650" 
d="M272 0h-172v700h1225q126 0 200.5 -70t74.5 -188q0 -123 -74.5 -195t-200.5 -72h-1055zM270 321h1055q96 0 96 119q0 114 -96 114h-1055v-233z" />
    <glyph glyph-name="Q.ss08" horiz-adv-x="1620" 
d="M1560 349q0 -180 -102.5 -273.5t-302.5 -93.5h-2l85 -130h-194l-89 130h-490q-200 0 -302.5 93.5t-102.5 273.5q0 182 102.5 275.5t302.5 93.5h690q200 0 302.5 -93.5t102.5 -275.5zM1057 132h68q127 0 192.5 56t65.5 161q0 108 -65.5 164t-192.5 56h-630
q-127 0 -192.5 -56t-65.5 -164q0 -105 65.5 -161t192.5 -56h359l-103 148h208z" />
    <glyph glyph-name="R.ss08" horiz-adv-x="1654" 
d="M1280 195h-1010v-195h-170v700h1212q125 0 200 -68.5t75 -179.5q0 -157 -131 -220l148 -232h-198zM270 341h1042q46 0 71 28t25 81q0 50 -25 77t-71 27h-1042v-213z" />
    <glyph glyph-name="S.ss08" horiz-adv-x="1645" 
d="M860 422q383 -4 488 -16q145 -17 190 -71q34 -42 32 -128q-1 -25 -2.5 -42t-9 -42.5t-20 -43.5t-36.5 -37.5t-57.5 -31.5t-84.5 -20t-115 -8h-827q-135 0 -211 29t-104 82t-28 143h178q0 -47 15.5 -69.5t60.5 -33t139 -10.5h727q122 0 160 15t38 60q0 19 -9 31
t-37.5 21.5t-67 15t-113.5 10t-161 6t-224 3.5q-344 4 -456 20q-163 23 -208 94q-24 37 -24 93q0 59 14.5 98.5t50 69.5t100 44t161.5 14h834q161 0 238 -66.5t76 -187.5h-179q1 60 -38.5 86t-146.5 26h-734q-123 0 -160.5 -14.5t-37.5 -57.5q0 -49 117.5 -63.5t471.5 -18.5
z" />
    <glyph glyph-name="T.ss08" horiz-adv-x="1620" 
d="M1560 700v-305h-170v164h-520v-559h-170v559h-470v-164h-170v305h1500z" />
    <glyph glyph-name="U.ss08" horiz-adv-x="1680" 
d="M1590 700v-394q0 -154 -92 -239t-252 -85h-812q-163 0 -253.5 84.5t-90.5 239.5v394h175v-390q0 -96 47 -135.5t167 -39.5h723q117 0 165.5 40t48.5 135v390h174z" />
    <glyph glyph-name="V.ss08" horiz-adv-x="1493" 
d="M1253 700h230l-652 -700h-178l-643 700h230l502 -549z" />
    <glyph glyph-name="W.ss08" horiz-adv-x="1582" 
d="M180 0l-140 700h180l92 -549l389 549h180l390 -550l93 550h178l-140 -700h-221l-390 544l-390 -544h-221z" />
    <glyph glyph-name="X.ss08" horiz-adv-x="1636" 
d="M1622 0h-216l-270 286h-631l-270 -286h-216l330 361l-316 344l219 -5l252 -264h632l253 264l219 5l-317 -344z" />
    <glyph glyph-name="Y.ss08" horiz-adv-x="1541" 
d="M853 0h-170v240h-1l-672 460h260l498 -327l504 327h259l-678 -460v-240z" />
    <glyph glyph-name="Z.ss08" horiz-adv-x="1600" 
d="M1549 144v-144h-1499v144l1107 412h-1086v144h1479v-144l-1107 -412h1106z" />
    <glyph glyph-name="zero.ss01" horiz-adv-x="1090" 
d="M475 718h140q204 0 304.5 -91.5t100.5 -276.5t-100.5 -276.5t-304.5 -91.5h-140q-204 0 -304.5 91.5t-100.5 276.5t100.5 276.5t304.5 91.5zM586 578h-81q-139 0 -198.5 -52.5t-59.5 -175.5t59.5 -175.5t198.5 -52.5h80q139 0 198.5 52.5t59.5 175.5t-59.5 175.5
t-197.5 52.5zM660 421v-140h-229v140h229z" />
    <glyph glyph-name="one.ss01" horiz-adv-x="820" 
d="M785 140v-140h-750v140h369v250h-299v140h182q57 3 87 28t30 69v73h170v-560h211z" />
    <glyph glyph-name="two.ss01" horiz-adv-x="936" 
d="M488 247q-99 -11 -147 -36.5t-48 -70.5h563v-140h-776v59q0 153 95 232.5t316 97.5q46 5 75.5 10.5t55.5 16t38 27.5t12 41q-1 51 -42.5 72.5t-137.5 21.5h-60q-90 0 -128.5 -34.5t-37.5 -116.5h-179q-1 158 71 224.5t244 66.5h120q175 0 249.5 -53t76.5 -177
q1 -60 -14.5 -100.5t-33 -63.5t-73 -38.5t-91.5 -21t-131 -15.5q-11 -1 -17 -2z" />
    <glyph glyph-name="three.ss01" horiz-adv-x="909" 
d="M705 416q71 -17 101.5 -63t32.5 -137q0 -126 -69.5 -180t-233.5 -54h-130q-183 0 -260.5 62t-75.5 207h180q-1 -71 41.5 -100t144.5 -29h70q84 0 119 21t35 73q0 43 -15.5 61t-50.5 18h-221v132h118q42 0 75 36.5t50 96.5h-358v-82h-169v222h723q0 -110 -23.5 -172.5
t-83.5 -111.5z" />
    <glyph glyph-name="four.ss01" horiz-adv-x="833" 
d="M793 116h-94v-115h-160v115h-499v89q0 70 26.5 127t63.5 93.5t104 86.5q59 44 99 95t41 93h170q0 -26 -3 -48.5t-12 -44t-15.5 -37t-23.5 -35t-25 -29.5t-31.5 -30t-31.5 -27t-36.5 -29t-36.5 -28q-30 -24 -46.5 -39t-35 -41t-20.5 -50h312v131h160v-131h94v-146z" />
    <glyph glyph-name="five.ss01" horiz-adv-x="918" 
d="M416 450h127q167 0 236 -50t69 -179t-69.5 -184t-233.5 -55h-130q-183 0 -260 55t-75 184h179q-1 -54 41 -76.5t145 -22.5h70q84 0 119 23t35 79q0 52 -36 74.5t-122 22.5h-66q-80 0 -121.5 -9t-62.5 -33l-174 59l42 362h668v-203h-179v69h-341l-20 -151l1 -1
q60 37 158 36z" />
    <glyph glyph-name="six.ss01" horiz-adv-x="987" 
d="M457 454h126q178 0 251 -52.5t73 -180.5q0 -129 -74.5 -184t-251.5 -55h-129q-211 0 -291.5 77t-80.5 286q0 113 17.5 184t60.5 114t108 59t169 16h120q181 0 258 -53.5t78 -178.5h-176q1 50 -42.5 71t-147.5 21h-60q-109 0 -157.5 -37t-51.5 -123v-2h1q49 38 200 38z
M483 122h68q96 0 136.5 22.5t40.5 76.5q0 52 -40 74t-136 22h-67q-112 0 -161.5 -21t-49.5 -70q0 -57 48 -80.5t161 -23.5z" />
    <glyph glyph-name="seven.ss01" horiz-adv-x="842" 
d="M802 700v-89q0 -118 -64 -196t-187 -147q-89 -50 -146 -121.5t-57 -146.5h-170q-2 252 282 399q84 44 119 77.5t37 79.5h-397v-106h-179v250h762z" />
    <glyph glyph-name="eight.ss01" horiz-adv-x="978" 
d="M803 382q52 -26 73.5 -65.5t21.5 -108.5q0 -122 -78.5 -174t-264.5 -52h-129q-187 0 -266.5 52t-79.5 174q0 69 21.5 108.5t73.5 65.5q-33 26 -45.5 57t-12.5 85q0 106 71.5 150t239.5 44h124q167 0 238 -44.5t71 -149.5q0 -54 -12.5 -85t-45.5 -57zM525 586h-69
q-90 0 -128 -18t-38 -62q0 -42 38.5 -59.5t129.5 -17.5h67q88 0 125.5 17.5t37.5 59.5q0 44 -37.5 62t-125.5 18zM457 122h68q105 1 149.5 21t44.5 68q0 49 -44.5 70t-149.5 21h-67q-108 0 -153.5 -21t-45.5 -70q0 -48 45 -68t153 -21z" />
    <glyph glyph-name="nine.ss01" horiz-adv-x="987" 
d="M530 246h-126q-177 0 -250.5 53t-73.5 179q0 130 74.5 185t251.5 55h129q217 0 294.5 -76t77.5 -288q0 -216 -74 -294t-281 -78h-120q-181 0 -258 54.5t-78 182.5h176q-1 -54 42.5 -75.5t147.5 -21.5h60q111 0 158.5 37t49.5 129q-55 -42 -200 -42zM504 578h-68
q-96 0 -136.5 -22.5t-40.5 -77.5q0 -51 39.5 -73t136.5 -22h67q112 0 161.5 21t49.5 69q0 57 -48 81t-161 24z" />
    <glyph glyph-name="zero.ss08" horiz-adv-x="1640" 
d="M475 718h690q218 0 311.5 -85.5t93.5 -282.5t-93.5 -282.5t-311.5 -85.5h-690q-218 0 -311.5 85.5t-93.5 282.5t93.5 282.5t311.5 85.5zM1136 578h-631q-139 0 -198.5 -52.5t-59.5 -175.5t59.5 -175.5t198.5 -52.5h630q139 0 198.5 52.5t59.5 175.5t-59 175.5t-198 52.5z
M1203 419v-138h-772v140z" />
    <glyph glyph-name="one.ss08" horiz-adv-x="1570" 
d="M229 534h513q117 6 117 93v73h170v-555h511v-145h-1500v145h819v241h-630v148z" />
    <glyph glyph-name="two.ss08" horiz-adv-x="1648" 
d="M78 0v62q0 63 2.5 101.5t17 78t33 60t62 41.5t92 30t135.5 17t180 11t237 5q129 2 211 4.5t149.5 7t102.5 10.5t59 16t31 22.5t7 31.5q0 43 -44.5 61.5t-144.5 18.5h-778q-93 0 -135.5 -33t-40.5 -105h-179q-2 144 75.5 211t249.5 67h838q174 0 254 -53.5t81 -167.5
q0 -101 -38 -141q-47 -49 -202 -65q-112 -12 -499 -19q-116 -2 -203.5 -7t-147 -10t-99 -15.5t-60.5 -18.5t-31.5 -24t-12 -26t-2.5 -31h1294v-140h-1494z" />
    <glyph glyph-name="three.ss08" horiz-adv-x="1698" 
d="M100 254h180q-1 -72 41.5 -102t144.5 -30h799q84 0 119 18t35 62q0 41 -36 58t-120 17h-860v138h860q42 12 68 47.5t43 100.5h-1086v-92h-169v229h1452q0 -112 -22.5 -182t-74.5 -122q66 -20 95 -65t29 -129q0 -118 -70 -169t-233 -51h-859q-184 0 -261.5 63t-74.5 209z
" />
    <glyph glyph-name="four.ss08" horiz-adv-x="1580" 
d="M1540 268v-148h-104v-121h-160v122h-1236v107q0 62 19.5 107t56 77t102.5 56t144.5 40t197.5 32q169 23 261.5 54.5t92.5 81.5v24h190v-24q0 -42 -13 -76.5t-33.5 -59.5t-57 -46t-71.5 -35t-91 -27t-101 -21t-115 -19q-241 -38 -280 -47q-83 -21 -98 -58q-3 -9 -4 -19
h1036v131h160v-131h104z" />
    <glyph glyph-name="five.ss08" horiz-adv-x="1618" 
d="M396 452h857q167 0 236 -51t69 -181q0 -128 -70 -183t-233 -55h-860q-184 0 -261 56t-74 186h179q-3 -55 40 -78.5t146 -23.5h800q83 0 118.5 22.5t35.5 76.5t-36 76.5t-122 22.5h-796q-147 0 -185 -42l-174 54l53 368h1378v-210h-179v73h-1055l-25 -146q52 35 158 35z
" />
    <glyph glyph-name="six.ss08" horiz-adv-x="1630" 
d="M452 464h799q170 0 242 -56t72 -188q0 -128 -75 -183t-251 -55h-802q-112 0 -180.5 15.5t-113 57.5t-61.5 110.5t-17 179.5q0 114 16 184.5t58.5 114t108 59.5t172.5 16h793q180 0 252.5 -50t73.5 -173h-176q2 47 -37 65t-143 18h-733q-111 0 -159.5 -35.5t-50.5 -120.5
q56 41 212 41zM468 122h741q96 0 136.5 22.5t40.5 77.5q0 56 -38 79t-128 23h-740q-120 0 -170.5 -21.5t-50.5 -73.5q0 -58 48 -82.5t161 -24.5z" />
    <glyph glyph-name="seven.ss08" horiz-adv-x="1580" 
d="M1550 700v-115q0 -148 -121.5 -231t-360.5 -127q-372 -68 -372 -193v-34h-190v34q0 134 123.5 222.5t348.5 121.5q356 51 366 174h-1124v-112h-170v260h1500z" />
    <glyph glyph-name="eight.ss08" horiz-adv-x="1620" 
d="M1473 384q47 -27 67 -67t20 -108q0 -122 -79 -174.5t-264 -52.5h-811q-186 0 -266 52.5t-80 174.5q0 67 20.5 107.5t67.5 67.5q-51 45 -51 141q0 104 71.5 148.5t239.5 44.5h806q166 0 237.5 -44.5t71.5 -148.5q0 -94 -50 -141zM1187 578h-751q-90 0 -128 -16.5
t-38 -54.5q0 -36 39 -52t129 -16h749q87 0 125 16t38 52q0 38 -37.5 54.5t-125.5 16.5zM437 122h750q105 0 149.5 20.5t44.5 69.5q0 47 -44.5 67t-149.5 20h-749q-107 0 -153 -20t-46 -67q0 -49 45 -69.5t153 -20.5z" />
    <glyph glyph-name="nine.ss08" horiz-adv-x="1630" 
d="M1178 243h-799q-169 0 -241.5 55.5t-72.5 185.5q0 126 75 180t251 54h802q112 0 180.5 -15.5t113 -57.5t61.5 -110.5t17 -179.5q0 -114 -16 -184t-58.5 -113.5t-108 -59.5t-172.5 -16h-793q-180 0 -257.5 53.5t-78.5 177.5h176q-1 -49 42.5 -70t147.5 -21h733
q111 0 158.5 36.5t49.5 125.5q-56 -41 -210 -41zM1162 578h-741q-95 0 -136 -21.5t-41 -71.5q0 -56 38 -79t128 -23h740q120 0 170.5 21.5t50.5 73.5q0 53 -48.5 76.5t-160.5 23.5z" />
    <glyph glyph-name="question.ss01" horiz-adv-x="843" 
d="M334 718h184q253 0 253 -190q0 -34 -11 -62t-25.5 -45t-39 -31.5t-41.5 -21t-43 -14.5q-147 -46 -149 -121h-156q1 128 164 189q7 3 25 9t25.5 9t22.5 9.5t22 11t17 11.5t14.5 13.5t8 15.5t3.5 19q0 38 -31 55t-111 17h-70q-89 0 -123 -25t-35 -79h-166q1 230 262 230z
M305 180h160v-180h-160v180z" />
    <glyph glyph-name="question.ss08" horiz-adv-x="1640" 
d="M242 472h-166q0 127 64 186.5t196 59.5h979q125 0 191 -51.5t66 -143.5q0 -48 -15 -81t-55.5 -59t-114.5 -40.5t-188 -18.5q-77 -3 -124 -6t-88.5 -7.5t-62.5 -10.5t-36.5 -15.5t-20 -21.5t-4.5 -30h-164q0 40 4 65.5t17 52t38.5 42t68 29t106.5 20.5t153 10
q103 3 162.5 7.5t95 13t46.5 19.5t11 30q0 32 -27.5 46t-110.5 14h-865q-91 0 -123.5 -25t-32.5 -85zM704 180h160v-180h-160v180z" />
    <glyph glyph-name="emdash.ss01" horiz-adv-x="991" 
d="M889 405v-126h-787v126h787z" />
    <glyph glyph-name="emdash.ss08" horiz-adv-x="1859" 
d="M1600 411v-138h-1500v138h1500z" />
    <glyph glyph-name="space.ss01" horiz-adv-x="400" 
 />
    <glyph glyph-name="space.ss08" horiz-adv-x="1250" 
 />
    <glyph glyph-name="cent.ss01" horiz-adv-x="771" 
d="M414 463h-50q-70 0 -104.5 -44t-34.5 -118t34.5 -118t104.5 -44h50q65 0 97 31t33 84v-2h165q-2 -101 -67.5 -167.5t-173.5 -73.5v-107h-156v107q-113 7 -181.5 87.5t-68.5 202.5t68.5 202.5t181.5 87.5v105h156v-105q108 -7 173.5 -70.5t67.5 -160.5h-165v-2
q-1 48 -33 76.5t-97 28.5zM709 358v2v-2zM709 252v2v-2z" />
    <glyph glyph-name="dollar.ss01" horiz-adv-x="920" 
d="M855 199q0 -100 -74 -154t-244 -57v-143h-156v143q-178 5 -246.5 64.5t-69.5 191.5h179q-2 -43 13 -66.5t64 -37.5t141 -14h20q121 0 159.5 14.5t38.5 58.5q0 20 -11.5 34t-32 22.5t-54 15t-71 11t-90.5 9.5h-2q-61 6 -107.5 14.5t-92 24.5t-74 39t-46.5 59.5t-18 83.5
q0 102 65.5 153t224.5 58v131h156v-130q313 -3 315 -255h-179v-2q0 64 -42 91.5t-147 27.5h-20q-85 0 -127.5 -6.5t-57 -20.5t-14.5 -42q0 -42 60 -61.5t178 -30.5q52 -5 85 -8.5t72 -10t63 -14.5t50 -19.5t41 -27.5t27.5 -37t18 -48t5.5 -61zM842 469v-2v2zM244 247v-3v3z
M65 244v2v-2z" />
    <glyph glyph-name="cent.ss08" horiz-adv-x="1620" 
d="M414 143h799q178 0 178 113h169q0 -128 -77.5 -189t-239.5 -61h-350v-106h-160v106h-349q-165 0 -244.5 72t-79.5 223t79.5 223t244.5 72h349v104h160v-104h350q162 0 239.5 -59t77.5 -181h-169q0 103 -178 103h-799q-95 0 -141 -39t-46 -119t46 -119t141 -39z" />
    <glyph glyph-name="dollar.ss08" horiz-adv-x="1645" 
d="M860 426q383 -4 488 -16q145 -17 190 -71q34 -42 32 -128q-1 -25 -2.5 -42t-9 -42.5t-20 -43.5t-36.5 -37.5t-57.5 -31.5t-84.5 -20t-115 -8h-336v-145h-160v145h-331q-135 0 -211 29t-104 82t-28 143h178q0 -47 15.5 -69.5t60.5 -33t139 -10.5h727q122 0 160 15t38 60
q0 19 -9 31t-37.5 21.5t-67 15t-113.5 10t-161 6t-224 3.5q-344 4 -456 20q-163 23 -208 94q-24 37 -24 93q0 59 14.5 98.5t50 69.5t100 44t161.5 14h320v136h160v-136h354q161 0 238 -66.5t76 -187.5h-179q1 60 -38.5 86t-146.5 26h-734q-123 0 -160.5 -14.5t-37.5 -57.5
q0 -49 117.5 -63.5t471.5 -18.5z" />
    <glyph glyph-name="ampersand.ss01" horiz-adv-x="1018" 
d="M996 431v-123h-107v-58q0 -138 -64 -203t-202 -65h-275q-138 0 -202 56t-64 175q0 97 34.5 147.5t114.5 67.5l-119 176v96h686v-142h-480l100 -155v-95h-43q-127 0 -127 -95q0 -86 117 -86h241q118 0 118 123v58h-137v123h409z" />
    <glyph glyph-name="ampersand.ss08" horiz-adv-x="1600" 
d="M605 435h975v-132h-107v-49q0 -138 -65 -205t-203 -67h-857q-138 0 -203 57t-65 175q0 97 35.5 150t111.5 70l-117 159v107h1272v-145h-1054l92 -149v-106h-45q-65 0 -95.5 -21t-30.5 -65q0 -84 116 -84h823q116 0 116 124v49h-699v132z" />
    </font>
</defs>
</svg>
